<?xml version="1.0" encoding="utf-8"?>
<!-- Generator: Adobe Illustrator 22.1.0, SVG Export Plug-In . SVG Version: 6.00 Build 0)  -->
<svg version="1.1" id="Layer_1" xmlns="http://www.w3.org/2000/svg" xmlns:xlink="http://www.w3.org/1999/xlink" x="0px" y="0px"
	 viewBox="0 0 613.2 595" style="enable-background:new 0 0 613.2 595;" xml:space="preserve">
<style type="text/css">
	.st0{opacity:0.9;fill:#A6A5C4;stroke:#090B1C;stroke-width:5;stroke-miterlimit:10;enable-background:new    ;}
	.st1{enable-background:new    ;}
	.st2{fill:#151011;}
</style>
<title>gameSummary_1</title>
<rect id="background" x="2.5" y="2.5" class="st0" width="608.2" height="590"/>
<g class="st1">
	<path class="st2" d="M221.5,36.1c0.1-0.1,0.4-0.1,0.7-0.1c0.1,0,0.2,0,0.2,0c0.1,0,0.1,0.1,0.2,0.3s0.1,0.4,0.1,0.7
		c0,0.3,0,0.7,0,1.2c0,1.1,0,2,0.1,2.7c0.1,0.7,0.1,1.3,0.1,1.8c0,0.2,0,0.4-0.1,0.5c-0.1,0.1-0.3,0.2-0.6,0.2c-0.1,0-0.2,0-0.2-0.1
		s-0.1-0.1-0.2-0.3c-0.1-0.1-0.1-0.3-0.2-0.6c-0.1-0.3-0.1-0.6-0.2-1c-0.1-0.4-0.3-0.6-0.8-0.6c-0.1,0-0.2,0-0.4,0
		c-0.2,0-0.4,0.1-0.6,0.1c-0.2,0-0.5,0.1-0.8,0.1s-0.5,0-0.8,0c-1.1,0-2.1-0.2-2.8-0.7c-0.7-0.4-1.3-1-1.8-1.6
		c-0.4-0.6-0.7-1.3-0.9-2c-0.2-0.7-0.3-1.3-0.3-1.8c0-1,0.2-2,0.5-3c0.3-1,0.8-1.9,1.5-2.7c0.7-0.8,1.5-1.4,2.6-1.9
		c1-0.5,2.3-0.7,3.7-0.7c0.9,0,1.7,0.1,2.2,0.3s0.8,0.5,0.8,1c0,0.1,0,0.2-0.1,0.4s-0.2,0.2-0.4,0.3c-0.1,0.1-0.3,0.2-0.4,0.2
		c-0.1,0.1-0.2,0.1-0.3,0.1c-0.1,0-0.2,0-0.4-0.2c-0.1-0.1-0.4-0.3-0.7-0.6c-0.2-0.2-0.3-0.2-0.5-0.3c-0.2,0-0.3-0.1-0.6-0.1
		c-0.8,0-1.6,0.2-2.3,0.7c-0.7,0.5-1.4,1.1-1.9,1.9c-0.5,0.8-1,1.6-1.3,2.5c-0.3,0.9-0.5,1.7-0.5,2.5c0,0.9,0.1,1.6,0.3,2.2
		c0.2,0.6,0.5,1,0.8,1.3s0.7,0.5,1.2,0.6c0.5,0.1,0.9,0.2,1.5,0.2c0.5,0,0.9-0.1,1.2-0.2s0.7-0.2,1-0.4s0.5-0.4,0.6-0.5
		c0.2-0.2,0.3-0.4,0.3-0.6l0.2-1.5C221.3,36.3,221.3,36.2,221.5,36.1z"/>
	<path class="st2" d="M228.3,37.5c-0.3,0.2-0.6,0.4-0.8,0.9l-1.2,2.2c-0.1,0.1-0.1,0.3-0.2,0.5c0,0.2-0.1,0.2-0.4,0.2
		c-0.5,0-0.8,0-1.1-0.2c-0.3-0.1-0.4-0.2-0.4-0.4c0-0.1,0.1-0.3,0.2-0.5c0.2-0.2,0.4-0.4,0.6-0.7c0.3-0.4,0.6-0.8,1-1.4
		c0.4-0.5,0.7-1.1,1.1-1.7c0.4-0.6,0.7-1.2,1.1-1.8s0.7-1.1,0.9-1.6s0.5-0.9,0.7-1.3c0.2-0.4,0.2-0.6,0.2-0.8c0-0.3-0.3-0.8-0.9-1.3
		l-2.1-2.1c-0.2-0.2-0.4-0.4-0.6-0.5c-0.2-0.1-0.2-0.2-0.2-0.4c0-0.1,0.1-0.1,0.2-0.2s0.3-0.2,0.4-0.3c0.2-0.1,0.3-0.2,0.5-0.2
		c0.2-0.1,0.3-0.1,0.4-0.1c0.2,0,0.4,0,0.6,0c0.1,0,0.2,0.1,0.3,0.1c0.1,0.1,0.2,0.1,0.2,0.3c0.1,0.1,0.1,0.3,0.2,0.5
		c0,0.1,0.1,0.3,0.3,0.5c0.2,0.2,0.4,0.5,0.5,0.7c1.3,1.6,2.5,3,3.5,4.1c1,1.1,1.9,2.1,2.7,2.9c0.8,0.8,1.6,1.6,2.3,2.3
		s1.6,1.4,2.4,2.2c0.2,0.1,0.3,0.2,0.5,0.3s0.3,0.1,0.4,0.1c0.1,0,0.2,0.1,0.3,0.1c0.1,0.1,0.1,0.2,0.1,0.3c0,0.1,0,0.2-0.1,0.3
		s-0.2,0.2-0.3,0.4s-0.3,0.2-0.4,0.3c-0.1,0.1-0.2,0.1-0.4,0.1h-0.8c-0.1,0-0.2-0.1-0.3-0.2s-0.1-0.2-0.2-0.3
		c-0.5-0.8-1.7-2-3.3-3.7h-6.6C229.1,37.3,228.6,37.3,228.3,37.5z M229.5,34.8c-0.2,0.4-0.4,0.6-0.4,0.8c-0.1,0.1-0.1,0.2-0.1,0.3
		c0,0.1,0,0.1,0.1,0.2c0,0,0.1,0.1,0.3,0.1c0.2,0,0.4,0,0.8,0c0.3,0,0.8,0,1.4,0c0.6,0,1.2,0,1.6,0c0.4,0,0.8,0,1,0s0.5,0,0.6-0.1
		c0.1,0,0.2-0.1,0.3-0.1l-3.9-4L229.5,34.8z"/>
	<path class="st2" d="M256.2,29.6c0.5-0.9,0.9-1.6,1.2-2c0.3-0.5,0.5-0.8,0.6-0.9c0.1-0.1,0.2-0.2,0.3-0.2c0.1,0,0.2,0,0.4,0.1
		c0.2,0,0.4,0.1,0.5,0.2c0.2,0.1,0.3,0.1,0.5,0.2s0.2,0.1,0.2,0.2c0,0.2,0,0.4,0,0.5s0,0.3,0,0.4c0,0.5,0.1,1.2,0.2,2
		c0.1,0.8,0.3,1.7,0.4,2.6c0.2,0.9,0.4,1.8,0.6,2.8c0.2,0.9,0.4,1.8,0.6,2.6c0.2,0.8,0.3,1.4,0.4,1.9c0.1,0.5,0.2,0.8,0.2,0.9
		c0,0.1-0.1,0.2-0.2,0.3c-0.1,0.1-0.3,0.2-0.5,0.2c-0.2,0.1-0.3,0.1-0.5,0.1s-0.2,0.1-0.3,0.1c-0.1,0-0.3,0-0.3-0.1
		c-0.1-0.1-0.1-0.2-0.1-0.5c-0.1-1.1-0.3-2.2-0.5-3.3c-0.2-1.1-0.4-2.1-0.6-3.2c-0.2-1-0.4-2-0.6-3c-0.2-0.9-0.3-1.8-0.4-2.7
		c-1.1,1.7-2,3-2.6,4.1s-1.1,1.9-1.5,2.5c-0.4,0.6-0.6,1.1-0.7,1.4c-0.1,0.3-0.2,0.6-0.2,0.8c0,0.3-0.1,0.5-0.2,0.6
		c-0.1,0.1-0.3,0.1-0.5,0.1s-0.4,0-0.5-0.2c-0.1-0.1-0.2-0.3-0.4-0.6c-0.1-0.2-0.2-0.4-0.4-0.8c-0.2-0.4-0.5-0.8-0.8-1.3
		c-0.3-0.5-0.6-1-1-1.5s-0.7-1.1-1.1-1.6c-0.4-0.5-0.7-1-1-1.4c-0.3-0.4-0.5-0.8-0.7-1c-0.1,0.2-0.1,0.6-0.2,1.2
		c-0.1,0.6-0.2,1.3-0.4,2c-0.1,0.8-0.3,1.6-0.5,2.4c-0.2,0.8-0.3,1.6-0.4,2.3s-0.2,1.3-0.3,1.9c-0.1,0.5-0.1,0.8-0.1,0.9
		c0,0.1,0,0.3,0,0.4c0,0.1,0,0.3,0,0.4c0,0.1,0,0.1-0.1,0.2c-0.1,0.1-0.2,0.1-0.4,0.1c-0.4,0-0.8,0-1.1-0.1
		c-0.3-0.1-0.5-0.3-0.5-0.5c0-0.1,0-0.3,0.1-0.6c0.1-0.2,0.2-0.6,0.4-1c0.1-0.3,0.2-0.7,0.4-1.3c0.1-0.6,0.3-1.2,0.5-2
		c0.2-0.7,0.3-1.5,0.5-2.3s0.3-1.6,0.5-2.3c0.1-0.7,0.3-1.4,0.4-2c0.1-0.6,0.1-1,0.1-1.2c0-0.3,0-0.5-0.1-0.6s-0.1-0.3-0.1-0.5
		c0-0.2,0.1-0.3,0.4-0.4s0.6-0.1,0.9-0.1c0.3,0,0.5,0,0.6,0.1c0.1,0.1,0.2,0.2,0.2,0.4c0,0.2,0.2,0.6,0.4,1s0.5,1,0.9,1.5
		c0.3,0.6,0.7,1.1,1.1,1.8s0.8,1.2,1.1,1.7c0.4,0.5,0.7,1,1,1.5c0.3,0.4,0.5,0.8,0.7,1l1.4-2.3C254.9,31.7,255.7,30.5,256.2,29.6z"
		/>
	<path class="st2" d="M272.4,33.6c0,0,0,0.1-0.1,0.2c-0.1,0.1-0.2,0.2-0.3,0.3c-0.1,0.1-0.3,0.2-0.4,0.3c-0.1,0.1-0.2,0.1-0.3,0.1
		c-0.8,0.1-1.4,0.1-2.1,0.1c-0.6,0-1.2,0-1.7,0c0,2,0.4,3.5,1.2,4.5c0.8,1,2,1.5,3.8,1.5c0.4,0,0.6,0,0.7,0.1s0.2,0.2,0.2,0.4
		c0,0.1-0.1,0.3-0.4,0.4c-0.2,0.1-0.7,0.2-1.3,0.2c-1,0-1.8-0.1-2.4-0.3c-0.7-0.2-1.2-0.5-1.7-0.8c-0.4-0.4-0.8-0.8-1.1-1.2
		c-0.3-0.5-0.5-0.9-0.6-1.5c-0.1-0.5-0.2-1-0.2-1.5c0-0.5,0-1,0-1.5c0-1.7,0.2-3.1,0.5-4.2c0.3-1.1,0.7-2,1.2-2.7
		c0.5-0.7,1.1-1.2,1.7-1.5s1.3-0.4,2-0.4c0.7,0,1.2,0.1,1.4,0.2s0.4,0.3,0.4,0.6c0,0.4-0.2,0.5-0.5,0.5h-1.5c-0.4,0-0.8,0.1-1.2,0.2
		c-0.4,0.2-0.7,0.5-1,0.9c-0.3,0.5-0.6,1.1-0.8,1.9c-0.2,0.8-0.4,1.8-0.4,3.1c0.1-0.1,0.3-0.2,0.5-0.3c0.2-0.1,0.4-0.1,0.6-0.1h3.4
		C272.3,33.3,272.4,33.4,272.4,33.6z"/>
	<path class="st2" d="M280.5,39.9c0.1-0.1,0.2-0.1,0.2-0.1c0.2,0,0.5,0.1,0.8,0.2c0.3,0.2,0.7,0.2,1.2,0.2c0.5,0,0.8-0.2,1.1-0.5
		c0.3-0.3,0.4-0.6,0.4-1c0-0.3-0.1-0.7-0.2-1.2c-0.2-0.5-0.4-0.9-0.6-1.4c-0.2-0.5-0.5-1-0.8-1.6c-0.3-0.5-0.5-1.1-0.8-1.6
		c-0.2-0.5-0.4-1-0.6-1.4c-0.2-0.5-0.2-0.8-0.2-1.2c0-0.3,0.1-0.7,0.3-1.2c0.2-0.5,0.5-1.1,0.9-1.6s0.8-1,1.3-1.4s1-0.6,1.5-0.6
		c0.1,0,0.3,0,0.5,0c0.2,0,0.4,0.1,0.7,0.1c0.2,0.1,0.4,0.1,0.6,0.2c0.2,0.1,0.2,0.2,0.2,0.3c0,0.3-0.1,0.5-0.2,0.6
		c-0.1,0.1-0.4,0.2-0.9,0.2c-1.1,0-1.9,0.3-2.4,0.8c-0.5,0.5-0.7,1.1-0.7,1.8c0,0.4,0.1,1,0.4,1.6c0.3,0.7,0.6,1.4,0.9,2.1
		c0.3,0.8,0.7,1.5,0.9,2.3c0.3,0.8,0.4,1.6,0.4,2.3c0,0.1,0,0.4-0.1,0.8c-0.1,0.4-0.2,0.8-0.5,1.3c-0.2,0.4-0.5,0.8-0.9,1.2
		c-0.4,0.3-0.9,0.5-1.5,0.5c-0.1,0-0.3,0-0.6-0.1c-0.2,0-0.5-0.1-0.7-0.2c-0.2-0.1-0.4-0.2-0.6-0.3c-0.2-0.1-0.3-0.2-0.3-0.3
		c-0.1-0.2-0.1-0.3-0.1-0.4c0-0.1-0.1-0.3-0.1-0.5C280.4,40.1,280.4,39.9,280.5,39.9z"/>
	<path class="st2" d="M289.6,26.6c0.1-0.2,0.2-0.2,0.5-0.2c0.1,0,0.3,0,0.5,0.2c0.2,0.1,0.5,0.2,0.7,0.4c0.2,0.1,0.4,0.3,0.6,0.5
		s0.3,0.3,0.3,0.4s0,0.3-0.1,0.4c-0.1,0.1-0.2,0.4-0.3,0.7c-0.1,0.3-0.2,0.8-0.3,1.4c-0.1,0.6-0.1,1.4-0.1,2.4c0,1.1,0,2,0.1,2.8
		c0.1,0.8,0.2,1.5,0.5,2.1c0.1,0.3,0.3,0.6,0.6,0.8s0.6,0.5,0.9,0.7s0.7,0.4,1.1,0.5c0.4,0.1,0.7,0.2,1,0.2c0.6,0,1.2-0.1,1.6-0.4
		c0.5-0.3,0.8-0.7,1.1-1.2c0.3-0.5,0.5-1,0.7-1.7c0.2-0.6,0.3-1.2,0.4-1.9c0.1-0.6,0.1-1.3,0.2-1.9c0-0.6,0-1.1,0-1.6
		c0-0.6,0-1.1,0-1.5c0-0.4-0.1-0.7-0.1-1c0-0.2-0.1-0.4-0.1-0.6c0-0.1,0-0.2,0-0.3c0-0.2,0.1-0.4,0.3-0.4c0.2-0.1,0.4-0.1,0.7-0.1
		c0.3,0,0.6,0.1,0.9,0.2c0.3,0.1,0.4,0.4,0.4,0.6c0,0.2,0,0.5-0.1,1c0,0.5-0.1,1-0.2,1.6s-0.2,1.3-0.3,1.9c-0.1,0.7-0.2,1.3-0.3,2
		s-0.2,1.2-0.3,1.7c-0.1,0.5-0.2,0.9-0.3,1.2c-0.4,1-1,1.8-1.7,2.3c-0.7,0.6-1.4,1-2.2,1.3c-0.2,0.1-0.4,0.1-0.5,0.1
		c-0.2,0-0.3,0-0.5,0c-0.3,0-0.7,0-1.2-0.1c-0.4-0.1-0.9-0.2-1.3-0.4s-0.8-0.4-1.2-0.7c-0.4-0.3-0.6-0.6-0.8-1
		c-0.2-0.4-0.4-1-0.5-1.7c-0.1-0.8-0.3-1.6-0.3-2.7c-0.1-1-0.2-2.1-0.2-3.3c0-1.2-0.1-2.4-0.1-3.7C289.4,27,289.5,26.7,289.6,26.6z"
		/>
	<path class="st2" d="M317.8,29.6c0.5-0.9,0.9-1.6,1.2-2c0.3-0.5,0.5-0.8,0.6-0.9c0.1-0.1,0.2-0.2,0.3-0.2c0.1,0,0.2,0,0.4,0.1
		c0.2,0,0.3,0.1,0.5,0.2s0.3,0.1,0.5,0.2s0.2,0.1,0.2,0.2c0,0.2,0,0.4,0,0.5c0,0.2,0,0.3,0,0.4c0,0.5,0.1,1.2,0.2,2
		c0.1,0.8,0.3,1.7,0.4,2.6c0.2,0.9,0.4,1.8,0.6,2.8c0.2,0.9,0.4,1.8,0.6,2.6c0.2,0.8,0.3,1.4,0.4,1.9c0.1,0.5,0.2,0.8,0.2,0.9
		c0,0.1-0.1,0.2-0.2,0.3c-0.1,0.1-0.3,0.2-0.5,0.2c-0.2,0.1-0.3,0.1-0.5,0.1c-0.2,0-0.2,0.1-0.3,0.1c-0.1,0-0.3,0-0.3-0.1
		c-0.1-0.1-0.1-0.2-0.1-0.5c-0.1-1.1-0.3-2.2-0.5-3.3c-0.2-1.1-0.4-2.1-0.6-3.2c-0.2-1-0.4-2-0.6-3c-0.2-0.9-0.3-1.8-0.5-2.7
		c-1.1,1.7-2,3-2.6,4.1c-0.6,1-1.1,1.9-1.5,2.5c-0.3,0.6-0.6,1.1-0.7,1.4c-0.1,0.3-0.2,0.6-0.2,0.8c0,0.3-0.1,0.5-0.2,0.6
		c-0.1,0.1-0.3,0.1-0.5,0.1s-0.4,0-0.5-0.2c-0.1-0.1-0.2-0.3-0.3-0.6c-0.1-0.2-0.2-0.4-0.4-0.8s-0.5-0.8-0.8-1.3s-0.6-1-1-1.5
		s-0.7-1.1-1.1-1.6c-0.3-0.5-0.7-1-1-1.4c-0.3-0.4-0.5-0.8-0.7-1c0,0.2-0.1,0.6-0.2,1.2c-0.1,0.6-0.2,1.3-0.4,2
		c-0.1,0.8-0.3,1.6-0.5,2.4c-0.2,0.8-0.3,1.6-0.4,2.3c-0.1,0.7-0.2,1.3-0.3,1.9c-0.1,0.5-0.1,0.8-0.1,0.9c0,0.1,0,0.3,0,0.4
		c0,0.1,0,0.3,0,0.4c0,0.1,0,0.1-0.1,0.2c-0.1,0.1-0.2,0.1-0.4,0.1c-0.4,0-0.8,0-1.1-0.1s-0.5-0.3-0.5-0.5c0-0.1,0-0.3,0.1-0.6
		c0.1-0.2,0.2-0.6,0.3-1c0.1-0.3,0.2-0.7,0.4-1.3c0.1-0.6,0.3-1.2,0.5-2c0.2-0.7,0.3-1.5,0.5-2.3s0.3-1.6,0.5-2.3s0.3-1.4,0.4-2
		c0.1-0.6,0.1-1,0.1-1.2c0-0.3,0-0.5-0.1-0.6c-0.1-0.1-0.1-0.3-0.1-0.5c0-0.2,0.1-0.3,0.4-0.4s0.6-0.1,0.9-0.1c0.3,0,0.5,0,0.6,0.1
		c0.1,0.1,0.2,0.2,0.2,0.4c0,0.2,0.2,0.6,0.4,1s0.5,1,0.8,1.5c0.3,0.6,0.7,1.1,1.1,1.8s0.8,1.2,1.1,1.7c0.4,0.5,0.7,1,1,1.5
		s0.5,0.8,0.7,1l1.4-2.3C316.5,31.7,317.3,30.5,317.8,29.6z"/>
	<path class="st2" d="M340.1,29.6c0.5-0.9,0.9-1.6,1.2-2c0.3-0.5,0.5-0.8,0.6-0.9c0.1-0.1,0.2-0.2,0.3-0.2c0.1,0,0.2,0,0.4,0.1
		c0.2,0,0.3,0.1,0.5,0.2s0.3,0.1,0.5,0.2s0.2,0.1,0.2,0.2c0,0.2,0,0.4,0,0.5c0,0.2,0,0.3,0,0.4c0,0.5,0.1,1.2,0.2,2
		c0.1,0.8,0.3,1.7,0.4,2.6c0.2,0.9,0.4,1.8,0.6,2.8c0.2,0.9,0.4,1.8,0.6,2.6c0.2,0.8,0.3,1.4,0.4,1.9c0.1,0.5,0.2,0.8,0.2,0.9
		c0,0.1-0.1,0.2-0.2,0.3c-0.1,0.1-0.3,0.2-0.5,0.2c-0.2,0.1-0.3,0.1-0.5,0.1c-0.2,0-0.2,0.1-0.3,0.1c-0.1,0-0.3,0-0.3-0.1
		c-0.1-0.1-0.1-0.2-0.1-0.5c-0.1-1.1-0.3-2.2-0.5-3.3c-0.2-1.1-0.4-2.1-0.6-3.2c-0.2-1-0.4-2-0.6-3c-0.2-0.9-0.3-1.8-0.5-2.7
		c-1.1,1.7-2,3-2.6,4.1c-0.6,1-1.1,1.9-1.5,2.5c-0.3,0.6-0.6,1.1-0.7,1.4c-0.1,0.3-0.2,0.6-0.2,0.8c0,0.3-0.1,0.5-0.2,0.6
		c-0.1,0.1-0.3,0.1-0.5,0.1s-0.4,0-0.5-0.2c-0.1-0.1-0.2-0.3-0.3-0.6c-0.1-0.2-0.2-0.4-0.4-0.8s-0.5-0.8-0.8-1.3s-0.6-1-1-1.5
		s-0.7-1.1-1.1-1.6c-0.3-0.5-0.7-1-1-1.4c-0.3-0.4-0.5-0.8-0.7-1c0,0.2-0.1,0.6-0.2,1.2c-0.1,0.6-0.2,1.3-0.4,2
		c-0.1,0.8-0.3,1.6-0.5,2.4c-0.2,0.8-0.3,1.6-0.4,2.3c-0.1,0.7-0.2,1.3-0.3,1.9c-0.1,0.5-0.1,0.8-0.1,0.9c0,0.1,0,0.3,0,0.4
		c0,0.1,0,0.3,0,0.4c0,0.1,0,0.1-0.1,0.2c-0.1,0.1-0.2,0.1-0.4,0.1c-0.4,0-0.8,0-1.1-0.1s-0.5-0.3-0.5-0.5c0-0.1,0-0.3,0.1-0.6
		c0.1-0.2,0.2-0.6,0.3-1c0.1-0.3,0.2-0.7,0.4-1.3c0.1-0.6,0.3-1.2,0.5-2c0.2-0.7,0.3-1.5,0.5-2.3s0.3-1.6,0.5-2.3s0.3-1.4,0.4-2
		c0.1-0.6,0.1-1,0.1-1.2c0-0.3,0-0.5-0.1-0.6c-0.1-0.1-0.1-0.3-0.1-0.5c0-0.2,0.1-0.3,0.4-0.4s0.6-0.1,0.9-0.1c0.3,0,0.5,0,0.6,0.1
		c0.1,0.1,0.2,0.2,0.2,0.4c0,0.2,0.2,0.6,0.4,1s0.5,1,0.8,1.5c0.3,0.6,0.7,1.1,1.1,1.8s0.8,1.2,1.1,1.7c0.4,0.5,0.7,1,1,1.5
		s0.5,0.8,0.7,1l1.4-2.3C338.9,31.7,339.6,30.5,340.1,29.6z"/>
	<path class="st2" d="M351.3,37.5c-0.3,0.2-0.6,0.4-0.8,0.9l-1.2,2.2c-0.1,0.1-0.1,0.3-0.2,0.5c0,0.2-0.1,0.2-0.4,0.2
		c-0.5,0-0.8,0-1.1-0.2c-0.3-0.1-0.4-0.2-0.4-0.4c0-0.1,0.1-0.3,0.2-0.5c0.2-0.2,0.4-0.4,0.6-0.7c0.3-0.4,0.6-0.8,1-1.4
		c0.4-0.5,0.7-1.1,1.1-1.7c0.4-0.6,0.7-1.2,1.1-1.8s0.7-1.1,0.9-1.6s0.5-0.9,0.7-1.3c0.2-0.4,0.2-0.6,0.2-0.8c0-0.3-0.3-0.8-0.9-1.3
		l-2-2.1c-0.2-0.2-0.4-0.4-0.6-0.5c-0.2-0.1-0.2-0.2-0.2-0.4c0-0.1,0.1-0.1,0.2-0.2s0.3-0.2,0.4-0.3c0.2-0.1,0.3-0.2,0.5-0.2
		c0.2-0.1,0.3-0.1,0.4-0.1c0.2,0,0.4,0,0.5,0c0.1,0,0.2,0.1,0.3,0.1s0.2,0.1,0.2,0.3c0.1,0.1,0.1,0.3,0.2,0.5c0,0.1,0.1,0.3,0.3,0.5
		c0.2,0.2,0.4,0.5,0.5,0.7c1.3,1.6,2.5,3,3.5,4.1c1,1.1,1.9,2.1,2.7,2.9c0.8,0.8,1.6,1.6,2.3,2.3c0.7,0.7,1.6,1.4,2.4,2.2
		c0.2,0.1,0.3,0.2,0.5,0.3s0.3,0.1,0.4,0.1s0.2,0.1,0.3,0.1c0.1,0.1,0.1,0.2,0.1,0.3c0,0.1,0,0.2-0.1,0.3s-0.2,0.2-0.3,0.4
		c-0.1,0.1-0.3,0.2-0.4,0.3c-0.1,0.1-0.2,0.1-0.3,0.1h-0.8c-0.1,0-0.2-0.1-0.3-0.2s-0.1-0.2-0.2-0.3c-0.5-0.8-1.7-2-3.3-3.7h-6.6
		C352.1,37.3,351.7,37.3,351.3,37.5z M352.6,34.8c-0.2,0.4-0.4,0.6-0.4,0.8c-0.1,0.1-0.1,0.2-0.1,0.3c0,0.1,0,0.1,0.1,0.2
		c0,0,0.1,0.1,0.3,0.1c0.2,0,0.4,0,0.8,0c0.3,0,0.8,0,1.4,0c0.7,0,1.2,0,1.6,0c0.4,0,0.8,0,1,0s0.5,0,0.6-0.1c0.1,0,0.2-0.1,0.3-0.1
		l-3.9-4L352.6,34.8z"/>
</g>
<g class="st1">
	<path class="st2" d="M369.5,25.9c0.2,0,0.4,0,0.6,0c0.6,0,1.2,0.1,1.8,0.3c0.5,0.2,1,0.4,1.4,0.7c0.4,0.3,0.7,0.6,1,1
		s0.3,0.8,0.3,1.1c0,0.6-0.1,1.1-0.3,1.5s-0.5,0.8-0.8,1.1s-0.6,0.5-1,0.7c-0.3,0.2-0.7,0.3-1,0.4c-0.4,0.1-0.6,0.2-0.7,0.3
		c-0.1,0-0.1,0.1-0.1,0.1s0.1,0.1,0.2,0.2s0.4,0.2,0.9,0.5s1,0.6,1.6,1c0.6,0.4,1.3,0.8,2,1.3c0.5,0.3,1.1,0.7,1.6,1
		c0.5,0.3,1.1,0.7,1.5,1c0.5,0.3,0.9,0.6,1.4,0.8s0.8,0.5,1,0.6c0.7,0.4,1.4,0.6,2,0.6c0.1,0,0.1,0,0.2,0.1c0.1,0.1,0.1,0.2,0.1,0.3
		c0,0.1-0.1,0.2-0.2,0.4s-0.3,0.3-0.5,0.5c-0.2,0.2-0.4,0.3-0.6,0.4s-0.3,0.2-0.4,0.2c-0.2,0-0.6-0.2-1.1-0.5
		c-0.6-0.4-1.2-0.8-2-1.4c-0.8-0.6-1.6-1.2-2.5-1.8c-0.9-0.7-1.8-1.3-2.7-1.9c-0.9-0.6-1.7-1.1-2.5-1.5c-0.8-0.4-1.4-0.7-1.9-0.8
		c0,0.3-0.1,0.7-0.1,1.1c0,0.4,0,0.8,0,1.2v0.7c0,0.7,0,1.2,0,1.7c0,0.4,0,0.8,0.1,1.1c0,0.3,0,0.5,0.1,0.7c0,0.2,0,0.3,0,0.4
		c0,0.2,0,0.3-0.1,0.4c-0.1,0.1-0.3,0.1-0.5,0.1c-0.1,0-0.3,0-0.5-0.1s-0.4-0.1-0.6-0.1c-0.2-0.1-0.4-0.1-0.5-0.2
		c-0.1-0.1-0.2-0.2-0.2-0.3c0-0.1,0-0.2,0.1-0.2s0.1-0.2,0.2-0.3c0.1-0.1,0.1-0.3,0.2-0.5s0.1-0.5,0.1-0.8c0-0.1,0-0.5,0-1
		c0-0.5,0-1.1,0.1-1.8c0-0.7,0-1.4,0.1-2.2c0-0.8,0-1.5,0-2.1c0-0.3,0-0.6,0-1.1c0-0.4,0-0.9-0.1-1.3c0-0.4-0.1-0.8-0.1-1.1
		c0-0.3-0.1-0.5-0.2-0.6c-0.4-0.2-0.5-0.4-0.5-0.8c0-0.2,0.2-0.4,0.5-0.4l2.2-0.6C369.2,25.9,369.4,25.9,369.5,25.9z M368.9,32.5
		c0.1,0,0.1,0.1,0.2,0.1c0.1,0,0.2,0,0.4-0.1c0.2-0.1,0.5-0.2,0.9-0.4c0.2-0.1,0.3-0.1,0.5-0.2c0.2-0.1,0.4-0.2,0.5-0.3
		c0.2-0.1,0.3-0.3,0.5-0.5c0.1-0.2,0.3-0.4,0.4-0.6c0.2-0.5,0.3-1.1,0.3-1.7c0-0.2,0-0.4-0.1-0.6c-0.1-0.1-0.2-0.3-0.3-0.4
		c0,0-0.1-0.1-0.2-0.2c-0.1-0.1-0.2-0.1-0.4-0.2s-0.3-0.1-0.4-0.1c-0.1,0-0.2,0-0.3,0s-0.2,0-0.4,0c-0.2,0-0.4,0.1-0.6,0.1
		c-0.2,0-0.4,0.1-0.5,0.2c-0.1,0.1-0.2,0.1-0.2,0.2c-0.1,0.4-0.1,0.8-0.2,1.2c0,0.4-0.1,0.9-0.1,1.3c0,0.4-0.1,0.8-0.1,1.2
		c0,0.4,0,0.6,0,0.8C368.8,32.4,368.8,32.5,368.9,32.5z"/>
</g>
<g class="st1">
	<path class="st2" d="M383.4,43.2c-0.2-0.1-0.4-0.2-0.6-0.4s-0.4-0.3-0.5-0.4c-0.1-0.1-0.2-0.2-0.2-0.3c0-0.1,0-0.2,0.1-0.3
		c0.1-0.1,0.2-0.1,0.5-0.2c0.2,0,0.5-0.2,0.7-0.5c0.3-0.3,0.5-0.6,0.7-1c0.2-0.4,0.4-0.8,0.5-1.3c0.2-0.5,0.2-1,0.2-1.5
		c0-0.2,0-0.4-0.1-0.6s-0.2-0.5-0.4-0.9s-0.5-0.9-1-1.5c-0.4-0.6-1-1.4-1.7-2.4c-0.5-0.7-0.9-1.2-1.3-1.7c-0.4-0.5-0.7-0.8-0.9-1.1
		s-0.4-0.6-0.6-0.8c-0.1-0.2-0.2-0.4-0.2-0.5c0-0.1,0.1-0.3,0.2-0.4c0.2-0.2,0.3-0.3,0.5-0.5s0.4-0.3,0.6-0.4
		c0.2-0.1,0.4-0.2,0.5-0.2c0.1,0,0.2,0,0.2,0.1s0.1,0.2,0.1,0.3c0,0.1,0,0.3,0.1,0.5s0.1,0.4,0.1,0.5c0.2,0.5,0.5,1.1,1,1.8
		c0.5,0.7,0.9,1.4,1.5,2.2s1,1.5,1.5,2.2c0.5,0.7,0.8,1.3,1,1.8c0.4-0.8,0.8-1.6,1.3-2.4c0.5-0.8,0.9-1.6,1.2-2.3
		c0.4-0.7,0.7-1.4,1-2s0.4-1.1,0.4-1.4c0-0.3,0-0.5,0.1-0.6c0.1-0.1,0.2-0.1,0.4-0.1c0.1,0,0.3,0,0.5,0.1c0.2,0.1,0.4,0.1,0.6,0.2
		c0.2,0.1,0.4,0.2,0.5,0.3c0.1,0.1,0.2,0.2,0.2,0.4c0,0.1,0,0.1-0.1,0.2c0,0.1-0.1,0.2-0.2,0.3c-0.1,0.1-0.2,0.2-0.3,0.4
		s-0.3,0.4-0.5,0.7l-4.3,7.6c-0.1,0.2-0.2,0.4-0.4,0.8s-0.3,0.8-0.5,1.3c-0.2,0.5-0.4,1-0.6,1.5c-0.2,0.5-0.4,1-0.6,1.4
		s-0.4,0.7-0.5,1c-0.2,0.3-0.3,0.4-0.5,0.4C383.8,43.3,383.6,43.3,383.4,43.2z"/>
	<path class="st2" d="M392.7,39.6c0.2-0.2,0.3-0.3,0.5-0.5c0.2-0.2,0.4-0.3,0.6-0.4c0.2-0.1,0.3-0.2,0.4-0.2c0.1,0,0.2,0,0.2,0.1
		c0.1,0.1,0.2,0.2,0.3,0.4c0.3,0.4,0.5,0.6,0.5,0.8c0.1,0.1,0.1,0.2,0.1,0.3c0,0.1,0,0.2-0.1,0.4c-0.1,0.2-0.2,0.3-0.3,0.4
		c-0.1,0.1-0.3,0.2-0.4,0.3c-0.2,0.1-0.3,0.1-0.4,0.1c-0.1,0-0.3,0-0.5-0.2c-0.2-0.1-0.5-0.3-0.9-0.6c-0.1,0-0.1-0.1-0.2-0.2
		c0-0.1,0-0.2,0-0.2C392.5,39.9,392.5,39.8,392.7,39.6z M393.1,32.8l0.9-0.5c0.2-0.1,0.4-0.1,0.5-0.1c0.1,0,0.2,0,0.4,0.1
		c0.1,0.1,0.3,0.2,0.4,0.3c0.1,0.1,0.2,0.2,0.3,0.4c0.1,0.1,0.1,0.2,0.1,0.3c0,0.1-0.1,0.3-0.2,0.5s-0.3,0.4-0.5,0.6
		s-0.4,0.3-0.6,0.5c-0.2,0.1-0.4,0.2-0.5,0.2c-0.1,0-0.1-0.1-0.3-0.2s-0.3-0.3-0.4-0.5c-0.1-0.2-0.3-0.3-0.4-0.5
		c-0.1-0.2-0.2-0.3-0.2-0.3C392.8,33.2,392.9,33,393.1,32.8z"/>
</g>
</svg>
