<svg xmlns="http://www.w3.org/2000/svg" viewBox="0 0 640 125.68"><defs><style>.cls-1{opacity:0.25;}.cls-2{fill:#7d6363;}.cls-3{fill:#fff200;}.cls-4{fill:#bcbcbc;}</style></defs><title>arsenal</title><g id="Layer_2" data-name="Layer 2"><g id="Player_Arsenal" data-name="Player Arsenal"><g id="Layer_38" data-name="Layer 38"><g class="cls-1"><path class="cls-2" d="M630,25H373.29v.66H266V25H10A10,10,0,0,0,0,35v90.66H640V35A10,10,0,0,0,630,25Z"/><path class="cls-3" d="M630,25H618v.5h12V25Zm-13,0H605v.5h12V25Zm-13,0H592v.5h12V25Zm-13,0H579v.5h12V25Zm-13,0H566v.5h12V25Zm-13,0H553v.5h12V25Zm-13,0H540v.5h12V25Zm-13,0H527v.5h12V25Zm-13,0H514v.5h12V25Zm-13,0H501v.5h12V25Zm-13,0H488v.5h12V25Zm-13,0H475v.5h12V25Zm-13,0H462v.5h12V25Zm-13,0H449v.5h12V25Zm-13,0H436v.5h12V25Zm-13,0H423v.5h12V25Zm-13,0H410v.5h12V25Zm-13,0H397v.5h12V25Zm-13,0H384v.5h12V25Zm-13,0h-9.71v.5h0v.16h-1.63v.5h2.13v-.66H383V25Zm-12.34.66h-12v.5h12v-.5Zm-13,0h-12v.5h12v-.5Zm-13,0h-12v.5h12v-.5Zm-13,0h-12v.5h12v-.5Zm-13,0h-12v.5h12v-.5Zm-13,0h-12v.5h12v-.5Zm-13,0h-12v.5h12v-.5Zm-13,0h-12v.5h12v-.5ZM266,25H255.32v.5h10.17v.66h1.17v-.5H266V25Zm-11.67,0h-12v.5h12V25Zm-13,0h-12v.5h12V25Zm-13,0h-12v.5h12V25Zm-13,0h-12v.5h12V25Zm-13,0h-12v.5h12V25Zm-13,0h-12v.5h12V25Zm-13,0h-12v.5h12V25Zm-13,0h-12v.5h12V25Zm-13,0h-12v.5h12V25Zm-13,0h-12v.5h12V25Zm-13,0h-12v.5h12V25Zm-13,0h-12v.5h12V25Zm-13,0h-12v.5h12V25Zm-13,0h-12v.5h12V25Zm-13,0h-12v.5h12V25Zm-13,0h-12v.5h12V25Zm-13,0h-12v.5h12V25Zm-13,0h-12v.5h12V25Zm-13,0H9.52c-.31,0-.61,0-.91.09H8.33l.08.5A9.4,9.4,0,0,1,10,25.52H20.32V25Zm-13,.36a9.23,9.23,0,0,0-1,.35h0l0,0h0l0,0H6.06l0,0H6l0,0H5.21l0,0h0l0,0h0l-.08,0h0l0,0H5l0,0H5l-.07.05h0A9.76,9.76,0,0,0,2.6,28.3h0l-.17.19h0l0,0h0l0,0h0l0,0h0l0,0h0l0,0h0v0h0l0,0h0l0,0h0l0,0h0l0,0h0v0h0v0h0v0h0v0h0l0,0H2v0h0v0h0v0H1.77v0h0v0h0v0h0v0H1.63v0h0v0h0v0h0v0h0v0h0v0h0v0h0v0h0v0h0v0h0v0h0v0h0l0,0h0v0h0v0h0v0h0v0h0l0,0h0l0,0h0l0,0h0v0h0v0h0v0h0l0,0h0l0,0h0l0,0h0A9.9,9.9,0,0,0,.05,34l.5.06a9.55,9.55,0,0,1,6.93-8.19l-.13-.48ZM0,35l.5,0H0V47H.5V35h0L0,35H0ZM.5,48H0V60H.5V48Zm0,13H0V73H.5V61Zm0,13H0V86H.5V74Zm0,13H0V99H.5V87Zm0,13H0v12H.5V100Zm0,13H0v12H.5V113Zm11.81,12.19H.31v.5h12v-.5Zm13,0h-12v.5h12v-.5Zm13,0h-12v.5h12v-.5Zm13,0h-12v.5h12v-.5Zm13,0h-12v.5h12v-.5Zm13,0h-12v.5h12v-.5Zm13,0h-12v.5h12v-.5Zm13,0h-12v.5h12v-.5Zm13,0h-12v.5h12v-.5Zm13,0h-12v.5h12v-.5Zm13,0h-12v.5h12v-.5Zm13,0h-12v.5h12v-.5Zm13,0h-12v.5h12v-.5Zm13,0h-12v.5h12v-.5Zm13,0h-12v.5h12v-.5Zm13,0h-12v.5h12v-.5Zm13,0h-12v.5h12v-.5Zm13,0h-12v.5h12v-.5Zm13,0h-12v.5h12v-.5Zm13,0h-12v.5h12v-.5Zm13,0h-12v.5h12v-.5Zm13,0h-12v.5h12v-.5Zm13,0h-12v.5h12v-.5Zm13,0h-12v.5h12v-.5Zm13,0h-12v.5h12v-.5Zm13,0h-12v.5h12v-.5Zm13,0h-12v.5h12v-.5Zm13,0h-12v.5h12v-.5Zm13,0h-12v.5h12v-.5Zm13,0h-12v.5h12v-.5Zm13,0h-12v.5h12v-.5Zm13,0h-12v.5h12v-.5Zm13,0h-12v.5h12v-.5Zm13,0h-12v.5h12v-.5Zm13,0h-12v.5h12v-.5Zm13,0h-12v.5h12v-.5Zm13,0h-12v.5h12v-.5Zm13,0h-12v.5h12v-.5Zm13,0h-12v.5h12v-.5Zm13,0h-12v.5h12v-.5Zm13,0h-12v.5h12v-.5Zm13,0h-12v.5h12v-.5Zm13,0h-12v.5h12v-.5Zm13,0h-12v.5h12v-.5Zm13,0h-12v.5h12v-.5Zm13,0h-12v.5h12v-.5Zm13,0h-12v.5h12v-.5Zm13,0h-12v.5h12v-.5Zm13,0h-12v.5h12v-.5Zm3.69-8.81h-.5v8.81h-2.19v.5H640v-9.31Zm0-13h-.5v12h.5v-12Zm0-13h-.5v12h.5v-12Zm0-13h-.5v12h.5v-12Zm0-13h-.5v12h.5v-12Zm0-13h-.5v12h.5v-12Zm0-13h-.5v12h.5v-12ZM635.7,26.8l-.29.41A9.52,9.52,0,0,1,639.5,35v2.35h.5V35h0v0h0v0h0v0h0v0h0v0h0v0h0v0h0v0h0v0h0v0h0v0h0v0h0v0h0v0h0v0h0v0h0v0h0v0h0v0h0V34h0v0h0V33.9h0v0h0v0h0v0h0v-.05h0v0h0v-.06h0v0h0v0h0v0h0v0h0v-.07h0v0h0V33.4h0v0h0l0-.07h0c0-.05,0-.1,0-.16h0a10,10,0,0,0-4.13-6.35ZM630,25v.5a9.47,9.47,0,0,1,4.6,1.19l.25-.44c-.36-.19-.73-.37-1.12-.53h0l-.07,0h0l0,0h0l0,0h0l0,0h-1l-.06,0h-.15l-.06,0H630Z"/></g><g class="cls-1"><path class="cls-2" d="M373.29,10a10,10,0,0,0-10-10H276a10,10,0,0,0-10,10V25h107.3Z"/><path class="cls-3" d="M363.29,0h-12V.5h12V0Zm-13,0h-12V.5h12V0Zm-13,0h-12V.5h12V0Zm-13,0h-12V.5h12V0Zm-13,0h-12V.5h12V0Zm-13,0h-12V.5h12V0Zm-13,0H273.9l-.58.14.14.48A9.77,9.77,0,0,1,276,.5h9.3V0ZM272.37.67a10,10,0,0,0-6.14,7.15h0v0h0v0h0v0h0V8h0V8h-.06v0h0v0h0v0h0v0h0v0h0A9.42,9.42,0,0,0,266,10h.5a9.45,9.45,0,0,1,6.06-8.85l-.18-.47ZM266.49,11H266V23h.5V11Zm0,13H266v1h11v-.5H266.49V24Zm23.47.53H278V25h12v-.5Zm13,0H291V25h12v-.5Zm13,0H304V25h12v-.5Zm13,0H317V25h12v-.5Zm13,0H330V25h12v-.5Zm13,0H343V25h12v-.5Zm13,0H356V25h12v-.5Zm5.33-7.17h-.5v7.17H369V25h4.33V17.35Zm-1.55-12.7-.42.27A9.46,9.46,0,0,1,372.79,10v6.35h.5V10h0v0h0v0h0v0h0v0h0v0h0v0h0V9h0V9h0v0h0v0h0v0h0v0h0v0h0v0h0v0h0v0h0v0h0v0h0v0h0v0h0v0h0v0h0v0h0v0h0v0h0v0h0v0h0v0h0V8.19h0v0h0V8.11h0c0-.08,0-.15,0-.23h0l0-.07h0a5.47,5.47,0,0,0-.15-.58h0v0h0l-.11-.35h0v0h0v0h0l0-.07h0v0h0v0h0v0h0v0h0V6.59h0v0h0v0h0v0h0v0h0v0h0v0h0v0h0v0h0v0h0v0h0v0h0v0h0v0h0v0h-.25v0h0v0h0v0h0v0h0v0h0v0h0v0h0v0h0l0,0h0c-.11-.21-.23-.42-.36-.62ZM363.29,0V.5a9.47,9.47,0,0,1,7.48,3.64l.39-.31A10.1,10.1,0,0,0,366.71.6h0l0,0h-.22l0,0h-3.11Z"/></g><path class="cls-4" d="M284.83,14.58a2,2,0,0,0-.55.08.75.75,0,0,0-.32.23,1.63,1.63,0,0,0-.22.44,6.76,6.76,0,0,1-.37.87l-.5,1c-.17.33-.32.64-.46.92a2.78,2.78,0,0,0-.25.64,1.37,1.37,0,0,1-.18.54.43.43,0,0,1-.28.15l-.56.06-.64.06-.55,0h-.29a.19.19,0,0,1-.18-.13.61.61,0,0,1-.06-.25,1.07,1.07,0,0,1,.06-.45.36.36,0,0,1,.23-.15,2.56,2.56,0,0,0,.73-.35,1.82,1.82,0,0,0,.62-.9,5.79,5.79,0,0,1,.42-.85c.24-.46.54-1,.89-1.66s.74-1.35,1.15-2.11.78-1.51,1.12-2.23a20.81,20.81,0,0,0,.85-2A4.61,4.61,0,0,0,285.83,7a.64.64,0,0,0-.05-.2l-.11-.3c0-.12-.07-.22-.1-.3a.52.52,0,0,1-.05-.21.38.38,0,0,1,.15-.26,2.34,2.34,0,0,1,.38-.28,1.9,1.9,0,0,1,.43-.21.91.91,0,0,1,.33-.09q.15,0,.45.3a2.57,2.57,0,0,1,.49.71c.54,1.15,1.12,2.38,1.73,3.7s1.37,2.76,2.28,4.36c.57,1,1.06,1.81,1.45,2.4s.71,1.05,1,1.36l.51.64c.11.11.16.19.16.24a.33.33,0,0,1-.18.34.81.81,0,0,1-.37.09l-.41,0a5.52,5.52,0,0,1-.55-.07l-.54-.09-.37-.1a.53.53,0,0,1-.36-.3,2.56,2.56,0,0,1-.24-.56c-.05-.15-.15-.39-.3-.74s-.32-.69-.49-1-.35-.67-.51-1a1.31,1.31,0,0,0-.36-.47,3.11,3.11,0,0,0-.82-.2c-.38-.06-.8-.1-1.24-.13l-1.32-.06h-1.94Zm2.8-4.84a4.61,4.61,0,0,1-.37-.85c-.06-.2-.14-.3-.25-.3s-.1,0-.14.11a1.78,1.78,0,0,0-.12.27c0,.12-.07.23-.1.34s-.08.22-.12.31l-1.25,2.55c-.18.36-.31.62-.38.78a.73.73,0,0,0-.13.34c0,.12.14.17.41.17h4.35Z"/><path class="cls-4" d="M299.43,8.55a2.64,2.64,0,0,1,.45,0,4,4,0,0,1,1.27.2,3.76,3.76,0,0,1,1,.52,2.74,2.74,0,0,1,.68.73,1.55,1.55,0,0,1,.26.82,2.68,2.68,0,0,1-.22,1.11,2.56,2.56,0,0,1-.55.76,3.05,3.05,0,0,1-.71.5c-.25.12-.49.22-.7.3l-.53.18c-.06,0-.09.07-.09.1s.05.08.15.13.3.17.63.38l1.15.74c.44.28.92.6,1.44.95l1.16.75,1.12.71c.35.23.68.43,1,.61l.74.45a2.93,2.93,0,0,0,1.47.41.19.19,0,0,1,.14.08.27.27,0,0,1,.06.19.53.53,0,0,1-.15.27,3.05,3.05,0,0,1-.36.36,3.9,3.9,0,0,1-.42.32.62.62,0,0,1-.31.13,2.19,2.19,0,0,1-.81-.39l-1.45-1L304,17.52c-.65-.48-1.3-.93-1.93-1.35s-1.24-.78-1.79-1.09a4.82,4.82,0,0,0-1.38-.58c0,.24,0,.51-.06.8s0,.59,0,.87v.49c0,.49,0,.89,0,1.21s0,.56.06.76,0,.36.05.48a2,2,0,0,1,0,.32.29.29,0,0,1-.1.25.6.6,0,0,1-.35.08,1.74,1.74,0,0,1-.34-.05l-.43-.11a1.25,1.25,0,0,1-.35-.16c-.09-.07-.14-.13-.14-.21a.39.39,0,0,1,0-.18c0-.06.07-.14.11-.24a2.94,2.94,0,0,0,.13-.39,2.69,2.69,0,0,0,.08-.57c0-.1,0-.33,0-.69s0-.8,0-1.29,0-1,0-1.56,0-1.05,0-1.5V12c0-.31,0-.62,0-.92s0-.58-.07-.81-.07-.37-.12-.41a.62.62,0,0,1-.38-.54c0-.15.12-.26.36-.32l1.57-.42ZM299,13.31a.25.25,0,0,0,.14,0,.87.87,0,0,0,.29-.09l.66-.31.35-.16a2,2,0,0,0,.39-.23,1.8,1.8,0,0,0,.36-.32,1.6,1.6,0,0,0,.27-.46,3.82,3.82,0,0,0,.2-1.2,1,1,0,0,0-.08-.42,2.2,2.2,0,0,0-.19-.3.58.58,0,0,0-.16-.13l-.28-.14-.29-.09a.68.68,0,0,0-.21,0l-.27,0a2,2,0,0,0-.4.08,2.68,2.68,0,0,0-.37.12c-.11.05-.17.11-.18.17-.06.27-.11.57-.15.89s-.06.63-.09.93,0,.59,0,.85,0,.46,0,.6S298.93,13.29,299,13.31Z"/><path class="cls-4" d="M311,18.61a.27.27,0,0,1,.17-.08,1.45,1.45,0,0,1,.6.17,1.82,1.82,0,0,0,.85.17,1,1,0,0,0,.78-.33,1.06,1.06,0,0,0,.3-.73,2.45,2.45,0,0,0-.18-.84,10.31,10.31,0,0,0-.42-1c-.17-.36-.35-.74-.55-1.13s-.38-.77-.55-1.14a10.19,10.19,0,0,1-.42-1,2.71,2.71,0,0,1-.17-.83,2.44,2.44,0,0,1,.24-.87,6.41,6.41,0,0,1,.65-1.15,5,5,0,0,1,.94-1,1.74,1.74,0,0,1,1.1-.42l.37,0,.48.09a1.67,1.67,0,0,1,.41.16q.18.11.18.24c0,.24,0,.4-.13.47a1.27,1.27,0,0,1-.64.13,2.44,2.44,0,0,0-1.71.55,1.69,1.69,0,0,0-.52,1.27,3.14,3.14,0,0,0,.3,1.17c.21.48.43,1,.68,1.53s.47,1.11.67,1.7a4.85,4.85,0,0,1,.31,1.66,3.87,3.87,0,0,1-.09.6,3.52,3.52,0,0,1-.33.92,3.2,3.2,0,0,1-.65.86,1.49,1.49,0,0,1-1.05.38,1.91,1.91,0,0,1-.42-.06,2.75,2.75,0,0,1-.49-.14c-.17-.06-.31-.13-.44-.19s-.2-.13-.22-.19a1.92,1.92,0,0,1-.09-.32,1.15,1.15,0,0,1,0-.33A.43.43,0,0,1,311,18.61Z"/><path class="cls-4" d="M323.39,14.09a.35.35,0,0,1-.1.17l-.24.24c-.1.08-.19.16-.28.22a.45.45,0,0,1-.23.09c-.54,0-1,.07-1.5.08l-1.23,0a5.26,5.26,0,0,0,.84,3.25,3.22,3.22,0,0,0,2.71,1.09,1.47,1.47,0,0,1,.53.07c.09.05.13.15.13.31s-.09.19-.27.29a2.33,2.33,0,0,1-.95.14,5.92,5.92,0,0,1-1.75-.22,3.72,3.72,0,0,1-1.21-.61,3,3,0,0,1-.76-.87,4.05,4.05,0,0,1-.42-1,5.35,5.35,0,0,1-.18-1.11c0-.37,0-.73,0-1.06a11.74,11.74,0,0,1,.33-3,6.27,6.27,0,0,1,.88-2,3,3,0,0,1,1.25-1.06,3.56,3.56,0,0,1,1.46-.32,2.91,2.91,0,0,1,1,.12.42.42,0,0,1,.27.42c0,.27-.11.4-.34.4h-1.06a2,2,0,0,0-.84.18,1.78,1.78,0,0,0-.74.67,4.87,4.87,0,0,0-.57,1.36,11.69,11.69,0,0,0-.3,2.22,1,1,0,0,1,.34-.21,1.32,1.32,0,0,1,.47-.08h2.43C323.28,13.87,323.39,13.94,323.39,14.09Z"/><path class="cls-4" d="M327.94,12.33v-.67a1.33,1.33,0,0,0-.24-.89,1.31,1.31,0,0,0-.54-.38l-.54-.21a.33.33,0,0,1-.24-.32c0-.09.06-.18.2-.27l.64-.53a1.12,1.12,0,0,1,.25-.16.63.63,0,0,1,.19,0,.36.36,0,0,1,.2.06,1.06,1.06,0,0,1,.25.24c.69.83,1.41,1.66,2.14,2.49s1.41,1.58,2,2.26,1.18,1.27,1.64,1.75.78.79.94.94c.1-.62.17-1.2.21-1.76s.06-1.13.06-1.72a11,11,0,0,0-.05-1.22c0-.35-.07-.64-.11-.88a4,4,0,0,0-.11-.58,1.85,1.85,0,0,1-.05-.34.34.34,0,0,1,.15-.26,1,1,0,0,1,.34-.16,2.7,2.7,0,0,1,.41-.07l.4,0a.38.38,0,0,1,.34.16.68.68,0,0,1,.09.35,3.12,3.12,0,0,1-.09.59c-.06.28-.13.65-.2,1.12s-.14,1-.2,1.75S336,15.12,336,16.1c0,.3,0,.62,0,1s0,.71,0,1.09a.71.71,0,0,1-.16.39,3.32,3.32,0,0,1-.37.38,4.49,4.49,0,0,1-.41.29.77.77,0,0,1-.27.11c-.06,0-.11-.06-.15-.19l-.15-.51a4.77,4.77,0,0,0-.27-.68,3,3,0,0,0-.49-.76c-.47-.55-.95-1.09-1.45-1.63l-1.4-1.49-1.19-1.23c-.36-.36-.62-.65-.8-.85q-.06.75-.09,1.56c0,.53,0,1.05-.05,1.55s0,1,0,1.42v1.1c0,.27,0,.53,0,.8s0,.48,0,.63a.79.79,0,0,1-.06.29.38.38,0,0,1-.26.21l-.66.16a1.64,1.64,0,0,1-.42.06c-.23,0-.34-.09-.34-.26a.51.51,0,0,1,.09-.28c.06-.09.12-.2.2-.34a2.68,2.68,0,0,0,.23-.55,3.68,3.68,0,0,0,.14-.88l.22-4.44Z"/><path class="cls-4" d="M341.75,16.92a1.37,1.37,0,0,0-.59.62l-.9,1.57a.85.85,0,0,0-.11.34q0,.18-.27.18a2.51,2.51,0,0,1-.81-.11c-.21-.07-.31-.17-.31-.3a.52.52,0,0,1,.18-.35,6,6,0,0,0,.42-.48l.72-1,.79-1.21c.26-.42.52-.84.77-1.27s.48-.82.67-1.18.35-.67.47-.94a1.71,1.71,0,0,0,.18-.57c0-.24-.21-.56-.62-1l-1.47-1.49a2.19,2.19,0,0,0-.43-.38.31.31,0,0,1-.18-.25c0-.05,0-.11.13-.18a3,3,0,0,1,.32-.19,2,2,0,0,1,.36-.17,1,1,0,0,1,.32-.08l.4,0a.62.62,0,0,1,.24.08.51.51,0,0,1,.16.19l.15.34a1.42,1.42,0,0,0,.23.36q.18.26.39.51,1.46,1.75,2.52,3c.7.8,1.35,1.51,1.93,2.11s1.14,1.16,1.67,1.65,1.12,1,1.76,1.58a1,1,0,0,0,.34.22l.28.09a.49.49,0,0,1,.19.1.28.28,0,0,1,.07.22.38.38,0,0,1-.1.21,1.46,1.46,0,0,1-.24.27,1.94,1.94,0,0,1-.29.23.48.48,0,0,1-.25.09h-.54a.21.21,0,0,1-.2-.13.79.79,0,0,0-.14-.23,28.75,28.75,0,0,0-2.41-2.65h-4.77A2.46,2.46,0,0,0,341.75,16.92Zm.88-2c-.15.28-.26.46-.3.54a.46.46,0,0,0-.08.22.16.16,0,0,0,.05.11.46.46,0,0,0,.22.07l.54,0h2.18l.76,0,.43-.05.22-.06-2.83-2.88Z"/><path class="cls-4" d="M359.82,18.25a.92.92,0,0,1,.45-.15c.21,0,.31.08.31.23a1.74,1.74,0,0,1-.05.26,4.16,4.16,0,0,1-.12.44c-.06.15-.12.28-.18.41s-.14.19-.21.19a.94.94,0,0,1-.3-.05l-.4-.13-.13,0h-.3l-.59,0h-1.93l-.58,0a1.27,1.27,0,0,0-.32,0l-.17.06a1.07,1.07,0,0,1-.55.13.31.31,0,0,1-.23-.13,2.81,2.81,0,0,1-.4-.58.69.69,0,0,1-.06-.21.52.52,0,0,1,.18-.33.74.74,0,0,0,.18-.53c0-.19,0-.43,0-.7s0-.6,0-1V13.64a19.24,19.24,0,0,0-.09-2.1c-.06-.52-.13-.93-.19-1.23A3.2,3.2,0,0,0,354,9.7a.6.6,0,0,1-.09-.28c0-.06.06-.15.17-.27a3.57,3.57,0,0,1,.4-.35,3.79,3.79,0,0,1,.45-.29.74.74,0,0,1,.31-.13.93.93,0,0,1,.4.12.35.35,0,0,1,.23.31,1.35,1.35,0,0,1-.07.4,1.55,1.55,0,0,0-.07.48c0,.54,0,1.08-.06,1.61s-.05,1-.05,1.54c0,.34,0,.65,0,.95s0,.64,0,1,0,.76,0,1.15-.05.75-.07,1.09-.05.63-.07.88a4.8,4.8,0,0,0,0,.54c0,.09.07.14.22.14a.57.57,0,0,0,.18,0,.59.59,0,0,1,.23,0l3.26-.13A1.11,1.11,0,0,0,359.82,18.25Z"/></g></g></g></svg>