<svg xmlns="http://www.w3.org/2000/svg" xmlns:xlink="http://www.w3.org/1999/xlink" viewBox="0 0 150 200"><defs><style>.cls-1{fill:none;}.cls-2{clip-path:url(#clip-path);}.cls-3{fill:#121212;}.cls-4{fill:#0f0f0f;}.cls-5{fill:#444;}.cls-6{fill:#5e5e5e;}.cls-7{fill:#151515;}.cls-8{fill:#7e7e7e;}.cls-9{fill:#7f7f7f;}.cls-10{fill:#242424;}.cls-11{fill:#232323;}.cls-12{fill:gray;}.cls-13{fill:#5f5f5f;}.cls-14{fill:#868686;}.cls-15{fill:#888;}.cls-16{fill:#181818;}.cls-17{fill:#8f8f8f;}.cls-18{fill:#5d5d5d;}.cls-19{fill:#141414;}.cls-20{fill:#161616;}.cls-21{fill:#8e8e8e;}.cls-22{fill:#545454;}.cls-23{fill:#131313;}.cls-24{fill:#191919;}.cls-25{fill:#171717;}.cls-26{fill:#1b1b1b;}.cls-27{fill:#1c1c1c;}.cls-28{fill:#1d1d1d;}.cls-29{fill:#1e1e1e;}.cls-30{fill:#1a1a1a;}.cls-31{fill:#4c4c4c;}.cls-32{stroke:#000;stroke-miterlimit:10;opacity:0.8;}</style><clipPath id="clip-path"><rect class="cls-1" width="150" height="200"/></clipPath></defs><title>blackcard</title><g id="Cards_New" data-name="Cards New"><g id="Black_Card" data-name="Black Card"><g class="cls-2"><path class="cls-3" d="M280-119.08h10c2.9,2.15,2.71,5,2,8.07-3,12.46-9.46,23-18.2,32.24-2.69,2.85-7.4,3.44-8,8.78a33.35,33.35,0,0,0,3,18.95c4.58,9.19,11.8,15.66,21.84,18.46,6.46,1.81,12.87,1.73,17.2-4.31,4.52-6.31,4.89-13.3,1.33-20.31-.91-1.78-2.38-3.24-3-5.18-.9-2.9,0-4.91,3.2-5.07,12.92-.62,24.38,3,33.47,12.52,4.17,4.38,4.91,4.66,9.2.66a46.65,46.65,0,0,1,8.07-5.83c4.31-2.55,4.61-3.62,2.12-7.95A18.44,18.44,0,0,1,359.44-78c.09-4,1.82-5.74,5.72-5.6a43.63,43.63,0,0,0,18-3.36c12.08-4.89,16.17-13.47,12.44-26-.42-1.4-1.53-2.74.39-4.13a4.24,4.24,0,0,1,5.19,0,24.1,24.1,0,0,1,10.59,14.88A18,18,0,0,0,413-98.08v5c-1.78,1.61-2.84.71-3.8-1a46.91,46.91,0,0,0-2.66-4.75c-.67-.92-2-1.47-2.25-.15-1.26,6.71-6.42,10.44-10.75,14.83a37.68,37.68,0,0,0-7.84,5.62c-4.06,1.31-8.42.63-12.51,1.89-1.71.52-3.91.29-4.31,2.57s1.36,3.52,3.08,4.63c1.26.8,3,.56,4,1.79.52.64,1.07,1.24,1.57,1.89.84,1.57,2.46,1.14,3.55.94,2.16-.41,3.6.12,3.91,2.24s-1,3.44-3.16,3.76-4.58.49-6.84.8c-2.05.55-2,2.7-3,4a2.64,2.64,0,0,1-3,1.1c-2.56-.63-4.45.38-6.06,2.25-5.2,1.44-6,2.89-3.89,7.75s3.93,9.8,4.41,15.23C364.82-13,357.93-2.1,348.26,7.72a18.24,18.24,0,0,1-4.91,3C347.89,9,352.68,7.12,357,4.3a3.27,3.27,0,0,1,4.14.31c1.36,1.2.89,2.66.26,4.05a53.71,53.71,0,0,1-7,10.89,14.79,14.79,0,0,1-6.34,4.72c-4,1.78-7.34,5.51-9.41,9.69a11.93,11.93,0,0,1-2.75,4,22.9,22.9,0,0,1-6,4.41c-4.91,2.61-6.4,7.36-8,12.14-1.16,3.37,2.59,2.84,3.32,4.64.64,3.56-4.08,9.23-7.44,8.91-2.29-.21-3-1.8-3.17-3.77-.22-2.77,0-5.55-.12-8.8A53.76,53.76,0,0,0,314,73.74c.33,2.47.73,4.66,4.19,3.37.58-.21,1.46.6,2,1.25.64,2.85-2.43,10.6-4.81,11.69-2.19,1-3.48-.22-4.53-2.12s-.26-4.41-2.55-5.6c-.91-.3-1.49-2.52-2.75.27a45.76,45.76,0,0,0-3.54,9.76c-1.58,7.83-4,15.38-8.68,22a4.16,4.16,0,0,1-3.53.94c-2.47-1.09-2.42-2.82-1.28-4.87,5.56-10,8.73-20.85,12-31.7,1.66-5.52,5.48-10.21,6-16.24.55-6.37.58-6.54-5.72-6.42-2.53-.89-5.29-2.64-6.72,1.49-.1.29-.49.43-.83.51-4.94,1.11-9.75-.19-14.58-.84-.84-.11-1.77-.71-1.46-1.73,1.29-4.2-1.63-8.11-.28-12.58,1.8-5.91-2.54-15.09-6.91-16.94a1.45,1.45,0,0,1-.35-.31c-.26-.37-.68-.41-.64-.25.66,2.73.37,5.57,1,8.31,1.43,6.51-.56,12.32-3.44,18.05-.68,1.35-1.14,2-2.58,1.63-4.24-1.22-2.17-4.21-1.61-6.49,1.15-4.77,1.54-9.17-3.41-12.55-1.56,2.29-1.05,4.52-.46,6.75,1.28,4.73,2.93,9.42,1.32,14.41-.63,1.95,2.76,3.48.58,5.59a4.63,4.63,0,0,1-4.37,2c-3.32-.37-3.46-2.9-3.53-5.39-.09-3.41,0-6.83-1.46-10-1.8-5.07.89-10.16-.22-15.27a17.6,17.6,0,0,0-.35,5.87c.85,8.79-2,17.45-.79,26.25.14.93-.61,1.45-1.53,1.63a13.68,13.68,0,0,1-1.56.39c-2.55,0-2.23,2.14-2.92,3.64-1.22,2.66-1.22,6.72-6,5.86-2.95-1.65-1.68-3.85-.76-6a90.75,90.75,0,0,0,6.9-22.31,44.48,44.48,0,0,0,0-14.38c-.3-1.69-.25-3.72-2.54-4.68-1.7,1.86-.82,4.11-.84,6.11-.11,10.06-1.19,19.92-5.74,29.05-1.23,2.46-2.42,6-6.6,3.87-2.16-1.69-1.08-3.4-.12-5.2a36.37,36.37,0,0,0,4.42-17.59c-.22-5.23.5-10.49-.44-15.6-1.5,7,.32,14.05-1.5,20.93-1.12,4.25-2.39,8.34-5.51,11.55s-6.06,2.75-7.3-1.5c-1.6-5.48-2.84-11.06-4.81-15.44-1,7.93-.52,16.75.74,25.57.42,2.91-2.07,6,.29,8.82-.18,2.49-1.74,4-4,3.64-2-.32-2.41-2.48-2.43-4.4a45.94,45.94,0,0,1,.18-7.59c-2.14,3.85-2.49,8.35-2.23,13,.29,5.24-1.39,10.13-3,15-.54,1.63-1.13,3,.44,4.29.91,2.14.25,3.86-1.81,4.68s-4.67,1.12-6.6-.32c-1.71-1.28-1-3.69-.44-5.19a59.6,59.6,0,0,0,3.23-11.8c-2.55,4.94-1.62,10.93-4.58,15.74a7.48,7.48,0,0,1-1.34.09c-2.54-.23-3.53-1.46-2.67-4,.26-.77.65-1.79-.66-2.18-.38-.06-.76-.1-1.15-.13-7,.73-7.85-.3-6.37-7.54,1.53-7.48,3.46-14.83,1-22.61-3.38-10.51-10.82-17.49-19.26-23.77-4.92-5.25-11.58-7.88-17.63-11.42,6.08,3.55,12.76,6.2,17.69,11.49a30.38,30.38,0,0,1,12.08,24.24,108.49,108.49,0,0,0,.82,13.35,50.05,50.05,0,0,1-.2,15.4c-1.11,6.58-1.85,13.15-.38,19.79.35,1.59.81,3.32,0,4.9-1.4,2.88-.33,5.12,1.56,7.25,1,1.14,2,2.31,1,4-1.44,2.53-3.21,2.4-5.26.71a20.26,20.26,0,0,1-7.28-11c-.62-2.53-1.06-5.22-4.31-7.47-.08,3.79,1.58,6.36,2.72,9,1,2.37,2,4.7-1.08,6.37-4,0-4.78-3.58-6.27-6.17-1.68-2.92-1.58-6.41-2.56-9.56-.94-2.12-.06-4.1.6-6.06,3.24-9.65.48-18-5.57-25.59-1.83-2.27-3.36-4.86-5.66-6.62-.11,1,.36,2.07-.4,2.93-.36.31-.76.59-1.15.88-2.59.07-3.32,3.9-6.13,3.22-3-.72-3.24-3.91-4.84-5.91-.5-.62-1.46-.75-2.06-1.35-1.45-3.29-.4-5.68,3.2-6.7,1.58-.45,3.45-.25,3.63-2.48s-1.43-3.19-3.07-4c-1.9-1-4-1.61-5.81-2.71a37.87,37.87,0,0,0-12.24-9c-.61-.26.2-.07-.43-.23-11.31-2.89-14.76-13.35-20-21.66-3.74-5.87-7-11.62-13.61-14.69-2.4-1.12-4.45-3.06-7.49-1.67-1.79.82-3.5-.64-5.28-.89a12.21,12.21,0,0,1-2.4-.68c-4.25-1.92-4.56-3.33-1.6-6.82C69-.23,77.24-4.07,86.09-6.8a45.77,45.77,0,0,1,9.3-1.79c1.29-.12,3,.13,3.46-1.39.59-1.81-1.14-2.56-2.26-3.47-3.42-2.77-7.17-4.85-11.68-5.18-2.86-.21-5.38-1.71-8.19-2.13a3.09,3.09,0,0,1-2.83-2.76,3.54,3.54,0,0,1,1.89-3.75,61,61,0,0,0,7.08-4.68c8.38-6.75,15.94-14.16,19.31-24.82a23.23,23.23,0,0,0,1.13-9.36c-.3-3.16-2-4-4.81-2.7-1.06.49-2.06,1.09-3.07,1.66-7.06,4.05-14.79,2.62-20-3.69-9-10.85-10-19.33-3.81-34.71-1.93,1.25-2,5.49-5.89,3.72-1.22-.9-2.28-1.79-1.7-3.63,1.51-4.73-1.41-3.47-3.86-2.76-5.27,1.73-10.71,9.66-10.92,16.15-.12,3.91-.18,7.82-.08,11.74.26,9.23-2.85,17.54-7.77,25.24-1.4,2.18-2.94,4-5.73,2.54,7.51,7.91,17.18,7.49,27.86,6.34C61.17-47.9,58-48.75,59-51.53c.84-2.28-2.13-5,1.09-6.73a4.89,4.89,0,0,1,4.48-.4c4.3,1.44,7.11,5.11,11.08,7.1,1.49.75,1.79,3.59.38,5.83-3.08,4.91-8.2,5.6-13.05,6-8.27.65-16.63.58-24.59-2.3-1.62-.59-2.33-.87-2.8.94-2.5,6.91-3.29,14.41-7.37,20.72-2,1.56-2,4.43-3.87,6.09a9.1,9.1,0,0,1-1.07,1c-2.32,1.83-.58,3.91-.13,5.72.6,2.39,1.09,4.67.18,7.06-1.65,2.26-.9,6.11-4.71,6.84-2.57-.72-2.27-2.42-1.75-4.47S18.57-1.84,18-3.27A28.6,28.6,0,0,1,17,1.1c-1.77,5.07-3,10.16-2.77,15.75.18,3.72-.52,8-4.28,10.57a3.2,3.2,0,0,1-1.42-.48c-2-1.34-1.64-3.11-1.2-5.1.58-2.59,2.23-5,1.72-7.78-.16-1.18-.48-2.34-.61-3.53a8,8,0,0,1,0-1.38C9.74,5.06,12,1.34,13-2.89c.88-3.72.08-7.2-.46-10.8-.21-1.38-1-1.36-1.87-1.61A6.49,6.49,0,0,0,8.71-15C7.45-11.7,8.4-8.1,7.46-4.75,6.92-2.81,7-.5,4.51.34c-2.29.09-2.44-1.43-2.2-3,.22-1.46,1-2.81,1.07-4.32C2.55-2.26,1.26,2.3-2,6.09c-1.31,1.51-1.94,4-4.7,2.14-1.2-2.15-.38-3.79.72-5.88,2.11-4,4.64-8.08,3.65-13A41.77,41.77,0,0,1,8.49-25c2.77-2.47,5-.57,7.15,1.59,3.43,3.53,4.51,3.44,6.85-.83C27.88-34,29.16-44.64,28-55.61c-.64-5.93-.26-6.65,5.78-6.79a5.89,5.89,0,0,0,5.72-3.93,46.83,46.83,0,0,0,3.76-16.93c.14-2.63-.72-5-3.14-6.36-2.85-1.62-3.44-4-3.45-7.11,0-6-1-11.93-3.89-17.34-1-1.77-1.24-3.39.2-5h2c4.78,1.7,6.65,5.6,7.81,10.13.38,1.53.4,3.65,2.47,3.92s2.72-1.64,3.7-2.92c1.22-1.58,2.29-3.26,3.43-4.9a8.18,8.18,0,0,1,6.72-3.68c5.37-.23,10.74-.83,16.1-.73,8.57.16,16.15,3.78,23.47,7.86,5.49,3.07,10.88,6.32,15.66,11.73-.32-6-1-10.94-4.18-15.29-1.31-1.79-3.33-3.6-1.18-6.12h17c1.58,1.42,2.63,3,2.25,5.34-.46,2.87.89,5.12,3.84,5.36,3.42.29,3.32-2.67,3.35-4.93s.62-4.33,2.56-5.77h1c2.48,6,7,11.7,2.86,18.77-1.23,2.08-.34,4.21.38,6.27a23.46,23.46,0,0,1,.35,14.72c-.43,1.44-.77,3.29-3.07,2.86-3.12-1.05-2.17-3.8-2.16-5.86,0-9-3.31-16.08-11.11-20.9a19.6,19.6,0,0,1-5.59-5.79c.71,4.3,1.5,8.35,1.83,12.48a2.66,2.66,0,0,0,0,4.13c2.87,2.93,3.81,7.13,6.85,10a2.45,2.45,0,0,1-.24,3.87c-2.29,1.85-4.92,1-7.14.32-3.31-1.08-1.35-4.37-2.13-6.57,1.77,8.61-4.58,15.55-5,23.92,1.75.18,4.08-1.16,5,1.4a9,9,0,0,1-.75,8.36,21,21,0,0,1-3.21,3.66c-1.4,1.37-1.15,2.35.15,3.44-.25,4.1-1.22,8.5,5.25,8.79,1,0,.87,2.23.67,3.6-.6,4.16.43,5.12,4.68,4.78,2.19-.17,4-1.54,6.18-1.67a2.58,2.58,0,0,1,2.17,1c1.08,3.53-1.37,5.93-3,8.43-3.44,5.31-5.6,10.4-3.84,17.2a15.23,15.23,0,0,1-9,18c-1.6.68-3.35,1.84-4.74-.41C109,8.49,102.37,3.89,92.73,5.89a12.17,12.17,0,0,0-1.44.37,2.51,2.51,0,0,0-1.11.87,10.31,10.31,0,0,0,6.67,3.37c4.26.54,8.36,2.11,12.72,2,1.92-.05,3.22,1.1,4.41,2.42,3,6-3.64,3.09-4.77,5.32,2.37,3.72,5.94,5.18,10.81,4.34,7.4-1.28,7.77-.87,6.2,6.76,1.18-2.74,3.44-4.8,4.56-7.57a61.24,61.24,0,0,0,2.38-8.63c1.8-7.49,5.16-14,11.59-18.58a7.91,7.91,0,0,0,2.64-2.93c1-2,1.62-3.21-1.83-3.75C139.85-11,137.07-16,139-20.23c8.74-3.51,12.63-1.68,15.39,6.87,1.7,5.24.88,10.25-.47,15.23,1.52-2.13,2.5-5.36,6.36-4.08,2,1.49.94,3.22.4,4.94-2.49,7.92-.67,14.66,5.58,20.17,6.48,5.7,14.44,9.5,20.32,16,1.67,1.84,3.13.5,3.53-1.43a22.54,22.54,0,0,1,3.84-8c1.67-2.48,1.5-5.37,1.11-8.21-.58-4.18-2.34-7.95-4.16-11.69-1-2-2.08-4,.53-5.64,3.11-1.71,4.21.89,5.4,2.72a15.56,15.56,0,0,0,9.89,7c2.7.64,4.35.42,3.95-2.89s1-5.06,4.32-5.38c2.14-.21,2.63-1.61,2.53-3.54a72.87,72.87,0,0,1,0-8.49c.19-2.89.66-6.15,4.17-6.45,3.35-.29,5,2.19,5.48,5.43a3.66,3.66,0,0,0,.63,1.34c1.38,1.88,1.32,3.67-1.12,4.2-3.69.8-1.71,2.23-.6,3.56a5.2,5.2,0,0,0,2.51,1.5c1.24.39,2.67,1,3.55-.46a2.18,2.18,0,0,0-1-3c-2.21-1.38-2.61-3.63-3.29-5.79-1.49-2.1-.55-4.06.3-6,1.44-3.37,2.56-6.81,1.91-10.54-.36-2-1-4-3.29-4.47s-2.84,1.7-3.93,3.1c-1.54,2-2.09,6.44-6.26,2.94a2.06,2.06,0,0,1-.67-2.25c1.71-4.23,1.23-8.69,1.53-13.06.9-3,2.83-2,4.72-1.23,4.3,1.86,8.67,3.4,13.47,2.79,5.37-.69,6.41-2.28,5.38-7.54-.77-4-.89-7.75,2.78-10.71,2.5-2,2.55-5.3,3.33-8.15,1.88-6.9,3.47-13.85,1.67-21.06a12.06,12.06,0,0,0-1.12-2.79c-.61-1.8.88-2.77,1.7-3.9,5.83-8,9.06-16.63,6.78-26.66a3.78,3.78,0,0,1,.83-3.23h2c4.87,2.19,10.45,2.88,14.37,7.13,1.54,1.67,2.63.41,3.12-1.28A11.89,11.89,0,0,1,280-119.08Z"/><path class="cls-4" d="M-167-96.08c5.42,12.2,9.59,24.58,4.66,38-1.37,3.73,0,3.85,3.12,3.16,7-1.55,14-3.19,21.18-.82a34.78,34.78,0,0,1,5,2.18c1,.51,2.2,1.16,1.72,2.64-.34,1-1.3,1.33-2.32,1.62-11.48,3.28-18.72,12.65-19.44,24.83-.44,7.63.54,14.63,6.94,19.89A14.29,14.29,0,0,0-138.61-1c1,.12,2.15.05,2.54,1.21.47,1.43-.76,2-1.61,2.79-4.89,4.31-12,6.08-20.95,5.18-.09.29-.35.7-.25.85,6.67,9.72,25.19,12.93,34.6,6,1-.74,1.91-2.4,3.34-1.44,1.28.87.51,2.45.3,3.73a27.86,27.86,0,0,1-3.57,9.8c-1.53,2.55-.74,3.74,2.12,3.72,2.33,0,4.65-.15,7-.19,1.38,0,3.34-1.26,3.92.73.48,1.62-1.47,2.43-2.64,3.26a51.44,51.44,0,0,1-16.44,8.24c-4.58,1.23-5.48,3.25-3.13,7.5,3.63,6.54,5.82,13.8,10,20.1,2,3,4,3.74,7,1.71,6.35-4.29,13.53-6,21-7.56,9.13-1.85,14.48-9.14,19.64-16.07,4.87-6.55,9.33-13.4,8.17-22.37-.43-3.29,2-2.36,3.65-1.38A29,29,0,0,1-51.18,40.32c.53,1.52.33,3.75,2.12,4.22s2.84-1.54,3.78-2.78c15.69-20.71,19-43.48,10.92-68a14.24,14.24,0,0,0-5.19-7.59c-2.11,4.1-1.08,8.15-.78,12.16.13,1.77,1,3.95-.7,5.17-2,1.47-3.29-.86-4.64-1.82C-66.33-33-79.87-52.93-88.19-76.65c-1.07-3.06-1-6.25-1.11-9.39-.16-3.94-1.7-5.43-5.7-4.1-3.62,1.21-7.35,2.06-11,3.06-.3.68-.24,1.49-.73,2.1-2.92,2.41-7.11.13-10,2.69-1.68.09-3.42.84-4.93-.54-.25-.83-.55-1.63-.72-2.47-.23-3.76,2.63-4,5.17-4.4a167.73,167.73,0,0,0,39.46-11.7,102,102,0,0,0,17.6-10.21c4.15-3,8.16-6.07,13.17-7.47h3c1.07,1.14,2.92,1.59,3,3.51-.32,1.41-1.38,2.74-2.48,2.76-3.39.06-4.69,2.62-6.51,4.64-4,1.56-7.89,3.16-7.21,8.66.16,1.29-1.1,1.47-2,1.9a4,4,0,0,1-2.78.26c-4.59-1.29-6.05.16-5,4.94a58.6,58.6,0,0,0,3.72,10.32c.57,1.36,2,3.06-.44,4.2-2.12,1.5-3.62.5-5-1.17a19.92,19.92,0,0,1-3.67-8.06c-.59-2.25-1.54-4.09-4.39-3.59-.71.07-1.42.12-2.13.12-5.38.75-6.63,2.26-5.94,7.5a46.74,46.74,0,0,0,5.24,16.57c6,11,12.55,21.57,20.82,31.05A72.25,72.25,0,0,0-49.67-27c.88.72,1.78,1.8,3,1.33s1.09-1.94,1.09-3c0-3.18.91-6.25,1.1-9.41.1-1.65.38-3.32,2.43-3.88s3.31.59,4.55,2.11C-27-27.06-24.69-12-25.81,3.84a71.44,71.44,0,0,1-8.72,30,26.33,26.33,0,0,1-3.95,5.73A57.16,57.16,0,0,1-48.64,51.6c-1.77,1.54-3.5,3.46-6.06,2-2.31-1.36-1.74-3.68-1.2-5.8,1.22-4.81-.6-8.81-3.4-12.49-1.63-2.15-3.38-3-4.44.54a40.88,40.88,0,0,1-5.85,12c-2,2.78-1.22,4.6,2,5.46a13.82,13.82,0,0,1,1.43.42c4.47,1.76,4.81,2.84,2.3,7.19-2.27.92-4.2-.3-6.22-1a13.93,13.93,0,0,0-5.84-1c-1.86.19-4,.59-4.38,2.63-.4,2.24,2,2.36,3.43,2.82C-61.55,69.15-53,80.39-47.44,94.65c.9,2.31.71,6.09,4.1,6,3-.06,3.78-3.46,4.71-5.86,2.32-6,4.58-11.93,3.68-18.8-.63-4.83,3.5-7.3,7.54-9.12,3.59-.32,7-2.42,10.7-1.26,8.33,2.93,16.61,6,23.82,11.31,1.34,1,2.79,2.14,4.53,1S13.06,75.1,13,73.43a11.58,11.58,0,0,1-.16-3A4.13,4.13,0,0,1,16,67c1.58-.37,2.65.6,3.48,1.72,1.78,2.41,3.36,5,5.59,7,6,5.51,12.88,6.55,20.46,4.24,2.49-.76,3.43-1.73,1-4-5.46-5.06-4.77-7.07,2.11-10.1a55.22,55.22,0,0,1,21.51-4.52,23.77,23.77,0,0,1,16.21,5.27c2.71,2.21,4.15,1.51,5.17-1.32,5.43-15,4.29-34.42-13-44.3-3-1.73-5.78-4-9-5.46-1.61-.77-2.87-1.73-2.45-3.79,11.34.12,19.08,6.47,25.32,15,2.52,3.47,4.31,7.45,6.54,11.13,6.21,10.21,16.58,14.86,26.66,19.92,1.33.67,4,.33,3.27,3.22-2.66,4.44-4.9-.5-7.37-.32a17.28,17.28,0,0,1-3.36-1.14c-5.6-4-12.11-6.64-16.75-11.49,1.06,7.28-1.91,14.89-.54,22.61.07.4-.56.77-1,.94-3.79.32-4.43,3.17-4.89,6.14-.2,1.29.78,3.06-1.45,3.52-3.2,1.88-.8,4.24-.13,6,.54,1.44,1.47,2.69,1.17,4.34s-.6,3.21-1,4.81c-2.78,2.45-3.82,0-4.37-2-1.65-6.08-4.29-11.74-6.66-17.53s-4.72-8-10.9-8.4c-5.71-.39-11.21.64-17.27,2.5,3,.59,5.42.24,7.8.5,3.89.42,5.34,2.51,3.31,5.63-2.23,3.42-1.13,5.61,1,8.38,2.27,2.93,5.42,5.27,6.53,9-1.26,2.7,1.12,4.75,1.28,7.18s1.75,4.56.94,7.06c-1.78,4.18-1.62,9.12-5,12.67-1.45,1-1.85,2.8-3.22,3.87-4.14,3.27-7,2.25-8.23-2.88a18.19,18.19,0,0,0-.87-3.85C58.94,126,63.16,131,71,134.16c3.39,1.39,7,2.22,10.31,3.76,1.47.68,2.74,1.75,2.71,3.59,0,1.69-1.23,2.61-2.58,3.33-4.09,2.18-15.42,3-20.27,1.35,10.26,4.8,20.15,5.79,30.19.7,1.9-1,4.09-2.14,6-.08s.3,4.27-.47,6.36c-.7,1.88-2.42,3-3.42,4.62-.78,1.27-1.91,2.53-1,4.1s2.53,1.42,4,1.44a20,20,0,0,0,10.1-2.35c1.91-1,3.66-1.82,5.48.12s.74,3.82-.41,5.68c-1.85,3-4,5.77-6,8.57s-1.69,5.07.93,7.35c5.28,4.59,10.56,9.25,14.45,15.12,5.09,7.7,8.32,16,5.69,25.43-1.47,5.3-4.25,6.1-8.69,2.38a43.41,43.41,0,0,0,4.72,13.3,13.15,13.15,0,0,0,7.56,6.15,34.69,34.69,0,0,0,19.14,1.55c2.06-.43,4.19-1.19,6.38-.44,2.12,6.29,2.06,6.61-4.32,7.23-3.75.36-5.87,2.54-7.76,5.33-1.56,2.19-2.85.64-4.07-.38-2.21-1.86-4.18-4-6.09-4.93a40.13,40.13,0,0,0,14.8,10.09c1.91.74,2,1.93.74,3.39h-6c-9.82-1.71-15.81-8.76-21.34-16a63.94,63.94,0,0,1-12.8-32.49c-.32-2.91-1.53-6.46,1.62-8.2,3.46-1.91,6.24.58,8.72,3,.42.4.37,1.24.75,1.26-2.24-9.88-8.21-17.56-15.8-24.06-1.82-1.56-3.87-4.2-6.81-1.46-3.4,1.94-7.35,2.48-10.8,4.29a5.93,5.93,0,0,0-2.63,1.92l-1.1.9c-3.11,2.62-7.32,2.84-10.67,4.94a9.06,9.06,0,0,1-1.23.66c-2,1.17-4.7.47-6.55,2.18a4,4,0,0,1-1.28.53c-4.75-.41-9.52-.72-14.23-1.48-6.06-1-6.06-1.08-4.73,4.7.25,1.1.91,2.19-.21,3.19-2,3-.5,6.51-1.25,9.69C36,225.86,36,225.84,30.9,218.93c-.49-.65-.59-1.66-1.36-1.89,5,9.07,4.28,19,3.63,28.88-.32,4.8-1.84,9.44-3.36,14-1,3.11-2.59,5.73-5.83,7H22c-2.57-1.65-1.35-3.67-.6-5.7,3.93-10.59,6.39-21.33,4.07-32.74a38.08,38.08,0,0,0-6.19-15.12c-1.47-2-2.37-4.26-.81-6.42s3.8-1,5.81-.5A30.34,30.34,0,0,1,31.92,210c3,1.75,4.23.89,4-2.65-.22-3-1.48-5.78-2.79-8.49-1-2-2-4,.08-5.89,1.75-1.65,3.62-.83,5.52-.21,24,7.85,47.25-.55,60.28-22.19-5.3,1.26-10.18.45-15-.53-2.41-.49-5.11-1.19-5.86-4-.67-2.45,1.64-3.73,3-5.31,1-1.25,2.42-2.19,3.43-3.45-9.94-.4-20.07.29-28.68-6.36a28.36,28.36,0,0,1-9.64-13c-.68-1.88-1.1-3.95.89-5.42s3.74-.5,5.33.81c3.29,2.7,7.18,4.14,11.17,5.32,1.25.48,2.7.47,3.77,1.29-12.64-3.86-19.93-19.58-17.63-32.43.91-5.05,4.21-6.11,8-2.8a21.88,21.88,0,0,1,5.1,6.09c.57,1.07.88,3,2.59,2.44,1.38-.42,1.41-2.17,1.54-3.46a28.65,28.65,0,0,0-6.33-21.06A12.23,12.23,0,0,0,57.77,86c-.49-.45.74-.51.18-.15-.13.08-.09.2.06.39,2,2.44,6.2,3.62,4.44,8.12a4.33,4.33,0,0,1-1.15.89c-2.56.6-3.87-1.23-5.24-2.8-3.36-3.84-7.45-5.38-12.51-4.36a21.7,21.7,0,0,1-12.63-1.32H29.45c-3.4,1.06-3.4,4.12-3.8,6.78a30.71,30.71,0,0,1-2.06,8.64c-1.19,2.58-3,3.91-5.84,2.27a2.53,2.53,0,0,1-.26-1.38,110.75,110.75,0,0,0,2-16c-1.64.62-1.64,2-2.26,2.79-2.09,2.86-4.09,3.16-6.44.44C8.19,87.22,5,84.83,1.53,81.87c-.09,4.54-.13,8.65-.12,12.75,0,1.39.08,2.64-1.18,3.55-1,.72-1.06,2.42-2.56,2.7a8.84,8.84,0,0,1-1.46-.33c-3-.24-3.13-2-2.57-4.46,1.11-4.79,2.43-9.62.55-14.51-.79-2.06-1.28-4.66-4.54-4A13.16,13.16,0,0,0-12.4,78c-.16,0-.4.06-.49,0-6.61-6.82-13.86-5.88-14.42,5.67a12.47,12.47,0,0,1-.85,4.4c-2.59,5.93-4.18,12-3.51,18.58a2.14,2.14,0,0,1-3.14,1.18c-2-1.1-2.29.18-2.84,1.43-1.88,2.36-2.31,6.11-6.24,6.47-3.88-.62-6.65-2.42-6.66-6.76,0-1.52-1.16-2-1.88-2.85l-1.2-1c.89-7.19-3.2-13-5.33-19.39-.46-1.35-1.63-1.21-2.71-1.24a12.38,12.38,0,0,0-2.09.23c-.58.36-1.45-1.24-1.85.33a29.64,29.64,0,0,1-1.73,5.09c-.74,1.64-1.87,3.37-3.66,3a3.28,3.28,0,0,1-2.32-4.29c3.82-7.8.76-16-6.54-17.54-.93-.2-2.06-.69-2.66.44-.44.82.22,1.61.73,2.24,5,6.21,5.75,13.39,4.42,20.85-.61,3.42.67,6.14,1.88,9-.64,2.62-.82,6.27-4.38,5.86s-2.53-4.09-2.61-6.56c-.18-5.8.28-11.63-1-17.35-.17-.76.11-1.66-.46-2.27A87.21,87.21,0,0,1-92.8,72c-.56,4.51,1.74,7,5.55,8.49s4.7,3.56,2.11,6.34c-5,5.4-4.27,11-1.89,17.11.84,2.15,2.75,4.51,0,6.73-1.88,1.31-3.28,1-4.46-1.07a40.83,40.83,0,0,1-3.48-8.8c-1-3.45-3-4.52-6.39-3.47-2.86.89-5.88,1.14-8.76,1.93-2.13.45-1.44,1.8-.93,3a41.49,41.49,0,0,1,.17,32.36c-1.54,3.91-.74,8.54-1.81,12.71-.82,3.24-1.25,6.9-5.48,7.82-2.64-.8-2.39-2.71-2-4.81.44-2.25,0-4.1-2.84-4.12-4.08,0-4.51-2.34-3.88-5.67.38-2,1.52-4.12-.43-7-3.36,6.51-4.54,12.88-3.45,19.46,1.79,10.79,7.58,19.4,15.71,26.53,1.74,1.52,4,2.78,2.9,5.69-1,2.58-3.65,2.7-5.67,2.88a80.19,80.19,0,0,1-37.83-5.69c3.45,10,7.2,19.76,17.34,25.24a21.18,21.18,0,0,1,3.54,1.83c2.55,2.06,2.61,4.5.07,6.6-2.27,1.88-4.92,3.26-7.74,5.5,15,4.25,21,15,23,28.86,4.64-6.14,7.11-13.3,7.74-23.92.13-2.25.59-4.22,2.3-5.25,2.14-1.29,3.51.86,4.88,2.13,5.27,4.91,9.19,10.95,13.6,16.58,10.34,13.19,24.44,19,40.54,21,4,.48,5.13-1.08,4.38-5-.21-1.14-.55-2.26-.81-3.4-2.08-9.08.24-12.33,9.55-13.07,16.71-1.31,31.07,8.68,38.76,21.86,1.1,1.89,2.16,4-.5,5.58H-4c-1.33-1.91-2.67-1.6-4,0h-2c-1.47-1.56-1.06-3.29-.54-5.1a5,5,0,0,0-1.25-5c-1-1.09-2.16-2.22-3.82-1.81s-1.7,1.88-1.87,3.18c-.48,3.79-1.42,7.27-5.52,8.77h-1c-1.38-1.12-2.12-2.35-1.33-4.26a24.2,24.2,0,0,0,1.29-5.29c1.19-7.34-2.7-11.4-10.2-10.66-3.7.36-5.26,2.31-4.67,6a28,28,0,0,0,2.7,7.44c2,4.19,1.25,5.52-3.45,5.79-1.54.08-3-.11-4.34.93H-61c-1.44-1.81-3.11-1.86-4.94-.63-4-.33-6.61-3.41-10-4.88-1.67-.73-3.4-2.63-5.26-.23-1.36,2.11-2.31,4.55-4.77,5.74h-2c-1.48-1.58-1.06-3.35-.58-5.16a12.86,12.86,0,0,0,.59-4.93c-.18-1.33-.4-2.8-1.95-3.16s-1.93,1-2.52,2-1.07,2.08-1.72,3A4.43,4.43,0,0,1-98.33,261c-2-.16-2.66-1.64-3.23-3.3-1.1-3.23-2.37-6.42.82-9.26,1.56-.81,2.19.67,3.16,1.32,1.93-6.84-3.56-10.19-6.6-15-3,6.22-2.52,13.48.89,16.9.33,1.52.79,3,.16,4.57a3.82,3.82,0,0,1-3.3,2.64c-1.19.08-2-.69-2.61-1.83-2.42-4.37-2.47-4.34-6.36-.79-.36.32-.59.79-1,1.11a30,30,0,0,1-4.09,4.9c-3.38,2.82-5,2.19-5.87-2.37a11,11,0,0,1,.08-5c-2.44,3.39,3.12,8.45-1.75,12h-1c-3.15-1.53-1.23-5.48-3.55-7.4a13.65,13.65,0,0,0-1.45-1.77c-.06-2.93,1.88-5.22,2.63-7.91,2.78-10-.35-16.19-10.76-20.75l-1.38-.23c-7.52-2.49-12.17,2.23-17.07,6.61-1.71,1.54-3,5-6.42,2.45v-3c2.44-7.43,9.06-10.86,14.67-15.24a50.36,50.36,0,0,1,4.54-3.09c3.15-2,3-3.8.31-6.2-12.54-11.25-17.07-26.07-18.4-42.22-.13-1.47.11-3.42,1.9-4.1,1.39-.52,2.41.42,3.13,1.59,6.6,10.78,17.1,14.22,28.83,15.3,1.78.17,3.95.86,5-1.16s-.87-3.35-2-4.76c-5.85-7.59-9.78-16-9.38-25.74.29-7,1.21-13.93,4.63-20.27a19.07,19.07,0,0,1,5.52-6.59c3.79-2.74,6.86-1.81,8.39,2.59a17.68,17.68,0,0,1,1.27,7.82c4.19-7.44,4.82-16.6,2.57-25.17-1.17-4.46-4-7.89-7-11.26-1.38-1.58-3.87-2.92-2.33-5.44s4.07-1.64,6.18-.93c8.09,2.69,15.15.76,23.84-2.06-3.27,1.51-6.4,1.33-9.94.34-12.92-3.59-21.07-12.12-26.48-23.94-2.67-5.83-4.77-11.93-8.12-17.43a11.47,11.47,0,0,0-3.1.24c-2.24.95-.86,2.69-.58,3.87.66,2.87,1.23,5.39-2.66,6.28a3.73,3.73,0,0,0-3,4.06c.08,2-1.13,2.54-2.66,2.94l-1.39.14c-3.74-.38-1.11-4.39-3.53-5.86-1,1.61-.66,3.42-.71,5.12-.09,2.78-.5,5.55-3.73,6.08-2.91.49-4.42-1.53-5.12-4.19-.08-.29-.42-.5-.66-.72v-2c2.54-1.67,2.74-4.17,2.32-6.83a56.18,56.18,0,0,1-1-6.3c-.09-2.5.64-4.3,3.76-3.79a16.89,16.89,0,0,0,5.82.31c-1.05-1.75-2.89-2.35-4-3.63s-2.67-2.64-1.47-4.59,3-1.67,5.1-.9c10.31,3.81,20.51,2.92,31.21-.86-1.67-1.31-3.2-1.31-4.42-2-2.54-1.45-3.08-3.06-1.06-5.45a5,5,0,0,0,1.12-1.81c.38-1.39,1.62-2.64.7-4.17-1.07-1.78-2.73-.51-4-.35-10.79,1.45-20.36-.81-28.2-8.75a14,14,0,0,1-4.32-8.59c-.33-3.67,2.09-5.37,5.25-3.49,4.77,2.86,9.44,2.43,15.33.35-12.45-7-14-18.25-12.36-30a31,31,0,0,1,15.1-23c-3.31-1.21-8.38-1.14-14.73.26-1.14.25-2.25.62-3.38.89-5.63,1.33-6.2.84-6.11-5.17,3.18-12.11,1.52-24.13-.64-36.14Z"/><path class="cls-5" d="M1,266.92c-5.43-14.87-21.61-25.74-36.91-24.81-8.37.5-9.94,2.59-8,10.7a39,39,0,0,0,1.1,3.83c2.25,6.28,1.67,7.49-4.89,7.15-17.34-.89-32.42-7-43.91-20.5-4.75-5.56-9.15-11.43-13.78-17.1-.68-.84-1.48-2.17-2.78-1.73s-.91,2-1,3.07c-.55,10.05-3.1,19.37-9.75,27.23a3.88,3.88,0,0,1-3,1.9c-.1-8-1.46-15.71-6.15-22.45-4.83-6.94-12-9.64-20.46-10.93,2.82-3.69,6.62-5.12,9.67-7.47,3.7-2.83,3.72-3.72-.54-5.54a25,25,0,0,1-10.16-8.62,69.61,69.61,0,0,1-10.4-22c-.32-1.06-1-2.34.1-3.28s1.84.05,2.62.63c11.1,8.35,24,8.93,37.14,8.78,1.63,0,3.77.22,4.44-1.55s-1.43-2.8-2.56-3.87a58,58,0,0,1-11.44-15c-6.06-11.55-4.91-23.14,0-34.67.74-1.74,1.74-4.17,4.12-3.7s2.42,3,2.39,5a68.19,68.19,0,0,1-.74,7.92c-.38,2.73-.11,3.93,3,2.33,3.71-1.87,5.12-.72,4.51,3.46-.4,2.79-1.16,5.54-1.75,8.3.08.22.17.44.25.65,2.66.56,2.69-2.64,4.6-3.18,1.6-.76,2.38-3.35,4.85-2.13,3.62.85,4.08,3.44,3.45,6.5a23.63,23.63,0,0,1-3.46,8.19c-.3.39-.65.76-1,1.14a10.43,10.43,0,0,1-2.34,1.93c-.58.32,0,.29,0,.27,2-2.83,3.89-.45,5.82.26.07,6.43,1.71,12.76,1.3,19.23a4.9,4.9,0,0,1-3.89,4.71c-6.17,1.55-12.18,4.64-18.85,1.33-2.9-1.43-6.11-.07-9.06,1-.62.23.15,0-.48-.06s-.28.12-.11.31a40.83,40.83,0,0,0,4.59,3.77,34,34,0,0,0,5.43,3.51,11.34,11.34,0,0,1,6.63,11.69c-.43,3.59.56,6.94,1.4,10.32.51,2,1.21,4,.56,5.67-.54-6.37,4.18-11.22,6.93-16.8,2.24-4.55,7.51-4.46,10.52-.22.37.53.53,1.4,1.2,1.46,7.16.59,7.19,7.11,9.69,11.57.33.58-.06-.16.23.44,2.53,6.25,7.73,10.3,12.29,14.86A34.64,34.64,0,0,0-69,246c1.62.78,3.24,1.65,5,.41,2.7-1.21,7.1-1,3.27-6.24a8.25,8.25,0,0,1,.09-9,7.27,7.27,0,0,1,8.86-2.24,3.25,3.25,0,0,0,2,.07c5-3.1,9.92-2.23,14.74.51,5.69-1.44,11.27-2.37,16.08,2.27.53.51,1.13,1.35,2.07.82,6.57-3.69,10.16,1.47,14.37,4.81A60.62,60.62,0,0,1,9.28,253c2,4.87.91,9.46-1.3,13.94Z"/><path class="cls-5" d="M61,93.92c-.95-3.79-3.7-6.19-6.53-8.56-.78-.65-2.52-1-1.38-2.55.8-1.07,2.09-.73,3.2-.19a18.4,18.4,0,0,1,6.06,5.12c6.86,8.37,9.91,17.6,5.73,28.22-.72,1.84-1.57,4.24-3.8,4.09-1.91-.13-1.4-2.72-2-4.18a23.36,23.36,0,0,0-4.3-7.24c-1.1-1.13-2.07-3-4-2.38s-1.78,2.65-1.87,4.26c-.63,11.72,4.38,20.51,14.15,26.74,1.53,1,3.23,1.69,4.86,2.53.64,1.56-.55,1.53-1.47,1.62-1.78.18-3.6-.27-5.36.31-4.35-1.19-8.68-2.39-12.31-5.28-.84-.66-1.82-2-3-.77-.93,1-.13,2.25.37,3.25,5.13,10.22,13.86,14.9,24.85,16A39.11,39.11,0,0,0,89.91,153c-1,3.91-3.72,5.87-5.72,8.35-1.07,1.34-3.48,2.27-2.51,4.41.83,1.8,3.12,1.57,4.88,2,5.78,1.32,11.57.21,18.45-.24C99.82,175.44,94.43,182,87.7,187.28c-14.39,11.32-30.36,14.53-47.95,8.81-1.33-.44-3-1.81-4.18-.53s.52,2.7,1.08,4c2,4.56,2.86,9.22,1.7,14.13-.3,1.26-.07,3-1.46,3.52-1.57.62-2.25-1.09-3.12-2a23.54,23.54,0,0,0-9.63-6.05c-.93-.3-2-.71-2.82.14s-.09,1.82.43,2.66c10.45,16.56,8.51,33.59,1.9,50.79-.54,1.39-1.11,2.78-1.67,4.17H10c-1.7-1.46-.83-3.27-.12-4.53,5.86-10.42,5.84-21.7,4.58-33-.53-4.77-2-9.47-6.57-12.67-2.9-2.05-4-5.61-4.56-9.15a4.22,4.22,0,0,1,1.92-4.31c1.33-.94,2.36-1.64,2.75-3.54.46-2.26,2.49-3.08,4.95-3.28,2.66-.22,5.1,1.66,7.72.42,2.75-8.5,9.65-11.34,19.47-9.61,15.37,2.71,29.64,1.8,42.55-7.72.57-.43,1.29-.35,1.63-.88-.09,0,.07-.44,0-.4-3.82-1.89-8.94-.08-11.81-4.32-2.57-3.43-6.28-6.7-1.63-11.18a.73.73,0,0,0,0-.74c-2.33-.83-4.53-2.11-7-.65-1.62,1-2.83-.22-4-.84-3.49-1.78-6.6-4.2-10-6.19C48,153,45.55,153,43.76,151.54c-6-8.13-5.85-17.32-4.45-26.59.33-2.22,2.28-3.73,4.92-2.2.7.41,1.36,1.18,2.19.49s.44-1.86.07-2.74c-3.18-7.61-2.61-15.19,0-22.79.21-.63.36-1.28.6-1.9.6-1.55,1.79-1.14,2.93-.88-2.36-.91-2.89.66-3.48,2.42-2.51,7.6-3.29,15.18-.19,22.82.37.91,1,2,.29,2.82-1.2,1.36-2-.44-2.94-.61-3.27-.57-4.36-2.54-4.85-5.68-.4-2.57-.32-6.39-5.37-4.64-2.13.74-6.21-6-5.67-9.38A33.52,33.52,0,0,0,28,90.78C27.43,88,29.25,86.49,31,84.94c4.1.7,8.31,1.63,12.33.32,6.7-2.19,11.18.68,15,5.66.81,1,1.71,2,2.56,3a27.09,27.09,0,0,1,1.41,3.54C62.11,96.57,61.55,95.25,61,93.92Z"/><path class="cls-6" d="M96,187.94c-.62-1.26-2.27-2.37-1-4,1.12-1.34,2.71-1.06,4.16-.57,10,3.35,23.92,23.62,23.54,34.39a10,10,0,0,1-.72,2c-1.89-1.93-3.46-3.72-5.23-5.3-1.2-1.08-2.62-2.47-4.39-1.57s-1.14,2.91-1,4.5c2.34,20.62,12.14,36.65,29.6,47.94a23.65,23.65,0,0,1,1.92,1.55H115c-7.58-3.93-7.81-11.76-9.37-18.59-2.1-9.17-3.12-18.78-8.71-26.55-4-5.57-3.17-11.85-4.6-17.77-1.32-5.48,3.59-9.09,9.06-7A11.1,11.1,0,0,1,99,194.61C97.82,192.47,95,191.07,96,187.94Z"/><path class="cls-5" d="M63,202c2.12-2.85,5-2.66,8-2.06,2.62-.7,4.55.22,5.53,2.68,1.39,3.49,3.12,6.94,2.46,10.9-3.13,4.81-3.62,9.62,0,14.41,1.12,5.1-3,9.4-2,14.57-.47-7.34,3.24-12.6,7.74-17.84,3.41-4,.79-9,.29-13.52-.32-3-1.38-5.79-1.55-8.83-.19-3.51,1.41-5.66,4.24-7.22,3.32-1.83,5.77-.67,6.71,3,2.1,8.14,2.25,16.52,2.85,24.82.42,5.7-2.31,11-3.43,16.48a56.28,56.28,0,0,1-7.28,17.72c-1.88,3.14-2.74,7.08-5.57,9.87H75c-6.8-4.47-11.57-9.63-10.77-18.92.66-7.62.64-15.35-1.42-23.11-1.57-5.95.31-12.6-1.55-18.79C60.71,204.31,64.14,204.08,63,202Z"/><path class="cls-3" d="M81,266.92c.13-5.3,2.32-10,4.29-14.76,4.41-10.6,8.86-21.17,10.3-32.72a41.8,41.8,0,0,0-1.37-17.76c-.78-2.52-2.21-4.33-5-3.72-3,.67-2.29,3.41-2,5.36,1.06,6.21,3.29,12.22,2.7,18.68-.31,3.35-.67,6.2-4.28,8.23s-4.8,6.25-5.9,10.11c-1,3.43-1.64,7-2.62,11.22-4.7-8-2.32-15.45-1.32-22.87a67.91,67.91,0,0,1,.05-15.61A54.77,54.77,0,0,0,71,199.91h0c2.91-1.17,4.53.39,5.64,2.79,3.08,6.64,3.75,13.71,3.49,20.92-.19,5.32-1.8,10.36-2.81,14.06a19.3,19.3,0,0,1,5.24-10.49,11.66,11.66,0,0,0,3.12-10.12c-.86-6.43-1.74-12.85-3.77-19a5.51,5.51,0,0,1,.08-4.11h.94a15.69,15.69,0,0,1,9.47.17c3.51,1.31,6.2.61,8.44-2.28a16.83,16.83,0,0,1,2.59,2.29c1.65,2.24,4.56,5,3.08,7.32s-4.4-.53-6.65-1.2c-2.91-.86-4.66-.73-3.73,3a4.55,4.55,0,0,1,.28,1.47c-1.48,13.35,8.85,23.25,10.4,35.76,1.15,9.26,3.52,18.25,8.19,26.47H104c-3.35-1.32-4.53-4.22-5.36-7.39a84.94,84.94,0,0,0-3.36-11.46c-.32-.77-.71-1.63-1.6-1.77-1.24-.2-1.66.88-2.16,1.73-2.09,3.58-1.67,6.61,1.49,9.29,1.91,1.61,3.69,3.34,5.44,5.11s1.28,3.15-.45,4.49H96c-5.22-3.72-6.52-3.72-9,0Z"/><path class="cls-7" d="M24,198.9c1,1,2.74,2,1.53,3.63-.78,1-2.08-.24-3.14-.58a44.54,44.54,0,0,0-6.23-1.69c-6-1-10,3.63-8.5,9.44.82,3.12,2.5,5.77,4.1,8.5,6,10.25,8.82,21.12,6.14,33-.92,4.08-2.1,8-5.54,10.89A8,8,0,0,0,10,266.92H8c.69-4.89-1.19-9.41-2-14.08,1-1.37,1.93-1.57,3.18-.23,2.46,2.63,3.71.88,4.53-1.48A27,27,0,0,0,15,243.32c.13-3.62-.71-7.23-.18-10.87-.11,1.91.67,4.34-2.41,4.53-4.17.26-3.58-3.39-4.47-5.8a16.51,16.51,0,0,1,.42,3.35c-.12,1.8-.86,3.19-2.82,3.5a3.28,3.28,0,0,1-3.83-2.35,14.91,14.91,0,0,1-1.14-5.61A3.29,3.29,0,0,1,1,228.79c2.48-3,.13-5.55-1.36-7.68-2-2.84-2-4.92.72-7,3.61.34,4.9,3.63,6.76,5.27-2.61-5.82-5.35-12-4.2-19.29.81-5.17-2.22-9.91-2.86-15-.7-5.5.58-11.29-2.28-16.52-.39-.72.49-1.49,1.13-2.06,4.26-.57,8.9,3.76,9.57,8.79a2.53,2.53,0,0,1-.33,1.39,4.9,4.9,0,0,0-1.84,5.26c.63,3.25,1,6.54,2.32,9.63,1,2.27,2.4,4.22,4.93,4.43,3.49.29,6.55,1.77,9.79,2.81Z"/><path class="cls-8" d="M67,11.69c10.47,4.63,20.78,9.66,26.1,20.6,6.16,12.67,4.88,25.44-.77,38a17.4,17.4,0,0,1-2.64,3.58c-1.53,1.9-2.87,1.64-3.43-.66C84.49,65.9,78.76,64.54,72.61,64c-8.5-.82-16.49,1.39-24.27,4.54-1.17.48-2.81.79-2.82,2.42,0,1.47,1.31,2.22,2.47,2.87,2.43,1.35,4.89,2.64,7.35,4C45.48,88.45,30,85.4,16.05,69.52c-.39,4.37.24,8.27-.87,12-.93,3.14-2,4.12-4.68,1.69C2.89,76.21-6.13,71.8-16,69c-4.12-.62-8.34-2-12,1.41-3.18,1.66-4.49,3.55-4.18,7.8.79,10.57-4.08,19.59-10.17,27.91-1.25,1.71-2.61,1.91-3.79-.28a29.37,29.37,0,0,1-2.24-5.5c-5.58-18.52-16.18-31.91-36.48-35.22-.81-.13-1.59-.38-2.43-.59,4.66-8.56,10.8-10.73,19.54-6.93.89.38,1.59,1.23,2.72.93,2.52-2.23,4.74-1,6.92.63,2.6,2,4.79,4.45,7.52,6.26a12.42,12.42,0,0,0,4.36,2.1c2.57.93,3.73.21,4.4-2.14,2.66-9.25,9.45-13.17,18.41-14.32.83-.11,1.62-.41,2.45-.53,3.87-.2,7.74-.12,11.61-.09a12.58,12.58,0,0,1,5.7,1.27c4.59,2.35,8.87,3.54,13.53.09,1.44-1.07,3,.46,4.39,1.34.59.42,1.16.85,1.75,1.26,4.79,3.94,11,4,16.49,6.06a6.15,6.15,0,0,1,1.36.12c7.24,2.18,13.31-.8,19.26-4.34l1.25-.81c3.32-2.92,8.49-2.58,11.29-6.52.75-1,2.26-.41,3.24.13a4,4,0,0,0,4,0c4.48-4.13,7.85-1.21,11.36,1.37a14.43,14.43,0,0,1,1.36,1.49c.32-6.29-2-11.35-7.33-15.78l-1.2-.71a6.87,6.87,0,0,0-1.31-.69A17.21,17.21,0,0,1,64.12,24.65c-.75-1.65-2-2.58-3.43-2.09-5.75,1.9-8.93-1.51-12-5.38L47.93,16c-3.7-5.57-4.72-11.47-2.33-17.85.28-.77.3-1.71,1.08-2.11,5.93-3,12-5.31,18.21-5.08a2.4,2.4,0,0,1-.58-2.19c1.11-7.38,0-14.78.3-22.17.13-3.88,1.09-6.59,5.6-7.84C76-42.87,81.33-45.88,83.86-52a5.72,5.72,0,0,0,.32-4.05c-.09.1-.22-.36-.31-.25-3-1.34-5.89.51-8.87-.25-9.62-2.46-17.49-11.79-18.45-22.34A37.81,37.81,0,0,1,61-100.52c.83-1.55,1.31-4.23,4.23-2.58L66-103c2.27-1.86,3.16-4.64,4.69-7,.81-1.26,1.33-2.77,3.1-2.92s3.57-.3,4.6,1.23-.72,2.32-1.44,3.33c-8.63,12-8.76,23.57-.35,34.94C81-67.51,88-66,94.34-69.73c2.29-1.33,4.63-2.6,6.79-4.13,2.45-1.73,3.44-1,4,1.7,2.34,10.61-.16,20-6.72,28.54-6,7.86-13.39,14.08-22.72,19.54,3.58,1,6.14,2.35,8.76,2.48,8.2.4,13.57,5.58,19.1,10.57,1.27,1.14,2.34,2.83,1.62,4.4s-2.7.57-4.09.55C87.48-6.21,75.74-1.52,65.69,7.58,63.12,9.9,63,11.44,67,11.69Z"/><path class="cls-8" d="M14,56.89l-1-1a9.27,9.27,0,0,0-1.67-1.07C6.42,52.6,5.86,52.89,5,58.5a58,58,0,0,0-14.29-5c-4.25.08-8.54-.52-12.69.87-4.25-.25-8.08,1.23-11.85,2.92-2.35,1-5,.75-5.1-1.76-.33-5.32-3.19-10.53-1-16l.15-.81C-35.61,30-31,21.51-29.58,11.84c2.56-17,2.34-33.53-8.68-48.09-.78-1-1.34-2.32-3.2-2.65-1.64,6.47-1.65,13-.32,20.41-6.81-3.14-11.58-7.49-16-12-11.35-11.69-19.95-25.3-26.66-40.1-2.65-5.85-3.26-12.15-3.6-18.49-.28-5.15,4.45-4.15,7-5.63,2.23-1.31,1.92,1.29,2.27,2.57,2.89,1,4.27,3,4.82,6.08A58.29,58.29,0,0,0-66.8-67.55a53.81,53.81,0,0,0,6.09,8.94c1.07,1.28,1,3.45,3.11,3.91,1.93-1.42,3.65-3.06,5.5-4.57,1.77-1.88,3.39,0,5.08.18a7.33,7.33,0,0,0,1.13-.08c2.35-1.53,4.07-5.14,7.6-3,4.47,2.66,8.49,6.05,8.9,11.71.23,3.13,1.36,5,4.33,5.74,1,0,2.07,0,2.56,1,3.44,7.27,6.55,14.64,5.54,23a23.31,23.31,0,0,0,1.5,17.44A17.12,17.12,0,0,1-14-.12c.42,1.93.66,3.89,1,5.81a47.42,47.42,0,0,1-3.53,20.76c-.21.44-.44.87-.67,1.3-.75,1.59-3.11,2.46-2.17,4.81,1.92,1.41,1.26,4.12,3,5.53,1.59-.38,2.1-1.93,3.2-2.79C-10,32.84-7,34-4,35.7c.3.41.58.85.86,1.27,4.42,5.27,9.57,7.13,14.4,5.18-.94-4.15,0-7.62,3.56-10.13a1.65,1.65,0,0,0-.5-1.88c-1.36-4.57.74-9,.35-13.52a62.27,62.27,0,0,0-.36-6.22c-.43-2.28.8-4.09,2.8-5.3L17.91,5c1.87-2,1.62-4.78,2.8-7,1.53-1.32.47-3.07.76-4.6s-.69-3.28,1-4S24.83-9.38,26-8.62c2.76,5.49,6.55,10.78,2.84,17.39a4.51,4.51,0,0,0,0,3.91C32.56,20.07,33.44,28.8,39.71,35c3.12,3.09,2.68,5-1.26,7.37-3.12,1.87-3.38,3.88-2.64,7.43,1.88,9.05,1.74,11.51-8.61,11.69A18.59,18.59,0,0,1,14,56.89Z"/><path class="cls-8" d="M68.39,120.93l4.46-12.06c4.88-4,6.76-3.81,11.94-.48,3.15,2,4.88,6,9.07,6.42a30.43,30.43,0,0,0,4.23-10c.91-1.9,2.62-3.21,3.47-5.26a4.52,4.52,0,0,1,5.91-2.84c.43.24.86.51,1.28.77a8.86,8.86,0,0,1,4,4.27c.52,1.34,1.45,2.21,3.08,1.76,3.27-.91,4,1.51,4.72,3.74,1.91,5.49,2.34,11.42,4.81,16.64,0-.11.08-.08.07-.17a29.37,29.37,0,0,1,3.49-12.56c.19-.45.39-.89.58-1.34.53-1.27,1.09-2.4,2.85-2.14,3.34.5,4.38-1.93,4.66-4.39.69-6,3.38-11.83,1-18-.53-1.4.58-2.09,1.67-2.62.09-.23.19-.47.29-.7l.13-1.12c1.12-1.48-3.93-5.48,2-5,12,8,20.58,24.63,12.74,40-.65,4.37-1.66,5-4.66,3.13-4.21-2.68-4.21-2.68-6.38,2.14-2.1,1.79-2.53,4.13-2.49,6.75,0,2.09.52,4.3-.73,6.26-.9,1-.72,2.5-1.31,3.71-2.24,4.69-8.92,8-14.09,7.4-2.85-.34-2.83-4.25-5.82-3.93a2.12,2.12,0,0,0-2.48,1.6c-.84,1.88-1.08,4.24-3.67,4.76a7.65,7.65,0,0,0-1.76,1.5c-3.42,5.6-4.86,6.12-10.48,3.64A16.35,16.35,0,0,0,99.6,151a3.39,3.39,0,0,1-.43-3.74c2.17-4.47,3.39-9.31,5.57-13.69-3.48,3.34-7.64,3.74-12.07,3a8.66,8.66,0,0,0-7.11-3.33,18.08,18.08,0,0,1-12-3.79C71,127.05,67.19,125.51,68.39,120.93Z"/><path class="cls-6" d="M114.07,15.05c8.19-2.19,12.42-7.51,12-14.28-.18-2.58-3.59-3.2-2.55-6.78,1.52-5.16,2.93-10.15,6.22-14.51,1.58-2.09,3.64-3.91,4.3-6.63l.51-.68c4-1.37,5.18,1.23,6.05,4.28.37,1.58,1.63,3.26-.51,4.55a12.54,12.54,0,0,0,1.17,2.72c2.74,3.65,4.34,3.77,7.53.71C152.91-9.27,152-4.52,146-.88c-5.12,3.13-7.72,8.1-9.46,13.6-.65,2.06-1.51,4.2-1.48,6.28.13,7.6-7.12,11.72-8.47,18.57-.08.41-1,1-1.53.92-1.17-.07-1.57-1.15-1.82-2.1-.8-3,.09-5.92.66-9.8-8.26,3.2-14.39,0-19.6-5.75-.93-1-2.77-1.85-1.68-3.65.9-1.49,2.62-1.24,4.1-1.15,2.53.15,5.25,1.78,7.36-1Z"/><path class="cls-9" d="M161.93,130.9c-1.06-2.42-2.08-4.85-3.17-7.24a16.83,16.83,0,0,1-1.68-8.68c.2-2,.14-5,2.6-5.3,2.14-.29,1.68,2.93,2.74,4,4.3,4.4,4.25,10.62,7.05,15.55,1.43,2.53,3.44,4.89,6.55,5.73l-.09-.1a38.2,38.2,0,0,1,13.38,20.2,47.68,47.68,0,0,0-.81,7.71c0,2.07-.7,3.44-2.95,3.63-2.43.67-4.61.58-5.94-2a16,16,0,0,0-9.18-7.25c-.17,2.59.85,4.81,1.9,7,.64,1.33,1.41,2.61.33,4.09a7.74,7.74,0,0,1-.74,1.5c-.53,1.28-1.33,2.31-2.82,2.35-4.83.13-9.73,1.21-14.44-.88a2.57,2.57,0,0,1-1.44-.83c-3.78-2.62-6.88-5.64-6.76-10.77a2.56,2.56,0,0,0-1.28-2c-5-1.71-6-6.65-8.47-10.36-.57-1.11-1.5-2-1.72-3.33a4.43,4.43,0,0,1,1.3-2.57c2.18-1.6,1.61-2.82.14-4.69-.9-1.15-3.71-3.18,0-4.72,2.5-.09,4.8-.28,3.76-3.9-.43-1.5.82-2.64,1.92-3.15s1.82,1,2.7,1.62c4.69,3.43,3.58,8.76,4.58,13.41.71,3.3-.47,7.38,3.67,9.34a11.56,11.56,0,0,0,4.22,1.44c3.12,1,.3,4.62,2.54,5.95a43,43,0,0,1-.76-9.78c.2-4.46,1.57-7.56,6.29-8.43-.52-1.7-2.08-2.34-3.13-3.46S160,132.38,161.93,130.9Z"/><path class="cls-5" d="M140.05-19,138-21.78c-1.43-2.64-1.76-5.82-5.3-7.25-1.85-.75-2.2-3.56-2.08-5.73.27-5.12,1-10.14,4.39-14.34l0,0c1.6-.76,2.31-2.3,3.27-3.65a2.81,2.81,0,0,1,3-1.45c1.41.39,1.28,1.77,1.29,2.91A19.11,19.11,0,0,0,146-40l-.09-.08c3.13,1,2-3.62,5-3.11,1.38,1.49.76,4.55,2.72,6.35,2,3.45,3.71,6.93,3.9,11.06.06,1.21-.16,3.49,2,3.29,1.3-.11,1.85-1.65,1.88-3.11C161.62-31.11,166-35,167-40.23c.34-1.82,2.52-2.13,4.2-1.56a5.24,5.24,0,0,1,3.37,5.55C173.06-25.94,174.38-14.86,167-6c-1.47,2.41-4.25,3.17-6.24,4.93l-.72,0L152.88,7c-1.69-4.26-.86-7.61-.38-10.93a19.71,19.71,0,0,0-1.71-11.16c-.88-2-1.49-5.35-5-1.7C143.36-14.32,142-18.36,140.05-19Z"/><path class="cls-6" d="M92,79.94a15.35,15.35,0,0,1,2.38-9.36c1.68-2.88,2.74-1.77,4.12,0,1.67-2,2.42-.41,3.32.83,1.54,2.14,2.86,4.49,5.28,5.75,2.13-.7,2.17-3.71,4.45-4.21a1.84,1.84,0,0,1,.81-1c2.7-1.14,2.55-3.87,2.84-6,.57-4.11,2.28-6.74,6.58-7.25,2.62-.15,4.55,1.84,7,2.23.74.35,1.47.72,2.22,1,10.09,4.34,10.07,4.33,4.93,14.25-1,1.88-1.77,2.09-3.15.3-2.39-3.1-3-.56-3.8,1.33l.3.8c1.77,1,1.16,2.51.6,3.9A41.54,41.54,0,0,0,127,94.11c-.41,4-2,6.73-6,7.87-.88.53-1.69,1.31-2.85.8-4.84,3.33-8,.16-11.24-2.87l.09.06a8.1,8.1,0,0,0-5.13-2.24,20.37,20.37,0,0,1-9.06-10.45C92.78,84.8,90.93,82.55,92,79.94Z"/><path class="cls-10" d="M22.86-15.09a10.36,10.36,0,0,1,3.63-6.05c2.12-1.64,3.37,0,4.53,1.33a22,22,0,0,1,4.14,6.66,16.76,16.76,0,0,0,1.11,2.93c.9-1.69,1-3.53,1.42-5.26.82-3,3.11-3.11,5.56-2.85,1.66.18,3.11,1.19,4.75,1.16.22-2.61,2.4-3.57,4-5,.54-.8,1.67-1.2,1.58-2.36-1-.53-2.15-.19-3.11-.71-1.82-1.3-2.83-3.25-4.11-5-.33-4.78.81-6.31,5.09-6.33,3.82,0,7.62.83,11.46,0,2.19-.48,2.92.86,3,2.82a38.22,38.22,0,0,1,0,5c-.43,3.78.27,7.25,3.07,10.06,1.76,1.78,3.21,3.31-.74,4.3-3,.76-3.18,2.45-.59,4.25.9.63,2.5,1,1.65,2.5a3.47,3.47,0,0,1-3.13,1.46c-6.68-.28-12.48,2.92-18.64,4.68a1.66,1.66,0,0,0-1.18.85C44.05,5.54,36.83,5.7,33.22,10.31c-1.59,2-5.66.64-5.53-1.89C28.11.1,26-7.58,22.86-15.09Z"/><path class="cls-6" d="M-16.06,5.81A9,9,0,0,0-17,1c-2.49-1.42-3.27-3.17-2.59-6.25a39.4,39.4,0,0,0,.13-16.47C-20.61-30-21.89-38.14-27.24-45c-2.58-3.33-2.06-6.7.9-8.4.54-.15,1.07-.3,1.6-.47,4,.47,5.37,4,7.32,6.71a25.79,25.79,0,0,1,2.92,5.79,23.7,23.7,0,0,0,2.95,5.64A15.06,15.06,0,0,1-8.44-20.55c-.89,2.84-2.25,5.72,1.46,8.05,1.62,1,1.27,3.23.18,4.93a6.34,6.34,0,0,0-.57,3.82c.68,3.14,2,6.21-.1,9.38-.3.46.4,1.52,1.42,1.57,4.87-4.63,8.22-9.92,7.36-17-.23-1.94.55-3.73,2.3-3.73C5.76-13.55,5-11.26,4.93-10c-.16,3.12-.65,6.22-1,9.34,2.7,2.28.76,4.54-.16,6.69-.69,1.61-2,2.88-2.66,4.58-1.36,3.66-2.47,7.16-6.78,9-2.2.94-2.86,4.38-4,6.78a42.3,42.3,0,0,1-5.93,7.37,14.18,14.18,0,0,1-6-.5c-.74-2.47,1.17-4.25,1.67-6.4l-.05.09A46.7,46.7,0,0,0-16.06,5.81Z"/><path class="cls-5" d="M115.89,98A4,4,0,0,1,120,99.43c2.63,1.82,3.31,1.46,3.5-2.23.33-6.53,1.52-12.81,5-18.5.18-.28.36-.56.56-.82v0c3.66,1.4,7,3.75,11.05,4l0-.08c4.34,8.18,1.85,16-1.19,23.84-.43,1.09-.91,2.26-2.38,2.12-3.08-.28-3.45,2.25-4.43,4.16l0-.08c-2.5,5-4,10.22-3.6,15.9.06.9.61,2.56-1.48,2.21l0,0c-5.26-2.9-6.11-8.35-7.43-13.37-1.11-4.25-1.39-8.66-4-12.49C114.32,102.28,115.56,100.05,115.89,98Z"/><path class="cls-11" d="M161.93,130.9c1.74,2.73,4.86,4.34,6.09,7.49.18,1.85,2.37,2.71,2.54,4.85-3.21.85-4.83-1.81-7.76-3a153.35,153.35,0,0,1-1.88,15.8c-.22,1.38.19,2.89-1.93,2.87-1-2.33-2-4.67-3-7a3.19,3.19,0,0,1-1-.85c-4.65.67-7.79-1.83-8.46-7.33-.46-3.7-1.17-7.41-1.06-11.17a10.38,10.38,0,0,0-2.62-7.45c-1.73-1.88-1.44-4-1.67-6,.72-1.49,1.4-3,2.17-4.44,1-1.82,2.21-3.51,4.47-3.37,2,.11,2.54,2.05,3,3.55.86,2.88,2.14,3,4.11,1.08C156.9,121.05,157.46,126.88,161.93,130.9Z"/><path class="cls-7" d="M48.93-30.88A8.94,8.94,0,0,0,40.68-38a8.18,8.18,0,0,1-4.92-2.08c8.78,2,17.59,3.7,26.68,2.94C69.38-37.7,75.93-39.25,81-44.5c1.62-1.67,3.12-3.36,0-5.09-2.21-1.23-1.24-2.29.23-3.22,2-1.24,3.8-2.72,6.14-3.27-.29.41-.81.8-.83,1.22-.65,10.77-7.82,15.34-17,18-1.5.44-2.8,1.17-2.76,3.05.1,5.51-1.58,11.4,3.63,15.77,1.39,1.16,1.73,2.7-.28,3.47-6,2.29-2.21,3.76.35,5.39.4.26.78.57,1.34,1a5.85,5.85,0,0,1-5.71,3c-5.85-.52-11,1.83-16.31,3.7-2.49.88-2.77,2.25-2.41,4.55C48.07,7.22,49.83,11,51,14.94c-1.34,2.45-2.6,1.18-3.68-.17a19.45,19.45,0,0,1-2.15-4.42c-.49-1.08-.69-3.09-2.43-2.41-1.37.55-.85,2.32-.62,3.59a26.24,26.24,0,0,0,2.46,7c.8,1.6,1.11,3.09-.45,4.43-3.42,2.82-4.55-.63-5.9-2.42S36.55,16.18,35.69,14c-.36-.92-.71-2-2-1.87s-1.57,1.2-1.75,2.18c-.74,4.1-.27,8.08,2.45,11.32,2.4,2.86,5.45,1.43,8.33.58a13.52,13.52,0,0,1,6.83-.54c2.27,1.67,4.59,2.91,7.63,2.86C61.54,28.46,64.6,32,68.65,33a1.9,1.9,0,0,1,.81,3.22c-2,2.42-4.48.88-6.56.41a42.59,42.59,0,0,0-11.78-1.24c-3.16.17-6.24,0-8-1.64.48.38,2.63.52,2.76,2.65s-1.67,3-3.21,3.95c-1.69,1-3.57,1.76-5.1,3.06-1.21,1-2,2.26-1.56,3.9s1.84,2.21,3.43,2.38,3.36-.78,4.6,1c1.38,3.88-1.82,8.91-6.5,10.29A17.05,17.05,0,0,1,33,62c-7,.81-13.81.93-19-5.08,5.63,3.15,11.34,5.45,18,2.94,3.11-1.18,3.85-2.86,2.16-5.67-.51-.85-1.07-1.68-1.63-2.5a16.08,16.08,0,0,1-2.64-7.95c-.35-4.52,3.94-3,6.09-4,2.94-1.46,3.72-2.9.79-4.77-8.3-5.28-9.34-13.69-9.69-22.29C26.75,6,27.3-.68,25-7.08c-.29-2.87-5-4.28-2.68-8h.58c4.38,5,4.93,11.07,5.19,17.29.07,1.78-.5,4.14,1.21,5.11,1.88,1.06,3.27-1.1,4.69-2.08a79.16,79.16,0,0,1,28.87-12c2.38-.52,6.21-.44,2.79-4.63-.57-.69-.59-1.86.19-2.24,4.73-2.27,2-4.88.58-7.62C64.76-24.3,65-27.72,64.92-31s-1.74-4.77-5.12-4.4a19.8,19.8,0,0,1-5-.19C51.05-36.21,49.08-34.72,48.93-30.88Z"/><path class="cls-12" d="M-1,10q2.47-5.33,5-10.65c2.53-3.61,2-7.77,2-11.82,0-2.4.14-4.62,3-5.42C14.38-15,13.4-9.62,13.12-5a24.16,24.16,0,0,1-5,13.27A13.25,13.25,0,0,0,5.48,15C4.36,20,1.34,24.7,2.81,30.09c2-1.2,1.15-6.05,5.4-4.18l.71.05a3.58,3.58,0,0,0,1-.08c2.79-1.38,2.48-4.29,3.2-6.65.61-2,.48-2.06,2.36-1.89.16,4.71-.77,9.64,2.77,13.66l.72.78c1.5,2.6,0,2.82-2,2.42C12.76,33.36,13,35.73,14,38.37a37.44,37.44,0,0,0,2.72,5.21c.45.79,1.74,1.93-.06,2.81-4.27-.2-8.54.52-12.79-.75s-7.61-3.07-9.94-6.78L-6,39c-3.76-6.57-3.62-13,.05-19.66C-4.24,16.25-2.85,13-1,10Z"/><path class="cls-13" d="M146.7,47a23.58,23.58,0,0,1,11.14,6.24c1,1,1.62,2.92.49,3.53-4.52,2.41-2,5.47-1.18,8.44.62,2.15,2.67,5,.76,6.39-2.45,1.82-3.51-2-5.36-3-6.32-3.6-9.94-9-10.43-16.38C141.92,49.21,142.44,46.83,146.7,47Z"/><path class="cls-11" d="M114.11,15c-5.91.71-11.8-.49-17.64-.8-4.11-.22-8.06-4.11-12-6.53-1-.58-.21-1.55.53-1.95,6.34-3.48,13-3.5,19.78-1.72,5.57,1.47,8.58,5.35,9.28,11.05Z"/><path class="cls-9" d="M11.21,12.51c1.23,4.82-1.34,9-2.29,13.45l.1-.1c-1.78,2.51-2.85,5.4-4.3,8.08-.55,1-.84,2.14-2.34,1.91C-3,31.91-.46,26.54,0,21.64c.15-1.87,1.19-3.68,2-5.46A15.13,15.13,0,0,1,4.2,11.4C7,9.07,8.83,12.4,11.21,12.51Z"/><path class="cls-13" d="M9.59-19.78c3.12-1.75,3.21.44,4.1,2.66C17.63-7.31,15.63,1.55,10,10,7.72,11.3,6.8,9.89,7.08,8s0-3.68.71-5.33C11-4.6,11.08-12.12,9.59-19.78Z"/><path class="cls-14" d="M163,44.89l-2.17,2.24c-4.37-3.86-9.05-7.31-14.71-9-4.86-1.41-6.23-4.3-4.2-10.2C147.47,36.18,157.17,37.9,163,44.89Z"/><path class="cls-15" d="M14.77,16.9c-1.83,2.88.16,7.83-4.87,9,2-5.11,4.16-10.18,2.29-15.87a3.11,3.11,0,0,1,.33-2.35c4-6,5.47-12.61,4.67-21.15,3,3.4,3,6,2.58,8.69C19.25-1.53,18.54,1.7,17.91,5l.09-.1C16.54,8.76,16.25,13,14.77,16.9Z"/><path class="cls-16" d="M9.59-19.78c2.74,7.25,1.34,14.37-.65,21.49C8.13,4.58,7.09,7.56,10,10l0-.1a2,2,0,0,1-.36,3C8.43,14,7.53,13,6.76,12.17c-.62-.7-1.25-1-2.09-.42l-2,4c-.26.17-.53.29-.69.18-.45-.31-.22-.66,0-1C4.05,9.68,7.27,4.93,8.43-.84s2.36-11.31.49-17.07Z"/><path class="cls-17" d="M142.2,75.83c-1.51,1.32-1.4,3.31-2,5-.42-.69-.78-1.43-1.26-2.08-1.08-1.46-2.55-3.17-.67-4.62C139.83,72.89,141,74.9,142.2,75.83Z"/><path class="cls-9" d="M4.67,11.75c.57-1.25,1.21-2,2.52-.66C9.08,13,9.62,11.62,10,9.88c1.15.53,1.19,1.58,1.24,2.63C8.61,15.86,6.77,12.75,4.67,11.75Z"/><path class="cls-6" d="M285,64.83c.34-2,.69-4,1-6a7.37,7.37,0,0,1,1.53-1.24c7.59-3.27,10.51-2,10.18,6.24-.94,23.88-7.58,45.27-29.32,59-1,.61-2.36,1-2.16,2.4s1.5,1.7,2.55,2.15c7.13,3,14.4,2.39,21.53.31,4.43-1.3,5.71-.29,4.88,4.23a72.84,72.84,0,0,0-1,10.42c-.16,3.88-1.92,4.32-5.52,4.06-19.15-1.33-37.52,1.37-54.16,11.78-.7.44-1.39.91-2.06,1.41-5.46,4.08-5.36,4.51.26,8.46,4.1,2.87,7.79,6.26,9.89,11,.5,1.12,1.65,2.5.5,3.65-.95,1-2.19-.1-3.23-.48a26.92,26.92,0,0,0-15.73-.86c-5,1.21-5.47,2.72-2.14,6.65a34,34,0,0,1,8.14,24c0,1.46.43,3.33-1.05,4.14-1.74.94-2.4-1.18-3.53-2-1.51-1-2.95-2.15-4.42-3.22-11.35-6.73-22.53-3.23-33.62.69a28.25,28.25,0,0,0-11.76,8.24c-1,1.11-2.24,2.3-1.54,3.93s2.27,1.07,3.55,1.23a4.18,4.18,0,0,1,.5,0c2.27.51,5.58-1.64,6.7,1.29,1,2.62-1.47,5-3.14,7-5.29,6.33-12.36,10-19.94,12.81-2.65,1-5.34,1.84-8,2.76-9.12,1.35-18.15,1.89-26.94-2a11.56,11.56,0,0,1-6.14-5.47,66.89,66.89,0,0,1-6.41-18.29c-.35-1.84-.67-4,1.36-4.87,2.4-1.07,3,1.37,4,2.76s.8,3.94,2.79,3.61,1.84-3,2-4.65c1.14-9.81-3.16-17.79-9.19-25-3.84-4.59-8-9-13.23-12-3.81-2.26-3.12-4.18-.77-7,3.17-3.79,6.43-7.57,9.21-13.3-6.65,3.27-12.76,3.71-18.94,3.4-1.91-.09-4.37.54-5.51-1.47-1.34-2.38,1.44-3.32,2.4-4.91,2.11-3.46,5.68-6,7.13-11.29-15,6.58-28.65,6.89-41.64-5.11,3.06-.88,5.16-1.09,6.77-.17,5.73,3.32,11.33.94,17,0,1.08-.18,2.61-.16,2.77-1.64s-1.44-1.63-2.43-2c-3.26-1.25-6.73-2-9.82-3.58-8.73-4.36-13.44-11.62-14.24-21.34-.13-1.56-.72-3.77,1.16-4.46s2.62,1.54,3.52,2.82a14.67,14.67,0,0,1,2.42,6.48c.82,5.68,1.28,5.86,6.21,2.56a10.55,10.55,0,0,0,1.11-1,23.63,23.63,0,0,0,6.54,5.44c3.17,3.52,7.72,3.47,11.78,3.86,3.21.31,5.24.58,5.11,4.31,0,.33.79.44,1.29.32,4.27-1.92,10-.54,12.8-5.82,2.23-1.87,2.48-.6,2.16,1.41a61.32,61.32,0,0,1-4.72,15.31c-.59,1.31-1.71,2.44-1.42,4.06l.11,1.94c.45,1.61,1.3.86,2.19.42,2.72-1.32,4.56-3.7,6.8-5.59l1-.66c2.34-.63,4-.76,3.85,2.7a8.47,8.47,0,0,0,1.64,5.65c3.89,4.58,3.8,10.16,4.54,15.58.36,2.59-1.14,4.4-2.25,6.32,3.57-.62,5.63,1,5.6,4.39-.07,7,3.56,12.94,4.9,19.51.59,2.85,2.45,1.61,4.06,1.09a2,2,0,0,1,1.62.31c4.53,4.25,3.91,9.89,3.14,15-.59,3.86-1.41,8-3.5,11.54-.24.46-.5.93-.73,1.39-.5,2.66.74,3.45,3.24,3.22,2.21-.21,4.48-.61,6.63.5a9.41,9.41,0,0,1,.95.83c2.09,1.15,3.86-.23,5.73-.72,3.87-1.36,7.07-3.52,8.85-7.39a28.61,28.61,0,0,0,6.13-16.91c.12-3.64,3.48-5,4.6-7.9.32-.36.66-.7,1-1a21.23,21.23,0,0,1,10-3.57c4.22-.51,8.23-2.38,12.7-2.07,1.85.12,2-2.31,2.72-3.65,2.21-4,2.57-8.66,4.43-12.84,1.1-2.47,2.82-4.09,5.11-3.93,3.48.24,6.18-1.5,9.1-2.48-4.45-1-4.68-5.25-4.38-7.82.41-3.54,3.86-6.68,7.37-7.25,4.11-.68,3.53-1.72,2-4.42-1.45-2.51,1.42-9.18,4.1-10.25,3-1.18,5.12-4,8.55-4.28,1.38.11,2.05,1.37,3.15,1.94,3.53,2.11,7,5.09,10.9.51.75-.86,2.27-.69,3.31-.14,5.28,2.78,9.63.66,13.37-2.85,2.34-2.2,4.93-.21,6.83-1.2-3.6.65-6.54-1.29-9.27-3.77a32.65,32.65,0,0,1-2.58-3c-1.62-7.36-.13-13.54,6.43-17.93.58-.56,1.15-1.12,1.7-1.71a31,31,0,0,0,8.22-16.08c1.17-6.16,4.78-11.51,7-17.36A34.28,34.28,0,0,0,285,64.83Z"/><path class="cls-3" d="M-138.86,196.11a7.58,7.58,0,0,1-1.48-1.32c-1.18-1.85-4.22-3.52-2.73-5.74,1.12-1.67,3.54.63,5.42,1a53.4,53.4,0,0,0,27.5-1.73c2.37-.79,4.33-2.36,3.25-5.21-1.79-4.69-1.5-9.44-1-14.24-.63-.65-1.35-1.24-1.38-2.25,1.73-3.85,5.39-5.67,8.8-7.23,2.66-1.23,4.35,1.07,4.82,3.82a15.92,15.92,0,0,1-.2,2.47c-.23,2.74.33,4.49,3.58,2.77,1.7-.91,3.24-.71,4.25,1,1.94,3.29,3.09,1.87,4.27-.56.81-1.65,1.82-3.28,1.67-5.16-.42-5.35-2.22-10.58-1.06-16.07.17-.79-1.12-1.56-1.75-2.32,0-3.85,1.81-7.29,2.8-10.88.74-2.69.94-5,0-7.46,1.25-2.13,2-4.79,5-5.16,4.11,1.88,4,5.19,2.86,8.78-1.84,5.88-3.36,11.81-3.14,18.05a35.73,35.73,0,0,0,3.76,14.84c.59,1.18,1.68,2.77,2.81.66,5.3-9.92,13.58-17.92,17.79-28.59,2.32-5.88,5.09-11.53,5.59-17.94.18-2.18.87-3.87,3.52-3.7a12,12,0,0,1,5-6.13c2.92-2.66,5,.28,6.92,1.44a48.14,48.14,0,0,1,12.94,11.63c1.94-3-.1-5.77.94-8.15.94-2.13.31-5.31,3.64-5.84s3.81,2.31,5.15,4.85c-.61-4.47.89-8,1.92-11.69.63-2.21,1.75-2.67,3.53-1.1l.77,0c1.45-.13,2.09.48,2,2A13.74,13.74,0,0,0,5,113.19c2.71,1.93,2.44,4.78,2.54,7.6.1,2.51-1.14,5.33,1.43,7.38a114.49,114.49,0,0,0,2.47,17.08c1.3,5.93-2.88,10.69-3.76,16.21-.32,2-3,2.27-4.57,1-4.51-3.55-10.27-4.88-14.68-8.37-2.38-1.89-2.73,0-3.85.93-.72.57-2.39-.12-2.1,1.81.49,3.28-1.91,5.46-3.08,8.14-1.63,3.78-1.59,8.08-4.2,11.81-1.41,2,1.06,4.53,3,6.22,4.3,3.68,4.11,4.79-1.05,7.51-1,.53-1.54,1.67-2.51,2.29-1.5.3-3.59-.92-4.32,1.35-.63,2,.52,3.54,1.83,4.88,1.95,2,4.53,2.69,7.12,3.37,5.31,1.4,10.83,2.44,15.34,5.68,2,1.45,5.91,2.63,3.68,6.71-1.92,2.27-3.74,1.06-5.64-.11a70,70,0,0,0-15-6.64c-2.53-.84-3.27.16-4.06,2-2.92,2.6-4.57-.05-5.94-1.79a24.14,24.14,0,0,1-4.72-11.83c-.22-1.62.06-4.35-2.23-4.37-1.92,0-2.26,2.56-3,4.17-1,2.38-.72,4.85-.06,7.3.4,1.45.73,3-.85,4a3.55,3.55,0,0,1-4.21-.18c-1.91-1.49-5.13-2-4.5-5.59a5.36,5.36,0,0,0,1.68-4.43c-.3-3.19,0-6.7,1.72-9.47,2-3.11,1.33-5.53-.55-8.2a37,37,0,0,1-7-18.88,22.27,22.27,0,0,1,1.47-9.22c-1.84,5.81-4.79,11.12-7.82,16.34-1.06,1.82-1.3,3.3-.41,5.08.75,1.5,1.52,3,.47,4.69-2,1.94-1.94,6.13-6.29,5.78-1-.09-1.08,1.37-.89,2.41s1.64,2.25.31,3.56c-1.66,1.33-1.55,2.34.16,3.75,4,3.24,6.41,7.63,8.69,12.13a13,13,0,0,1,1.21,8.11c-1.32,4.09-2.9,8.08-4.54,12.06-.88,2.13-2.26,2.82-4.4,2.05-4.09-2.32-1.36-6.11-1.82-9.15-.33-2.18.76-4.52,1.52-6.74.94-2.73,1-6.11-1-7.8-2.86-2.34-9.87-.75-12,1.85-1.74,2.11-2.9,5-6.43,4.7a2.71,2.71,0,0,1-1.23-.59c-1.73-1.6-1.09-3.18,0-4.8a13.54,13.54,0,0,0,2.56-5.8c-4-.87-8.11.85-12.12-.24-1.92-2.25-3.71-4.6-7.26-2.65-1.12.62-1.61-.72-2.1-1.55-.83-2.81-.78-2.51-3.51-2.06-7.63,1.27-15.14,3.75-23,2.42A5.81,5.81,0,0,0-138.86,196.11Z"/><path class="cls-11" d="M71,94.93c-4.67-3.76-7.11-9.5-11.89-13.22-1.78-1.39,0-2.56,1.15-3.51,1-.8,2.66-1.34,2-3-.62-1.45-2.27-1.14-3.55-1.2-2.82-.13-5.66-.11-8.25-1.47-1.87-1-2.24-2.09,0-3a45.84,45.84,0,0,1,26.33-3c3.86.74,5.89,3.81,7.54,7.32a87.27,87.27,0,0,1,7.44,22,1.36,1.36,0,0,1,1.48,1c.27.87-.26,1.57-.51,2.33-3.11,9.59-4.38,9.56-11.5,4.07C77.74,100.59,73,99.4,71,94.93Z"/><path class="cls-5" d="M8,128.93c-1.58.1-3.19,2-4.6.67-1.21-1.19.46-2.73.65-4.15.49-3.63,3.62-8.17-3.09-9.45-1.35-5.7-7.53-10.24-4.13-17.09L-.84,97c4.57-2.32,6.6,1.41,9.16,3.85.61,1.13,1.67,2,1.71,3.43,1-1.62.67-4,3.55-4.63,3.11-.63,4,1.49,5.41,3.25,3.25-1.77,3.2-5.12,3.79-8.11.47-2.41.64-4.87,1-7.31.57-4.3,2.64-4.94,6-2.44,2.34,5.41,2.18,11.15,1.43,16.73A71.35,71.35,0,0,0,30.32,112a27.47,27.47,0,0,1-7.09,10.66,8.06,8.06,0,0,1-4.4-1.35,1.6,1.6,0,0,0-1.54.95c-1.68,3.78-4.7,5.85-8.59,6.83Z"/><path class="cls-6" d="M63,202.92a72.74,72.74,0,0,1,2.18,12.18c.76,10.23-4,18-10,25.42-.55.67-1,1.48-2,.92s-.8-1.71-.65-2.69c1-6.92-.18-13.55-2.67-20-1-2.65-2.25-5.19-4.81-6.78l-2.51-1.82c-2.42-3.53-2.06-7.89-4.32-12.93C46.77,201.27,55.43,199.17,63,202.92Z"/><path class="cls-18" d="M104.91,79.47c-2.49-2.72-5.17-5.3-6.41-8.91a17.78,17.78,0,0,1-.56-10.72c1.51-5.68,1-11.45.54-18.21a63,63,0,0,0,21.62,15.3c1.81,3.87-1.63,6.85-1.92,10.45C118,69.46,118,72,116.7,74c-.69,1.06-.84,2.71-2.76,1.87l.08,0c-3-2.2-2.37,1-2.77,2C109.23,83.49,109.29,83.51,104.91,79.47Z"/><path class="cls-6" d="M5.86,102.16-.84,97a6,6,0,0,1-.79-4.29c1.22-5.1.38-10.15-.92-15.88A34.2,34.2,0,0,1,11,86.53c3.2,3.55,4.4,2.37,5.34-1.38.37-1.44.73-2.89,1.21-4.3.43-1.25.88-2.77,2.63-2.37a2.8,2.8,0,0,1,2.36,2.87c-.83,7,.64,14.34-3.52,20.74-2.9-1.44-5.37-2-5.69,2.51A6.44,6.44,0,0,1,12,107.28c-.58.9-.58,2.52-2.13,2.4S8.58,108,8.27,107C7.76,105.2,6,104.1,5.86,102.16Z"/><path class="cls-11" d="M82,193.93a11.86,11.86,0,0,1,4.19,8.65c.36,4.29,1.33,8.52,2.09,12.77,1,5.67.47,10.51-4.49,14.72-4.38,3.71-5.51,9.61-7.09,15.08-1.5-7.1.15-14,.6-21a43.54,43.54,0,0,0-2.69-19.54,11.08,11.08,0,0,0-3.6-4.68C73.8,196.37,78.38,196.05,82,193.93Z"/><path class="cls-9" d="M71,94.93a43.21,43.21,0,0,1,13.39,7.42c2.94,2.27,4.66,1.88,4.42-2-.14-2.42,1.15-3.48,2.92-4.42l.36-6c.83-1-.44-3.4,2.17-3.13,2.5,3.67,5,7.37,8.63,10,1.42,1.51-1.19,2.53-.48,4-.33.75-.73,1.54-1.62,1.63-3.32.31-3.79,1.36-2.28,5.07a3.26,3.26,0,0,1,0,1.45,31.61,31.61,0,0,1-2.56,14.4c-1.59-1.89-3.16-3.82-4.8-5.67-4.85-5.49-10.26-9.85-18.27-8.74C72.76,104.15,69.51,99.85,71,94.93Z"/><path class="cls-19" d="M28,111.89A49.33,49.33,0,0,0,29.74,85l1.3-.09a68.3,68.3,0,0,1,.69,17.43c-.21,2.4-1.63,5.66,1.19,6.77,3,1.19,2.25-3.51,5.52-4.66.77,6.12,1.45,12.39,7,17.52-.47-4.76-1.75-8.54-1.41-12.47.16-1.82,0-3.67.26-5.49,1.26-10.29,4.6-11.91,13.79-6.7-.21.17-.46.5-.6.46-10.07-2.9-11.22-2.13-12.3,8.47a24.69,24.69,0,0,0,.56,9.42c.87,3,2,6,3,9-6.14.1-6.45.62-6.71,7.35-.24,6.36,1.88,12.11,4,17.9-.09.24-.19.47-.28.71-4.79,1-5.09-3.27-5.65-5.79-1.47-6.6-2.32-13.38-1.21-20.2-.55,3.74-.9,7.6-.09,11.21,1.35,6-.73,12.4,3.16,18.21,2.16,3.21,0,5.61-4,5.23a25.5,25.5,0,0,1-15.22-6.55c2.21-4.47,2.21-4.47,9.41-2.19a63.56,63.56,0,0,1,3.33-36c-.89,1.84-2.4,1.75-3.84.77A22.55,22.55,0,0,1,28,111.89Z"/><path class="cls-6" d="M100.82,191.82c.46,2.64,5,4.49,2.67,7.16-1.82,2.12-4.86-.65-7.29-1.31-4.44-1.2-9.15-1.48-13.29-3.74,3.77-3.3,6.83-8.16,13.1-6Z"/><path class="cls-20" d="M5.86,102.16a5.15,5.15,0,0,0,.59.78c1.47,1.45,1.64,4.73,3.83,4.58s2.27-3.23,3-5.14C15,97.6,17,100.91,19,102.09v.8c-2.83-1.21-4.67-.5-5.53,2.61a20,20,0,0,1-1.63,3.56c-.44.85-.76,2-1.87,2s-1.49-1.18-1.7-2.09C7.72,106.63,5.57,104.82,5.86,102.16Z"/><path class="cls-21" d="M94.28,86.72l-2.17,3.13c-.87-2.85-1.78-5.7-2.58-8.57-.39-1.39-2.39-3.2.1-4.14,2.24-.84.7,2.56,2.37,2.8A21.72,21.72,0,0,1,94.28,86.72Z"/><path class="cls-3" d="M113.94,75.91c4.38-5.57,4.41-12.55,6.15-19,.57.61,1.13,1.23,1.69,1.84-2.31,4.75-3.14,9.92-4.36,15C117.08,75.18,117.13,78.53,113.94,75.91Z"/><path class="cls-22" d="M64.25,141.71l6.83-1.93c.9.23,2,0,2.84,1.33C70.69,142.68,67.43,141.77,64.25,141.71Z"/><path class="cls-5" d="M88,179.25l-.65.61C79.56,186,71,190.5,61.08,191.91a43.84,43.84,0,0,1-22.29-3c-4.95-1.92-9-13.95-7.35-19.09.61-1.9,2-2.46,3.42-3.26.49-.17,1-.35,1.45-.55,4.94.81,9.81,2.13,14.94,1.07,1.79-.37,2.87,2,4.6,2.48a15.83,15.83,0,0,1,4.49,4c.93,2,1.65,4.19,4.51,3.77,1.43-.36,1.31-1.71,1.85-2.65,1.52-2.68,3.4-4.8,6.86-2.66,4.68.81,7.89,5.8,13.59,4.23C89.46,175.57,88.51,178,88,179.25Z"/><path class="cls-23" d="M36,167.94c-.57,1.9-1.07,3.83-1.72,5.7-1.42,4.13.21,6.45,4.28,7.2,2.63.48,4.42,1.35,2.24,4.12-2.87,3.65.07,4.2,2.47,4.82,12.85,3.3,25,1.81,36.36-5.32,2.52-1.58,5.11-3.07,7.67-4.6C73.71,192.57,58,195.51,40.38,190.21c-8.6-2.6-15.27.92-16.37,8.69l-.06,0c-5.71-1.08-6.51-2.33-4.39-6.81,1.62-3.4-.34-9.53-3.59-11.43-1.61-.94-2.82-.44-3.93.82-1.61,1.81-3.52,2.14-5,.11-1.19-1.68-2.73-3.79-.08-5.72l.16-.14c6-13.08,9.59-26.39,3.86-40.58-.94-2.34-1.95-4.69.53-6.74,3-1.1,3.89,1.18,5,3,2.39,4.16,3,9,4.53,13.39A44.37,44.37,0,0,0,20.5,156c.4,3.53,1.55,6.52,4.78,8.2s4.65,4.58,5.65,7.47c.25-1.61-.17-3.59-.14-5.57a3,3,0,0,1,2-3.1,3.06,3.06,0,0,1,3.62.91C37.39,165.26,38.27,166.81,36,167.94Z"/><path class="cls-24" d="M73,171.91c-2.31,1.26-2.56,3.68-3.32,5.84-1,3-2,6-5.64,6.94-.76-1.14-.06-2.22.12-3.33,5.17-8.45,1.11-19.36-8.64-22.84-1.89-.67-3.76-1.18-5.15-2.72-.66-1.08-.82-2,.66-2.5a10.46,10.46,0,0,1,6.63,1.64c4.9,3,10,5.08,15.89,4,.77-.14,1.86-.19,2.13.75.43,1.53-.75,2.39-1.77,3.23l-.3-.3.35.24c-1.71,3-5.67,5.95-.2,9.11C73.5,172.31,73.25,172.29,73,171.91Z"/><path class="cls-23" d="M73,171.91l.76.06c5.62.77,10.46,5.43,16.64,2.55.22,2.78-1.46,3.54-2.47,4.73-3.39-3.56-9-2.33-12.46-5.77A13.83,13.83,0,0,0,73,171.91Z"/><path class="cls-24" d="M51.06,153.3l1,1.66c1.52,1.42,2.59,3.14-.22,3.95-2.06.61-2.35,2.65-3.92,3.49-3.57.2-4.44-2.15-5.4-5-1.27-3.85.5-5.81,3.44-7.46h0Z"/><path class="cls-25" d="M61,93.92c1.68,2.25,2.47,4.68,1.12,7.55L61,94Z"/><path class="cls-6" d="M-2.79,213.93c-3.82-4.67-9.28-6.23-14.75-7.79a84.67,84.67,0,0,1-9.08-2.69c-5-2.08-8.17-8.31-7.24-13.56.3-1.73,1.13-2.29,2.78-1.67s3.43,1.22,5.15,1.82c2.15-.13,4.26.49,6.41.43a42.13,42.13,0,0,1,9.33,3.28c-.07-.09,0-.15,0-.22-.17-3.37-.75-6.71.71-9.9a2.43,2.43,0,0,1,.43-1.3c2.63-3.17,1.34-7,1.74-10.53.45-3.87,2.24-5.58,6.16-4.67l.15.73c3.49,3.17,4.77,6.92,3.49,11.6a7.69,7.69,0,0,0,.3,4.42c4.44,12.17,1,25.94,7.77,37.64.6,1,1.25,2.83-.18,3.6-1.59.85-2.07-1.13-2.95-2C5.25,221.08,3.12,219,1,216.92-.81,216.6-4.1,218.17-2.79,213.93Z"/><path class="cls-13" d="M11.64,129.83c7.34,14.83,6.48,29.46-1,43.95-.75,1.43-1.09,3.44-3.46,2-2-3.39-4.42-6.35-8.19-7.9l.06.07c-1.28-1.26-2.82-.5-4.26-.53a29,29,0,0,1-11.09-7.83c-1.6-1.75-2.09-3.45-.34-5.35a4.8,4.8,0,0,1-.13-1c.15-2.21-1.78-5.26.64-6.4,2-.93,2.56,2.48,4,3.72,4.89,4.16,11.52,5.12,16.6,9.49,1.2-2.54-1.11-5.88,3.07-7.39,1.88-.68,1.7-4.82,1.18-7.49A65.18,65.18,0,0,0,6.41,136c-1-2.85-.84-5.13,1.59-7v0C9.44,128.27,11.16,126.44,11.64,129.83Z"/><path class="cls-5" d="M7,175.9c.34,1.27.51,3,2,3.13,1.63.14,1.65-1.77,2.15-2.9,1-2.15,2.34-2.94,4.11-1.06,3.75,4,7.17,8.22,8.45,13.72.42,1.78.75,3.81-.71,5.17-2.55,2.38-.89,3.63,1,5-10.34,3.25-16.81-.52-19.43-11.21A33.35,33.35,0,0,1,4,178.81C4.06,176.9,4.72,175.55,7,175.9Z"/><path class="cls-6" d="M68.07,36c-5.09-5-11.55-5.08-18-5.09-3.5,0-4.84-1-2-4a2.3,2.3,0,0,0-2.46-1.15C43.74,25.77,42,24.51,43,22a45,45,0,0,1-4.5-14.59C38.11,4,39.83,2.73,42.36,2c2.9-.81,3.67,1.52,4.34,3.6,1.07,3.28,1.58,6.79,4.27,9.32v-.08c3.65,4.72,7.89,8.1,14.41,6.55,3.32-.79,3,2,2.47,3.36-1.44,3.86.16,4.59,3.58,4.72,3.17.13,5.86,2,8.61,3.43L80,32.86A22.55,22.55,0,0,1,89.07,52.5c-.06,1.54.05,3.83-1.88,4.13-1.77.27-2.58-1.7-3.28-3.21A1.32,1.32,0,0,1,83.3,53c-3.76-2.1-7.32-4.38-12.1-3.71-3,.43-5.47-.07-7.36,3.74C62.42,55.92,57.9,56.86,55,59l.09-.06a62.05,62.05,0,0,1-9.7,4.71c-4.55,1.66-8.63,1.41-12.42-1.71L33,62c4.27-2.43,6-7.41,10-10-.89-4.23,3.18-5.37,5-7.92,4.57-3.54,9.25-7,15.52-5.32,1.7.44,2.11-1.41,3.44-1.29A1.57,1.57,0,0,0,68.07,36Z"/><path class="cls-16" d="M80,32.92c-4.74-1-9-4.42-14-2.39-1-1.45-.06-2.23.28-3.06,1.36-3.28.21-4.3-3.2-4.64-5.28-.53-9.73-2.83-12.15-8,4.09,3.9,8.49,6.82,14.63,5.56,2.9-.59,3.58,1.81,3.08,3.79-1,3.85.91,4.45,4,4.93C75.44,29.57,78.28,30.36,80,32.92Z"/><path class="cls-26" d="M55,59c2.95-3.4,6.76-5.93,10-9C69.35,45.71,77.72,48.08,83.3,53c-4.68-2.93-9.91-2.4-15.06-2.46-.83,0-1.5-.31-2,.65C63.77,55.67,59,56.84,55,59Z"/><path class="cls-27" d="M83.91,53.42c3.11,2.82,4.33,1.32,4.46-2.07.28-7.53-3.59-13.24-8.41-18.49,6.82,3.58,11.53,14.41,9.51,22-.36,1.38-.31,3.43-1.91,3.76-1.8.38-1.89-1.89-2.77-2.94A7.46,7.46,0,0,1,83.91,53.42Z"/><path class="cls-28" d="M-8.09,53.13A34.69,34.69,0,0,1,3.71,57c1.63-1.44-.59-4.48,2.1-4.67A8.52,8.52,0,0,1,13,55.93c-2.81-.39-6.27-3-7.33,2.38-.27,1.39-1.56.72-2.45.26A63.69,63.69,0,0,0-9.26,54.1C-9.31,53.24-8.5,53.43-8.09,53.13Z"/><path class="cls-24" d="M32.92,61.91c5.87,3,11.53,2.17,17.12-.86a54.06,54.06,0,0,1,5-2.14A24.56,24.56,0,0,1,41.5,65.12C38.14,65.57,35,65.2,32.92,61.91Z"/><path class="cls-25" d="M16.93,45.79c-1.23-2.69-2.79-5.28-3.6-8.09-.72-2.45-1.4-5.75,3.38-4.45,1.23.34,1.75-.59,2.24-1.47,1.86,1.26,3.53,2.88-.37,2.94-5.83.09-4.21,2.9-2.68,6,.92,1.88,3.38,3.52,1.08,6C16.13,46.44,16.12,46.13,16.93,45.79Z"/><path class="cls-20" d="M16.93,45.79c0,.3,0,.61.05.92-5.59.47-11.21,1-16.46-1.67-2.76-1.43-5.73-2.69-6.58-6.18C.32,45.43,8.35,46.52,16.93,45.79Z"/><path class="cls-16" d="M14.77,16.9c.49-4.17,1-8.33,3.23-12,.25,3.21-1.33,6.09-1.7,9.18-.68,5.79-.6,11.53,1.93,17C13.5,27.18,15.19,21.78,14.77,16.9Z"/><path class="cls-9" d="M137,143.1c.58.59,1.16,1.17,1.75,1.75,3.29,3.11,4.63,7.44,6.42,11.34,2.72,5.92.47,9.36-6.08,10.87a6.46,6.46,0,0,1-2.52-1.61c-2.3-.48-2.9,1.78-4.24,2.76-3.63,2.66-6.35,2.5-9.85-.85a31,31,0,0,0-4.39-5.68c-5.33-6.09-6.2-15.27-2.12-20.78.82-1.17,1.54-2.44,3-3,2.4,3.74,2.87,8,3.66,12.27.25,1.36.43,3.12,2.49,2.92s2.79-1.24,2.78-3.44a8.69,8.69,0,0,1,3-6.9C133.06,140.91,135.13,140.24,137,143.1Z"/><path class="cls-20" d="M137,143.1c-2.94-1.85-5.2-1.3-4.71,2.41.86,6.58-4.88,8.74-7.83,12.73-.79,1.06-1.79-.26-2.33-1-3-4-5-8.33-3.82-13.45a17.62,17.62,0,0,0,.65-5.9c4.46,4.91,10,4.28,15.55,2.84,2.62-.68,2.15-2.05,1.08-4.05-1-1.82-3.86-4.28.42-5.92.57.65.79,1.29-.05,1.91-.85,3.47,2.29,4.72,3.9,6.86C139.42,141.14,136.75,141,137,143.1Z"/><path class="cls-7" d="M136,132.69c0-.64,0-1.28.05-1.91,1.92-.12,3.5-.29,3.38-3a21.71,21.71,0,0,1,1.8-8.68c4.39,6.25,5.07,13.53,5.71,20.81.25,2.83.59,5.62,2.26,8,.7,1,1.54,2,2.6.3.69-1.14.6-3.57,2.74-2.55s2.08,3.19,1.65,5.27c-2.11-1-2.35,1-3.18,2-7-2.88-7-9.35-7.85-15.33-.4-2.76.21-5.64-.93-8.34-.4-.93-.78-2.09-1.82-2.14-1.31-.07-1.32,1.22-1.41,2.2C140.66,132.43,138.53,132.86,136,132.69Z"/><path class="cls-24" d="M115.89,98c2.73,11,3.22,22.76,11.1,32-4-.59-4.79-4.1-6.19-7a7.52,7.52,0,0,1-.53-1.39c-1.09-4.5-.8-10.56-3.64-13.07s-5.68-5.38-9.15-7.25c-.33-.18-.38-.88-.56-1.33a7,7,0,0,1,1.38.46C113.51,103.46,113.51,103.47,115.89,98Z"/><path class="cls-25" d="M116,140.9c-4.25,7.47-2,18.38,8.11,24.89,0,.23,0,.47,0,.7-1.52,5.76-3.46,11.17-10.4,12.38l-.7,0c-1.9-1.7.07-2.09,1-2.81,6.11-4.89,7.06-8.79,2.69-15.15-3.19-4.65-3-10-4.6-15A9,9,0,0,1,116,140.9Z"/><path class="cls-16" d="M132,112c.93-2.68.22-6.54,5.06-6.27,1.42.08,1.62-1.87,2.12-3.06,2.89-6.82,2.88-13.77.82-20.79,4,6.37,3,21.11-2,26.06C136.3,109.62,133.4,109.72,132,112Z"/><path class="cls-24" d="M101.93,149.82c-.68-4.08,2.73-6.89,3.31-10.57.53-3.38,3.34-6.62.67-10.21.26-1.31.69-3,2.19-2.65s.88,2.28.71,3.47A62.19,62.19,0,0,1,101.93,149.82Z"/><path class="cls-25" d="M93.11,134.86c-.33,1.17-.92,2.41-2.22,2.22-1.49-.21-.8-1.55-.57-2.39.91-3.16-1-3.49-3.42-3.84-4.28-.62-9-.39-12-4.47a24,24,0,0,0,11.29,3.07C90.26,129.49,92.57,130.81,93.11,134.86Z"/><path class="cls-25" d="M127,130c.78-4.32,1.45-8.67,2.39-12.95A10.23,10.23,0,0,1,132,111.9c-1.22,5.79-3.74,11.33-3.24,17.47C128.9,130.56,128.1,131.28,127,130Z"/><path class="cls-29" d="M111,146.59c-1.92,3.52-5.29,5.38-8.51,7.4-.81.52-2,1.11-2.38-.35-.31-1.23,1.06-1.44,1.9-1.88C106,151.65,107.79,147.89,111,146.59Z"/><path class="cls-19" d="M95.92,123.28c.68-5.11,2.85-10,1.88-15.36-1.42-2.11-.91-3.3,1.67-3.5,1.59.65,2.13,1.75,1.46,3.38-2.06,1-1.88,2.88-1.93,4.7A19.07,19.07,0,0,1,95.92,123.28Z"/><path class="cls-27" d="M100.93,107.8l-1-1.92c-2.41-2.77,1-3.38,1.84-5,.37-1.38.73-2.76,1.1-4.14A7.58,7.58,0,0,1,107,100c-2.54-1.07-4.11-.75-4.11,2.52C102.91,104.44,103,106.55,100.93,107.8Z"/><path class="cls-5" d="M171.19,154.07c3.1,3,8.17,3.05,10.69,7,.34,2.62,2.14,4.41,3.88,6,6.74,6.22,5.35,13.17,2.7,19.55,1.77-5.4,4.58-11.62-1.13-17.6-1.28-1.34-.28-2.43.53-3.78,1.13-1.86,2.25-2.61,4.46-2.25a7.08,7.08,0,0,1,3.44,1.73,40,40,0,0,1,6.08,7.58c.92,1.43,1.62,2.9.85,4.63-1.63,3.39.44,6.48.87,9.68.34,2.52.49,4.2-2.88,3.86-2.61-.27-2.48,1.06-1.71,3.1.61,1.59,3.32,2.91,1.81,4.6-1.29,1.45-3.32-.7-5.1-.74A41.92,41.92,0,0,0,173,203l.07,0c-5.07,2.52-6.7,2.18-8.08-2.77-1.77-6.37-5.82-11-10.4-15.29-1.39-1.06-2.66-2.31-4.4-2.84-3.06-1.33-4.2-3.76-2.93-6.66,1.45-3.31,4.19-2.42,6.72-1.17,3.4,1.69,6.87,3.24,10.14,5.17,4.71,3.06,8.38,6.93,9.66,12.62-1.25-5.66-4.91-9.48-9.56-12.57-4.06-2.16-8-4.62-12.4-5.95-3.44-1-2.64-3.74-2-5.58,1-2.82,2.8-.55,4.26,0l-.09,0c5.53,2.47,11.31,1.55,17.05,1.23.09,0,.19-.26.24-.41s0-.55-.33-.8l.05.09c-2.82-3.06-3.55-6.93-3.88-10.82C166.84,154.35,167.73,152.31,171.19,154.07Z"/><path class="cls-7" d="M165,179.9c-3.28-1.49-6.53-3.06-9.86-4.43-1.85-.77-4.11-2.44-5.6.3s1.59,3,2.78,4.33c-1.37,3.25,1.68,4.38,3.14,6.08,5.06,5.86,8.68,12.19,8,20.27-.06.83.22,1.83-.21,2.46-4.11,6-4.7,13.43-8.32,19.6a20.08,20.08,0,0,1-3.31,3.71c-1.3,1.3-2.79,2.34-4.66,1.76-2.07-.65-2.46-2.55-2.36-4.42.19-3.29-1.32-4.83-4.52-5.35-2.66-.43-3.13-1.89-1.9-4.5a19.64,19.64,0,0,0-.75-18.75c-1.08-1.93-1.94-3.8-.48-5.91,2.07-1.71,3.64-.68,5,1,2.23,2.78,4.17,6,4.18,9.44A24.49,24.49,0,0,0,151.47,221c1.19-5.22,1.61-10.75,4.34-16,2.31-4.43-.88-8.64-3.83-12.13-2.48-2.93-5.37-5.13-9.52-2.84-.9.49-1.56-.16-2.16-.71-2.2-2.6-1.08-4.89.58-7.22,3.51-4.95,6-10.32,6.63-15.87-1.71,4.36-3.26,9.36-5.52,14.07-.69,1.45-1.82,2.8-3.8,2.54-1.8-.23-2.29-1.43-2.11-3.05l.51-1.44c2.13-3.5,1.25-7.31,1.07-11-.1-1.86-.84-3.86,2.31-3.36,1.76.85,2.81,1,3.45-1.54,1.19-4.69.05-8.74-2.21-12.72-.89-1.57-1.63-3.21-2.44-4.82,4.51,5.17,8.83,10.54,11.51,16.87a18.48,18.48,0,0,0,3.76,6.17c-1.37.07-2.7.21-2.78,2s1.08,2.59,2.42,3.35c3.8,2.16,8.2,3.32,11.28,6.69Z"/><path class="cls-25" d="M129,77.88a53.87,53.87,0,0,0-4.91,25.81c-3-.46-3.49-2.42-4.11-4.26,3.15-.21,2.72-2.68,3-4.74C123.86,88.69,124.5,82.6,129,77.88Z"/><path class="cls-7" d="M104.91,79.47c2.84,2.23,4.83,2.3,5.81-1.85.27-1.13.58-4.37,3.3-1.68-2.16.65-2.14,2.61-2.63,4.3-.36,1.28.91,3.29-1.17,3.74-1.54.33-2.64-1.1-3.64-2.15A20.88,20.88,0,0,1,104.91,79.47Z"/><path class="cls-5" d="M50,46.93a31.14,31.14,0,0,0-7,5c-3,.55-6,3.58-8.91-.42-3.71-5.1-3-8.29,2.67-11,6.73-3.14,6.75-3.27,1.11-8.18,10.16.26,20.47-1,30.23,3.58l.94.54c1.75,2.95-.21,3.44-2.45,3.55C60.19,40.33,54.45,42.08,50,46.93Z"/><path class="cls-13" d="M43,22c1.77,1.54,4.92,1.64,5.06,4.87-2.91,1.17-5.8,2.39-8.74,3.49-1.74.65-3.82,1.14-5.28,0-5.28-4.25-4.85-10.48-5.3-16.4-.3-4,2.83-5.35,5.36-7,3.24-2.14,3.17,1.09,3.53,2.67C38.67,14,39,18.75,43,22Z"/><path class="cls-28" d="M2,15l.69.8A27.74,27.74,0,0,0,.07,30c.18,2.16.32,4.29,2.92,5,.84.78.88,1.51-.15,2.17-4.39-2.11-4.35-6.29-4.27-10.13A23.8,23.8,0,0,1,2,15Z"/><path class="cls-30" d="M2.84,37.23,3,35.06c2.61-2.68,3-6.82,6-9.2-1.13,4.06-3.88,7.47-4.33,11.89C4.5,39.56,3.19,38.62,2.84,37.23Z"/><path class="cls-5" d="M137.81,195.21c1.32,2.86,2.82,5.66,3.93,8.6,2.16,5.75,1.49,11.4-1.37,16.83,2.17,1.21,3.86-2.26,5.66-.25s2,4.48,1.85,7c-.06,1.06-.87,2.54.68,3,1.27.42,2.07-.84,2.81-1.69a19.85,19.85,0,0,0,3.9-7.46c1.34-4.31,1.4-8.86,4.85-12.71,2.21-2.47.95-6.72-.18-10.1a30.3,30.3,0,0,0-9.73-13.62c-1.19-1-3.56-1.57-2.79-3.58.83-2.17,3.15-1.14,4.89-1.21l3.73,1.84c14.37,10,18.13,33.1,7.06,45.51a1.35,1.35,0,0,0-.15,1.39c-2.49,3.49-6.53,4.81-9.89,7.07-3,1.05-5.88,2.73-9.23,2.49-1.53-.11-3.61.22-2.78-2.54l.9-.72c.3-2.59-1.64-1.71-2.71-1.55a24,24,0,0,1-10.7-.73c.55-2.28,2.66-3.16,3.45-5l0,.06c4.47-8.05,6.93-16.26,2-25.06l.05.09c-5.63-3.65-5.13-6.7,1.71-10.4C137.45,192.61,139.35,192.54,137.81,195.21Z"/><path class="cls-25" d="M136.76,194.12c-3.38,2.18-3.3,5.45-2.77,8.85-1.33.81-.38,3.46-2.29,3.4-1.53-.05-2.19-1.87-2.95-3.15-3.61-6.08-6.53-12.38-5.68-19.73.32-2.84-.51-4.2-3.57-3.24a6.61,6.61,0,0,1-6.52-1.33h0c2.74-1.41,5.76-2.11,8.63-3.19,4.11-1.56,5.15-.68,4.81,4-.24,3.32-1.14,6.63.63,9.82.7,1.26.7,3.21,2.4,3.5,1.86.32,2.21-1.65,3-2.8,1.5-2.1,3-4.13,5-.35C138.38,191.52,137.38,192.78,136.76,194.12Z"/><path class="cls-11" d="M11.64,129.83,8,129c3.22-3.71,7.43-6.53,9.91-10.92,1-.59.05-2.47,1.8-2.62,1.88,1.57-.29,4.21,1.49,5.79.07.07.3,0,.42,0a1.85,1.85,0,0,0,.37-.32l6-9c.86-.73,1.92-2.19,2.91-1.09,3.2,3.58,4.32-.07,6.43-2.23a13.64,13.64,0,0,1-.71,9.66c-3.25,7.57-1.76,15.74-3.17,23.55-.81,4.46,2.46,8.45,4.15,12.9-4.85.77-8.19-3.38-12.56-3-2,3.36-3.83.29-4.66-.69-1-1.13-2.6-2.81-1.42-4.89-1.36-4-2.69-8.06-4.1-12.06A9.22,9.22,0,0,0,11.64,129.83Z"/><path class="cls-19" d="M22,120.85c-.58,1.05-.65,2.57-2.35,2.66.07-4.38.07-4.38-1.73-5.47.35-1.19-.21-3.13,1.57-3.23,1.49-.09,1.2,1.67,1.5,2.73S21.64,119.75,22,120.85Z"/><path class="cls-8" d="M101.81,100.91a7.39,7.39,0,0,1-1.84,5,2.29,2.29,0,0,0-2.17,2c-1.87-.88-3-2.4-2.39-4.37A11.16,11.16,0,0,0,95.32,95C99.48,95.77,99.8,99.21,101.81,100.91Z"/><path class="cls-5" d="M19,146.13c1.28,2.67,3.68,4.13,6.08,5.58a33.35,33.35,0,0,0,10,4.39c1.42.3,3.08,1.28,4.18-.17,1-1.28-.46-2.42-1-3.58-.94-1.94-2.2-3.81-2.71-5.86-.46-1.88-2.68-4.29.93-5.87,1.08-.47.16-2.13,0-3.24a38.75,38.75,0,0,1,1.21-17.74c.25-.78.41-1.76,1.34-1.92,1.24-.23,1.65.88,2.13,1.73,1.16,2,.47,4.17.3,6.32-.64,8.43-1.78,17,4.56,24.15.16,1.56,1.66,2.7-.36,4.73-2.62,2.63.54,4.52,2.44,6.24l.87-.38c3.22-2,5.51.59,7.93,1.82,1.62.82.61,2.72.4,4.08a3.37,3.37,0,0,1-2.54,2.78c-6.38,1.6-12.81,3.37-18.77-1.29l.06,0c-.72-.76-1.71-3.09-2,.05-.38,3.49-.8,6.82-3.59,9.41-2-1.35-1.23-3.52-2-5.09-.88-1.74-1.27-3.66-3.52-4.49-4.48-1.66-7.6-6.43-7.11-10.94C18.12,153.3,17.05,149.53,19,146.13Z"/><path class="cls-12" d="M48.06,160.89c-3.94-5.56,2.34-4.19,4-5.93,13.14.7,21.2,14.7,14.75,25.66-.37.63-1.23,1-1.86,1.44-1.26-3.48-5.43-4.28-7-7.52l-3.11-3.69c-.91-.67-2.28-1.3-.42-2.42,4.35-2.61,2.08-3.74-1.06-4.52a13.49,13.49,0,0,1-5.45-3Z"/><path class="cls-23" d="M48,160.86c.91.39,1.81.79,2.72,1.17,2.26.94,5.21,1.29,6.65,2.95,2.22,2.56-3.55,3-2.44,5.87-2.31-.58-4.53.08-6.78.48-4.58.81-8.79.11-12.16-3.43,5.06,2,10.21,3.06,15.55,1.16,1.35-.48,3.14-.88,3.16-2.73,0-1.68-1.73-1.84-2.86-2.38A9,9,0,0,1,48,160.86Z"/><path class="cls-16" d="M58,174.54c3.87,1.08,5.92,3.84,7,7.52l-.9,2.63c-1.82-2-1.14-6.24-5.52-6C58.45,178.69,58.19,176,58,174.54Z"/><path class="cls-31" d="M74,162.86l-1.23.82c-1.43,1-2.93,1.83-4.27,0-.7-1-.38-2.25.75-2.32,1.66-.11,4.4-2.54,4.7,1.59Z"/><path class="cls-24" d="M50,46.93c2.34-5,7.34-5.49,11.74-7,2.59-.86,5.66-.63,7.29-3.48C71.46,39,72,41,67.52,40.8,60.82,40.56,55.23,43.17,50,46.93Z"/><path class="cls-5" d="M140,163.93c1.47,5.3,1.23,10.36-2,15-2.71.77-2.69,3.53-3.81,5.42s-2.61,3.12-4.75,2.73-2.15-2.3-2.1-4c.06-2.52-.88-4.86-1.07-7.37-.25-3.06,0-5.54,3.09-6.5,2.8-.86,3.42-2.48,3.24-5.13-.14-2-.72-4.36,1.71-5.81,1.86,1.18,2.33,3.61,4.29,4.62Z"/><path class="cls-7" d="M138.55,163c-1.56-.45-2.61-2.79-4.23-2-1.92.94-1.13,3.2-1,5,0,1,.4,2.14-.44,2.82-4.92,4-3.36,9.5-3.09,14.9a53.84,53.84,0,0,1,3.41-5c1.6-1.89,3.41-3,4.8.31l-.21.16c-2.72,1.82-3,5-4.2,7.63-.82,1.83-1.52,3.77-4,3.26-2.19-.44-3.23-1.72-3.44-4.24-.4-5,1.05-10.18-1.47-15-.8-1.51-2.28-3-.6-4.89l.1-.1c1.27.36,2.52.76,3.8,1.09,2.69.7,4.19-.16,4-3.16a22.76,22.76,0,0,1-.05-2.48c.06-1.56.57-3.18,2.07-3.6,1.66-.47,1.86,1.52,2.65,2.46A33.6,33.6,0,0,1,138.55,163Z"/><path class="cls-13" d="M125.93,142.88c2.34.05,5.18-.12,4.92,4-.13,2.05-6.57,8.83-8.08,8.05-3-1.56-3.17-4.86-3.33-7.77C119.2,142.69,122.43,142.72,125.93,142.88Z"/><path class="cls-13" d="M124,165.89c4.44,2.05,5.88,5.26,4.07,9.94a12.7,12.7,0,0,0-.59,4.4c0,2.26-.36,5.46,1.92,6.1s1.85-2.85,3-4.26c1.39-1.7,1.73-5.27,5.34-3,3.15,1.29,2.88-1.8,3.06-3,.85-5.51,5-10.13,4.28-16-.1-.78.11-1.92,1.12-1.86a2.87,2.87,0,0,1,1.89,1.41c1.92,3.47,2.14,7.11,1.41,11-1.26,6.8-6.48,11.5-8.86,17.67.91.94,1.37,1.86,0,2.84-2.33,1.69-2.87-1.43-4.48-1.63-2.18,2.27-2.68,5.28-3.68,8.09-.46,1.3-.27,3.35-2.31,3.38-1.81,0-2.27-1.78-2.87-3.08-2.31-5-4.23-10.19-2.84-15.88.77-3.2-.1-4.26-3.54-3.54-2.56.53-5.29.25-8,.33,3.6-3.09,7.08-6.28,8-11.27C121.31,165.84,122.72,166,124,165.89Z"/><path class="cls-6" d="M136.18,189.61l4.47-1.21c4.92-5.38,4.82-5.26,10.4-.62A24,24,0,0,1,159,200.11c1,3.57,2.14,7-2.05,9.66-1.52,1-1.4,3.28-1.76,5-.42,2.11-.59,4.29-1.21,6.34-.7,2.32-1.18,6-3.59,6-2.57,0-.83-3.57-1.68-5.37-.28-.6-.35-1.56-.79-1.78-5.52-2.67-3.51-7.77-4-12a20.09,20.09,0,0,0-6.11-12.74c-.36-.37-.72-.73-1.06-1.09Z"/></g><rect class="cls-32" width="150" height="200"/></g></g></svg>