<?xml version="1.0" encoding="utf-8"?>
<!-- Generator: Adobe Illustrator 22.1.0, SVG Export Plug-In . SVG Version: 6.00 Build 0)  -->
<svg version="1.1" id="Layer_1" xmlns="http://www.w3.org/2000/svg" xmlns:xlink="http://www.w3.org/1999/xlink" x="0px" y="0px"
	 viewBox="0 0 90 90" style="enable-background:new 0 0 90 90;" xml:space="preserve">
<style type="text/css">
	.st0{fill:#1E1815;}
	.st1{fill:#D82627;}
	.st2{fill:#FFFFFF;}
</style>
<g id="qkpNbM_1_">
	<g>
		<path class="st0" d="M0,8.2c0.5,0.4,0.4-0.1,0.5-0.3c0.4-1.2,0.8-2.3,1.6-3.3c1.5-2.1,3.5-3.4,6-4.2C9,0.1,9.9,0,10.8,0
			c22.9,0,45.8,0,68.6,0c3.1,0,5.7,1.4,7.8,3.7C88.4,5,89.2,6.4,89.6,8c0.1,0.3,0.2,0.5,0.4,0.6c0,24,0,48,0,72
			c-0.4,0.2-0.4,0.6-0.6,0.9c-0.3,1-0.6,2-1.1,2.9c-1.6,2.6-3.9,4.5-7,5.1c-0.3,0.1-0.8-0.1-0.9,0.4c-0.3,0-0.6,0-1,0
			c-22.8,0-45.7,0-68.5,0c-0.5,0-1.1,0-1.6,0C9,89.6,9,89.6,8.5,89.5c-3.7-0.8-6.1-3-7.5-6.5c-0.3-0.7-0.1-1.7-1-2.2
			C0,56.6,0,32.4,0,8.2z M45.1,2.5C45.1,2.5,45.1,2.5,45.1,2.5c-6.2,0-12.3,0-18.5,0c-5.3,0-10.6,0-15.9,0c-3.5,0-6,1.7-7.6,4.8
			c-0.8,1.6-0.9,3.3-0.9,5c0,20,0,40.1,0,60.1c0,2.6-0.1,5.1,0.1,7.7c0.2,2.7,1.6,4.8,3.8,6.3c1.6,1.1,3.5,1.3,5.4,1.3
			c13,0,25.9,0,38.9,0c9.4,0,18.9,0,28.3,0c3.6,0,6.2-1.5,7.9-4.7c0.9-1.6,0.9-3.4,0.9-5.2c0-15.3,0-30.5,0-45.8
			c0-6.8,0-13.7,0-20.5c0-2.2-0.5-4.2-1.9-5.9c-1.8-2.2-4.3-3.2-7.2-3.1C67.5,2.5,56.3,2.5,45.1,2.5z"/>
		<path class="st1" d="M80.5,90c0.1-0.5,0.5-0.4,0.9-0.4c3.1-0.6,5.4-2.4,7-5.1c0.5-0.9,0.8-1.9,1.1-2.9c0.1-0.4,0.1-0.8,0.6-0.9
			c0,0.6,0,1.3,0,1.9c-0.3-0.3-0.4-0.1-0.5,0.2c-0.6,1.8-1.6,3.4-3.1,4.6C84.7,88.8,82.8,89.8,80.5,90z"/>
		<path class="st1" d="M0,80.8c0.9,0.5,0.7,1.4,1,2.2c1.4,3.5,3.8,5.7,7.5,6.5C9,89.6,9,89.6,9.4,90c-2.2-0.3-4.2-1.2-5.8-2.7
			c-1.4-1.3-2.5-2.9-3-4.7C0.4,82.3,0.3,82,0,82.3C0,81.8,0,81.3,0,80.8z"/>
		<path class="st2" d="M45.1,2.5c11.2,0,22.3,0,33.5,0c2.9,0,5.3,0.9,7.2,3.1c1.4,1.7,1.9,3.7,1.9,5.9c0,6.8,0,13.7,0,20.5
			c0,15.3,0,30.5,0,45.8c0,1.8-0.1,3.6-0.9,5.2c-1.7,3.2-4.3,4.7-7.9,4.7c-9.4,0-18.9,0-28.3,0c-13,0-25.9,0-38.9,0
			c-1.9,0-3.8-0.3-5.4-1.3C4,84.9,2.6,82.8,2.5,80c-0.2-2.5-0.1-5.1-0.1-7.7c0-20,0-40.1,0-60.1c0-1.7,0-3.5,0.9-5
			c1.6-3.1,4.1-4.7,7.6-4.8c5.3-0.1,10.6,0,15.9,0C32.8,2.4,39,2.4,45.1,2.5C45.1,2.5,45.1,2.5,45.1,2.5z M75.7,45.3
			c0-3.7,0-7.4,0-11.1c0-1.2-0.1-1.2-1.2-1.2c-5.4,0-10.7,0-16.1,0c-1.6,0-1.6,0-1.6-1.6c0-5.3,0-10.7,0-16c0-0.9-0.2-1.2-1.1-1.2
			c-7.1,0-14.3,0-21.4,0c-1.2,0-1.4,0.1-1.4,1.4c0,5.4,0,10.8,0,16.3c0,0.9-0.3,1.2-1.2,1.2c-5.3,0-10.5,0-15.8,0
			c-1.5,0-1.6,0.2-1.6,1.7c0.1,7.2,0.1,14.5,0,21.7c0,1.1,0.1,1.3,1.2,1.3c5.4,0,10.8,0,16.2,0c0.9,0,1.2,0.3,1.2,1.2
			c0,5.3,0,10.5,0,15.8c0,1.3,0.1,1.4,1.4,1.4c7.1,0,14.2,0,21.3,0c0.9,0,1.2-0.3,1.2-1.2c0-5.3,0-10.6,0-15.9c0-1.2,0-1.3,1.3-1.3
			c5.5,0,10.9,0,16.4,0c1.2,0,1.3,0,1.3-1.3C75.7,52.6,75.7,48.9,75.7,45.3z"/>
		<path class="st1" d="M75.7,45.3c0,3.7,0,7.3,0,11c0,1.3,0,1.3-1.3,1.3c-5.5,0-10.9,0-16.4,0c-1.3,0-1.3,0-1.3,1.3
			c0,5.3,0,10.6,0,15.9c0,0.9-0.3,1.2-1.2,1.2c-7.1,0-14.2,0-21.3,0c-1.2,0-1.4-0.1-1.4-1.4c0-5.3,0-10.5,0-15.8
			c0-0.9-0.3-1.2-1.2-1.2c-5.4,0-10.8,0-16.2,0c-1.1,0-1.2-0.2-1.2-1.3c0.1-7.2,0.1-14.5,0-21.7c0-1.5,0.1-1.7,1.6-1.7
			c5.3,0,10.5,0,15.8,0c0.9,0,1.2-0.3,1.2-1.2c0-5.4,0-10.8,0-16.3c0-1.2,0.1-1.4,1.4-1.4c7.1,0,14.3,0,21.4,0
			c0.9,0,1.1,0.3,1.1,1.2c0,5.3,0,10.7,0,16c0,1.6,0,1.6,1.6,1.6c5.4,0,10.7,0,16.1,0c1.2,0,1.2,0.1,1.2,1.2
			C75.7,37.9,75.7,41.6,75.7,45.3z"/>
	</g>
</g>
</svg>
