<svg xmlns="http://www.w3.org/2000/svg" viewBox="0 0 17.34 35.65"><defs><style>.cls-1{fill:#4fb848;stroke:#231f20;stroke-miterlimit:10;stroke-width:0.5px;}</style></defs><title>green-person2</title><g id="Layer_2" data-name="Layer 2"><g id="While_Fill" data-name="While Fill"><path class="cls-1" d="M7.09,18.63c-.76,1.05-3.07,1.7-2.94,4.93,0,1,.23,2.53.34,3.67A2.26,2.26,0,0,0,5.56,29h0"/><path class="cls-1" d="M10,18.53c.76,1,3.18,1.8,3,5,0,1-.23,2.53-.34,3.67a2.26,2.26,0,0,1-1.07,1.72h0"/><path class="cls-1" d="M12,22a3.36,3.36,0,0,0-6.72,0h0v4.51A3.28,3.28,0,0,0,5.66,28v6.36a1.06,1.06,0,0,0,2.12,0v-4.6a3.36,3.36,0,0,0,.89.13,3.13,3.13,0,0,0,.86-.12v4.59a1.06,1.06,0,0,0,2.12,0h0V28.08A3.23,3.23,0,0,0,12,26.56Z"/><path class="cls-1" d="M8.67.25h0a8.42,8.42,0,0,1,8.42,8.42v1.54a8.42,8.42,0,0,1-8.42,8.42h0A8.42,8.42,0,0,1,.25,10.21V8.67A8.42,8.42,0,0,1,8.67.25Z"/></g></g></svg>