<svg xmlns="http://www.w3.org/2000/svg" viewBox="0 0 206.68 589.44"><defs><style>.cls-1{opacity:0.75;}.cls-2{fill:#120c0d;}.cls-15,.cls-22,.cls-3{font-size:12px;fill:#d1d3d4;font-family:Herculanum, Herculanum;}.cls-4{fill:#090909;opacity:0.5;}.cls-5{fill:#201010;}.cls-6{fill:#2e1212;}.cls-7{fill:#3f1312;}.cls-8{fill:#501515;}.cls-9{fill:#611515;}.cls-10{fill:#711818;}.cls-11{fill:#811c1c;}.cls-12{fill:#901f1f;}.cls-13{fill:#9f2222;}.cls-14{fill:#ae2425;}.cls-15{letter-spacing:-0.08em;}.cls-16{letter-spacing:-0.1em;}.cls-17{fill:#be2627;}.cls-18{fill:#ce2929;}.cls-19,.cls-22{letter-spacing:-0.06em;}.cls-20{fill:#dd2d2c;}.cls-21{fill:#ed2f30;}.cls-23{letter-spacing:0em;}</style></defs><title>health</title><g id="Layer_2" data-name="Layer 2"><g id="Health_Bar" data-name="Health Bar"><g id="Bars"><g class="cls-1"><path class="cls-2" d="M5,563.44h6.68a0,0,0,0,1,0,0v20a0,0,0,0,1,0,0H5a5,5,0,0,1-5-5v-10A5,5,0,0,1,5,563.44Z"/><text class="cls-3" transform="translate(2.37 576.83)">0</text></g><rect class="cls-4" x="11.68" y="557.44" width="195" height="32" rx="5" ry="5"/><g class="cls-1"><path class="cls-5" d="M5,525.19h6.68a0,0,0,0,1,0,0v20a0,0,0,0,1,0,0H5a5,5,0,0,1-5-5v-10A5,5,0,0,1,5,525.19Z"/><text class="cls-3" transform="translate(3.93 538.58)">1</text></g><rect class="cls-4" x="11.68" y="519.19" width="195" height="32" rx="5" ry="5"/><g class="cls-1"><path class="cls-6" d="M5,486.94h6.68a0,0,0,0,1,0,0v20a0,0,0,0,1,0,0H5a5,5,0,0,1-5-5v-10A5,5,0,0,1,5,486.94Z"/><text class="cls-3" transform="translate(2.81 500.33)">2</text></g><rect class="cls-4" x="11.68" y="480.94" width="195" height="32" rx="5" ry="5"/><g class="cls-1"><path class="cls-7" d="M5,448.69h6.68a0,0,0,0,1,0,0v20a0,0,0,0,1,0,0H5a5,5,0,0,1-5-5v-10a5,5,0,0,1,5-5Z"/><text class="cls-3" transform="translate(3.67 462.08)">3</text></g><rect class="cls-4" x="11.68" y="442.69" width="195" height="32" rx="5" ry="5"/><g class="cls-1"><path class="cls-8" d="M5,410.44h6.68a0,0,0,0,1,0,0v20a0,0,0,0,1,0,0H5a5,5,0,0,1-5-5v-10A5,5,0,0,1,5,410.44Z"/><text class="cls-3" transform="translate(2.37 423.83)">4</text></g><rect class="cls-4" x="11.68" y="404.44" width="195" height="32" rx="5" ry="5"/><g class="cls-1"><path class="cls-9" d="M5,372.19h6.68a0,0,0,0,1,0,0v20a0,0,0,0,1,0,0H5a5,5,0,0,1-5-5v-10a5,5,0,0,1,5-5Z"/><text class="cls-3" transform="translate(3.04 385.58)">5</text></g><rect class="cls-4" x="11.68" y="366.19" width="195" height="32" rx="5" ry="5"/><g class="cls-1"><path class="cls-10" d="M5,333.94h6.68a0,0,0,0,1,0,0v20a0,0,0,0,1,0,0H5a5,5,0,0,1-5-5v-10A5,5,0,0,1,5,333.94Z"/><text class="cls-3" transform="translate(2.48 347.33)">6</text></g><rect class="cls-4" x="11.68" y="327.94" width="195" height="32" rx="5" ry="5"/><g class="cls-1"><path class="cls-11" d="M5,295.69h6.68a0,0,0,0,1,0,0v20a0,0,0,0,1,0,0H5a5,5,0,0,1-5-5v-10a5,5,0,0,1,5-5Z"/><text class="cls-3" transform="translate(3.15 309.08)">7</text></g><rect class="cls-4" x="11.68" y="289.69" width="195" height="32" rx="5" ry="5"/><g class="cls-1"><path class="cls-12" d="M5,257.44h6.68a0,0,0,0,1,0,0v20a0,0,0,0,1,0,0H5a5,5,0,0,1-5-5v-10a5,5,0,0,1,5-5Z"/><text class="cls-3" transform="translate(2.59 270.83)">8</text></g><rect class="cls-4" x="11.68" y="251.44" width="195" height="32" rx="5" ry="5"/><g class="cls-1"><path class="cls-13" d="M5,219.19h6.68a0,0,0,0,1,0,0v20a0,0,0,0,1,0,0H5a5,5,0,0,1-5-5v-10a5,5,0,0,1,5-5Z"/><text class="cls-3" transform="translate(2.59 232.58)">9</text></g><rect class="cls-4" x="11.68" y="213.19" width="195" height="32" rx="5" ry="5"/><g class="cls-1"><path class="cls-14" d="M5,180.94h6.68a0,0,0,0,1,0,0v20a0,0,0,0,1,0,0H5a5,5,0,0,1-5-5v-10A5,5,0,0,1,5,180.94Z"/><text class="cls-15" transform="translate(1.45 194.33)">1<tspan class="cls-16" x="3.04" y="0">0</tspan></text></g><rect class="cls-4" x="11.68" y="174.94" width="195" height="32" rx="5" ry="5"/><g class="cls-1"><path class="cls-17" d="M5,142.69h6.68a0,0,0,0,1,0,0v20a0,0,0,0,1,0,0H5a5,5,0,0,1-5-5v-10A5,5,0,0,1,5,142.69Z"/><text class="cls-3" transform="translate(1.93 156.08)">11</text></g><rect class="cls-4" x="11.68" y="136.69" width="195" height="32" rx="5" ry="5"/><g class="cls-1"><path class="cls-18" d="M5,104.44h6.68a0,0,0,0,1,0,0v20a0,0,0,0,1,0,0H5a5,5,0,0,1-5-5v-10A5,5,0,0,1,5,104.44Z"/><text class="cls-3" transform="translate(1.18 117.83)">1<tspan class="cls-19" x="4" y="0">2</tspan></text></g><rect class="cls-4" x="11.68" y="98.44" width="195" height="32" rx="5" ry="5"/><g class="cls-1"><path class="cls-20" d="M5,66.19h6.68a0,0,0,0,1,0,0v20a0,0,0,0,1,0,0H5a5,5,0,0,1-5-5v-10A5,5,0,0,1,5,66.19Z"/><text class="cls-3" transform="translate(1.15 79.58)">13</text></g><rect class="cls-4" x="11.68" y="60.19" width="195" height="32" rx="5" ry="5"/><g class="cls-1"><path class="cls-21" d="M5,27.94h6.68a0,0,0,0,1,0,0v20a0,0,0,0,1,0,0H5a5,5,0,0,1-5-5v-10a5,5,0,0,1,5-5Z"/><text class="cls-22" transform="translate(0.73 41.33)">1<tspan class="cls-23" x="3.28" y="0">4</tspan></text></g><rect class="cls-4" x="11.68" y="21.94" width="195" height="32" rx="5" ry="5"/><path class="cls-21" d="M74.55,14.68l-.42-.06-1.34-.17a2.29,2.29,0,0,1-.59-.13A.29.29,0,0,1,72,14a.41.41,0,0,1,.11-.3l.24-.25a1.53,1.53,0,0,0,.25-.41,2.18,2.18,0,0,0,.15-.74c0-1,.08-1.95.12-3s0-1.94,0-2.8q0-.54,0-1.14c0-.41-.06-.82-.1-1.22s-.08-.77-.13-1.11-.1-.63-.14-.85S72.43,2,72.32,2L72,1.94a1,1,0,0,1-.29-.08c-.09,0-.13-.15-.13-.32a.54.54,0,0,1,.18-.47,3.2,3.2,0,0,1,.8-.33L74.25.26c.36-.09.64-.16.86-.2A2.88,2.88,0,0,1,75.6,0l.57.05a7.2,7.2,0,0,1,1.22.24,9.89,9.89,0,0,1,1.52.56,5.69,5.69,0,0,1,1.5,1,5.12,5.12,0,0,1,1.14,1.62A5.55,5.55,0,0,1,82,5.83c0,.83,0,1.57-.08,2.2a9.9,9.9,0,0,1-.25,1.69,6.59,6.59,0,0,1-.47,1.36,7.7,7.7,0,0,1-.72,1.21,2.84,2.84,0,0,1-.73.68,6.77,6.77,0,0,1-1,.59,11.79,11.79,0,0,1-1.16.48c-.4.14-.78.26-1.12.36s-.64.17-.9.23a3.55,3.55,0,0,1-.53.08A3.71,3.71,0,0,1,74.55,14.68Zm-.14-4.35c0,.59,0,1.13,0,1.62a2.12,2.12,0,0,0,.19,1.15.76.76,0,0,0,.62.24,7,7,0,0,0,2.06-.28A3.58,3.58,0,0,0,78.86,12a5.32,5.32,0,0,0,1-2.09,13.12,13.12,0,0,0,.37-3.38A5.41,5.41,0,0,0,79.75,4a5.35,5.35,0,0,0-1.24-1.62,4.83,4.83,0,0,0-1.4-.88,3.43,3.43,0,0,0-1-.26,3,3,0,0,0-.89.15,3.29,3.29,0,0,0-.77.35V8.54C74.42,9.15,74.42,9.75,74.41,10.33Z"/><path class="cls-21" d="M88.14,11.74a1.48,1.48,0,0,0-.59.62l-.9,1.57a.8.8,0,0,0-.11.34q0,.18-.27.18a2.59,2.59,0,0,1-.81-.11c-.2-.07-.3-.17-.3-.31a.52.52,0,0,1,.18-.34,6.1,6.1,0,0,0,.41-.48q.33-.42.72-1c.26-.39.53-.79.79-1.21s.52-.84.78-1.27.47-.82.66-1.18.35-.67.47-.94a1.71,1.71,0,0,0,.18-.57c0-.24-.2-.56-.61-1l-1.48-1.5a2.08,2.08,0,0,0-.43-.37c-.12-.08-.18-.16-.18-.26s0-.1.14-.17a2.81,2.81,0,0,1,.31-.19,2.53,2.53,0,0,1,.37-.18,1.19,1.19,0,0,1,.31-.07l.4,0a.49.49,0,0,1,.41.27c0,.08.09.2.15.34a1.69,1.69,0,0,0,.22.36l.39.51q1.45,1.76,2.52,3c.71.8,1.35,1.51,1.94,2.11s1.13,1.16,1.67,1.65,1.12,1,1.75,1.58a1.06,1.06,0,0,0,.35.22l.28.09a.45.45,0,0,1,.18.1.27.27,0,0,1,.08.22A.48.48,0,0,1,98,14a2.05,2.05,0,0,1-.25.27,1.79,1.79,0,0,1-.28.22.51.51,0,0,1-.26.09h-.54a.19.19,0,0,1-.19-.12,1.2,1.2,0,0,0-.15-.24,27.56,27.56,0,0,0-2.41-2.64H89.17A2.46,2.46,0,0,0,88.14,11.74Zm.89-2-.31.54a.4.4,0,0,0-.07.21.16.16,0,0,0,0,.12.43.43,0,0,0,.23.06,3.57,3.57,0,0,0,.54,0h2.18a7.48,7.48,0,0,0,.75,0,3.14,3.14,0,0,0,.43,0L93,10.6,90.21,7.72Z"/><path class="cls-21" d="M109.49,6c.39-.64.68-1.12.87-1.45a4.09,4.09,0,0,1,.43-.63.36.36,0,0,1,.25-.14,1.53,1.53,0,0,1,.3,0l.38.1a3.37,3.37,0,0,1,.32.14c.09.05.13.09.13.12a2.12,2.12,0,0,1,0,.37,1.89,1.89,0,0,0,0,.3,9.62,9.62,0,0,0,.13,1.43c.08.58.19,1.2.31,1.86s.26,1.31.42,2,.28,1.29.41,1.85.23,1,.31,1.39a4.64,4.64,0,0,1,.13.67.26.26,0,0,1-.14.2,1.52,1.52,0,0,1-.34.15l-.35.11-.21,0a.29.29,0,0,1-.23-.07.78.78,0,0,1-.1-.32c-.09-.82-.21-1.62-.34-2.4s-.27-1.55-.4-2.29-.28-1.45-.41-2.12-.24-1.32-.32-1.92c-.8,1.21-1.43,2.19-1.89,2.93s-.83,1.34-1.08,1.78a6,6,0,0,0-.5,1,2,2,0,0,0-.13.55.56.56,0,0,1-.15.41.58.58,0,0,1-.38.1.53.53,0,0,1-.36-.11,1.69,1.69,0,0,1-.25-.47c0-.11-.15-.29-.3-.56l-.57-.93c-.22-.35-.47-.72-.73-1.12l-.77-1.15c-.26-.37-.49-.72-.7-1l-.49-.75q-.06.21-.18.84c-.09.42-.18.91-.29,1.45s-.22,1.13-.33,1.73-.22,1.17-.32,1.69-.17,1-.23,1.34-.09.6-.09.67a1.43,1.43,0,0,0,0,.29.92.92,0,0,1,0,.29.19.19,0,0,1-.08.13.43.43,0,0,1-.26.06,3.24,3.24,0,0,1-.79-.09c-.23-.06-.35-.19-.35-.39a1.39,1.39,0,0,1,.09-.41l.26-.74c.06-.2.14-.5.25-.91s.22-.89.34-1.42l.37-1.69c.12-.59.24-1.14.34-1.67s.19-1,.25-1.41a6.09,6.09,0,0,0,.1-.9.73.73,0,0,0-.09-.42.54.54,0,0,1-.09-.33c0-.13.09-.22.27-.26a3.06,3.06,0,0,1,.67-.07.83.83,0,0,1,.4.07.38.38,0,0,1,.14.26,3.09,3.09,0,0,0,.3.75c.17.33.38.69.62,1.09s.5.83.78,1.26.55.86.82,1.25.5.74.72,1.05.38.54.48.7l1-1.64C108.57,7.55,109.11,6.68,109.49,6Z"/><path class="cls-21" d="M118.82,11.74a1.44,1.44,0,0,0-.6.62l-.9,1.57a1,1,0,0,0-.11.34q0,.18-.27.18a2.59,2.59,0,0,1-.81-.11c-.2-.07-.3-.17-.3-.31a.52.52,0,0,1,.18-.34,4.52,4.52,0,0,0,.41-.48q.33-.42.72-1c.27-.39.53-.79.79-1.21s.53-.84.78-1.27.47-.82.66-1.18.35-.67.47-.94a1.71,1.71,0,0,0,.18-.57c0-.24-.2-.56-.61-1l-1.48-1.5a1.85,1.85,0,0,0-.43-.37c-.12-.08-.18-.16-.18-.26s.05-.1.14-.17a2.81,2.81,0,0,1,.31-.19,3.14,3.14,0,0,1,.37-.18,1.16,1.16,0,0,1,.32-.07l.39,0a.61.61,0,0,1,.25.08.51.51,0,0,1,.16.19c0,.08.09.2.15.34a1.47,1.47,0,0,0,.23.36l.38.51q1.45,1.76,2.52,3c.71.8,1.36,1.51,1.94,2.11s1.14,1.16,1.67,1.65,1.12,1,1.76,1.58a1,1,0,0,0,.34.22l.28.09a.49.49,0,0,1,.19.1.3.3,0,0,1,.07.22.38.38,0,0,1-.1.21,2.91,2.91,0,0,1-.24.27,2.47,2.47,0,0,1-.29.22.51.51,0,0,1-.25.09h-.54a.19.19,0,0,1-.2-.12,1.2,1.2,0,0,0-.15-.24,27.56,27.56,0,0,0-2.41-2.64h-4.77A2.41,2.41,0,0,0,118.82,11.74Zm.88-2-.31.54a.4.4,0,0,0-.07.21.21.21,0,0,0,0,.12.46.46,0,0,0,.23.06,3.57,3.57,0,0,0,.54,0h2.18a7.48,7.48,0,0,0,.75,0,3.33,3.33,0,0,0,.44,0l.21-.06-2.82-2.88Z"/><path class="cls-21" d="M136.33,10.74a1.19,1.19,0,0,1,.52-.07.48.48,0,0,1,.18,0,.31.31,0,0,1,.12.19,1.81,1.81,0,0,1,0,.47c0,.21,0,.51,0,.89,0,.81,0,1.46.08,2a10.47,10.47,0,0,1,.08,1.26.56.56,0,0,1-.09.36c-.07.08-.21.11-.43.11a.35.35,0,0,1-.18,0,.63.63,0,0,1-.14-.21,2.56,2.56,0,0,1-.14-.44c0-.19-.08-.44-.13-.76a.49.49,0,0,0-.54-.46l-.26,0-.44.07-.54.08-.54,0a4,4,0,0,1-2.05-.47,4,4,0,0,1-1.27-1.14,4.28,4.28,0,0,1-.65-1.41,5.16,5.16,0,0,1-.19-1.3,7.15,7.15,0,0,1,.34-2.19,5.54,5.54,0,0,1,1.07-1.93A5.68,5.68,0,0,1,133,4.41a6.19,6.19,0,0,1,2.66-.53,4.26,4.26,0,0,1,1.57.23.74.74,0,0,1,.54.71.45.45,0,0,1-.11.26,1.09,1.09,0,0,1-.25.23,3.09,3.09,0,0,1-.29.17.69.69,0,0,1-.24.06.45.45,0,0,1-.26-.11L136.13,5a.82.82,0,0,0-.34-.2,1.48,1.48,0,0,0-.39,0,3,3,0,0,0-1.67.53,5.84,5.84,0,0,0-1.38,1.34,7,7,0,0,0-.93,1.78,5.41,5.41,0,0,0-.35,1.82,5,5,0,0,0,.21,1.59,2.19,2.19,0,0,0,.58.94,2,2,0,0,0,.85.46,4.37,4.37,0,0,0,1,.13,3.14,3.14,0,0,0,.89-.12,3,3,0,0,0,.7-.3,1.88,1.88,0,0,0,.47-.39,1,1,0,0,0,.2-.44l.15-1.08A.35.35,0,0,1,136.33,10.74Z"/><path class="cls-21" d="M146.14,8.9a.33.33,0,0,1-.1.18l-.24.24-.28.21a.45.45,0,0,1-.23.09q-.81.08-1.5.09l-1.23,0A5.26,5.26,0,0,0,143.4,13a3.22,3.22,0,0,0,2.71,1.09,1.27,1.27,0,0,1,.53.07c.09,0,.13.15.13.31s-.09.19-.27.29a2.33,2.33,0,0,1-.95.14,5.92,5.92,0,0,1-1.75-.22,4.16,4.16,0,0,1-1.21-.61,3,3,0,0,1-.76-.87,4.05,4.05,0,0,1-.42-1,5.35,5.35,0,0,1-.18-1.11c0-.37,0-.73,0-1.06a11.74,11.74,0,0,1,.33-3,6.27,6.27,0,0,1,.88-2,3,3,0,0,1,1.25-1.06,3.56,3.56,0,0,1,1.46-.32,2.91,2.91,0,0,1,1,.12.42.42,0,0,1,.27.42c0,.27-.11.4-.34.4H145a2,2,0,0,0-.84.18,1.78,1.78,0,0,0-.74.67,4.87,4.87,0,0,0-.57,1.36,11.69,11.69,0,0,0-.3,2.22,1,1,0,0,1,.34-.21,1.32,1.32,0,0,1,.47-.08h2.43C146,8.69,146.14,8.76,146.14,8.9Z"/></g></g></g></svg>