<svg id="Layer_1" data-name="Layer 1" xmlns="http://www.w3.org/2000/svg" viewBox="0 0 90 90"><defs><style>.cls-1{fill:#fff;}.cls-2{fill:#353534;}.cls-3{fill:#262626;}.cls-4{fill:#3e3e3e;}.cls-5{fill:#464646;}.cls-6{fill:#1a1a1a;}</style></defs><title>holy-robe</title><g id="VygNQB"><path class="cls-1" d="M45,90Q22.91,90,.8,90c-.67,0-.8-.13-.8-.8Q0,45,0,.8C0,.13.13,0,.8,0Q45,0,89.2,0c.67,0,.8.13.8.8Q90,45,90,89.2c0,.67-.13.8-.8.8Q67.1,90,45,90ZM63.42,19l-.06-.18a5.43,5.43,0,0,0-.94-2A3.46,3.46,0,0,0,61,15.08,30.8,30.8,0,0,0,55,11.71c-1.79-.69-2.75-2.14-4.12-3.2-.61-1-1.5-.77-2.4-.59-2,0-4-.48-6-.26-.56-.06-.74.3-.82.76-.19.29-.35.6-.55.87-.41.54-.61,1.28-1.37,1.49a1.59,1.59,0,0,0-.9.32c-2,1.13-4,2.32-6.11,3.26a5.41,5.41,0,0,0-.8.55,6.69,6.69,0,0,0-2.75,4.27,18,18,0,0,0-.46,2.72,3.3,3.3,0,0,0-.54,1.64,112.43,112.43,0,0,1-4.73,23,1.41,1.41,0,0,0,.82,2,23.7,23.7,0,0,1,4.1,2,3.66,3.66,0,0,0,2,.78,3.6,3.6,0,0,0,1.37.35c.56.18,1.11.58,1.68.18.44.63-.48,1.31.05,2-.4.47-.05,1-.18,1.53a13,13,0,0,0-.46,5.34l.07.34c0,1.57-.3,3.13-.21,4.7A20.41,20.41,0,0,0,32.55,70a47.61,47.61,0,0,0,.26,5.72c.19.78.8.73,1.4.7.53.31.44.85.41,1.31-.06,1,.48,1.39,1.38,1.49,1.48.18,3,.39,4.44.53a3.85,3.85,0,0,1,1.58.71c.41.24.09.65.1,1s.2.37.43.43.69.18,1,.25c1.53.29,1.54.28,1.79-1.18a89.9,89.9,0,0,1,9.7-.91c1.75-.15,1.85-.22,2.06-2,.06-.49.17-.57.65-.46,1,.23,1.34,0,1.5-1.09a10.76,10.76,0,0,0,.15-2.72,89.11,89.11,0,0,0,.24-13.07,5.06,5.06,0,0,0-.41-2l-.08-.39L59,57.51l0-.38L58.63,54l.06-.6h1l1-.21a14.28,14.28,0,0,0,6.26-2.51c.81-.51.63-1.15.23-1.82L67,47.91a4.55,4.55,0,0,0-.22-1.55l0-.38,0-.61a7.72,7.72,0,0,0-.06-1.92c-.06-1.57-.11-3.15-.32-4.71l0-.77a4.2,4.2,0,0,0-.12-1.58c0-.64,0-1.3-.07-1.94-.29-3.13-.65-6.26-.89-9.4a17.91,17.91,0,0,0-1.57-5.68A.4.4,0,0,0,63.42,19Z"/><path class="cls-2" d="M32.81,75.73A47.61,47.61,0,0,1,32.55,70a20.41,20.41,0,0,1,.09-4.28c.64-.09.86.19.83.83a13.69,13.69,0,0,0,.19,3.38c0,.19,0,.43.28.43s.32-.29.29-.51A3.47,3.47,0,0,0,34,69a1.54,1.54,0,0,1,.19-1.65c.25-.35.57-.8.91,0s.9.92,1.45.08c.1-.16.17-.47.36-.34.77.49.78-.3,1.08-.59s.35-1,.5-1.55a24.38,24.38,0,0,0,1.22-5.54c-.23-1.28.86-2.51.16-3.82,0,0,0-.06,0-.09a.89.89,0,0,0,.79-.8c.09-.36,0-.85.57-1a4.37,4.37,0,0,0-.19,1.57,2.74,2.74,0,0,0-.41,1.15,16,16,0,0,0-.14,2.67c-.16,1.54-.41,3.06-.62,4.59v1c-.33.32-.15.74-.19,1.11a36.16,36.16,0,0,1-.43,4.53,7.77,7.77,0,0,0,0,2.5c.13,1.53.68,3,.31,4.6a.54.54,0,0,0,.25.67.66.66,0,0,0,.74,0c.3-.26.76-.43.74-1,0-.29.07-.57.44-.46.65.2.52-.27.53-.59,0-1.65,0-3.3,0-5,0-1,.17-1.94.15-2.89-.07-5.45.54-10.86.86-16.28.28,0,.37-.21.36-.47-.06-2.08,1.28-3.79,1.57-5.78.82.2,0,1.15.68,1.49A4.54,4.54,0,0,0,45.79,45c-.1-.38.29-.94-.4-1.12,0-.57.26-.83.82-1,1-.32,1.46-1,1.15-1.75a11.62,11.62,0,0,0-.77-4.32c0-.14-.08-.27-.11-.41a.16.16,0,0,0-.08,0,.34.34,0,0,0,.15.4l.59,3.91c-.5.27-1.11.43-1.16,1.16-.27,0-.58,0-.57-.36,0-.85-.56-1.52-.68-2.28s-.72-1.5-.34-2.54c.86,1.25.78,2.63,1.39,3.76-.39-1.33.06-2.81-.78-4.06-.13-.69-.29-1.38-.42-2.08a46.13,46.13,0,0,0-.89-5c-.56-1.85-1.39-3.59-1-5.58h0c.51.18.4.65.47,1s.18.64.5.14h0a2.26,2.26,0,0,1,.5,1.11c.23.94.94,1.66,1.07,2.61A1.14,1.14,0,0,0,46,29.75v.39c-.32.48,0,.66.39.78.13.45.26.91.4,1.36a7.59,7.59,0,0,0,1.18,3,11.79,11.79,0,0,1,1.77,4.43c.07.38,0,1,.54,1.13.09.23-.27.47.05.76A27.37,27.37,0,0,0,51.65,38a3.41,3.41,0,0,0,0-4.2c-.19-.32-.35-.24-.5,0a3.21,3.21,0,0,0-.3.8c-.3.76-.33,1.64-1,2.26a8.56,8.56,0,0,1-.59-2.74c.19-.39.58-.8.55-1.18-.17-2.12.77-4,1.07-6.07.06-.43.26-.95-.28-1s-.51.51-.55.88a17.12,17.12,0,0,1-.68,2.67c-.18.65-.06,1.58-.89,2a.41.41,0,0,1-.2-.39,11.39,11.39,0,0,0,.4-3.13,1,1,0,0,0-.21-1.14,38,38,0,0,0,1.35-4.2c.12-.33-.2-.18-.36-.14a2.46,2.46,0,0,1,.06-.67,1.76,1.76,0,0,0-.17-1.48c-.17-.38-.54.18-.92.16a7.44,7.44,0,0,1-1.32-.16,41.29,41.29,0,0,0,1.58-4.87,5.16,5.16,0,0,0,1.35-3.93c.16-.35.7-.71.22-1.08-.33-.25-.82.19-.87.42-.22,1-.54.26-.8.07S48.07,10,47.55,10a1.56,1.56,0,0,1-1.28-.57,3.69,3.69,0,0,0-3.14-1.21c-.42,0-.71-.07-.67-.57,2-.22,4,.24,6,.26a1.75,1.75,0,0,0,.9.79c.57.31,1.09.6,1.5-.2C52.28,9.57,53.24,11,55,11.71A30.8,30.8,0,0,1,61,15.08a3.46,3.46,0,0,1,1.47,1.75c-.28.18-.11.38,0,.57A8.53,8.53,0,0,1,63,20.17c-.27,0-.58,0-.57.36,0,.86-.52,1.6-.42,2.48a.9.9,0,0,1-.76,1c-1.07.13-1.36.9-1.54,1.73-.34,1.47-.48,3-.78,4.47-.23,1.1-.63,2.15-.81,3.25a5.07,5.07,0,0,0-.18,2.63c-.51-1-.67-.47-.87-.14-.91,1.51-1.55,3.19-2.94,4.37,0,0,0,.17,0,.26,1.09,0,1.73-1.16,2.84-1.06h0c.2.28.15.7.54.86a5.15,5.15,0,0,1-.71.76.61.61,0,0,0,0,1.08,1.72,1.72,0,0,1,.56,1.6c-.32.05-.54-.35-.86-.22V47c.5,0,.41-.57,1-.9-.28,1.7.07,3.24-.27,4.77-.09,0-.25.06-.26.1-.16,1.3-1,2.5-.7,3.87a20.16,20.16,0,0,1,.09,5,19.26,19.26,0,0,1,0,3.64c-.06.21,0,.75.41.74s.51-.36.51-.73c0-.81.24-1.59.22-2.41-.05-2,0-4.09,0-6.14.27,0,.9.54.64-.42-.13-.44.28-.55.67-.56L59,57.13c-.16,0-.4,0-.4.16s.27.19.44.22l.16.79c-.92-.38-.3.4-.45.6l.53-.21a5.06,5.06,0,0,1,.41,2,89.11,89.11,0,0,1-.24,13.07c-.28,0-.51,0-.55-.39a27.41,27.41,0,0,1-.36-3.47c0-1.33.22-2.65.16-4,0-.23.15-.41.23-.61A9.7,9.7,0,0,0,58.87,60a11.16,11.16,0,0,0-.32,3c-.1,3.83-.57,7.63-.85,11.44-.06.77-.26,1.53-.39,2.29a.28.28,0,0,1-.23.27c-.25,0-.25-.15-.25-.31,0-.9-.49-1.86.35-2.65a.27.27,0,0,0-.08-.48c-.42-.15-.42-.49-.35-.8a9.93,9.93,0,0,1,.43-2.66A1.07,1.07,0,0,0,57,69a5.41,5.41,0,0,1-.6-1c-.08-.16-.07-.43-.35-.36s-.26.27-.28.48a21.36,21.36,0,0,0-.21,2.41,7.83,7.83,0,0,1-.36,2.3c-.08.29-.39.55-.5.2-.21-.63-.69-1.22-.6-1.92a33.75,33.75,0,0,0,.58-3.83c0-2.39.67-4.82-.35-7.19-.3-.71-.8-1.61.26-2.26a.39.39,0,0,0,0-.67c-.76-.39-.57-1.07-.61-1.7-.1-1.48.2-3,0-4.45a.92.92,0,0,1,.57-1.11,1.26,1.26,0,0,0,.78-1.51l0-.19c.58,0,.59-.38.58-.79l.13-.23L56,47.08l-.09.25-.59.78a19.4,19.4,0,0,1-3.14.19c-.78-.3-.52-1-.57-1.54,1-.07,1.22-1,1.77-1.56H54q.3.39.6,0L55,45c.56-.06.81-.49,1-.92s0-.65-.46-.63c-.76-.38-1.73,0-2.42-.75a.57.57,0,0,0-.9.35h-.39c0-.21,0-.5-.26-.53s-.3.3-.33.54c.54.63.34,1.41.41,2.13l-.22.22c-.4.75-.09,1.56-.19,2.34-.43.5,0,1.28-.64,1.84.16-.64-.17-1.09-.27-1.58-.27-1.26-.84-2.5-.13-3.84a2,2,0,0,0-.6-2.34,12.3,12.3,0,0,1-1.3,6,18,18,0,0,1,0-2.2c.11-.81-.47-1.76.49-2.4.12-.09,0-.32-.16-.38-.43-.15-.31-.51-.35-.82s.14-.65-.32-.83c-.18.45.21.82.12,1.23a11.74,11.74,0,0,1-1.23.5c-.59.16-.66.42-.59,1a29.47,29.47,0,0,1,.46,5.13c-.2,3.07-.46,6.14-.56,9.21-.13,3.77-.48,7.53-.41,11.3,0,3.13-.18,6.25-.4,9.38.11.64-.21,1.28,0,1.92-.25,1.46-.26,1.47-1.79,1.18-.35-.07-.69-.16-1-.25s-.43-.13-.43-.43.31-.74-.1-1a3.85,3.85,0,0,0-1.58-.71c-1.48-.14-3-.35-4.44-.53-.9-.1-1.44-.48-1.38-1.49,0-.46.12-1-.41-1.31a5.88,5.88,0,0,0,.06-1c0-1.22-.57-2.37-.42-3.6.31,0,.56-.16.56-.5s-.25-.47-.57-.48c-.48.08-.37.45-.37.76a8.87,8.87,0,0,1,0,2.13C33.24,74.38,33.74,75.3,32.81,75.73Zm12.6-44.05-.11-.42s-.06,0-.07,0a.37.37,0,0,0,.14.41l.09.87C45.61,32.09,45.63,31.87,45.41,31.68ZM44,27l.14.42s.06,0,.07-.06a.37.37,0,0,0-.14-.41c0-.36,0-.75-.36-1A1.11,1.11,0,0,0,44,27Zm13.93-1.4c.4,0,.39-.3.38-.59v-1a.39.39,0,0,0,.38-.37,15.27,15.27,0,0,0,.22-2.62c0-.44,0-.93-.53-1s-.42.48-.59.75a1.83,1.83,0,0,0-.23.54,84.91,84.91,0,0,1-2.26,8.56c-.48,1.49-.86,3-1.29,4.53a1.21,1.21,0,0,0,0,.19,14.83,14.83,0,0,0-1.75,3.92c-.23.14-.19.37-.2.58-.4,0-.39.31-.39.59L51,41.24c-.07.15-.12.32.1.39a.25.25,0,0,0,.32-.16,12.51,12.51,0,0,1,1.83-3,33.32,33.32,0,0,0,3.66-8.23A22.21,22.21,0,0,0,57.91,25.64ZM44.78,29.56a2.81,2.81,0,0,0-.53-1.78A2.71,2.71,0,0,0,44.78,29.56ZM37.48,67.8a.69.69,0,0,0-.34,1.06C37.5,68.51,37.65,68.23,37.48,67.8ZM50.39,20.53A2,2,0,0,0,49.94,22,1.6,1.6,0,0,0,50.39,20.53ZM46.1,35a1.61,1.61,0,0,0-.27-1.4A2,2,0,0,0,46.1,35Zm-1.3-5.18c0,.45,0,.78.37,1A1,1,0,0,0,44.8,29.77ZM62.53,19.52l-.17-.07c0,.06-.07.12-.06.16s.1.05.15.08Zm-16.17,16-.09-.15s-.08.1-.08.16.05.1.09.15ZM45.78,33l-.1-.15s-.08.1-.08.16a.6.6,0,0,0,.09.15Z"/><path class="cls-3" d="M45.79,69.65c-.07-3.77.28-7.53.41-11.3.1-3.07.36-6.14.56-9.21A29.47,29.47,0,0,0,46.3,44c-.07-.63,0-.89.59-1a11.74,11.74,0,0,0,1.23-.5c0,3.91,0,7.82,0,11.73,0,.56.61,1,.38,1.57-.32.28-.19.66-.19,1a15,15,0,0,1,.19,2.12v1a11.25,11.25,0,0,0,0,1.16c.08,1-.23,2.11.18,3.14,0,.93,0,1.87,0,2.8,0,.58.33,1.19-.19,1.71a15.22,15.22,0,0,1-.2,3.3c0,.19,0,.44.15.53a5.08,5.08,0,0,0,2,.69c1,0,1.27-.31,1.21-1.27a30.45,30.45,0,0,0-.22-4.05v-2c-.09-1.85.26-3.68.22-5.53,0-1.66-.21-3.31-.17-5a55,55,0,0,0-.2-5.6c0-.39-.31-.94.36-1.15a17.71,17.71,0,0,0,3.7-.35,1.26,1.26,0,0,1-.78,1.51A.92.92,0,0,0,54,51c.18,1.49-.12,3,0,4.45,0,.63-.15,1.31.61,1.7a.39.39,0,0,1,0,.67c-1.06.65-.56,1.55-.26,2.26,1,2.37.38,4.8.35,7.19a33.75,33.75,0,0,1-.58,3.83c-.09.7.39,1.29.6,1.92.11.35.42.09.5-.2a7.83,7.83,0,0,0,.36-2.3,21.36,21.36,0,0,1,.21-2.41c0-.21.08-.42.28-.48s.27.2.35.36a5.41,5.41,0,0,0,.6,1,1.07,1.07,0,0,1,.19,1.18,9.93,9.93,0,0,0-.43,2.66c-.07.31-.07.65.35.8a.27.27,0,0,1,.08.48c-.84.79-.36,1.75-.35,2.65,0,.16,0,.35.25.31a.28.28,0,0,0,.23-.27c.13-.76.33-1.52.39-2.29.28-3.81.75-7.61.85-11.44a11.16,11.16,0,0,1,.32-3,9.7,9.7,0,0,1,.05,5.29c-.08.2-.24.38-.23.61.06,1.34-.15,2.66-.16,4a27.41,27.41,0,0,0,.36,3.47c0,.36.27.39.55.39a10.76,10.76,0,0,1-.15,2.72c-.16,1-.49,1.32-1.5,1.09-.48-.11-.59,0-.65.46-.21,1.8-.31,1.87-2.06,2a89.9,89.9,0,0,0-9.7.91c-.2-.64.12-1.28,0-1.92l.39.2c.08.33-.22.82.36,1a1.1,1.1,0,0,0,1.29-.61.93.93,0,0,0-.09-1.17c-.41-.35-.76.06-1.11.26a2.89,2.89,0,0,1-.44.18c.19-1,.45-2,.56-3.09.2-1.81.36-3.63.56-5.44a30.49,30.49,0,0,1,.65-3.62c-.85.36-.73,1-.82,1.52S46.9,69.7,45.79,69.65Zm2.6,3.24A52.57,52.57,0,0,0,48.14,80h.25Z"/><path class="cls-4" d="M39.72,59.47A24.38,24.38,0,0,1,38.5,65c-.15.52-.07,1.12-.5,1.55s-.31,1.08-1.08.59c-.19-.13-.26.18-.36.34-.55.84-1.07.83-1.45-.08s-.66-.39-.91,0A1.54,1.54,0,0,0,34,69a3.47,3.47,0,0,1,.22.84c0,.22,0,.51-.29.51s-.24-.24-.28-.43a13.69,13.69,0,0,1-.19-3.38c0-.64-.19-.92-.83-.83-.09-1.57.17-3.13.21-4.7.61.1.38.58.41.93a10.58,10.58,0,0,0,.2,2.69,1.43,1.43,0,0,0,.28-1,10.68,10.68,0,0,1,0-2.33c0-.37,0-1,.58-1s.24.6.36.92a2.86,2.86,0,0,0,.07.28c.09.2.16.47.44.43s.24-.33.27-.55c.3-2.49-.84-5.08.54-7.49.08-.14-.18-.26-.22-.39-.33-1.05-1.09-2-.92-3.16a10.16,10.16,0,0,0,0-1.46.5.5,0,0,0,.58,0c0,.32-.1.72.27.88s.52-.28.78-.44c.46-.29.4-.89.7-1.23a3.86,3.86,0,0,1,2.75-1.35,2.67,2.67,0,0,0,1.42-.2,2.77,2.77,0,0,0-1.45-.19c-.44,0-.88,0-1.32,0a2.69,2.69,0,0,1,1.14-.19c1.21-.06,1.89-.92,1.67-2.42-.15-1.07-1-.14-1.48-.31a.62.62,0,0,0-.38,0c-.53.15-1.4,0-.82,1.09.16.29.32,1-.24,1.19s-.61-.4-.82-.73a2.47,2.47,0,0,0-.47-.5,1.32,1.32,0,0,1-.57-1.26c.39-.13,1,.32,1.17-.39l4.51.2c-.14.59-1,1.42.48,1.52a1.69,1.69,0,0,1,.09.64c0,1-.4,1.93-.17,2.92l-.6,2.54a4.65,4.65,0,0,0-.77,2.94c0,.06,0,.13,0,.19-.54.11-.48.6-.57,1a.89.89,0,0,1-.79.8c-.31-.33-.47-.05-.58.18a14.9,14.9,0,0,0-1.57,6.85c0,.21-.05.5.26.54s.39-.22.45-.42c.24-.74.44-1.49.66-2.23C39.25,60.1,39.17,59.6,39.72,59.47Z"/><path class="cls-5" d="M42.27,43.05l-4.51-.2a4.5,4.5,0,0,1-1.94-.46c-.18-.1-.4-.2-.5,0s.12.33.31.41.7.14,1,.41a1.32,1.32,0,0,0,.57,1.26,2.47,2.47,0,0,1,.47.5c.21.33.24,1,.82.73s.4-.9.24-1.19c-.58-1.08.29-.94.82-1.09a.62.62,0,0,1,.38,0c.49.17,1.33-.76,1.48.31.22,1.5-.46,2.36-1.67,2.42a2.69,2.69,0,0,0-1.14.19c.44,0,.88,0,1.32,0a2.77,2.77,0,0,1,1.45.19,2.67,2.67,0,0,1-1.42.2,3.86,3.86,0,0,0-2.75,1.35c-.3.34-.24.94-.7,1.23-.26.16-.38.61-.78.44s-.24-.56-.27-.88a5.51,5.51,0,0,0-.6-3.3v.76h-.17c0-1.25,0-2.5,0-3.75,0-.66.13-1.13.8-1.33l-.14.65c.57-.07.77-.37.71-.87v-.19c.18.06.43.28.53.1.31-.54.87-.65,1.41-.85-.65-.62-1.31-.09-1.92-.22a3.57,3.57,0,0,0-.12-1.14c-.2-.46.29-1.16-.47-1.42,0-.26,0-.52-.34-.59a2.66,2.66,0,0,0-.42-1.27,25.9,25.9,0,0,1-2-5.93c-.13-.66-.22-1.33-.39-2-.35-1.36-.29-2.82-1-4.1.11-1.05-.64-1.84-.82-2.81a7.28,7.28,0,0,0,.3,3.08c.06.33.25.64-.28.72-.6-1.3-.58-2.75-1-4.1-.12-.4.32-1-.38-1.19a6.69,6.69,0,0,1,2.75-4.27c.2.3.09.6.05.92a3.23,3.23,0,0,0,.54,2.77c.06.32.12.64.19,1a4.5,4.5,0,0,0,.79,2.17,1.13,1.13,0,0,0,.19.76c0,.29,0,.58.38.61l.2,1c.1.6.15,1.23.76,1.58l0,.56c.1.39,0,.86.56,1l0,.37c.05.47,0,1,.58,1.19.42,2,1.7,3.53,2.38,5.38.2.52.21,1.25.94,1.47l0,.38c0,.25.12.38.36.42l0,.36a.36.36,0,0,0,.38.41c.23,1.26,1.13,2.26,1.39,3.51-.59.33-.94.22-1.14-.48a14.35,14.35,0,0,0-1-2.27c-.46-.94-1.29-1.63-1.5-2.76a4.31,4.31,0,0,0-1.85-3.1c-.29-.2-.17-.51-.2-.78a18.16,18.16,0,0,0-1.6-4.74.62.62,0,0,0-.54-.35l0-1.16a.54.54,0,0,0-.57-.6v-.78c-.06-.45,0-1-.58-1.17a6.41,6.41,0,0,0-.59-1.76,2.9,2.9,0,0,0-.57-1.7c-.08-.15-.2-.26-.38-.2a.27.27,0,0,0-.17.39c.23.55.08,1.23.54,1.71.42,2.09.84,4.18,1.28,6.26a14.94,14.94,0,0,0,.75,3.1,26.72,26.72,0,0,1,2.33,5.77.56.56,0,0,0,.52.52c0,.19,0,.38,0,.57,0,.37.11.72.57.79a5,5,0,0,0,5.08,3.33c.15.2.37.18.58.18s.46.29.34.61a.31.31,0,0,1-.41.16c-1-.39-2.07,0-3.06-.33a.94.94,0,0,0-1,.27c1.36.1,2.52.22,3.69.26a2.58,2.58,0,0,1,1.37.37c.33.22-.1.27-.11.41Zm-4.65,3.62s-.09-.08-.14-.08a.34.34,0,0,0-.15.07s.09.08.14.08A.34.34,0,0,0,37.62,46.67Z"/><path class="cls-5" d="M30.32,51.32a3.66,3.66,0,0,1-2-.78,23.7,23.7,0,0,0-4.1-2,1.41,1.41,0,0,1-.82-2,112.43,112.43,0,0,0,4.73-23,3.3,3.3,0,0,1,.54-1.64c.38.17.24.51.28.8-.13.59-.67,1.17,0,1.76v.4a10,10,0,0,0,.19,4.9v.94c0,.23-.06.47.19.61v.57A61,61,0,0,0,29.55,39a1.32,1.32,0,0,1-.18.84,4.78,4.78,0,0,0-.6,3A40.52,40.52,0,0,1,29,47a.81.81,0,0,0,.74.88c.15,0,.31.08.37.26-.44-.08-.67,0-.56.55a4,4,0,0,0,.75,1.94C30.6,50.92,30.51,51.09,30.32,51.32Zm-1.67-3.86-.13,0s0,.06,0,.06S28.6,47.47,28.65,47.46Z"/><path class="cls-2" d="M66.61,43.45a7.72,7.72,0,0,1,.06,1.92c-.2,0-.34.14-.31.37s.19.21.34.24l0,.38c-.25,0-.51.16-.38.41.37.71-.07.95-.59,1.17a.47.47,0,0,0-.28.35l-.14.05a1.77,1.77,0,0,0-1.18.26,6.6,6.6,0,0,1-2.16.7l-.39.2c-.14-.23-.37-.19-.59-.2l-.57-.38c1,0,.28-.78.43-1.16.48-1.21-.49-2-1-3,.26-1.39.49-2.78.78-4.17.34-1.6.28-3.27,1-4.81.75-.11,1.13.15,1,.95a8.62,8.62,0,0,0-.11.87c-.08,1.16-.51,2.32-.22,3.47.36,1.37.24,2.81.72,4.15.08.24-.13.68.33.66s.42-.39.44-.68-.1-.57-.09-.86c0-1.76-.64-3.47-.17-5.28a6.89,6.89,0,0,0,.43-2.43,15.94,15.94,0,0,1,0-3.09A38.13,38.13,0,0,0,63.79,28c-.11-1.22,0-2.46-.19-3.69A1.66,1.66,0,0,1,63.71,23a1,1,0,0,0-.13-1.47c.19-.72-.33-1.44,0-2.16a17.91,17.91,0,0,1,1.57,5.68c.24,3.14.6,6.27.89,9.4.06.64,0,1.3.07,1.94-.62.58-.57,1.22.12,1.58l0,.77c-.2,0-.56,0-.47.3a17.52,17.52,0,0,1,.1,3.83C66,43.37,66.21,43.46,66.61,43.45Z"/><path class="cls-6" d="M61.61,35.81c-.67,1.54-.61,3.21-1,4.81-.29,1.39-.52,2.78-.78,4.17a15.58,15.58,0,0,0,0,2.05c.08.71,0,1.5.58,2.08l.57.38c-.41,0-.6.14-.59.56,0,.17,0,.45-.32.24-.51-.32-1-.13-1.6.12,1.49.14,1.66.29,1.3,1.56-.15.55,0,1.07-.15,1.6h-1a.38.38,0,0,0,0-.15v-.6c-.15-.9-.76-1.69-.59-2.69.08-.48.68-.86.3-1.43,0-.4-.07-.8-.1-1.2-.17-2.21-.33-4.41-.48-6.62,0-.23.06-.52-.34-.31-.39-.16-.34-.58-.54-.86.11,0,.26,0,.26-.16,0,0-.07-.11-.11-.11s-.14.15-.15.26c-1.11-.1-1.75,1-2.84,1.06,0-.09,0-.22,0-.26,1.39-1.18,2-2.86,2.94-4.37.2-.33.36-.88.87.14a5.07,5.07,0,0,1,.18-2.63,1,1,0,0,1,.59.29c.85.66,1,.6,1.3-.4.15-.52.32-1.05.44-1.58.06-.25.12-.44.41-.45.75,0,.61-.51.48-1a1.16,1.16,0,0,1,0-.86c.79-1.56.81-3.29,1.09-5,.06-.32-.16-.76.39-.85-.21.89-.07,1.81-.23,2.69C62,29.5,61.92,32.67,61.61,35.81Z"/><path class="cls-4" d="M32.5,18.6A3.23,3.23,0,0,1,32,15.83c0-.32.15-.62-.05-.92a5.41,5.41,0,0,1,.8-.55c2.11-.94,4.09-2.13,6.11-3.26a1.59,1.59,0,0,1,.9-.32,9.45,9.45,0,0,0,.55,3.94,27.47,27.47,0,0,0,.8,3.65c-.52-.5-1.18-.13-1.36-.56-.37-.86-1.24-1-1.84-1.47s-1.21-.3-1.28.66c0,.23,0,.46-.2.62-.42-.3-.31-.92-.73-1.22-.27-.2-.44-.63-.87-.48s-.33.57-.35.92c-.23-.07-.47-.34-.69-.05s.15.37.2.56a16.11,16.11,0,0,1,.87,3.41,9,9,0,0,1-1.59-1.88C33,18.59,32.89,18.32,32.5,18.6Z"/><path class="cls-3" d="M29.37,31.88v-.57c.3-.31.19-.51-.19-.61,0-.31,0-.63,0-.94.69-.21.24-.81.4-1.2.41.07.36.39.38.68.17,2.84.94,5.59,1.35,8.4.22,1.59.46,3.19.81,4.77.43,1.94.49,4,1.38,5.79a1.71,1.71,0,0,1,.13,1.66c-.3.58.07.89.44,1.21a7.84,7.84,0,0,1-.64,2.75c-.53-.66.39-1.34-.05-2-.57.4-1.12,0-1.68-.18v-.41c.23-.91.63-1.82,0-2.74-.21-.56-.88-.19-1.18-.58.05-.54.09-1.1.76-.37.22.24.53.15.81.17,0,.14,0,.31.24.29a.09.09,0,0,0,.06-.06c0-.21-.16-.21-.3-.23-.08-.64-.11-1.3-.25-1.91s.22-1.28-.53-1.62v-.38c-.16-.52.39-1.21-.39-1.57.1-.76-.57-1.38-.39-2.15.31-.32.21-.51-.19-.59v-.78a.47.47,0,0,0,0-.78,5.41,5.41,0,0,0-.19-2v-.39a16.89,16.89,0,0,1-.4-3.25A.42.42,0,0,0,29.37,31.88ZM33,48.57s0-.14-.07-.15-.11,0-.16,0,0,.14.07.16S32.94,48.6,33,48.57Z"/><path class="cls-5" d="M33.42,53.82a7.84,7.84,0,0,0,.64-2.75l.39-3.53h.39v1.37a10.16,10.16,0,0,1,0,1.46c-.17,1.2.59,2.11.92,3.16,0,.13.3.25.22.39-1.38,2.41-.24,5-.54,7.49,0,.22,0,.5-.27.55s-.35-.23-.44-.43a2.86,2.86,0,0,1-.07-.28c-.12-.32.26-.93-.36-.92s-.55.62-.58,1a10.68,10.68,0,0,0,0,2.33,1.43,1.43,0,0,1-.28,1,10.58,10.58,0,0,1-.2-2.69c0-.35.2-.83-.41-.93l-.07-.34c.24-.12.25-.34.3-.56a11.37,11.37,0,0,0,.16-3.24c0-.52.53-1,0-1.54C33.37,54.85,33,54.29,33.42,53.82Z"/><path class="cls-4" d="M65.35,48.34l.14-.05L67,47.91l.17.93a2.41,2.41,0,0,0-.23,1.82,14.28,14.28,0,0,1-6.26,2.51,9.54,9.54,0,0,1,1-3.67l.39-.2a.65.65,0,0,0,.8.16A7.62,7.62,0,0,0,65.35,48.34Z"/><path class="cls-3" d="M42.46,7.66c0,.5.25.61.67.57a3.69,3.69,0,0,1,3.14,1.21,1.56,1.56,0,0,0,1.28.57c.52,0,.72.51,1.08.76s.58.94.8-.07c0-.23.54-.67.87-.42.48.37-.06.73-.22,1.08a.68.68,0,0,0-.5.25,3,3,0,0,1-3.07.25c.6-.3,1.32.12,2.15-.42-2.14-.52-4.13,0-6-.47a1.49,1.49,0,0,1-.39-1,2.07,2.07,0,0,0-.61-1.52C41.72,8,41.9,7.6,42.46,7.66Z"/><path class="cls-3" d="M58.69,53.24a.38.38,0,0,1,0,.15l-.06.6c-.39,0-.8.12-.67.56.26,1-.37.38-.64.42V54c.27-.35.36-.65-.2-.79V50.87c.34-1.53,0-3.07.27-4.77-.57.33-.48.86-1,.9V43.61c.32-.13.54.27.86.22a21.35,21.35,0,0,1,.63,3.54c0,.45-.09.94.49,1.15.38.57-.22.95-.3,1.43-.17,1,.44,1.79.59,2.69C58.41,52.85,58.47,53.05,58.69,53.24Z"/><path class="cls-5" d="M41.64,8.42a2.07,2.07,0,0,1,.61,1.52,1.49,1.49,0,0,0,.39,1c0,.33,0,.65,0,1-.43,0-1-.13-1.23.35-.41.77-.75,1.59-1.13,2.38l-.06.05a9.45,9.45,0,0,1-.55-3.94c.76-.21,1-.95,1.37-1.49C41.29,9,41.45,8.71,41.64,8.42Z"/><path class="cls-4" d="M30.52,47.94c.3.39,1,0,1.18.58-.52.52-.39,1.18-.38,1.8,0,.34-.21.82.37.94v.41a3.6,3.6,0,0,1-1.37-.35c.19-.23.28-.4,0-.69a4,4,0,0,1-.75-1.94c-.11-.52.12-.63.56-.55,0,.25.13.45.41.32S30.3,48.13,30.52,47.94Z"/><path class="cls-3" d="M61.62,49.5a9.54,9.54,0,0,0-1,3.67l-1,.21c.1-.53,0-1.05.15-1.6.36-1.27.19-1.42-1.3-1.56.63-.25,1.09-.44,1.6-.12.32.21.32-.07.32-.24,0-.42.18-.6.59-.56C61.25,49.31,61.48,49.27,61.62,49.5Z"/><path class="cls-3" d="M32.81,75.73c.93-.43.43-1.35.61-2a8.87,8.87,0,0,0,0-2.13c0-.31-.11-.68.37-.76,0,.32,0,.65,0,1-.15,1.23.39,2.38.42,3.6a5.88,5.88,0,0,1-.06,1C33.61,76.46,33,76.51,32.81,75.73Z"/><path class="cls-5" d="M66.61,43.45c-.4,0-.66-.08-.69-.58a17.52,17.52,0,0,0-.1-3.83c-.09-.34.27-.27.47-.3C66.5,40.3,66.55,41.88,66.61,43.45Z"/><path class="cls-5" d="M63.6,19.37c-.35.72.17,1.44,0,2.16-.14.23-.37.19-.58.2a1.34,1.34,0,0,1,0-.2.47.47,0,0,0,0-.78v-.58a8.26,8.26,0,0,0-.58-2.77c-.09-.19-.26-.39,0-.57a5.43,5.43,0,0,1,.94,2l-.06.07.12.11A.4.4,0,0,1,63.6,19.37Z"/><path class="cls-4" d="M33.24,55.35c.53.5,0,1,0,1.54a11.37,11.37,0,0,1-.16,3.24c0,.22-.06.44-.3.56A13,13,0,0,1,33.24,55.35Z"/><path class="cls-5" d="M50.91,8.51c-.41.8-.93.51-1.5.2a1.75,1.75,0,0,1-.9-.79C49.41,7.74,50.3,7.56,50.91,8.51Z"/><path class="cls-3" d="M29,22.7c0-.29.1-.63-.28-.8a18,18,0,0,1,.46-2.72c.7.21.26.79.38,1.19-.31.28-.12.65-.19,1s.33.91,0,1.36Z"/><path class="cls-5" d="M67,47.91l-1.47.38a.47.47,0,0,1,.28-.35c.52-.22,1-.46.59-1.17-.13-.25.13-.39.38-.41A4.55,4.55,0,0,1,67,47.91Z"/><path class="cls-5" d="M66.25,38c-.69-.36-.74-1-.12-1.58A4.2,4.2,0,0,1,66.25,38Z"/><path class="cls-5" d="M66.9,50.66a2.41,2.41,0,0,1,.23-1.82C67.53,49.51,67.71,50.15,66.9,50.66Z"/><path class="cls-3" d="M59.27,58.69l-.53.21c.15-.2-.47-1,.45-.6Z"/><path class="cls-5" d="M66.7,46c-.15,0-.31-.06-.34-.24s.11-.33.31-.37Z"/><path class="cls-3" d="M59,57.51c-.17,0-.46.07-.44-.22s.24-.14.4-.16Z"/><path class="cls-2" d="M63.42,19l-.12-.11.06-.07Z"/><path class="cls-5" d="M36.39,17.62c.22-.16.19-.39.2-.62.07-1,.55-1.25,1.28-.66s1.47.61,1.84,1.47c.18.43.84.06,1.36.56a27.47,27.47,0,0,1-.8-3.65l.06-.05c.56.77.3,1.83,1,2.56l.09,0-.08,0c0-.19.07-.44.34-.22a10.54,10.54,0,0,0,1,.88c.67.39,1.25,1.06,2.15.9.15.49.31,1,.45,1.47.28.94.8,1.86,1,2.74.25,1.08.42,2.22.72,3.3.18.64.09,1.43.74,1.9.16.28.37.48.28.92a2.94,2.94,0,0,0,.31,1.8.41.41,0,0,0,.2.39c.19.85.39,1.69.58,2.54a2.11,2.11,0,0,1-1.21-.72c-.35-.31-.58-.8-1.12-.85l-.4-1.36c0-.34,0-.64-.39-.78v-.39c-.15-.47-.18-1-.78-1.18-.13-.95-.84-1.67-1.07-2.61a2.26,2.26,0,0,0-.5-1.11l-.07-.25-.08,0,.15.21c-.32.5-.44.25-.5-.14s0-.86-.47-1c.39-.39-.4-.78,0-1.17s.27-.45-.1-.56c-.1,0-.32,0-.34.08-.13.39.39.22.44.48-.7.39-.46.78,0,1.18-.35,2,.48,3.73,1,5.58a46.13,46.13,0,0,1,.89,5c.13.7.29,1.39.42,2.08-.5.06-.6-.24-.6-.65,0-.2-.11-.43-.33-.41s-.22.32-.2.53.32.55-.09.62-.27-.35-.37-.58c-.27-.63,0-1.46-.74-1.93a4.86,4.86,0,0,1-1.44-1.55c-.44-.64-.94-1.28-1.89-1.11l-1-3.12a.34.34,0,0,0-.37-.4l0-.38a5.15,5.15,0,0,0-1.54-2.75l0-.58c0-.29,0-.57-.39-.59V23.3a3.43,3.43,0,0,0-1.17-2.36,1.09,1.09,0,0,0,0-.18A16.11,16.11,0,0,0,34,17.35c-.05-.19-.4-.31-.2-.56s.46,0,.69.05h0a.36.36,0,0,0,.39.39c.51.74,1,1.49,1.55,2.22.13.18.33.38.58.27s0-.39,0-.59C37,18.53,36.47,18.17,36.39,17.62Zm5.37,1.7c.47-.68.24-1.09-.52-1.64Zm2.12,15.2c-.15,0-.2.09-.17.19a.21.21,0,0,0,.1.15c.13.07.19,0,.18-.12S43.91,34.59,43.88,34.52ZM41.36,19.65l0-.13-.07,0Z"/><path class="cls-4" d="M51.66,48.69c-.67.21-.39.76-.36,1.15a55,55,0,0,1,.2,5.6c0,1.64.14,3.29.17,5,0,1.85-.31,3.68-.22,5.53-1.21-.09-1.42-.45-1.15-1.61a6.29,6.29,0,0,0,.28-2.9,3.09,3.09,0,0,0-.88,1.94c-.05.23.06.61-.34.55s-.25-.41-.25-.65a19.74,19.74,0,0,0,.19-2.44c-.07-.56.16-1.17.08-1.72a18.29,18.29,0,0,1-.16-6c.05-.3,0-.78-.35-.78s-.3.47-.36.77.27.89-.37,1.06c0-3.91,0-7.82,0-11.73.09-.41-.3-.78-.12-1.23.46.18.29.55.32.83s-.08.67.35.82c.18.06.28.29.16.38-1,.64-.38,1.59-.49,2.4a18,18,0,0,0,0,2.2,12.3,12.3,0,0,0,1.3-6,2,2,0,0,1,.6,2.34c-.71,1.34-.14,2.58.13,3.84.1.49.43.94.27,1.58.68-.56.21-1.34.64-1.84,0,.28,0,.57.39.58Z"/><path class="cls-4" d="M39.34,31.31c.95-.17,1.45.47,1.89,1.11A4.86,4.86,0,0,0,42.67,34c.75.47.47,1.3.74,1.93.1.23.05.63.37.58s.12-.4.09-.62-.15-.5.2-.53.33.21.33.41c0,.41.1.71.6.65.84,1.25.39,2.73.78,4.06-.61-1.13-.53-2.51-1.39-3.76-.38,1,.23,1.77.34,2.54s.7,1.43.68,2.28c0,.36.3.35.57.36.56,0,1.22.14,1.17-.78h.21c.31.72-.12,1.43-1.15,1.75-.56.17-.84.43-.82,1s-.13,1.3-.19,2c-.29,2-1.63,3.7-1.57,5.78,0,.26-.08.44-.36.47.09-.79.2-1.57.28-2.36a6.55,6.55,0,0,0-.11-3.11c0-.28.09-.55.11-.83a4.76,4.76,0,0,0-.12-2.51c0-.14.44-.19.11-.41a2.58,2.58,0,0,0-1.37-.37c-1.17,0-2.33-.16-3.69-.26a.94.94,0,0,1,1-.27c1,.36,2.06-.06,3.06.33a.31.31,0,0,0,.41-.16c.12-.32-.1-.47-.34-.6a1.62,1.62,0,0,0-.1-.95c-1.63-2.89-2.3-6.13-3.4-9.22Z"/><path class="cls-6" d="M43.44,46.56a6.55,6.55,0,0,1,.11,3.11c-.08.79-.19,1.57-.28,2.36-.32,5.42-.93,10.83-.86,16.28,0,1-.14,1.92-.15,2.89l-.19,0c-.35-.08-.24-.8-.73-.6s-.2.63-.27,1a1.31,1.31,0,0,0-.09.66c.12.39-.06.82-.4.85s-.46-.46-.46-.81c0-1.61.08-3.22,0-4.83a6.61,6.61,0,0,0-.25-2.65c0-.32,0-.65,0-1,.11-.06.3-.11.32-.19.35-1.88,1-3.71.87-5.67a3.85,3.85,0,0,1,.1-1.65.75.75,0,0,0-.12-.9,4.37,4.37,0,0,1,.19-1.57c0-.06,0-.13,0-.19.82-.83.57-1.94.77-2.94.2-.84.4-1.69.59-2.54.53-.1.35-.52.38-.84S43,46.62,43.44,46.56Z"/><path class="cls-3" d="M47.73,28.2c-.65-.47-.56-1.26-.74-1.9-.3-1.08-.47-2.22-.72-3.3-.22-.88-.74-1.8-1-2.74-.14-.49-.3-1-.45-1.47a1.41,1.41,0,0,1-.19-.78,5.26,5.26,0,0,1-1-3.72,10.84,10.84,0,0,0,4.74.85c.11,0,.23.1.35.15a41.29,41.29,0,0,1-1.58,4.87,3.23,3.23,0,0,0,.09,3.35c.1.15,0,.43.12.55.49.53.06,1.65,1.14,1.79.06.27-.37.54,0,.8a1,1,0,0,1,.21,1.14Zm.4-1.06c-.07,0-.16.08-.16.1s0,.21.09.25.19,0,.19-.11A.9.9,0,0,0,48.13,27.14Z"/><path class="cls-3" d="M63,21.53a1.34,1.34,0,0,0,0,.2c-.35.62-.13,1.3-.21,2-.55.09-.33.53-.39.85-.28,1.67-.3,3.4-1.09,5a1.16,1.16,0,0,0,0,.86c.13.45.27.93-.48,1-.29,0-.35.2-.41.45-.12.53-.29,1.06-.44,1.58-.29,1-.45,1.06-1.3.4a1,1,0,0,0-.59-.29c.18-1.1.58-2.15.81-3.25.3-1.49.44-3,.78-4.47.18-.83.47-1.6,1.54-1.73A.9.9,0,0,0,62,23c-.1-.88.44-1.62.42-2.48,0-.36.3-.36.57-.36v.58C62.64,21,62.89,21.27,63,21.53Z"/><path class="cls-6" d="M48.73,15.29c-.12,0-.24-.16-.35-.15a10.84,10.84,0,0,1-4.74-.85l-.4-1a1.49,1.49,0,0,0-.55-1.38c0-.32,0-.64,0-1,1.89.45,3.88-.05,6,.47-.83.54-1.55.12-2.15.42a3,3,0,0,0,3.07-.25.68.68,0,0,1,.5-.25A5.16,5.16,0,0,1,48.73,15.29Z"/><path class="cls-3" d="M39.91,64.75a6.61,6.61,0,0,1,.25,2.65c0,1.61,0,3.22,0,4.83,0,.35,0,.84.46.81s.52-.46.4-.85a1.31,1.31,0,0,1,.09-.66c.07-.34-.13-.81.27-1s.38.52.73.6l.19,0c0,1.65,0,3.3,0,5,0,.32.12.79-.53.59-.37-.11-.45.17-.44.46,0,.52-.44.69-.74,1a.66.66,0,0,1-.74,0,.54.54,0,0,1-.25-.67c.37-1.56-.18-3.07-.31-4.6a7.77,7.77,0,0,1,0-2.5,36.16,36.16,0,0,0,.43-4.53C39.76,65.49,39.58,65.07,39.91,64.75Z"/><path class="cls-3" d="M54,34.44c.43-1.51.81-3,1.29-4.53a84.91,84.91,0,0,0,2.26-8.56,1.83,1.83,0,0,1,.23-.54c.17-.27.08-.85.59-.75s.5.59.53,1a15.27,15.27,0,0,1-.22,2.62.39.39,0,0,1-.38.37c-.06-.23.14-.61-.2-.67s-.33.29-.4.54a33.84,33.84,0,0,1-.93,4A39.58,39.58,0,0,0,55.6,32,3.18,3.18,0,0,1,54,34.44Z"/><path class="cls-6" d="M54,34.44A3.18,3.18,0,0,0,55.6,32,39.58,39.58,0,0,1,56.77,28a33.84,33.84,0,0,0,.93-4c.07-.25,0-.61.4-.54s.14.44.2.67,0,.64,0,1c-.39,0-.39.31-.38.59a22.21,22.21,0,0,1-1,4.64,33.32,33.32,0,0,1-3.66,8.23,12.51,12.51,0,0,0-1.83,3,.25.25,0,0,1-.32.16c-.22-.07-.17-.24-.1-.39l.66-1.52c.4,0,.39-.3.39-.59s0-.44.2-.58c0,0,.07,0,.09,0,1.27-1,1.31-2.49,1.73-3.84,0,0,0,0-.07-.06A1.21,1.21,0,0,1,54,34.44Z"/><path class="cls-4" d="M57.32,54v1c0,2.05,0,4.1,0,6.14,0,.82-.23,1.6-.22,2.41,0,.37-.18.73-.51.73s-.47-.53-.41-.74a19.26,19.26,0,0,0,0-3.64,20.16,20.16,0,0,0-.09-5c-.26-1.37.54-2.57.7-3.87,0,0,.17-.07.26-.1v2.34C57.15,53.48,57,53.79,57.32,54Z"/><path class="cls-4" d="M48.5,25.85c-1.08-.14-.65-1.26-1.14-1.79-.11-.12,0-.4-.12-.55a3.23,3.23,0,0,1-.09-3.35,7.44,7.44,0,0,0,1.32.16c.38,0,.75-.54.92-.16a1.76,1.76,0,0,1,.17,1.48,2.46,2.46,0,0,0-.06.67h0a.43.43,0,0,0-.2.4h-.19c-.21.14-.2.27,0,.4v.38A10.2,10.2,0,0,1,48.5,25.85Z"/><path class="cls-5" d="M39.72,59.47c-.55.13-.47.63-.58,1-.22.74-.42,1.49-.66,2.23-.06.2-.16.47-.45.42s-.26-.33-.26-.54a14.9,14.9,0,0,1,1.57-6.85c.11-.23.27-.51.58-.18,0,0,0,.07,0,.09C40.58,57,39.49,58.19,39.72,59.47Z"/><path class="cls-3" d="M49.89,36.79c.63-.62.66-1.5,1-2.26a3.21,3.21,0,0,1,.3-.8c.15-.22.31-.3.5,0a3.41,3.41,0,0,1,0,4.2c-.71.08-.66.71-.76,1.16s-.09.77-.61.81C49.91,38.9,50.17,37.81,49.89,36.79Z"/><path class="cls-6" d="M45.78,79.23l-.39-.2c.22-3.13.38-6.25.4-9.38,1.11,0,.85-.85,1-1.44s0-1.16.82-1.52a30.49,30.49,0,0,0-.65,3.62c-.2,1.81-.36,3.63-.56,5.44-.11,1-.37,2.06-.56,3.09C45.79,79,45.79,79.1,45.78,79.23Z"/><path class="cls-4" d="M49.89,36.79c.28,1,0,2.11.39,3.13l0,1c-.58-.18-.47-.75-.54-1.13A11.79,11.79,0,0,0,48,35.33a7.59,7.59,0,0,1-1.18-3c.54,0,.77.54,1.12.85a2.11,2.11,0,0,0,1.21.72l.2.2A8.56,8.56,0,0,0,49.89,36.79Z"/><path class="cls-3" d="M49.3,34.05l-.2-.2c-.19-.85-.39-1.69-.58-2.54.83-.41.71-1.34.89-2a17.12,17.12,0,0,0,.68-2.67c0-.37.13-.95.55-.88s.34.6.28,1c-.3,2-1.24,3.95-1.07,6.07C49.88,33.25,49.49,33.66,49.3,34.05Z"/><path class="cls-3" d="M52.24,43a.57.57,0,0,1,.9-.35c.69.74,1.66.37,2.42.75.12.63-.52,1-.58,1.55l-.39.2H53.41l-1,0c.07-.56-.38-1.16.12-1.7C52.56,43.44,52.34,43.19,52.24,43Z"/><path class="cls-1" d="M57.9,47.37a21.35,21.35,0,0,0-.63-3.54,1.72,1.72,0,0,0-.56-1.6.61.61,0,0,1,0-1.08,5.15,5.15,0,0,0,.71-.76c.4-.21.32.08.34.31.15,2.21.31,4.41.48,6.62C58.18,47.54,58.05,47.53,57.9,47.37Zm-1.23-5.74-.15.12c.07,0,.15.13.22.13s.15-.1.22-.15S56.9,41.52,56.67,41.63Zm.56.13c.17-.08.31-.11.28-.26s-.13-.1-.19-.1-.24.08-.21.22S57.19,41.79,57.23,41.76Z"/><path class="cls-3" d="M41.09,55.37a.75.75,0,0,1,.12.9,3.85,3.85,0,0,0-.1,1.65c.14,2-.52,3.79-.87,5.67,0,.08-.21.13-.32.19.21-1.53.46-3.05.62-4.59a16,16,0,0,1,.14-2.67A2.74,2.74,0,0,1,41.09,55.37Z"/><path class="cls-4" d="M52.42,45.17l1,0c-.55.57-.78,1.49-1.77,1.56-.35-.41-.11-.91-.19-1.36l.21-.22Z"/><path class="cls-3" d="M54,34.63s.08,0,.07.06c-.42,1.35-.46,2.88-1.73,3.84,0,0-.06,0-.09,0A14.83,14.83,0,0,1,54,34.63Z"/><path class="cls-6" d="M47.73,28.2l1-.41a11.39,11.39,0,0,1-.4,3.13,2.94,2.94,0,0,1-.31-1.8C48.1,28.68,47.89,28.48,47.73,28.2Z"/><path class="cls-6" d="M52.42,45.17h-.76c-.06-.72.14-1.5-.4-2.13h1c.1.15.32.4.3.43C52,44,52.49,44.61,52.42,45.17Z"/><path class="cls-6" d="M45.2,45.78c.06-.65.13-1.3.19-2,.69.18.3.74.4,1.12a4.54,4.54,0,0,1,.09,2.32C45.21,46.93,46,46,45.2,45.78Z"/><path class="cls-5" d="M49.11,22.7h.19a.43.43,0,0,0,.2-.4h0c.16,0,.48-.19.36.14a38,38,0,0,1-1.35,4.2c-.38-.26.05-.53,0-.8a10.2,10.2,0,0,0,.61-2.37s.07,0,.07-.05l-.07-.14V22.7Z"/><path class="cls-6" d="M50.26,40.89l0-1c.52,0,.52-.41.61-.81s0-1.08.76-1.16a27.37,27.37,0,0,1-1.34,3.7C50,41.36,50.35,41.12,50.26,40.89Z"/><path class="cls-5" d="M51.66,48.69v-.37l.56,0a19.4,19.4,0,0,0,3.14-.19l0,0,0,.19A17.71,17.71,0,0,1,51.66,48.69Z"/><path class="cls-5" d="M47.36,41.08h-.21v-.38l-.59-3.91,0,0A11.62,11.62,0,0,1,47.36,41.08Z"/><path class="cls-3" d="M52.21,48.3l-.56,0c-.4,0-.39-.3-.39-.58.1-.78-.21-1.59.19-2.34.08.45-.16,1,.19,1.36C51.69,47.33,51.43,48,52.21,48.3Z"/><path class="cls-3" d="M47.14,40.71v.38c.05.92-.61.77-1.17.78C46,41.14,46.64,41,47.14,40.71Z"/><path class="cls-6" d="M55,45c.06-.56.7-.92.58-1.55.47,0,.72.13.46.63S55.54,44.93,55,45Z"/><path class="cls-4" d="M45.2,28.57c.6.17.63.71.78,1.18A1.14,1.14,0,0,1,45.2,28.57Z"/><path class="cls-5" d="M44.78,29.56a2.71,2.71,0,0,1-.53-1.78A2.81,2.81,0,0,1,44.78,29.56Z"/><path class="cls-4" d="M37.48,67.8c.17.43,0,.71-.34,1.06A.69.69,0,0,1,37.48,67.8Z"/><path class="cls-4" d="M33.85,71.8c0-.33,0-.66,0-1,.32,0,.57.14.57.48S34.16,71.77,33.85,71.8Z"/><path class="cls-5" d="M50.39,20.53A1.6,1.6,0,0,1,49.94,22,2,2,0,0,1,50.39,20.53Z"/><path class="cls-5" d="M46.1,35a2,2,0,0,1-.27-1.4A1.61,1.61,0,0,1,46.1,35Z"/><path class="cls-3" d="M51.85,43h-.59c0-.24-.06-.58.33-.54S51.82,42.83,51.85,43Z"/><path class="cls-4" d="M46,30.14c.35.14.41.44.39.78C46,30.8,45.66,30.62,46,30.14Z"/><path class="cls-5" d="M44,27A1.11,1.11,0,0,1,43.69,26c.38.27.33.66.36,1Z"/><path class="cls-5" d="M44.8,29.77a1,1,0,0,1,.37,1C44.75,30.55,44.83,30.22,44.8,29.77Z"/><path class="cls-5" d="M55.35,48.11l.59-.78,0,0c0,.41,0,.81-.58.79Z"/><path class="cls-3" d="M52,39.13c0,.29,0,.57-.39.59C51.65,39.44,51.64,39.15,52,39.13Z"/><path class="cls-3" d="M57.91,25.64c0-.28,0-.57.38-.59C58.3,25.34,58.31,25.62,57.91,25.64Z"/><path class="cls-3" d="M62.53,19.52l-.08.17c-.05,0-.13,0-.15-.08s0-.1.06-.16Z"/><path class="cls-5" d="M45.42,31.68c.21.19.19.41,0,.91l-.09-.87Z"/><path class="cls-5" d="M46.55,36.8a.34.34,0,0,1-.15-.4.16.16,0,0,1,.08,0c0,.14.07.27.11.41Z"/><path class="cls-4" d="M54,45.19h.6Q54.29,45.58,54,45.19Z"/><path class="cls-5" d="M46.36,35.51l-.08.16c0-.05-.09-.1-.09-.15s.05-.11.08-.16Z"/><path class="cls-5" d="M45.78,33l-.09.16A.6.6,0,0,1,45.6,33c0-.06,0-.11.08-.16Z"/><path class="cls-5" d="M44.05,27a.37.37,0,0,1,.14.41s0,0-.07.06c0-.14-.1-.28-.14-.42Z"/><path class="cls-5" d="M45.37,31.72a.37.37,0,0,1-.14-.41s.05,0,.07,0c0,.14.08.28.11.42Z"/><path class="cls-5" d="M55.94,47.33l.09-.25.07.05-.13.23Z"/><path class="cls-2" d="M48.14,54.19c.64-.17.3-.69.37-1.06s-.08-.78.36-.77.4.48.35.78a18.29,18.29,0,0,0,.16,6c.08.55-.15,1.16-.08,1.72a19.74,19.74,0,0,1-.19,2.44c0,.24-.11.6.25.65s.29-.32.34-.55a3.09,3.09,0,0,1,.88-1.94,6.29,6.29,0,0,1-.28,2.9c-.27,1.16-.06,1.52,1.15,1.61V67.1c-.59,0-1.19.09-1.38-.85-.55,2-.4,1.59,1,1.63.13,0,.26,0,.38,0a30.45,30.45,0,0,1,.22,4.05c.06,1-.18,1.31-1.21,1.27a5.08,5.08,0,0,1-2-.69c-.2-.09-.15-.34-.15-.53s.31-.11.31-.17a7.68,7.68,0,0,0-.11-3.13c.52-.52.19-1.13.19-1.71,0-.93,0-1.87,0-2.8a7.42,7.42,0,0,0-.19-4.3v-1a5.27,5.27,0,0,0,0-3.12C48.75,55.15,48.11,54.75,48.14,54.19Z"/><path class="cls-2" d="M45.78,79.23c0-.13,0-.26,0-.39a2.89,2.89,0,0,0,.44-.18c.35-.2.7-.61,1.11-.26a.93.93,0,0,1,.09,1.17,1.1,1.1,0,0,1-1.29.61C45.56,80.05,45.86,79.56,45.78,79.23Z"/><path class="cls-5" d="M48.39,72.89V80h-.25A52.57,52.57,0,0,1,48.39,72.89Z"/><path class="cls-4" d="M51.45,67.88c-.12,0-.25,0-.38,0-1.4,0-1.55.34-1-1.63.19.94.79.89,1.38.85Z"/><path class="cls-4" d="M48.52,59.87a7.42,7.42,0,0,1,.19,4.3c-.41-1-.1-2.09-.18-3.14A11.25,11.25,0,0,1,48.52,59.87Z"/><path class="cls-4" d="M48.52,55.76a5.27,5.27,0,0,1,0,3.12,15,15,0,0,0-.19-2.12C48.33,56.42,48.2,56,48.52,55.76Z"/><path class="cls-5" d="M48.53,68.68a7.68,7.68,0,0,1,.11,3.13c0,.06-.2.11-.31.17A15.22,15.22,0,0,0,48.53,68.68Z"/><path class="cls-3" d="M43.44,46.56c-.48.06-.37.43-.4.73s.15.74-.38.84c-.22-1,.21-1.94.18-2.92a1.69,1.69,0,0,0-.09-.64c-1.47-.1-.62-.93-.48-1.52l1.16.17a4.76,4.76,0,0,1,.12,2.51C43.53,46,43.47,46.28,43.44,46.56Z"/><path class="cls-3" d="M34.83,48.91c0-.46,0-.91,0-1.37.37-.52,0-.59-.38-.57v-.43a.27.27,0,0,0,.34-.18V45.6a5.51,5.51,0,0,1,.6,3.3A.5.5,0,0,1,34.83,48.91Z"/><path class="cls-3" d="M42.07,50.67c-.2,1,0,2.11-.77,2.94A4.65,4.65,0,0,1,42.07,50.67Z"/><path class="cls-2" d="M36.59,43.24c-.26-.27-.64-.28-1-.41s-.4-.19-.31-.41.32-.13.5,0a4.5,4.5,0,0,0,1.94.46C37.56,43.56,37,43.11,36.59,43.24Z"/><path class="cls-6" d="M34.47,46.54c0,.15,0,.29,0,.43s0,.38,0,.57l-.39,3.53c-.37-.32-.74-.63-.44-1.21a1.71,1.71,0,0,0-.13-1.66c-.89-1.81-1-3.85-1.38-5.79-.35-1.58-.59-3.18-.81-4.77-.41-2.81-1.18-5.56-1.35-8.4,0-.29,0-.61-.38-.68,0-.38,0-.77,0-1.16a.37.37,0,0,0,.34-.56,11.59,11.59,0,0,1-.18-1.53c-.15-.67.14-1.43-.38-2v-.57c.33-.46-.09-.91,0-1.37s-.12-.7.19-1c.39,1.35.37,2.8,1,4.1a15.69,15.69,0,0,0,.8,2.93l.9,5.16a3.37,3.37,0,0,0,.16-2.25c-.07-.32-.22-.66.29-.75a25.9,25.9,0,0,0,2,5.93,2.66,2.66,0,0,1,.42,1.27,7.63,7.63,0,0,0,0,1.06c.09.7.38,1.39,0,2.07-.25,0-.54,0-.54.4s.24.62.68.68l.09-.84h.55l.2.75v.19l-.57.22c-.67.2-.82.67-.8,1.33.05,1.25,0,2.5,0,3.75Z"/><path class="cls-3" d="M39.34,31.31h-.2c-.26-.09-.27-.63-.63-.46s-.14.53-.15.8a.8.8,0,0,0,.14.45c.74,1.06.71,2.34,1,3.52-.73-.22-.74-.95-.94-1.47-.68-1.85-2-3.42-2.38-5.38-.06-.46,0-1-.58-1.19,0-.12,0-.25,0-.37,0-.44,0-.85-.56-1l0-.56c-.11-.59,0-1.28-.76-1.58l-.2-1c0-.29,0-.56-.38-.61a1.13,1.13,0,0,1-.19-.76c0-.81,0-1.64-.79-2.17-.07-.32-.13-.64-.19-1,.39-.28.51,0,.73.28a9,9,0,0,0,1.59,1.88,1.09,1.09,0,0,1,0,.18A3.81,3.81,0,0,0,36,23.3v.19c0,.28,0,.56.39.59,0,.19,0,.39,0,.58A6.12,6.12,0,0,0,38,27.41c0,.12,0,.25,0,.38a.35.35,0,0,0,.37.4Z"/><path class="cls-2" d="M33.26,23.68v.78a.55.55,0,0,0,.57.6c0,.39,0,.77,0,1.16a16.33,16.33,0,0,0,.57,2.49A4.88,4.88,0,0,0,36,31.31c0,.27-.09.58.2.78a10.9,10.9,0,0,0,1.42,3.62A2.27,2.27,0,0,1,38,37c-.36,0-.31-.32-.43-.54-.24-.43-.39-1.18-.94-1.07s-.1.81-.2,1.23a.56.56,0,0,1-.52-.52,26.72,26.72,0,0,0-2.33-5.77,14.94,14.94,0,0,1-.75-3.1c-.44-2.08-.86-4.17-1.28-6.26l.58-.2a6.41,6.41,0,0,1,.59,1.76C32.91,22.88,32.63,23.51,33.26,23.68Z"/><path class="cls-4" d="M38,37a2.27,2.27,0,0,0-.34-1.27,10.9,10.9,0,0,1-1.42-3.62,4.31,4.31,0,0,1,1.85,3.1c.21,1.13,1,1.82,1.5,2.76a14.35,14.35,0,0,1,1,2.27c.2.7.55.81,1.14.48a.58.58,0,0,1,.37.59,5.69,5.69,0,0,1-2.34-.4c-.17-.34-.34-.67-.5-1-.25-.56-.85-1-.67-1.71-.14-.37,0-.86-.58-1Z"/><path class="cls-6" d="M42.06,41.29a.58.58,0,0,0-.37-.59c-.26-1.25-1.16-2.25-1.39-3.51a.36.36,0,0,0-.38-.41c0-.12,0-.24,0-.36a.35.35,0,0,0-.36-.42l0-.38c-.31-1.18-.28-2.46-1-3.52a.8.8,0,0,1-.14-.45c0-.27-.16-.66.15-.8s.37.37.63.46c1.1,3.09,1.77,6.33,3.4,9.22a1.62,1.62,0,0,1,.1.95C42.43,41.47,42.21,41.49,42.06,41.29Z"/><path class="cls-3" d="M38,37v.19c0,.45-.07.93.58,1-.18.73.42,1.15.67,1.71.16.35.33.68.5,1A5.68,5.68,0,0,1,37,38c-.06-.36-.13-.71-.57-.79,0-.19,0-.38,0-.57.1-.42-.24-1.14.2-1.23s.7.64.94,1.07C37.65,36.66,37.6,37,38,37Z"/><path class="cls-3" d="M32.66,29.56c-.51.09-.36.43-.29.75a3.37,3.37,0,0,1-.16,2.25l-.9-5.16c.72-.3.33-.86.3-1.33,0-.87-.6-1.68-.3-2.59.67,1.28.61,2.74,1,4.1C32.44,28.23,32.53,28.9,32.66,29.56Z"/><path class="cls-4" d="M31.31,23.48c-.3.91.26,1.72.3,2.59,0,.47.42,1-.3,1.33a15.69,15.69,0,0,1-.8-2.93c.53-.08.34-.39.28-.72a7.28,7.28,0,0,1-.3-3.08C30.67,21.64,31.42,22.43,31.31,23.48Z"/><path class="cls-4" d="M36,31.31a4.88,4.88,0,0,1-1.57-2.6,16.33,16.33,0,0,1-.57-2.49.62.62,0,0,1,.54.35A18.16,18.16,0,0,1,36,31.31Z"/><path class="cls-4" d="M32.09,20.75l-.58.2c-.46-.48-.31-1.16-.54-1.71a.27.27,0,0,1,.17-.39c.18-.06.3,0,.38.2A2.9,2.9,0,0,1,32.09,20.75Z"/><path class="cls-2" d="M36,40.88c-.07-.25-.13-.5-.2-.75l0,0,.19-.18c.61.13,1.27-.4,1.92.22-.54.2-1.1.31-1.41.85C36.42,41.16,36.17,40.94,36,40.88Z"/><path class="cls-2" d="M35,39.89c.41-.68.12-1.37,0-2.07a7.63,7.63,0,0,1,0-1.06c.34.07.35.33.34.59-.17,1,.47,1.8.4,2.74l0,0h-.55Z"/><path class="cls-4" d="M32.69,19.56c.79.53.78,1.36.79,2.17A4.5,4.5,0,0,1,32.69,19.56Z"/><path class="cls-6" d="M35.82,40.09c.07-.94-.57-1.78-.4-2.74.76.26.27,1,.47,1.42A3.57,3.57,0,0,1,36,39.91Z"/><path class="cls-4" d="M34.25,24.06c.72.3.65,1,.76,1.58C34.4,25.29,34.35,24.66,34.25,24.06Z"/><path class="cls-2" d="M35.42,41.29l.57-.22c.06.5-.14.8-.71.87Z"/><path class="cls-4" d="M35.62,27.58c.57.21.52.73.58,1.19C35.61,28.57,35.67,28.05,35.62,27.58Z"/><path class="cls-4" d="M33.26,23.68c-.63-.17-.35-.8-.58-1.17C33.27,22.71,33.2,23.23,33.26,23.68Z"/><path class="cls-4" d="M35,26.2c.52.16.56.57.56,1C35.07,27.06,35.14,26.59,35,26.2Z"/><path class="cls-2" d="M36.41,37.17c.44.08.51.43.57.79C36.52,37.89,36.45,37.54,36.41,37.17Z"/><path class="cls-4" d="M33.84,25.06a.55.55,0,0,1-.57-.6A.54.54,0,0,1,33.84,25.06Z"/><path class="cls-4" d="M33.67,22.49c.38.05.38.32.38.61C33.64,23.07,33.65,22.78,33.67,22.49Z"/><path class="cls-3" d="M39.92,36.78a.36.36,0,0,1,.38.41A.36.36,0,0,1,39.92,36.78Z"/><path class="cls-3" d="M39.54,36a.35.35,0,0,1,.36.42C39.66,36.38,39.52,36.25,39.54,36Z"/><path class="cls-4" d="M37.62,46.67a.34.34,0,0,1-.15.07s-.1-.05-.14-.08a.34.34,0,0,1,.15-.07C37.53,46.59,37.57,46.64,37.62,46.67Z"/><path class="cls-4" d="M34.47,46.54l.17-.17h.17A.27.27,0,0,1,34.47,46.54Z"/><path class="cls-4" d="M31.31,43.83v.38c-.08.36.21.88-.21,1.06s-.49-.33-.73-.54-.45-.43-.77-.21a.6.6,0,0,0-.12.87c.46.79.18,1.66.29,2.49A.81.81,0,0,1,29,47a40.52,40.52,0,0,0-.26-4.13,4.78,4.78,0,0,1,.6-3,1.32,1.32,0,0,0,.18-.84,61,61,0,0,1-.18-7.15.42.42,0,0,1,.37.48,16.89,16.89,0,0,0,.4,3.25c-.11,0-.28.09-.29.16s.14.21.29.23a5.41,5.41,0,0,1,.19,2,.47.47,0,0,0,0,.78v.78c0,.22,0,.45.19.59-.18.77.49,1.39.39,2.15C31.08,42.77,30.53,43.46,31.31,43.83Z"/><path class="cls-2" d="M29.77,47.88c-.11-.83.17-1.7-.29-2.49a.6.6,0,0,1,.12-.87c.32-.22.54,0,.77.21s.43.67.73.54.13-.7.21-1.06c.75.34.41,1.09.53,1.62s.17,1.27.25,1.91h0c-.28,0-.59.07-.81-.17-.67-.73-.71-.17-.76.37-.22.19.38.35,0,.52s-.38-.07-.41-.32S29.92,47.93,29.77,47.88Z"/><path class="cls-4" d="M29.56,27.4c0,.39,0,.78,0,1.16-.16.39.29,1-.4,1.2a10,10,0,0,1-.19-4.9A11.14,11.14,0,0,1,29.56,27.4Z"/><path class="cls-3" d="M29.56,27.4A11.14,11.14,0,0,0,29,24.86c0-.14,0-.27,0-.4a3.55,3.55,0,0,1,.37-1.17c.52.59.23,1.35.38,2a11.59,11.59,0,0,0,.18,1.53A.37.37,0,0,1,29.56,27.4Z"/><path class="cls-4" d="M29.34,23.29A3.55,3.55,0,0,0,29,24.46c-.66-.59-.12-1.17,0-1.76h.37C29.34,22.91,29.34,23.1,29.34,23.29Z"/><path class="cls-4" d="M29.18,30.7c.38.1.49.3.19.61C29.12,31.17,29.16,30.93,29.18,30.7Z"/><path class="cls-4" d="M28.65,47.46s-.08,0-.11,0,0,0,0-.06Z"/><path class="cls-4" d="M62.79,23.69c.08-.66-.14-1.34.21-2,.21,0,.44,0,.58-.2A1,1,0,0,1,63.71,23a1.66,1.66,0,0,0-.11,1.33c.21,1.23.08,2.47.19,3.69A38.13,38.13,0,0,1,64,33.57a15.94,15.94,0,0,0,0,3.09,6.89,6.89,0,0,1-.43,2.43c-.47,1.81.21,3.52.17,5.28,0,.29.1.58.09.86s-.09.66-.44.68-.25-.42-.33-.66c-.48-1.34-.36-2.78-.72-4.15-.29-1.15.14-2.31.22-3.47a8.62,8.62,0,0,1,.11-.87c.14-.8-.24-1.06-1-.95.31-3.14.36-6.31,1-9.43C62.72,25.5,62.58,24.58,62.79,23.69Z"/><path class="cls-3" d="M60.46,48.92c-.6-.58-.5-1.37-.58-2.08a15.58,15.58,0,0,1,0-2.05c.52.94,1.49,1.76,1,3C60.74,48.14,61.51,48.91,60.46,48.92Z"/><path class="cls-5" d="M65.35,48.34a7.62,7.62,0,0,1-2.54,1.12.65.65,0,0,1-.8-.16,6.6,6.6,0,0,0,2.16-.7A1.77,1.77,0,0,1,65.35,48.34Z"/><path class="cls-5" d="M57.9,47.37c.15.16.28.17.39,0,0,.4.06.8.1,1.2C57.81,48.31,57.9,47.82,57.9,47.37Z"/><path class="cls-2" d="M56.93,39.52c0-.11,0-.25.15-.26s.11.08.11.11c0,.18-.15.14-.26.16Z"/><path class="cls-2" d="M58.69,53.24c-.22-.19-.28-.39,0-.6C58.68,52.84,58.69,53,58.69,53.24Z"/><path class="cls-2" d="M36.39,17.62c.08.55.65.91.61,1.51,0,.2.29.44,0,.59s-.45-.09-.58-.27c-.53-.73-1-1.48-1.55-2.22a.35.35,0,0,0-.39-.39h0c0-.35-.09-.77.35-.92s.6.28.87.48C36.08,16.7,36,17.32,36.39,17.62Z"/><path class="cls-2" d="M31.69,51.26c-.58-.12-.37-.6-.37-.94,0-.62-.14-1.28.38-1.8C32.32,49.44,31.92,50.35,31.69,51.26Z"/><path class="cls-2" d="M31.31,43.83c-.78-.37-.23-1.06-.39-1.57C31.7,42.62,31.15,43.31,31.31,43.83Z"/><path class="cls-2" d="M30.34,38.74a.47.47,0,0,1,0-.78A.47.47,0,0,1,30.34,38.74Z"/><path class="cls-2" d="M30.53,40.11c-.23-.14-.19-.37-.19-.59C30.74,39.6,30.84,39.79,30.53,40.11Z"/><path class="cls-6" d="M33,48.57c-.06,0-.13.08-.16.06s-.05-.1-.07-.16.12-.07.16,0S33,48.52,33,48.57Z"/><path class="cls-2" d="M32.09,47.74c.14,0,.31,0,.3.23a.09.09,0,0,1-.06.06c-.22,0-.21-.15-.24-.29Z"/><path class="cls-2" d="M30.14,36c-.15,0-.34,0-.29-.23s.18-.11.29-.16Z"/><path class="cls-4" d="M34.45,47.54c0-.19,0-.38,0-.57.43,0,.75.05.38.57Z"/><path class="cls-2" d="M57.32,54c-.29-.21-.17-.52-.2-.79C57.68,53.35,57.59,53.65,57.32,54Z"/><path class="cls-4" d="M42.69,11.94a1.49,1.49,0,0,1,.55,1.38c-.34,0-1-.38-.69.43.22.53.2.77-.23,1.11a1,1,0,0,0-.24.9A2.5,2.5,0,0,0,44.61,18a1.41,1.41,0,0,0,.19.78c-.9.16-1.48-.51-2.15-.9a10.54,10.54,0,0,1-1-.88c-.27-.22-.3,0-.34.22h0c-.65-.73-.39-1.79-1-2.56.38-.79.72-1.61,1.13-2.38C41.72,11.81,42.26,12,42.69,11.94Z"/><path class="cls-2" d="M63,21.53c-.1-.26-.35-.52,0-.78A.47.47,0,0,1,63,21.53Z"/><path class="cls-4" d="M38,27.41a6.12,6.12,0,0,1-1.54-2.75A5.15,5.15,0,0,1,38,27.41Z"/><path class="cls-4" d="M36,23.3a3.81,3.81,0,0,1-1.17-2.36A3.43,3.43,0,0,1,36,23.3Z"/><path class="cls-4" d="M41.76,19.32l-.52-1.64C42,18.23,42.23,18.64,41.76,19.32Z"/><path class="cls-2" d="M42.65,22.51c-.39.39.4.78,0,1.17h0c-.46-.4-.7-.79,0-1.18Z"/><path class="cls-2" d="M42.65,22.51c0-.26-.57-.09-.44-.48,0-.06.24-.11.34-.08.37.11.36.32.1.56Z"/><path class="cls-4" d="M36.39,24.08c-.39,0-.39-.31-.39-.59C36.41,23.51,36.4,23.79,36.39,24.08Z"/><path class="cls-4" d="M43.88,34.52c0,.07.1.14.11.22s-.05.19-.18.12a.21.21,0,0,1-.1-.15C43.68,34.61,43.73,34.53,43.88,34.52Z"/><path class="cls-4" d="M34.44,16.84a.35.35,0,0,1,.39.39A.36.36,0,0,1,34.44,16.84Z"/><path class="cls-4" d="M38.34,28.19a.35.35,0,0,1-.37-.4A.34.34,0,0,1,38.34,28.19Z"/><path class="cls-4" d="M41.36,19.65l0-.11.07,0Z"/><path class="cls-2" d="M43.63,24.86l-.15-.21.08,0,.07.25Z"/><path class="cls-4" d="M41.29,17.23l.08,0-.09,0Z"/><path class="cls-2" d="M44.61,18a2.5,2.5,0,0,1-2.53-2.25,1,1,0,0,1,.24-.9c.43-.34.45-.58.23-1.11-.35-.81.35-.44.69-.43l.4,1A5.26,5.26,0,0,0,44.61,18Z"/><path class="cls-6" d="M48.13,27.14a.9.9,0,0,1,.12.24c0,.11-.1.18-.19.11s-.08-.16-.09-.25S48.06,27.18,48.13,27.14Z"/><path class="cls-2" d="M49.5,22.31a.43.43,0,0,1-.2.4A.43.43,0,0,1,49.5,22.31Z"/><path class="cls-2" d="M49.11,22.7v.4C48.91,23,48.9,22.84,49.11,22.7Z"/><path class="cls-2" d="M49.11,23.29l.07.14s0,0-.07.05Z"/><path class="cls-6" d="M56.67,41.63c.23-.11.23,0,.29.1s-.14.14-.22.15-.15-.08-.22-.13Z"/><path class="cls-6" d="M57.23,41.76s-.1,0-.12-.14.09-.21.21-.22.18.05.19.1S57.4,41.68,57.23,41.76Z"/><path class="cls-5" d="M35,39.89l.23.24q0,.4-.09.84c-.44-.06-.69-.26-.68-.68S34.76,39.93,35,39.89Z"/><path class="cls-2" d="M38.55,38.16c-.65-.06-.59-.54-.58-1C38.5,37.3,38.41,37.79,38.55,38.16Z"/></g></svg>