<svg xmlns="http://www.w3.org/2000/svg" viewBox="0 0 17.34 35.65"><defs><style>.cls-1{fill:#c75fa4;stroke:#231f20;stroke-miterlimit:10;stroke-width:0.5px;}</style></defs><title>pink-person</title><g id="Layer_2" data-name="Layer 2"><g id="While_Fill" data-name="While Fill"><path class="cls-1" d="M7.06,18.63C6.3,19.68,4,20.33,4.12,23.56c0,1,.23,2.52.34,3.66a2.29,2.29,0,0,0,1.07,1.72h0"/><path class="cls-1" d="M10,18.52c.77,1.05,3.18,1.81,3.05,5,0,1-.22,2.52-.34,3.66a2.26,2.26,0,0,1-1.07,1.72h0"/><path class="cls-1" d="M12,22a3.36,3.36,0,1,0-6.72,0v4.52A3.32,3.32,0,0,0,5.66,28v6.36a1.07,1.07,0,0,0,2.13,0v-4.6a3.17,3.17,0,0,0,.88.13,3.5,3.5,0,0,0,.86-.12v4.59a1.06,1.06,0,0,0,2.12,0V28A3.26,3.26,0,0,0,12,26.51Z"/><rect class="cls-1" x="0.25" y="0.25" width="16.84" height="18.38" rx="8.42" ry="8.42"/></g></g></svg>