<svg xmlns="http://www.w3.org/2000/svg" viewBox="0 0 90.13 90.18"><defs><style>.cls-1{fill:#99846d;}.cls-2{fill:#100b0b;}.cls-3{fill:#a28b73;}.cls-4{fill:#301410;}.cls-5{fill:#988369;}.cls-6{fill:#9e886f;}.cls-7{fill:#806e57;}.cls-8{fill:#88725c;}.cls-9{fill:#796a56;}.cls-10{fill:#746451;}.cls-11{fill:#64513d;}.cls-12{fill:#725d48;}.cls-13{fill:#5e4b38;}.cls-14{fill:#1a120e;}.cls-15{fill:#75634d;}.cls-16{fill:#88745e;}.cls-17{fill:#7c6751;}.cls-18{fill:#3d1e17;}.cls-19{fill:#88735d;}.cls-20{fill:#5f4d3a;}.cls-21{fill:#332921;}.cls-22{fill:#766655;}.cls-23{fill:#75604c;}.cls-24{fill:#887860;}.cls-25{fill:#88755e;}.cls-26{fill:#7c6653;}.cls-27{fill:#6b5b49;}.cls-28{fill:#765f4e;}.cls-29{fill:#261410;}.cls-30{fill:#7e6552;}.cls-31{fill:#7c6553;}.cls-32{fill:#332922;}.cls-33{fill:#938676;}.cls-34{fill:#3f352c;}.cls-35{fill:#9c8b7a;}.cls-36{fill:#9c8d7e;}.cls-37{fill:#928175;}.cls-38{fill:#524c42;}.cls-39{fill:#87765f;}.cls-40{fill:#421610;}.cls-41{fill:#c1b4a4;}.cls-42{fill:#b9aa99;}.cls-43{fill:#a2947f;}.cls-44{fill:#c7bb89;}.cls-45{fill:#8e877a;}.cls-46{fill:#c8bbb1;}.cls-47{fill:#321410;}.cls-48{fill:#866955;}.cls-49{fill:#795d48;}.cls-50{fill:#2e1410;}.cls-51{fill:#8d7661;}.cls-52{fill:#6d5a45;}.cls-53{fill:#5e4e3a;}.cls-54{fill:#74614b;}.cls-55{fill:#806a55;}.cls-56{fill:#63523e;}.cls-57{fill:#8f7a61;}.cls-58{fill:#837b76;}.cls-59{fill:#c2b7b0;}.cls-60{fill:#b5a593;}.cls-61{fill:#b4a7a1;}.cls-62{fill:#bcad9d;}.cls-63{fill:#c9bbab;}.cls-64{fill:#473c32;}.cls-65{fill:#82796f;}.cls-66{fill:#857c6f;}.cls-67{fill:#9c9388;}.cls-68{fill:#a9a194;}.cls-69{fill:#5c5749;}.cls-70{fill:#1f1b16;}.cls-71{fill:#bcae9b;}.cls-72{fill:#4a3d30;}.cls-73{fill:#9d9388;}.cls-74{fill:#c2b6ab;}.cls-75{fill:#948b82;}.cls-76{fill:#8b7c6f;}.cls-77{fill:#7d736c;}.cls-78{fill:#a89d91;}.cls-79{fill:#433930;}.cls-80{fill:#67594b;}.cls-81{fill:#2a201d;}.cls-82{fill:#a29381;}.cls-83{fill:#6c5945;}.cls-84{fill:#827059;}.cls-85{fill:#7b664f;}.cls-86{fill:#62513c;}.cls-87{fill:#5d4d41;}.cls-88{fill:#493c32;}.cls-89{fill:#b1a18c;}.cls-90{fill:#918474;}.cls-91{fill:#877365;}.cls-92{fill:#93897c;}.cls-93{fill:#3c332b;}.cls-94{fill:#362c27;}.cls-95{fill:#a59d95;}.cls-96{fill:#7d6e60;}.cls-97{fill:#52493c;}.cls-98{fill:#5d5146;}.cls-99{fill:#756857;}.cls-100{fill:#4d3d2a;}.cls-101{fill:#7f6a53;}.cls-102{fill:#8a745c;}.cls-103{fill:#634f3c;}.cls-104{fill:#564633;}.cls-105{fill:#221b16;}.cls-106{fill:#2b231f;}.cls-107{fill:#a39389;}.cls-108{fill:#978a81;}.cls-109{fill:#7d726b;}.cls-110{fill:#251d16;}.cls-111{fill:#9d948e;}.cls-112{fill:#a5978b;}.cls-113{fill:#8a775f;}.cls-114{fill:#ab9d93;}.cls-115{fill:#1f1b17;}.cls-116{fill:#a1988f;}.cls-117{fill:#2b2620;}.cls-118{fill:#362617;}.cls-119{fill:#4a3925;}.cls-120{fill:#b2a895;}.cls-121{fill:#9d927f;}.cls-122{fill:#9e9487;}.cls-123{fill:#9c8f80;}.cls-124{fill:#29231e;}.cls-125{fill:#857f79;}.cls-126{fill:#493c2a;}</style></defs><title>Spiritual Doll</title><g id="Layer_2" data-name="Layer 2"><g id="Cards"><g id="Spiritual_Doll" data-name="Spiritual Doll"><path class="cls-1" d="M90.08,49.74V68.08A24.06,24.06,0,0,0,89,75c-.08,3.49-.8,7,0,10.51.31,1.43.57,3.18-.47,4.55H71a1.65,1.65,0,0,1-.79-1.1,5.11,5.11,0,0,0-1.39-5.28,71.24,71.24,0,0,1-3.76-16.61A6.37,6.37,0,0,0,64,63.77c-.77-2.34-.51-4.8-.52-7.22A4.22,4.22,0,0,1,63.89,55c.12-.29.4-.55.35-.87-.43-2.49.62-5.17-.59-7.56a1.46,1.46,0,0,1-.1-.48,72.37,72.37,0,0,1,1.67-10.41c.38-1.6,0-3.32.29-5A12.45,12.45,0,0,1,69,24.87,17,17,0,0,0,72.55,20c.25-.47.08-1,.11-1.46s.34-1.15.88-1.32c1.5.81,1.75,1.68.92,3.19a3.68,3.68,0,0,0,0,3.13c1.07,2.82.55,3.88-2,3.74a9.43,9.43,0,0,1-.63,3.34c-.14.45-.38,1,.13,1.3s.64-.19.88-.52c1.31-1.86,1.42-1.68,2.62.3a32.28,32.28,0,0,0,3.15,3.93,4.67,4.67,0,0,1,.66,4.8,5.9,5.9,0,0,0-.54,1.32c-.4,2,.17,3,1.81,3,.64,0,1.28,0,1.61.83a2,2,0,0,1-.58,2c-.67.84-.94,1.6,0,2.42a4.27,4.27,0,0,1,1,2.55,1.48,1.48,0,0,0,.08-1.84,2.62,2.62,0,0,1-.07-2.9c.77-1.12,1.74-.84,2.69-.43a2.35,2.35,0,0,1,1.29,2.44c0,.22-.06.43-.08.65s0,.61.29.62.34-.32.31-.6a17.58,17.58,0,0,0-.46-3.76c-.36-1-.24-2.07.71-2.46s1.42.33,1.65,1.49a7.85,7.85,0,0,1,.5,2.71A1.55,1.55,0,0,0,90.08,49.74Z"/><path class="cls-2" d="M64.63,63.52a5.23,5.23,0,0,1,1.13,3.42,57.79,57.79,0,0,0,2.81,13.7,13.32,13.32,0,0,0,.86,2.77,13,13,0,0,1,1.32,5.36L71,90.08H68.38A13,13,0,0,1,66,84.85a38.51,38.51,0,0,0-2.78-8.2c-1.08,3.93-.78,8.19-.84,12.42a1.49,1.49,0,0,1-.39,1H51.17c-.73-1-.32-2.24-.25-3.34.21-3.09-.06-4-2.23-5.27a1.79,1.79,0,0,1-1-2.29c.26-1-.39-1.33-.86-1.8s-1.07-.89-.67-1.71,1-.5,1.56-.26c2.82,1.2,5.74-.39,7-3.8a4.69,4.69,0,0,1,.74-1.36A2.29,2.29,0,0,0,56,68.61c-.28-1.77.58-3.58-.23-5.33a2.13,2.13,0,0,1,.45-2.12A2.18,2.18,0,0,0,56.58,59c-.4-1.19.25-2.35.22-3.77-1.42,1-2.91.88-3.84,2.82s-3.54,1.15-4.38-.9a2,2,0,0,1,.76-1.3,13.14,13.14,0,0,0,2.55-3.5,3.73,3.73,0,0,0,1.28-1.62,2.82,2.82,0,0,0,1.18-1.86,2,2,0,0,1,.41-1c1.27-1.38,1.56-3.35,2.06-5.2a36.84,36.84,0,0,0,1-7.5A3,3,0,0,1,58,34.07a1.87,1.87,0,0,0-.67-2.23,1.15,1.15,0,0,1-.39-1.65c1.42-2.14.85-4.29.12-6.47a5.45,5.45,0,0,1-.71-2.17,5.36,5.36,0,0,0-2-3.5c-1.56-1.44-3.28-2.73-5.39-2.37-.62.38-.07,1.42-.64,1.83-1.19.44-1.66.1-1.68-1.34,0-.48,0-1,0-1.45.16-1.55.6-2.05,1.78-1.89a32.81,32.81,0,0,0,4.19.31,1.66,1.66,0,0,0,1.66-1c.78-1.36,1.3-1.44,2.46-.64,1.76,1.22,3.21,3,5.07,4.09,1,.57,1.33,1.89,1.34,3.21a23.93,23.93,0,0,0,.37,3.09c.23,1.72.78,2.93,2.18,3.55a2,2,0,0,1,1,2.8c-.29.79,0,1.65-.32,2.41a2.48,2.48,0,0,0-.19.77,18.11,18.11,0,0,1-.65,6.36c-.81,2.66-.85,5.52-1.28,8.28,0,1.84.39,3.66.23,5.51A26.33,26.33,0,0,1,64,55a25.13,25.13,0,0,0-.19,6.88A3.07,3.07,0,0,0,64.63,63.52Z"/><path class="cls-3" d="M90.08,49.74c-.86,0-1.4-.41-1.19-1.59s-.81-1.91-.66-3.11c0-.3-.51-.31-.8-.17a.78.78,0,0,0-.37,1.07c.87,1.51.11,3.55,1.09,5a.43.43,0,0,1-.13.67c-.61.24-1.15,1-1.86.55a1.24,1.24,0,0,1-.43-1.41c.4-2.17,0-2.81-1.64-3a1.12,1.12,0,0,0-1.24.72,1.5,1.5,0,0,0,.2,1.53,2.87,2.87,0,0,1,.49,2.74c-.22.59-.62,1-1.14.94s-.51-.72-.5-1.2a2.3,2.3,0,0,0-1.06-2.27c-1-.55-.86-1.38-.3-2.26.21-.35.5-.62.71-1s.89-.68.53-1.32-.78-.23-1.22-.07C79.63,46,78,44.58,78,43.37a6.08,6.08,0,0,1,.56-2.86A3.5,3.5,0,0,0,78,36c-.92-1-1.43-2.53-2.72-3-.42-.17-.45-.91-.57-1.44s-.11-.82-.48-.9-.49.35-.63.7-.26.57-.4.86c-.41.86-1,1.1-1.68.59s-.85-1.19-.4-2.22,1.26-2.38.36-3.82a.77.77,0,0,1,.22-1c.28-.25.48-.06.7.18s.45.58.72.68a1,1,0,0,0,1.36-.68c.32-1-.32-1.61-.8-2.22-.12-.14-.39-.1-.74-.18a2,2,0,0,0,.5-2.31,1.61,1.61,0,0,1,0-1.09c1.83-.8.27-1.84.15-2.77-.51-.63-.17-1.24.06-1.8A44.57,44.57,0,0,1,77,9.17a54,54,0,0,0,3.19-7A6.36,6.36,0,0,1,81.35.08c2.51,0,5,.06,7.52,0,.94,0,1.25.16,1.24,1.49,0,13.4,0,26.8,0,40.2a1.25,1.25,0,0,0,0,2Z"/><path class="cls-4" d="M48.79,57.12a3.93,3.93,0,0,0,2.4,1.21c.83.19,1.46-.4,1.73-1.42.22-.82.63-1.37,1.31-1.43a2.88,2.88,0,0,0,2.24-1.22c.18-.24.42-.46.71-.32s.35.61.33,1c0,.61-.12,1.21-.21,1.8s-.33,1-.22,1.28a3.86,3.86,0,0,1-.77,4.25.69.69,0,0,0,.07,1c.83.54.61,1.34.39,2.15-.41,1.5.14,3.08-.24,4.59-.05.19.1.57,0,.63-1.86,1.6-2.54,4.81-5,5.64-1.39.45-2.65.71-4-.13a1.07,1.07,0,0,0-1.14-.23,6.2,6.2,0,0,0,1.78,1.61c.69.47,1,.9.25,1.71-.36.41-.69,1,0,1.46,3.38,1.94,3.21,3.94,2.81,8.73,0,.22-.09.43-.13.65H36.35c-.85-.83-.53-2-.59-3.07a15.41,15.41,0,0,0,.11-2.18c-1,1.77-.95,4.09-2.43,5.25h-5c-.5-.6-.24-1.19,0-1.8.84-2.22,1.45-4.54,2.08-6.85a8,8,0,0,0,.2-1.29c.28-1.32,1-2.41,1.16-3.8.71-3.61,1.92-7.08,2-10.88a6.57,6.57,0,0,1,.56-2c.27-.43.56-.82,1-.89a2.64,2.64,0,0,1,2.44.92c.43.52.72.29.84-.35a13.13,13.13,0,0,0,.46-1.72c.07-1.29.68-1.35,1.49-1,2.76,1.26,3,1,2.61-2.69-.08-.7-.49-1-.77-1.49-.54-.92-.87-1.84.09-2.7,1-.2,1.36,1,2,1.62a7,7,0,0,1,1,1.44c.32.79.86.59,1.38.51s.91-.47,1.42-.43A.63.63,0,0,1,48.79,57.12Z"/><path class="cls-5" d="M24.44.08H51.17c1.65,1.69,2.88,4.06,5.08,4.9a1.29,1.29,0,0,1,.6,1.95c-.78.87-.7,2-1.13,3-.52.44-1,.21-1.51-.08a5.61,5.61,0,0,0-1.87-.77c-2.92-2-5.74-.61-8.57.35a14.11,14.11,0,0,0-1.46.72c-.71.27-1.5.24-2,1-1,.64-2.17.9-2.65,2.4a.88.88,0,0,1-.36.23c-1.44-.75-2.94-.09-4.4-.28A19.6,19.6,0,0,1,30,12.08c-1.08-1.32-2.38-.4-3.57-.55a11.12,11.12,0,0,1-3.2-3.87,2.94,2.94,0,0,1-.42-2,5.93,5.93,0,0,0,.76-3.52A2.24,2.24,0,0,1,24.44.08Z"/><path class="cls-6" d="M55.65,9.81a1.2,1.2,0,0,0,0-.33A4.52,4.52,0,0,1,56.21,7c.59-.5.56-1-.09-1.3a12.23,12.23,0,0,0-1.73-.8,1.53,1.53,0,0,1-1.16-1.37,1.09,1.09,0,0,0-.8-1c-1.24-.17-1.28-1.26-1.26-2.43H77.38a9,9,0,0,1-1,4.92A23.91,23.91,0,0,1,74.6,8.21c-.56,1.35-1.51,2.39-1.9,3.88-.52.77-.88,1.76-1.77,2-1.54-.82-2.92-.06-4.26.77a5.67,5.67,0,0,1-4.3,1,14.26,14.26,0,0,1-4.95-4.32c-.22-.87-.83-.91-1.4-1A.72.72,0,0,1,55.65,9.81Z"/><path class="cls-7" d="M34.75,63.72c-.41.47-.06,1.25-.45,1.72-1.62,1.87-3.41,3.26-5.73,3.09a3.66,3.66,0,0,0-2,.73c-1.47.82-3.1.77-4.62,1.4a3.56,3.56,0,0,0-2,1.82,3,3,0,0,1-1.82,1.76,1.76,1.76,0,0,0-1.37,1.92,2.23,2.23,0,0,0,1.39,2.3c1.65.72,3.43,1,4.91,2.34a.92.92,0,0,0,1,.2,3.33,3.33,0,0,1,2.73.13c1.18.42,2-.14,2.65-1.2.51-.77.93-1.62,1.41-2.41.37-.6.79-1.26,1.54-.77-.21,1.26-1,2.14-1.34,3.35-.79,2.72-1.82,5.32-2.58,8.07-.32,1.18-1,1.33-1.77,1A15.18,15.18,0,0,1,22.91,86a16.45,16.45,0,0,0-2-1.37c-1.6-1.14-3.34-1.14-5-1.63a2.59,2.59,0,0,1-1.41-1.66c-.21-.49-.38-1.22-.81-1.24-1.23,0-1.77-1-2.42-2.14A3.21,3.21,0,0,0,9.09,76.8c-1.35-.39-2.8-.51-3.95-1.7a.72.72,0,0,0-.48-.26c-2.42,0-3.42-2.35-4.58-4.43V63.74c.74-.48,1.22.1,1.54.76a6.83,6.83,0,0,0,4.12,3.58c.53.19,1.15.7,1.56-.08s-.09-1.37-.42-2a9.35,9.35,0,0,0-2-2.17C3.06,62.12,1.15,60.47.08,57.74V55.41c.55-.31.83.14,1.08.61a23,23,0,0,0,5.61,6.92,11.62,11.62,0,0,1,2.66,3.4,4.42,4.42,0,0,0,4.78,2.41,94.68,94.68,0,0,0,13.22-2.67c1.54-.38,3.14-.44,4.58-1.43a9.62,9.62,0,0,0,1.58-1.17C34,63,34.49,62.66,34.75,63.72Z"/><path class="cls-8" d="M.08,29.08V10.41A21.68,21.68,0,0,1,7.5.08h9.26a6.48,6.48,0,0,1,2,4.66,2.59,2.59,0,0,1-4.22,1.64c-.69-.61-1.3-1.32-1.95-2-1.09-1.07-2.08-1.14-2.73-.3a3.45,3.45,0,0,0,.07,3.66c.62,1.22,1.59,2,2.23,3.24a4.6,4.6,0,0,1,.15,4.88c-1,1.93-2.09,3.86-3.94,4.74A1.9,1.9,0,0,0,7.29,22a3.56,3.56,0,0,1-2,2.46,7.63,7.63,0,0,0-3.7,3.77C1.27,28.94.85,29.59.08,29.08Z"/><path class="cls-9" d="M.08,70.41c1.1.58,1.77,1.79,2.6,2.78.47.56.92,1,1.63.74.19-.08.52-.13.63,0,1.72,2.15,4.23,1.61,6.2,2.91.57.37,1.13.61,1.13,1.59,0,.82.44.8.92.7.74-.15,1.22.12,1.56,1.07.75,2.16,1.42,2.65,3.28,2.35a1.89,1.89,0,0,1,1.92.73c.4.49.8.81,1.4.65s.93.28,1.27.71a20.34,20.34,0,0,0,4.12,3.63c.77.56,1.17.55,1.49-.73a31.44,31.44,0,0,1,2.86-7.44,40.58,40.58,0,0,1-2.24,8.26,5.25,5.25,0,0,0-.44,1.72H17.82a1.78,1.78,0,0,0-1.56-.68c-1.55-.06-2.48-1.09-2.62-3-.1-1.28-.55-1.94-1.56-2A2.23,2.23,0,0,1,10,82.74a2.1,2.1,0,0,0-2.12-1.59A4.34,4.34,0,0,1,4.13,79.5a2.34,2.34,0,0,0-1.45-.72,2.53,2.53,0,0,1-2-2.62,2.14,2.14,0,0,0-.58-1.42Z"/><path class="cls-10" d="M.08,74.74c.87,0,1.72-.17,1.22,1.69C1,77.42,2,77.89,2.7,78A3.73,3.73,0,0,1,5,79.41a3.41,3.41,0,0,0,3,1,2.32,2.32,0,0,1,2.49,1.91c.32,1,.85,1.57,1.86,1.3s1.94,1.2,2,2.37c0,1.91.55,2.64,2.11,2.76a1.31,1.31,0,0,1,1.39,1.36c-5.62,0-11.25,0-16.87,0-.7,0-.9-.13-.89-1.09C.11,84.26.08,79.5.08,74.74Z"/><path class="cls-11" d="M.08,36.08V33.74c.61-1.62.91-3.45,2-4.78,1.07-1.54,2.11-3.1,3.75-3.78A2.5,2.5,0,0,1,9,26.89a2.42,2.42,0,0,1-.88,2.67C7,30.59,5.66,31.28,5,33.05a6,6,0,0,0-.46,2.7,7.07,7.07,0,0,1-1.3,5.31C1.89,42.8,1.88,44.49,3.13,47c.92,1.84,1.91,3.7,2.93,5.49,1.45,2.52,3.39,2.43,5.42,2.3,2.66-.16,5.11-1.54,7.69-2.06,1.89-.39,3.83-.47,5.73-.84a11.73,11.73,0,0,0,3.29-1.11c1.36-.71,2.73-.87,4,.41,1,1.07,2.32,1.19,3.49,1.76a1.23,1.23,0,0,1-1,1.72,2.12,2.12,0,0,1-2.26-.57,4.39,4.39,0,0,0-4.82-1.23c-2.86.81-5.82.85-8.67,1.7-2,.61-4,1.1-6,1.78a6,6,0,0,1-1.56.22,3.31,3.31,0,0,0-3.19,2.9,3.86,3.86,0,0,0,1.41,4.08,5.74,5.74,0,0,0,1.88,2.13,4.52,4.52,0,0,0,3.75,1.06c3.33-.45,6.62-1.14,9.92-1.82.84-.18,1.54-.83,2.39-.87a6.24,6.24,0,0,0,6.42-3.63c.36-.69.79-1.32,1.48-1a1.51,1.51,0,0,1,.63,2c-1.36.88-2.45,2.29-3.85,3.13-2.23,1.34-4.67,1.44-7,2a80.25,80.25,0,0,1-10.13,2c-2.43.3-4.61-.13-6.06-3.11-1-2-2.72-2.94-4.09-4.4A22.61,22.61,0,0,1,.08,53.74v-2c.7-.38,1,.23,1.42.79a23.44,23.44,0,0,0,2,3,26.36,26.36,0,0,0-2-5.89,12.36,12.36,0,0,1-.21-10.53A12.13,12.13,0,0,0,2.4,34.94c.42-3.31,1-4.68,3-6.92a16.09,16.09,0,0,0-3.77,6.06C1.38,34.94,1.31,36.29.08,36.08Z"/><path class="cls-12" d="M2.2,29.41A13.1,13.1,0,0,0,1,32.29c-.17.61-.35,1.26-.94,1.45V31.41C1.31,27.64,3.34,25,6.53,23.82c2.31-.34,3.68,2,5.48,3.08a1,1,0,0,1,.43.8c0,1.93.49,3.77.61,5.66.1,1.69-.94,2.76-2.3,2.59A19.76,19.76,0,0,0,8,35.88c-.52,0-1.08.23-1.09.94,0,2.42-.95,4.75-.38,7.24a11.46,11.46,0,0,0,1.15,3.32,10.73,10.73,0,0,1,1.31,3,2.8,2.8,0,0,0,2.83,2.4,9.68,9.68,0,0,1,3.31.74c.25.65-.1.78-.48.82-1.88.22-3.74.77-5.63.34a3.84,3.84,0,0,1-2.57-2.84,26.75,26.75,0,0,0-2.21-4.67,7.18,7.18,0,0,1-.35-6.53,10.59,10.59,0,0,0,.71-4.82c-.09-2.53.15-2.92,2.05-3.54.17-.06.41,0,.42-.31,0-1.43,1-1.79,1.73-2.43A1.91,1.91,0,0,0,9,26.77C7.93,25.08,7,25,5.36,25.78S3.09,28,2.2,29.41Z"/><path class="cls-13" d="M.08,36.08a4.45,4.45,0,0,0,1-2.3A16.77,16.77,0,0,1,5,27.41a1.36,1.36,0,0,1,1-.63.75.75,0,0,1,.79.48.76.76,0,0,1-.32,1C3.81,30,3.13,33.14,2.79,36.53a8.3,8.3,0,0,1-1,3c-1.91,3.64-2,6,.09,9.45,1.27,2.17,1.69,4.73,2.53,7.09.28.79-.11.85-.6.69a2.84,2.84,0,0,1-1.31-1.32,20.69,20.69,0,0,0-2.4-3.73Z"/><path class="cls-14" d="M18.41,4.66,16.76.08H20.2a3.67,3.67,0,0,1,1.56,2.15A4.75,4.75,0,0,0,22.7,4c.46.48.21,1.2.38,1.78A15.89,15.89,0,0,0,26.57,11c.48.38,1.21.48,1.1,1.52a2.05,2.05,0,0,1-1.47,1.84c-.32.12-.68.06-1,.15a1.31,1.31,0,0,1-.44,0A2.17,2.17,0,0,1,24,14c-1-1.21-2.12-2.15-2.77-3.71a3.13,3.13,0,0,0-.57-.8A6.57,6.57,0,0,1,20.15,9c-.34-.61-.91-1-1.1-1.73A7.84,7.84,0,0,1,18.41,4.66Z"/><path class="cls-15" d="M.08,53.74c1.15.64,1.43,2.2,2.13,3.29a34.68,34.68,0,0,0,5,5.69A11.12,11.12,0,0,1,9.08,65c1.54,2.65,3.57,3.15,6,2.9,5-.51,9.8-1.85,14.68-2.89a6.1,6.1,0,0,0,4.41-3c.37-.67.92-1.05,1.61-.62a.24.24,0,0,1,.38,0c.42.95-.16,1.26-.65,1.63l-.8.64c-.45-.43-.71,0-1,.3a10.14,10.14,0,0,1-5.26,2.43,30.34,30.34,0,0,0-5.3,1.21c-2.92.93-5.9,1.16-8.83,1.91-2,.51-4.3-.93-5.38-3.2a7.38,7.38,0,0,0-2-2.62A23.34,23.34,0,0,1,.67,56.06a3.28,3.28,0,0,0-.59-.65Z"/><path class="cls-16" d="M.08,57.74c1.16.4,1.6,1.83,2.42,2.72,1.37,1.48,2.84,2.79,4.23,4.23a6.41,6.41,0,0,1,.86,1.25,2.82,2.82,0,0,1,.29,2.92c-.6,1-1.4.3-2.06.08a7.36,7.36,0,0,1-4.75-4.13,2.12,2.12,0,0,0-1-1.07Z"/><path class="cls-2" d="M81.35.08c-.51,3.26-2,6-3.41,8.63a74.92,74.92,0,0,0-4.28,8.66l-.53,1.38c-.11.24-.2.49-.3.74-.26.66-.69,1-1.28.89s-.91-.69-1-1.38a3.4,3.4,0,0,0-.71-2.07,1.72,1.72,0,0,1-.37-1.79,1,1,0,0,1,1.42-.8c.52.7,1,.94,1.65.08A6.72,6.72,0,0,0,74,11.17a11.68,11.68,0,0,1,1-1.72c.73-2.41,1.87-4.56,2.78-6.86A2.19,2.19,0,0,1,78.07,2,6.44,6.44,0,0,1,79.5.08Z"/><path class="cls-17" d="M18.41,4.66a4.3,4.3,0,0,1,1,2.42c-.28.92-.89,1.05-1.57,1.17-2.12.36-3.79-.82-5.39-2.31-.21-.2-.37-.47-.58-.67-.42-.39-.86-1-1.38-.36a1.7,1.7,0,0,0,0,1.84A18.5,18.5,0,0,0,12,9.27a6.91,6.91,0,0,1,.58,7.54,17.29,17.29,0,0,1-2,3.27c-1.1.78-2.25,1.48-2.65,3.23-.2.87-1.07.63-1.54,1.1-2.75.75-4.17,3.46-5.66,6.07-.2.35-.3.82-.7.93V29.08c.32-.29.78-.48.94-.87a8.68,8.68,0,0,1,4.23-4.3,2.18,2.18,0,0,0,1-1c.61-1.93,1.93-2.72,3.21-3.71a9.43,9.43,0,0,0,2.76-4.38c.63-1.77.12-3.43-1.5-5A7,7,0,0,1,9,6.42a3.12,3.12,0,0,1,.77-3c.67-.8,1.36-.55,2.08-.16a6.65,6.65,0,0,1,1.72,1.52C15.45,7,16.65,6.92,18.41,4.66Z"/><path class="cls-18" d="M62,90.08c.08-4.21-.27-8.44.45-12.61.15-.87-.35-1.74,0-2.62.14-.33.15-.82.55-.82s.36.43.44.73c1,3.53,2.6,6.75,3.33,10.46.32,1.64,1.43,3,1.58,4.86H65.73a13.63,13.63,0,0,1-2.12-4.5,3.53,3.53,0,0,0-.91-2.27c0,1.75,0,3.51,0,5.27a2,2,0,0,1-.4,1.5Z"/><path class="cls-19" d="M88.5,90.08c0-2.26.18-4.55-.64-6.69a1.43,1.43,0,0,1-.06-.65c.68-3.84.22-7.84,1-11.67a5.81,5.81,0,0,1,1.29-3c0,6.66-.06,13.33,0,20C90.15,89.79,89.85,90.45,88.5,90.08Z"/><path class="cls-20" d="M.08,8.08V2.74A3.88,3.88,0,0,1,2.47.08H5.91c.35.86-.14,1.36-.55,1.83a31.35,31.35,0,0,0-4.15,5.7C1,8.08.58,8.41.08,8.08Z"/><path class="cls-21" d="M78.18,2.77c.28,1.59-.9,2.42-1.29,3.67-.27.89-.94,1.53-.81,2.7a.54.54,0,0,1-.83.6.9.9,0,0,1-.83-.51c-.14-.36-.1-.78-.22-1.15,1.14-2.62,2.56-5.06,3.18-8H79.5a4.09,4.09,0,0,1-1,2.33C78.13,2.24,78.06,2.39,78.18,2.77Z"/><path class="cls-22" d="M33.44,90.08a59.31,59.31,0,0,1,2.13-6.53c.09-.27.28-.64.58-.54s.38.6.37,1c0,2-.11,4.07-.17,6.11Z"/><path class="cls-23" d="M.08,8.08C1.87,5.24,4,2.77,5.91.08H7.5C7,1.63,5.85,2.33,5,3.33A29,29,0,0,0,.74,9.61a4.61,4.61,0,0,1-.66.8Z"/><path class="cls-24" d="M64.14,85.41c.65,1.5,1.51,2.87,1.59,4.67H62.55c-.42-1.9.21-3.78.1-5.68,0-.5.41-.67.79-.34A2.82,2.82,0,0,1,64.14,85.41Z"/><path class="cls-25" d="M23.08,5.79,22.3,4.43c-.15-1.47-.79-3,.28-4.35h1.86A12.82,12.82,0,0,0,24.18,4C24.23,5,23.94,5.66,23.08,5.79Z"/><path class="cls-26" d="M64.14,85.41c-.37-.32-.45-1.11-1-1.09,0,2-.64,3.81-.56,5.76h-.26c0-2.64,0-5.28,0-7.92,0-.39-.09-1,.4-1s.35.56.34.91C63,83.39,64.3,84,64.14,85.41Z"/><path class="cls-27" d="M22.58.08a16.69,16.69,0,0,1-.28,4.35A18.82,18.82,0,0,1,20.2.08Z"/><path class="cls-28" d="M2.47.08A8.79,8.79,0,0,1,.08,2.74C.08,1.86-.13.34.13.2A5.06,5.06,0,0,1,2.47.08Z"/><path class="cls-1" d="M90.08,43.74c-.47-.09-1.18.25-1.22-.71s.56-1.24,1.22-1.29Z"/><path class="cls-29" d="M71,14.75c-1.37.23-1.5.54-.73,1.87A5.63,5.63,0,0,1,71,18.36c.41,1.82.42,1.81,1.67.76l.44-.37a7.82,7.82,0,0,1-2,4.84C70,25,68.69,26,67.67,27.43a7.42,7.42,0,0,0-1.41,3.23c0-.77,0-1.55,0-2.33a2.3,2.3,0,0,0-1.22-2.42c-2-1.11-2.23-3.54-2.47-5.86a24.82,24.82,0,0,0-.35-2.61c-.15-.66-.38-1.35-.92-1.55-2-.71-3.38-2.54-5.07-3.82-.82-.62-1.28-.55-1.56.61a1.57,1.57,0,0,1-1.84,1.37,23,23,0,0,1-4-.57C48,13.32,47,13.06,47,14.75l-.11.19a1,1,0,0,1-.93.19,12.82,12.82,0,0,1-2.23.11.94.94,0,0,1-1.06-.75,1.54,1.54,0,0,1,.51-1.57c.17-.17.38-.36.59-.35a5.79,5.79,0,0,0,4-1.14,1.62,1.62,0,0,1-.29-1.65A2.42,2.42,0,0,1,49.34,8a6.43,6.43,0,0,1,3.23.42c1.18,0,2.06.93,3.08,1.43a.43.43,0,0,0,.51.29c.55.3,1.25.22,1.6,1a38.77,38.77,0,0,0,4.55,4.35c1.55.27,1.92.6,1.84,2.63-.07,1.69.72,2.92,1,4.37.15.66.55.49.83.2,1-1,1.87-2,2.76-3.07.51-.62.35-1.22,0-1.91A3.51,3.51,0,0,1,68.88,14c.64-.94,1.43-.18,2.12-.44l1.38-1.85c1.25-.11.39,1,.59,1.55a3.4,3.4,0,0,1-.32.93C72.16,14.71,71.75,15.52,71,14.75Z"/><path class="cls-30" d="M64.63,63.52c-1.36-.57-1.21-2.06-1.16-3.32.13-2.87.23-5.73.63-8.57A20,20,0,0,0,63.92,48a3.43,3.43,0,0,1,.22-1.93,19.34,19.34,0,0,1,.4,8.21c-.2,1.63-.61,3.25-.67,5A9.07,9.07,0,0,0,64.63,63.52Z"/><path class="cls-31" d="M70.75,88.77a41.53,41.53,0,0,1-1.32-5.36C70.87,84.81,71.1,86.68,70.75,88.77Z"/><path class="cls-29" d="M47,14.75A1.72,1.72,0,0,1,47.11,16c-.13,1.29.34,1.56,1.22,1.06a.67.67,0,0,1,.82-.25,2.79,2.79,0,0,1,1.05,1.62,10,10,0,0,0,.91,2.39c1,1.51.92,3.38,1.15,5.14a4.92,4.92,0,0,1-.79,3.39C50.43,31,49.75,33,48.22,34c-1,.47-1.83-.39-2.7-.86a1.57,1.57,0,0,1-.35-1.79.87.87,0,0,1,.75-.45,1.65,1.65,0,0,0,2.28-1.13,7.12,7.12,0,0,0,1-3.12,9,9,0,0,0-1.45-7.2c-.25-.28-.51-.5-.87-.33-.62.27-.87,1.4-1.71,1.16a1,1,0,0,1-.42-.53c-.25-1.12.33-2,.59-2.92a4.59,4.59,0,0,1,1.5-2Z"/><path class="cls-32" d="M57.21,43a8.6,8.6,0,0,1-2.09,5.46c-.69.71-.6,2.36-1.78,2.63l-.17-.14a1.41,1.41,0,0,1-.08-1.19c.48-.9.8-1.64-.11-2.63s.25-1.1.64-1.5a3.33,3.33,0,0,1,.78-.43c.35-.14.44-.51.49-.92l.24-1c.42-1.6-.61-1.17-1.19-1.37-1-.23-2-.71-2.82.39-.57.67-1.09,1.06-1.36-.31.49-2,1.41-2.71,3.67-2.71a3.32,3.32,0,0,1,3.16,2C57,41.73,56.83,42.51,57.21,43Z"/><path class="cls-33" d="M57.21,43c-.61,0-.55-.76-.8-1.16a4.6,4.6,0,0,1,.15-2.12,2.41,2.41,0,0,0-.11-1.9,2.66,2.66,0,0,1,.18-1.37c-.1-1.63-1.19-1.78-2.09-2.16-.35-.14-.79.08-1-.44.43-1.25.92-1.41,2.53-.84,0-.63-.12-1.33.53-1.61a2,2,0,0,1,1.15.27c1.12.46,1.27.94.88,2.43C58,37,58,40.08,57.21,43Z"/><path class="cls-34" d="M58.58,34.08c.17-1.87-.16-2.23-2.13-2.31a18.59,18.59,0,0,1-4.37,1.57c-.47-.4-.39-1-.29-1.56a4.21,4.21,0,0,1,1.89-1.61,2.79,2.79,0,0,1,.91.08c1,.21,1.67-.26,1.92-1.54a3.4,3.4,0,0,0,.72-3.13,2.29,2.29,0,0,1,.26-2.15c.69,2.36,1.45,4.69-.12,7-.55.8.19.85.52,1.06C58.81,32.07,59.56,32.7,58.58,34.08Z"/><path class="cls-29" d="M48.53,15.11a1.81,1.81,0,0,1,.46-.3c2.63-.6,7.18,3.33,7.72,6.67-.47.45-.86.32-1.19-.27a5.78,5.78,0,0,0-1.11-1.33c-.35-.26-.45-.77-.73-1.1-1.54-1.19-3-2.67-4.76-3.25A.68.68,0,0,1,48.53,15.11Z"/><path class="cls-35" d="M48.53,15.11a1.92,1.92,0,0,1,2,.51c1.12,1.05,2.5,1.54,3.51,2.8a.94.94,0,0,1-.73.73,26,26,0,0,1-3.06-1.57c-.4-.2-.75-.52-1.21-.42L48.33,17C48.27,16.38,47.81,15.65,48.53,15.11Z"/><path class="cls-35" d="M54.61,19.4c1,.21,1,2.06,2.1,2.08l.78,1.95c.07.7.09,1.41.22,2.09a4,4,0,0,1-.94,3.64c-.41-.29-.28-.72-.21-1.16a20.49,20.49,0,0,0-.11-4.43,1,1,0,0,0-.58-1C54.49,21.91,54.34,21.51,54.61,19.4Z"/><path class="cls-36" d="M48.79,57.12l-.53-.06c-.49-.86,0-1.33.5-1.66a3.59,3.59,0,0,0,1.82-3c.35-.6.76-1,1.4-.8a1,1,0,0,1,.24,1.13C51.5,54.71,50,55.68,48.79,57.12Z"/><path class="cls-37" d="M52.22,52.73l-.27-1a.76.76,0,0,1,.17-.69c.38-.36.74-.42,1.09.07l.13,0C53.12,51.79,52.9,52.5,52.22,52.73Z"/><path class="cls-38" d="M50,80.87l-.33-1.79C50.27,79.34,50.49,79.75,50,80.87Z"/><path class="cls-1" d="M85.27,43.11c0,.88-1.64,2.44-2.14,2.19A.81.81,0,0,1,83,44c1.09-1.2.57-2.51.26-3.8a1.07,1.07,0,0,0-.82-.92c-1.28-.24-2-2.13-1.52-3.56.21-.59.36-.8.8-.18a29.46,29.46,0,0,0,2.75,3.9C85.1,40.1,85,42,85.27,43.11Z"/><path class="cls-1" d="M78.9,32.17c-.05.53-.29.81-.7.83s-.67-.11-.63-.61.46-.77.86-.83S78.89,31.79,78.9,32.17Z"/><path class="cls-39" d="M32.43,76.75c-1.1.69-1.49,2.15-2.19,3.27-1,1.59-2,2.72-3.78,1.82a2.07,2.07,0,0,0-2.3,0A.86.86,0,0,1,23,81.68c-1.62-1.42-3.54-1.9-5.38-2.55C16,78.55,16.2,77,16.06,75.59a1.78,1.78,0,0,1,1.54-1.93,3.2,3.2,0,0,0,2.07-2c.76-1.59,2.14-1.88,3.42-2.18a11.45,11.45,0,0,0,4.05-1.41,1.05,1.05,0,0,1,.62-.24c2.2.37,4-1,5.78-2.21a2.34,2.34,0,0,1,.76-.17C34.56,69.44,33,73,32.43,76.75Z"/><path class="cls-40" d="M35.55,63.08A2.44,2.44,0,0,0,36,61.44a49.36,49.36,0,0,1-.68-4.9,9.2,9.2,0,0,1,.15-2.61,8.71,8.71,0,0,0-.37-3.68c-.11-.27-.24-.52-.33-.8-.12-.66-.12-1.35-.24-2a23.2,23.2,0,0,0-.17-4.64c.2-3.23-.73-6.3-.93-9.48a12.79,12.79,0,0,0-1.41-3.88,7.84,7.84,0,0,1-.63-2.15A2.34,2.34,0,0,0,31,26c-.14-1.06-1-1.19-1.46-1.9a25.29,25.29,0,0,1-3.35-4.26,3.22,3.22,0,0,1-.53-.76c-1.44-1.79-1.73-3.43-.88-5H25c.35.39.82.35,1.23.56a1.8,1.8,0,0,1,1.13,1.49c.08,2.32,1.34,3.11,2.8,3.73.93.41,1.21,1.61,1.63,2.51.55,1.21,1.38,1,2.16,1.15.47.07.64-.49.72-1s.06-1,.08-1.5c.05-.89.26-1.68,1-1.93s1.22.38,1.47,1.24-.61,1.81-.15,2.78a3.64,3.64,0,0,1-.33,1.68,1.59,1.59,0,0,0-.34,1.87c.34.64,0,1.28,0,1.92-.05,1.55-.47,3.05-.37,4.6.17,2.49.77,4.89,1,7.38a4.19,4.19,0,0,1,.12,1,5.87,5.87,0,0,0,.87,2.88c.52,1,.93,2.1,1.37,3.16l.31.56a6.22,6.22,0,0,0,1.1,1.7,11.86,11.86,0,0,1,1.86,2.65.93.93,0,0,1,0,1.26c-.23.66-.32,1.52.18,1.81,1.75,1,1,3,1.19,4.61S43.51,62.25,42.3,62a10.51,10.51,0,0,1-2.77-1.41c.55,1.35-.08,2.21-.35,3.16-.49,1.72-.74,1.75-1.66.42A2.15,2.15,0,0,0,35.55,63.08Z"/><path class="cls-41" d="M36.58,40.78c-.72-4.17-1.61-8.33-.75-12.65,1-1.13,1.85.27,2.78.37.23,0,.42.37.69.45a12.89,12.89,0,0,1,4.38,4.74c.32.78.69,1.52,1.06,2.26,1.43,2.86,1.34,6,1.27,9.23.18,1.16-.49,2.39.17,3.52a6.55,6.55,0,0,1,.32.58c.36,1.32.36,2.74.76,4a12.88,12.88,0,0,0-.13,1.79c.09,1.5-.52,2.11-1.79,2l-2.73-3.34-2.29-3.67a.71.71,0,0,1-.08-.31c0-.74-.91-1.1-.55-1.9s1-.16,1.46-.41a1.53,1.53,0,0,0,1-1.84,7.68,7.68,0,0,1,.46-1.3c1.52-2,1.53-2.7-.35-4.82a3,3,0,0,0-3.64-1.09,1.41,1.41,0,0,0-1,1.64,1.49,1.49,0,0,1-.44.84A.52.52,0,0,1,36.58,40.78Z"/><path class="cls-42" d="M45.34,57.09c.63-.56,1.81-.7,1-2.34-.24-.46.35-.92.61-1.35,1-.71,1,.6,1.51,1a1.19,1.19,0,0,1,.15.46c0,1.44-1.07,2-1.6,2.94C46.18,58.48,45.81,57.6,45.34,57.09Z"/><path class="cls-43" d="M47,57.84c.12-1.23,1.25-1.79,1.29-3.08a11.88,11.88,0,0,1,1.19-1.64c.39-.51.85-1,1.44-.37a2.78,2.78,0,0,1-1.3,2.68c-.54.37-1.21.68-1.34,1.63C47.85,57.36,47.51,57.84,47,57.84Z"/><path class="cls-44" d="M46.87,81.05c2.42,0,3.71,1.55,4,4.83C49.44,84.18,49.48,80.89,46.87,81.05Z"/><path class="cls-45" d="M40.25,74.33c-.18-.47,0-.68,1.11-1.25a1.33,1.33,0,0,1-.48,1.35A.38.38,0,0,1,40.25,74.33Z"/><path class="cls-46" d="M40.25,74.33l.63.1c0,.75-.34,1.33-.85,1S39.94,74.66,40.25,74.33Z"/><path class="cls-47" d="M36.94,20.43c-.38-.28-.56-1.17-1.16-.78s-.47,1-.49,1.62a15.07,15.07,0,0,1-.06,1.65c-.17,1.14-.47,1.6-1.66,1.54-2-.1-2.45-1.82-3.17-3.41-.14-.31-.22-.65-.51-.56-1.69.56-1.9-1.93-3.09-2.36a.21.21,0,0,1-.07-.14c.64-2.09-.72-2.6-1.69-3.44-.07-.07-.05-.31-.07-.47l1.1-.43c1.35-.59,1.47-1.28.5-2.64,1,.15,1.85-.7,2.86-.3.37.15.77.1.9.69-.37.67-1.4.52-1.34,1.77.05.94,1.12,2.65,1.87,2.66a5.74,5.74,0,0,1,2.75,1c.4.25.81.61,1.15,0a1.55,1.55,0,0,0,0-1.69c-.37-.53-.87-1-.49-1.84,1.08-.61,2.11.6,3.19.13h0C38,12.19,39.24,12,40,11a10.57,10.57,0,0,1,2-1.59C44.53,8,47.2,7.07,50.07,7.55a4.64,4.64,0,0,1,2.5.83c-.91.1-1.81-.36-2.74,0a3.86,3.86,0,0,0-1.77,1.35,1.18,1.18,0,0,0-.2,1.07c.15.46.46.44.78.38a1.43,1.43,0,0,1,.65,0,.74.74,0,0,1,.6.76.47.47,0,0,1-.72.42,2.5,2.5,0,0,0-2.72.66,1.79,1.79,0,0,1-1.78.25,1.14,1.14,0,0,0-1.14.13c-.26.2-.61.38-.55.83s.44.49.74.47c.83-.05,1.65-.15,2.48-.24.14,1.44-.69,1.24-1.36,1.29-1.5.11-3,.29-4.11,1.71a7.51,7.51,0,0,1-2,1.9C38.09,19.52,37.76,20.64,36.94,20.43Z"/><path class="cls-14" d="M34.23,13.43a11.18,11.18,0,0,0,.74.93A2.72,2.72,0,0,1,35,17.88c-.36.42-.73.58-1.17.18a4.5,4.5,0,0,0-3.37-1.36c-1,.06-1.48-1.7-2.07-2.74a2.62,2.62,0,0,1,.25-2.35c.42-.88,1.08-.42,1.66-.21l2.54,1.38C33.28,13.12,34,12.59,34.23,13.43Z"/><path class="cls-48" d="M40.08,11.12c-.47,1.53-1.75,1.58-2.66,2.31.12-2.07,1.68-1.91,2.63-2.7A.24.24,0,0,1,40.08,11.12Z"/><path class="cls-48" d="M34.23,13.43l-1.36-.65c1.53.05,3.08-.16,4.55.65C36.35,14.52,35.29,13.37,34.23,13.43Z"/><path class="cls-49" d="M40.08,11.12l0-.39a2.92,2.92,0,0,1,1.88-1.3A6.29,6.29,0,0,1,40.08,11.12Z"/><path class="cls-50" d="M71,13.6c-.69.41-1.66.14-2,1.49-.2.9-.45,1.66.36,2.31a1.54,1.54,0,0,1,.19,2.27c-1.1,1.36-2.26,2.65-3.44,3.88a2.44,2.44,0,0,1-1.25.47c-.27.07-.69-.15-.6-.43.69-2.11-1.21-3.62-.75-5.74a2,2,0,0,0-1.23-2.39c1.71.25,3.16-.7,4.61-1.61A4,4,0,0,1,71,13.6Z"/><path class="cls-50" d="M72.6,13c-.37-.34.41-1-.22-1.27A19.31,19.31,0,0,1,74.2,8.08c.42.13.52.55.54,1,.21,1.28-1,1.73-1,2.88C73.39,12.42,73.36,13.33,72.6,13Z"/><path class="cls-5" d="M57.76,11.11l-1.6-1C56.82,10.11,57.6,9.85,57.76,11.11Z"/><path class="cls-51" d="M.88,22.72A8.55,8.55,0,0,1,2.43,18.8c.43-.49.4-.81-.08-1.11a2,2,0,0,1-1.11-2.18,2.67,2.67,0,0,1,1.7-2.14c1.79-.39,2.77-2,3.77-3.56.62-.94,1-1.16,1.54,0A1.91,1.91,0,0,0,9.71,11c1.74.18,2.61,2.53,1.45,4.17C9.86,17,8.82,19.43,6.43,19.47c-.67,0-1,.75-1,1.52a2.2,2.2,0,0,1-1.6,2.44c-.54.23-1.1.4-1.64.64C1.21,24.53,1,23.77.88,22.72Z"/><path class="cls-52" d="M2.2,29.41c.72-2.67,2.53-3.72,4.42-4.52.88-.37,3.32,1.4,3.68,2.48a3.53,3.53,0,0,1-1.57,3.29c-.8.32-1.86.41-.49,1.69a.58.58,0,0,1,.12.73c-.17.32-.45.3-.71.31-2.53,0-2.54,0-2.53,3.38a11.72,11.72,0,0,1-.91,4.77,6,6,0,0,0,.24,4.74c.85,1.83,2,3.37,2.63,5.49a3.31,3.31,0,0,0,2.76,2.44,13.15,13.15,0,0,0,5.33-.47l.09-.23c1.75-1.88,3.92-1.81,6-1.88s3.66-1,5.5-1.44c.7-.17.72-.86.48-1.57A3.14,3.14,0,0,1,27,46.87c.28-1.3,1.21-1.79,2.12-1.08a8.74,8.74,0,0,1,1.57,1.48,12.33,12.33,0,0,0,5,5.12.75.75,0,0,1-.1.68,4.78,4.78,0,0,1-3.61-1.32A2.85,2.85,0,0,0,29,51.19a22.23,22.23,0,0,1-7,1.67c-2.73.12-5.23,1.39-7.86,2a21.18,21.18,0,0,1-5.77.56,2.35,2.35,0,0,1-2-1.19A18.18,18.18,0,0,1,4,49.94c-.45-1.49-1.66-2.3-2-4-.51-2.37-.25-4.31,1.13-5.93A4.77,4.77,0,0,0,4,36.23a6.66,6.66,0,0,1,2.24-6c.44-.37.86-.79,1.31-1.13.65-.5,1.46-.95.88-2.14-.51-1-1.26-1.84-2.32-1.27a5.6,5.6,0,0,0-2.87,2.52A5.62,5.62,0,0,1,2.2,29.41Z"/><path class="cls-53" d="M35.54,53.07v-.66a1.64,1.64,0,0,1-.34-.77c0-.68-.19-1.41.38-1.9A103.75,103.75,0,0,1,36,61.44l-.21,0c0-.56,0-1.21-.5-1.44s-.76.44-1,.84a7.29,7.29,0,0,1-6.71,3.94l-.06-.25a1,1,0,0,1,1-.89A4.34,4.34,0,0,0,30,63.23c2.27-.82,3.21-2.77,2.68-5.49-.55-2.87-2.21-4.16-4.49-3.78-3.27.55-6.53,1.09-9.76,1.89-2.19.54-4.38,1.16-6.56,1.81S9,59.57,9.53,62.49a2,2,0,0,1,0,1.43,1.21,1.21,0,0,1-.16.16c-1.85-1.89-2.19-3.18-1.62-5.51a2.6,2.6,0,0,1,2-2.14c6.31-1.53,12.58-3.25,19-4.31a4,4,0,0,1,3.28.93,3,3,0,0,0,2.61.9C35,53.84,35.44,53.77,35.54,53.07Z"/><path class="cls-53" d="M27.62,64.75a60.82,60.82,0,0,1-8.55,2c-1.25.26-2.53.34-3.79.57a4.66,4.66,0,0,1-4.35-1.22l.15-.24c.18-.16.39-.32.61-.23,2.74,1.07,5.45.06,8.17-.23,2.18-.22,4.29-1,6.48-1.16.49,0,1-.13,1.27.52Z"/><path class="cls-53" d="M10.93,66.08a2.63,2.63,0,0,1-1.59-2h0c1.15.05,1.55.56,1.59,2Z"/><path class="cls-54" d="M31.38,25.7a1.3,1.3,0,0,1,.47,1,.82.82,0,0,1-.44.58c-2.57.84-3.22,3.33-3.4,6.23a5.69,5.69,0,0,1-.05.83c-.94,4.34.28,7.95,2.39,11.26A1.28,1.28,0,0,1,30.62,47c-.77.31-1-.61-1.49-1s-.83-1.1-1.46-.41A2.37,2.37,0,0,0,27,47.89c.17.68.95,1.23.4,2.08a3.13,3.13,0,0,1-2.08,1.28,34.43,34.43,0,0,1-6.92.76c-1.22,0-2.09,1.33-3.24,1.73h0l-3.81,0a3.71,3.71,0,0,1-3-3,7.21,7.21,0,0,0-1-2.66,11.2,11.2,0,0,1-1.41-8,17,17,0,0,0,.29-3.63c0-1,.33-1.41,1.11-1.38,1.1,0,2.21,0,3.3.09a1.43,1.43,0,0,0,1.65-.66,2.42,2.42,0,0,0,.07-2.36,4.07,4.07,0,0,1-.37-3,2.22,2.22,0,0,0-1.06-2.55c-1.47-.78-2.64-2.5-4.44-2.22A9.18,9.18,0,0,0,7.91,22a3.57,3.57,0,0,1,2.5-2.21c.24.63-.1.9-.44,1.18s-.75.54-.56,1.14.72.5,1.15.51.81-.43,1.27-.28a.75.75,0,0,1,.52.45c.06.69-.39.8-.74,1s-.76.36-.68,1,.47.69.86.85c.54.23,1.12.29,1.65.56a2.38,2.38,0,0,1,1.18,2.92c-.46,2-.17,2.68,1.45,3.15a3.07,3.07,0,0,1,1.87,1.1,3.19,3.19,0,0,1,.43,3.22c-.47,1.2-1.26,1.69-2.3,1.3-2-.72-3.94-.16-5.91,0a1,1,0,0,0-.73.34c-.46.58-.85,4.36-.46,5a4.21,4.21,0,0,1,.63,2.64,1.62,1.62,0,0,0,.74,1.61,3.54,3.54,0,0,1,1.45,2.29c.27,1.7,1.44,1.64,2.33,2s1.24-.74,1.65-1.54a8.84,8.84,0,0,1,1-1.76,1.64,1.64,0,0,1,2.74,0c1.14,1.57,2.44.8,3.71.7a.5.5,0,0,0,.42-.37c.23-1.41.82-2.68,1.07-4.06a4,4,0,0,0-.86-2.54A4.93,4.93,0,0,1,23,38.66,1.54,1.54,0,0,0,22.35,37c-.39-.27-.75-.57-1.15-.82-1.61-1-1.9-2.32-.88-4.1A5.58,5.58,0,0,0,21,27a2.71,2.71,0,0,1,.55-3,6.83,6.83,0,0,0,1.18-2.18c.7-1.58,1.82-2.27,2.81-1.79,0,0,0,.13,0,.15-1.62,2.63-1.42,5.72-1.35,8.75a36.73,36.73,0,0,1-.33,3.8c-.08,1.1.22,1.89,1.09,2.14s1.28-.7,1.34-1.56a21,21,0,0,1,1.76-6.54C29.05,24.36,29.64,24.1,31.38,25.7Z"/><path class="cls-55" d="M24.75,14.07c-.28,2,.73,3.38,1.3,5a.58.58,0,0,1-.26.64c-1.58.24-2.55,1.54-3.38,3.08-1.13,2.1-2.67,3.08-4.71,2.68a1.2,1.2,0,0,1-.93-.5c-.24-1.23.53-1.13,1.09-1.3,1.08-.32,2.27-.31,3.07-1.74-.65-.39-1.18-.06-1.69.15a19.13,19.13,0,0,1-2.92.95,1.25,1.25,0,0,1-1.46-.43.91.91,0,0,1-.11-.49A1.53,1.53,0,0,1,15.61,21a1.84,1.84,0,0,1,.61-.09A12.4,12.4,0,0,0,21.37,19c1-.51.94-1.74,0-2.62A8.11,8.11,0,0,1,19.42,14a3.33,3.33,0,0,1-.05-2.84,13.67,13.67,0,0,0,.85-1.85A.41.41,0,0,1,21,9.1l.49.66c-.18.46.06,1-.18,1.45-.69,1.29-.13,2,.65,2.89,1.22,1.4,1.73-.17,2.5-.68Z"/><path class="cls-56" d="M12.79,5.41C14.72,7.78,17,8.25,19.44,7.08a2.6,2.6,0,0,1,1.08,1.59,11.07,11.07,0,0,1-1,2.28c-.62.94-.21,2.06-.29,3.11-.6.47-.84-.2-1.16-.6A1.64,1.64,0,0,1,18,13,9.29,9.29,0,0,1,18,11c.39-1.73.39-1.73-1-1.45-1.5-.15-3-.45-3.6-1.28.74.82.88,1.13,1,2.82a10.26,10.26,0,0,0-.16,2.28c0,.54,0,1.12-.46,1.41-.68-.15-.46-.85-.44-1.32a5.81,5.81,0,0,0-1.4-4.14c-.45-.53-.77-1.21-1.21-1.75a2.11,2.11,0,0,1-.24-2.66c.6-.87,1.35-.5,2,.15Z"/><path class="cls-57" d="M24.43,13.42a3.53,3.53,0,0,1-.44,1.7c-.38.91-.8,1.12-1.45.42a8.07,8.07,0,0,0-.75-.68c-2-1.71-2.06-2.83-.33-5.1Z"/><path class="cls-12" d="M19.15,14.08c-.71-2.28.13-3.92,1.37-5.41L21,9.1c-1.56,2.63-2.51,4.12.48,6.68a2.58,2.58,0,0,1,1.1,2.27c-.08,1.07-.77,1.38-1.44,1.7-1.58.77-3.11,1.79-4.88,1.66-.13-1,.46-1,.95-1.2A14,14,0,0,0,20,18.93c1.22-.81,1.22-1.47.24-2.7C19.77,15.64,18.83,15.33,19.15,14.08Z"/><path class="cls-50" d="M71,14.75c.61,0,1-.54,1.34-1,.71-.43.89-1.36,1.27-2.12.21-.35.48-.46.81-.26-.24,2.14-1.6,3.35-2.6,4.83-.44.65-.76.39-.81-.42C71,15.42,71,15.08,71,14.75Z"/><path class="cls-58" d="M74.44,11.34l-.67.42c-.19.12-.34.07-.45-.16.12-1.15,1.13-1.5,1.42-2.5.28.07.38.37.51.64Z"/><path class="cls-59" d="M78.18,2.77c-1.28-.34-.07-1.12-.37-1.75.74.3.68.85.64,1.39Z"/><path class="cls-12" d="M12.79,5.41A6.17,6.17,0,0,1,12.07,5c-.52-.35-1-.17-1.3.33a1.53,1.53,0,0,0,0,1.81,6.73,6.73,0,0,0,.86,1.25,7.38,7.38,0,0,1,1.94,6.32,5.35,5.35,0,0,1,.14,1.49,2.66,2.66,0,0,1-.53,1.58,7.08,7.08,0,0,0-1.83,3.27,3.23,3.23,0,0,0,2,0c.78-.12,1.62-.57,2.31.36l-.8.66c-.85.43-1.6,1.5-2.65.66-.92,0-1.81.49-2.75.32a1,1,0,0,1-1-.84c-.12-.57.28-.88.58-1.2s1.06-.59,1.36-1.28A17,17,0,0,0,12.79,15a5.94,5.94,0,0,0-.89-5.22c-.49-.72-1-1.43-1.44-2.16C9.73,6.5,9.64,5,10.37,4.43,11.39,3.7,12.2,4.23,12.79,5.41Z"/><path class="cls-60" d="M38.47,19.08c1.32-1.42,2.59-2.93,4.3-3.67a3.42,3.42,0,0,1,2-.4c.5.09,1.06.19,1.39-.54a.77.77,0,0,0,.67.37,3.71,3.71,0,0,1-1,2.26,7.76,7.76,0,0,1-2.34.35c-1.9.12-1.95.17-2.17,2.46a1,1,0,0,1-.61.61c-.72,0-1.47.31-2.16-.27A1.1,1.1,0,0,1,38.47,19.08Z"/><path class="cls-61" d="M73.32,11.6l.45.16c-.49.63-.32,2-1.41,2l.24-.7A2.75,2.75,0,0,0,73.32,11.6Z"/><path class="cls-62" d="M49,17.16c-.1-1,.61-1.43.89-.94.87,1.51,2.59,1,3.37,2.55,1.68,1,1.82,1.92.62,3.93-.25.3-.63.6-.34,1.08s.62.13.94-.05.6-.64,1-.78c.72-.08.89.54,1,1.24s.16,1.66.18,2.48c.06,2.45-.36,3.14-2.21,3.81-.2.07-.44.06-.59.3-.47.73-1.3.66-1.8,1.31-1.61,1.69-2.28,4.35-3.92,6-.35.12-.78-.08-1,.57s-.55.82-1,.7c-.79-.66-1-1.8-1.34-2.76a30.35,30.35,0,0,0-1.39-3c-.76-1.47-1.94-2.43-2.85-3.73a1.09,1.09,0,0,1,0-.92c1.51-.28,1.63-1.65,1.67-3.19a5.3,5.3,0,0,1,.3-2.1c.25-.54.44-1.31,1.18-.92a4.46,4.46,0,0,1,.23,2.38A7.24,7.24,0,0,0,44.79,29a3.58,3.58,0,0,1,.51,2.46c0,.56,0,1.11.54,1.34.63.67,1.15,1.86,2.13.64a14.23,14.23,0,0,0,3.54-5.86,7.69,7.69,0,0,0-.42-4.95C50.38,20.79,49.76,18.94,49,17.16Z"/><path class="cls-63" d="M43.51,22.75A11,11,0,0,0,43,29.87c-.86.11-1.5-1.05-2.39-.81-.88-.16-1.4-1.16-2.22-1.54-.63-.29-1.27-.63-1.9-1-.76-.55-.1-1.5-.39-2.18.08-.49.62-.68.54-1.28a6.54,6.54,0,0,1,.66-2.43c.24-.65.74-1.09,1.4-.62a1.84,1.84,0,0,1,1.88,0,2.25,2.25,0,0,1,.28,1.24c0,.4.13.85.54.69s.33-.61.2-1a9.35,9.35,0,0,0-.47-1.18,1,1,0,0,1,0-.17c.06-.77-1.07-1-.71-1.55a3.37,3.37,0,0,1,2-1.39c1.13-.15,2.35-.51,3.44.36-.36.82-.31,1.85-.82,2.59A5.71,5.71,0,0,1,43.51,22.75Z"/><path class="cls-64" d="M43.51,22.75a6.74,6.74,0,0,1,1.55-3.06l.29.38a.76.76,0,0,1,.16.4,16.94,16.94,0,0,1-.59,1.91c-.33,1.53-.68,3.06.2,4.51A15.9,15.9,0,0,0,46,30.11c.15.4.5.82.14,1.32H45.3A14.09,14.09,0,0,1,43.51,22.75Z"/><path class="cls-65" d="M46.11,31.43c-.55-1.38-1.49-2.58-1.3-4.32a.31.31,0,0,1-.09-.25c0-.1,0-.15.05-.15.95-.23.94.91,1.25,1.5.4.76.73,1.46,1.57,1.3.33.18.74.15,1,.58-.18.88-.85,1.2-1.32,1.73S46.36,32.17,46.11,31.43Z"/><path class="cls-66" d="M48,19c1.42,1.71,1.71,4,2,6.28a2.07,2.07,0,0,1-.41,1.53A2.33,2.33,0,0,1,48.9,25c-.11-2-1-3.59-1.49-5.41C47.51,19.24,47.65,18.94,48,19Z"/><path class="cls-67" d="M49.32,25.08c.8.38.07,1.2.31,1.74a7.62,7.62,0,0,1-1.07,3.27c-.3.11-.61.36-.87-.08A16.71,16.71,0,0,1,49.32,25.08Z"/><path class="cls-68" d="M45.31,20.38a2.91,2.91,0,0,0,0-.31l1.34-1.62c1.19-.36.84.51.63,1.26a1.91,1.91,0,0,1-1.8,1.54A.63.63,0,0,1,45.31,20.38Z"/><path class="cls-64" d="M48,33.4c-.86,1.24-1.31,1.11-2.13-.64C46.57,32.9,47.12,33.92,48,33.4Z"/><path class="cls-69" d="M47,19.44c.15-.44.63-1-.26-1,.85-1.33.92.26,1.33.56a1,1,0,0,0-.32.76C47.36,20,47.14,19.78,47,19.44Z"/><path class="cls-42" d="M46.18,39.07c.67-.25.41-2.43,1.74-1.32.44.3.39.84.32,1.32a14.78,14.78,0,0,0-.16,2.31c0,2,0,4,.09,6a52.7,52.7,0,0,1,.29-7.43,6.18,6.18,0,0,1,.73-2.78,6.56,6.56,0,0,0,1-1c.3-.37.66-.79,1.11-.24-.14,1.41.15,2.42,1.47,2.46.66.53,1.73-.36,2.15,1-.37.69-1,0-1.38.37a3.49,3.49,0,0,0-3.47,2.36c-.35.5.08.95,0,1.44.14,1.35,1,2.17,1.53,3.25a1.14,1.14,0,0,0,.15.45c1.56,1.8,1.58,2,.39,4.19l-.26.33-1.05,1c-1,.37-1.42,2-2.63,2v0A5.46,5.46,0,0,1,48,53c0-.88-.15-1.6-.93-1.94-.54-.24-.54-1.1-.9-1.57l-.25-.31a2.08,2.08,0,0,1,.08-.93,1.73,1.73,0,0,0,.5-1.43,10.41,10.41,0,0,1,.39-3.11c-.32.3-.55.81-.89.19A15.51,15.51,0,0,1,46.18,39.07Z"/><path class="cls-70" d="M55.43,43.35a.84.84,0,0,1-.3,1,1.36,1.36,0,0,1-.8,1.12c-1.53.75-2.77.26-4-1.58-.13-.79.41-1.15.68-1.69.78-.95,1.73-.8,2.68-.67C54.4,41.92,55.54,41.71,55.43,43.35Z"/><path class="cls-71" d="M53.56,39.7c.43-.37.94-.27,1.41-.39.27-1.08.81-1.68,1.75-1.59.54.14.85.43.64,1.24a8,8,0,0,1-1,2.86C55.6,40.81,54.79,39.8,53.56,39.7Z"/><path class="cls-72" d="M51.18,46.73c-.59-1.06-1.47-1.89-1.59-3.31.28-.15.51-.05.71.22a3.34,3.34,0,0,0,2.61,2.07c.32.11.72-.09.92.42l-.68.44c1.29.82,1.41,2.1.33,3.47C53.24,48.35,51.9,47.89,51.18,46.73Z"/><path class="cls-43" d="M51.18,46.73a5.52,5.52,0,0,0,1.35.89c1.16.34,1.47,1.09.95,2.42l-.27,1.06-1,.29c.07-.54.14-1.09.22-1.63.11-.83.11-1.55-.74-1.76C51.13,47.86,51,47.35,51.18,46.73Z"/><path class="cls-73" d="M53.83,46.13c-1.59.08-3-.27-3.74-2.36,0-.14-.05-.31.08-.37s.35.12.43.35c1.06,1.21,2.2,2,3.69,1.27.21-.13.44-.18.56.08a.44.44,0,0,1-.25.6Z"/><path class="cls-74" d="M53.78,41.78a2.67,2.67,0,0,0-2.57.69c-.47,0-.49-.29-.31-.73,1-1.06,2.08-.8,3.18-.32C54.14,41.74,54.07,41.91,53.78,41.78Z"/><path class="cls-75" d="M53.78,41.78l.3-.36a1.55,1.55,0,0,1,1.64,1c.22.42.27.85-.29.9C55.09,42.48,54.35,42.27,53.78,41.78Z"/><path class="cls-76" d="M50.9,41.74l.31.73c-.2.43-.66.66-.61,1.28-.17-.08-.34-.18-.51,0l-.5-.35c.14-.47-.15-1.19.5-1.36C50.66,43.19,50.56,41.56,50.9,41.74Z"/><path class="cls-77" d="M54.6,45.7c.13-.4,0-.62-.31-.68l.84-.71C55.71,45,55.64,45.22,54.6,45.7Z"/><path class="cls-78" d="M51.21,36.19c-.92-.4-.81,1.37-1.62,1.22a.72.72,0,0,1-.23-.56c.08-1.37,1.62-3.61,2.61-3.8,1.42-.82,2.79-2,4.48-1.28-.15.46-.22.85.34.91s.7.69.56,1.19c-.2.72-.6.28-1,.09-.92-.49-1.84-1.06-2.81-.15A3.71,3.71,0,0,1,51.21,36.19Z"/><path class="cls-79" d="M51.21,36.19a6.32,6.32,0,0,1,2.38-2.38c1.37-.53,2.34.49,3.34,1.37a1.47,1.47,0,0,1,.29,1.5c-.55.29-.9-.25-1.33-.48a5.26,5.26,0,0,0-1.44-.8c-1.27-.3-2,.6-1.82,2.17.17.32.5.52.48,1s-.36.44-.63.21C50.75,38.41,50.57,38,51.21,36.19Z"/><path class="cls-80" d="M56.15,35.79l1.07.89c-.17.35-.34.69-.5,1-.39.87-1.11,1.16-1.75,1.59-.78-.52-1.76.32-2.49-.55l.52-.27c.23-.65.65-.36,1-.35,1,0,1.7-.4,1.82-1.78A.92.92,0,0,1,56.15,35.79Z"/><path class="cls-81" d="M52,33.05a10.45,10.45,0,0,0-2.38,4.36c-.56,3-1.15,6-.72,9.13a4.49,4.49,0,0,1-.3,2.55c-.18.43-.48.67-.86.55-.55-.16-.25-.64-.24-1,0-2.48,0-5,0-7.45a9.83,9.83,0,0,1,.45-3.39c1.1-1.49,1.66-3.51,3-4.78A7.52,7.52,0,0,1,52,32.09C52.59,32.47,52,32.73,52,33.05Z"/><path class="cls-82" d="M53.83,30.78c.09-.12.17-.24.27-.35.63-.7,1.81-.66,2-2a29.5,29.5,0,0,0-.28-5h-.36a2.79,2.79,0,0,1-2.12-1.3c1.4-1.19,1.4-1.19,0-3.36l.74-.35.6,1c.15.57.32,1.14.43,1.73.06.32,0,.76.34.78,2,.13,1.64,2.17,1.85,3.68.16,1.21-.39,2.36-.46,3.57.25,1-.14,1.41-.89,1.47Z"/><path class="cls-83" d="M25.76,19.41c.1-.11.19-.23.29-.35l.48.44a.84.84,0,0,1,0,1c-.94,1.06-.87,2.29-.55,3.65a6.88,6.88,0,0,1-.17,2c0,.49-.13,1.13.3,1.34s.64-.44.81-.85a14.61,14.61,0,0,1,1.2-2.37c.49-.71,1.05-1.26,1.81-.52.42.72,1.28.92,1.43,1.95-2.1-.56-2-.51-3.06,2A19.08,19.08,0,0,0,27,33.25c-.2,2.08-.83,2.9-1.76,2.66-1.62-.42-2.32-1.54-1.92-3.55.57-2.82-.07-5.7.47-8.56a6.26,6.26,0,0,1,1.68-3.73A.9.9,0,0,1,25.76,19.41Z"/><path class="cls-84" d="M35.29,47.4l0,2c.12,1.59,0,1.71-1.08,1.51a2.66,2.66,0,0,1-2-1.46,12.9,12.9,0,0,0-1.36-2.62C28.65,44.37,28,41,27.58,37.66A16.32,16.32,0,0,1,28.33,31c.35-1.17,1-1.41,1.91-.77a8.93,8.93,0,0,0,2.14,1.25c.82.3,1.07,1.27,1.25,2.18.24,1.17.26,2.39.5,3.55-.66.7-1,0-1.17-.57a4.64,4.64,0,0,0-1.74-2.18c-1.11-.7-2.07,0-1.88,1.53a39.89,39.89,0,0,0,.95,6.47c.55,1.79,1.4,2.12,2.63,1.05.51-.45,1-.93,1.68-.66a.62.62,0,0,1,.28.35A18.28,18.28,0,0,0,35.29,47.4Z"/><path class="cls-85" d="M34.7,43.11l-.19,0a1,1,0,0,1-.53-.89,22.37,22.37,0,0,1,0-4.77A24.67,24.67,0,0,0,33.64,35c-.31-1.4-.66-2.8-2.13-2.94-.58,0-1-.6-1.47-1.06-.74-.78-1.25-.43-1.49.56a12.88,12.88,0,0,0-.67,4.55c.44,3.8.47,7.79,3.3,10.45a8.41,8.41,0,0,1,1.37,2.42,2.5,2.5,0,0,0,2,1.4c.78.17.78-.33.79-1,.09.13.18.26.26.39,0,.66,0,1.33,0,2-1.13.35-2-.43-2.77-1.23a12.78,12.78,0,0,1-2.2-3.2l0-.23a3.33,3.33,0,0,0-.79-1.5A15.5,15.5,0,0,1,27.4,34.92a24.5,24.5,0,0,1,.86-5.17c.74-2,1.55-3.6,3.59-3,.2,1.38,1,2.43,1.31,3.74a45.77,45.77,0,0,1,1.62,12.27C34.91,42.92,34.88,43,34.7,43.11Z"/><path class="cls-86" d="M30,23.75c-1,0-1.39,1-1.83,1.89s-.74,1.63-1.13,2.43c-.2.41-.39.94-.87.88s-.68-.64-.81-1.17a4.6,4.6,0,0,1-.06-2.12c.08-.43.3-1,.17-1.28-.92-2.13,0-3.51,1.11-4.89Z"/><path class="cls-87" d="M39,48.09a25.58,25.58,0,0,1-2.34-6.38.73.73,0,0,1,.77-.28,1.18,1.18,0,0,1,.59.68,3.29,3.29,0,0,0,2.43,2.78c.3.1.61.09.78.49C40.93,46.89,39.71,47.17,39,48.09Z"/><path class="cls-88" d="M36.1,24.38c.51.4,0,1.29.53,1.7A10.6,10.6,0,0,0,39,27.86a1.38,1.38,0,0,1,.93,1.38c-.17.37-.41.4-.68.21a8.87,8.87,0,0,0-3.38-1.32C36.28,26.92,35.25,25.55,36.1,24.38Z"/><path class="cls-89" d="M42.44,45.74c.16,1.67-.62,2.44-2.49,2.42.12.64.84,1.12.37,1.92l-1.09-1.63c-.24-.65-.1-1.38.36-1.54C40.56,46.58,41.37,45.65,42.44,45.74Z"/><path class="cls-4" d="M42.34,57.72c0,.72-.33,1-.82,1-.72,0-1-.62-1-1.37s.28-.86.72-.88C41.89,56.42,42.19,57,42.34,57.72Z"/><path class="cls-90" d="M42.44,45.74c-.64.63-1.26,1.29-2.18,1.19s-.91.77-1,1.52L39,48.09c0-1.83,1.48-1.73,2.2-2.62.44-.94,1-1.45,1.82-.67Z"/><path class="cls-91" d="M38.7,20.05c-1.37.29-1.23,2.19-2.06,3.05-.68-1,.26-1.77.3-2.67.57-.34.73-1.42,1.53-1.35Z"/><path class="cls-52" d="M34.7,43.11c0-.12,0-.24.08-.37a23.42,23.42,0,0,1,.51,4.66C34.63,46.07,34.82,44.56,34.7,43.11Z"/><path class="cls-92" d="M37.37,41.8l-.74-.09c0-.31,0-.62-.05-.93l.53-.11a.47.47,0,0,1,.58,0,.91.91,0,0,1,.15.71A.63.63,0,0,1,37.37,41.8Z"/><path class="cls-93" d="M43,44.8c-.66,0-1.14.76-1.82.67-2.22-.27-3.24-1.14-3.57-3,.63-.11,1,.6,1.5.83.75.34,1.46.67,2.2,0,.52-.35,1.43-.19,1.31-1.4a3.45,3.45,0,0,0-2.45-2.63,3.61,3.61,0,0,0-1.92.43c-.37.17-.71.43-1.1.11s-.15-.68.12-1a3.27,3.27,0,0,1,5.25.32c.12.16.22.34.34.5C44.62,42.06,44.63,42.21,43,44.8Z"/><path class="cls-94" d="M36.09,32.12c2.4-2.37,4.45-.44,5.48,1.63s.68,2.66-1.23,2.68c-.25.17-.33,0-.37-.29.15-.59,1-.85.49-1.77a2.66,2.66,0,0,0-2.57-1.55c-.6,0-1.08.79-1.73.41A1,1,0,0,1,36.09,32.12Z"/><path class="cls-62" d="M46.12,49.47c.52.36.82,1.1,1.62,1,.47-.06.76.81.77,1.52a6.82,6.82,0,0,1-.25,2.74c-.65-.11-.68-1.22-1.34-1.33a2.08,2.08,0,0,1-.65-2.14A6.57,6.57,0,0,0,46.12,49.47Z"/><path class="cls-95" d="M37.14,39.8c2-1.68,4.09-1.62,5.8,1.32a1.47,1.47,0,0,1-.22,2c-.36.46-.87.49-1.34.64-.27-.72.37-1.07.43-1.65a1.06,1.06,0,0,0-.72-1.56,2.55,2.55,0,0,0-2.3,0c-.36.23-.71.46-1.11.13l-.57-.08Z"/><path class="cls-96" d="M46.18,39.07c.31,1.66-.08,3.32,0,5a1,1,0,0,1-.09,1.44.37.37,0,0,1-.42-.07c.22-4.23-.38-8.19-2.5-11.62a.49.49,0,0,1,.34-.43C44.67,35.08,45.06,37.35,46.18,39.07Z"/><path class="cls-97" d="M36.09,32.12l.25,1c.36.32.64.77,1.09.91a2.15,2.15,0,0,1,.66.71c.46.93,1.6.38,2,1.46l.27.28c-1.41.82-2.69.25-3.68-1A3,3,0,0,1,36.09,32.12Z"/><path class="cls-98" d="M43.52,33.37l-.34.43a14.14,14.14,0,0,0-4-4.35l.59-.4c.55-.22.69.49,1,.74A19.83,19.83,0,0,1,43.52,33.37Z"/><path class="cls-99" d="M45.68,45.42h.23a2.55,2.55,0,0,1,.11,3,.77.77,0,0,1-.15.74C44.85,48,45.66,46.67,45.68,45.42Z"/><path class="cls-12" d="M15.17,53.74c2.11-2.61,4.86-2,7.41-2.29A12.48,12.48,0,0,0,26,50.81c1.26-.5,1.43-1.08.82-2.52A2.61,2.61,0,0,1,26.61,46c.81-1.66,1.45-1.79,2.55-.44.44.54.91,1,1.37,1.56h0a.51.51,0,0,1,0,.66c-.42-.39-.84-.79-1.27-1.17s-.71-1-1.24-.42a2,2,0,0,0-.46,2.08c.6,1.92.5,2.13-1.1,2.83a18.81,18.81,0,0,1-7.13,1.26C17.77,52.37,16.6,53.54,15.17,53.74Z"/><path class="cls-54" d="M30.52,47.74v-.66c1.39,2,2.78,4.05,5,4.66v.67C33.09,52.18,31.84,49.91,30.52,47.74Z"/><path class="cls-100" d="M10.94,66.07a7.51,7.51,0,0,0-1.59-2c-1.37-5.13-.34-7,4-7.68,2.84-.45,5.56-1.66,8.42-2.08,2.31-.35,4.6-.88,6.91-1.28,2.14-.36,4,1.59,4.59,4.62s-.29,4.79-2.53,5.86c-1,.49-2.2.41-3.14,1.23-2.52,0-4.95.83-7.44,1.18-1.78.26-3.57.5-5.35.82C13.46,67,12.24,66.25,10.94,66.07Z"/><path class="cls-101" d="M25.76,19.41l-.27.66A3.5,3.5,0,0,0,23,22.32a4.54,4.54,0,0,1-.24.59A5.41,5.41,0,0,0,22,28.42c.54,1.49-.44,2.87-1.11,4.07-.9,1.62-.8,2.19.69,3a12.84,12.84,0,0,1,1.38,1,1.85,1.85,0,0,1,.73,2.34A2.48,2.48,0,0,0,24,41a26,26,0,0,1,1.25,2.54,2.61,2.61,0,0,1-.07,2.37,3.74,3.74,0,0,0-.59,2.62,1.11,1.11,0,0,1-.8,1.33c-1.61.1-3.35,1.38-4.74-.93-.61-1-1.46-.6-2,.33-.42.7-.72,1.52-1.1,2.27-.58,1.14-1.37,1.54-2.37.9A2.15,2.15,0,0,0,12.27,52c-.88.07-1.29-.11-1-1.5a2.28,2.28,0,0,0-1.18-2.21A2.23,2.23,0,0,1,9,45.49c.22-.82-.27-1.35-.61-1.91a2.48,2.48,0,0,1-.21-2.72,4.33,4.33,0,0,0,.38-2.25c-.07-1.17.37-1.54,1.26-1.55,2.27,0,4.54-.74,6.82.17.87.36,1.25-.69,1.37-1.58a2.08,2.08,0,0,0-1.49-2.5,6.77,6.77,0,0,1-1.75-.66,2.3,2.3,0,0,1-.86-3.26c.57-1.22.28-1.87-.62-2.33s-1.58-.65-2.36-1c-.52-.27-1.14-.64-1.11-1.46s.71-.68,1.13-.93.88-.49,1.32-.73c.91,0,1.7-.88,2.65-.66v.33c0,1.72-1.4,1.09-2.14,2.11a4.63,4.63,0,0,0,2.57-.1c.53-.19,1-.33,1.42.32,2.56.53,4.52-.71,6.11-3.17A4.73,4.73,0,0,1,25.76,19.41Z"/><path class="cls-102" d="M16.76,24.74a8.08,8.08,0,0,1-4,.66c-.48-.08-1.08-.08-1.15-.84s.46-1,1-1.16a6.17,6.17,0,0,0,2.36-1,11,11,0,0,0,3.86-1,12.51,12.51,0,0,1,2.06-.62c.37-.09.84-.17,1.07.37s-.1,1-.4,1.44a4.75,4.75,0,0,1-3.34,1.79C17.69,24.47,17.18,24.33,16.76,24.74Z"/><path class="cls-103" d="M15.71,21.42c-1.47-.27-2.83.59-4.26.64-.45,0-1.08.31-1.31-.35s.36-.93.66-1.28c.79-.88,1-2.31,2-3,.41.37.31.82.21,1.33-.21,1.08.18,1.51,1.05,1.51a10.12,10.12,0,0,0,4.6-1.32c1.27-.65,1.41-1.62.51-3-.32-.46-.52-1-.86-1.47a1,1,0,0,1,.05-1.43l.8,1a10.46,10.46,0,0,0,1.75,2.19A1.7,1.7,0,0,1,20.75,19a8.88,8.88,0,0,1-3.23,1.72,2.36,2.36,0,0,0-1.29.74Z"/><path class="cls-104" d="M18.35,13.08a6,6,0,0,0,1.5,3c.8,1.2.77,2-.32,2.82a8.59,8.59,0,0,1-4.37,1.77c-3,.3-3.06.87-2.37-3.29a2.54,2.54,0,0,0,.53-1.34,6.91,6.91,0,0,0,.53-5.34c-.08-1.64-1.71-2.21-1.77-4.17,1.73.76,3.07,2.55,4.94,2.17,1.46.48,1.45.48,1.24,2.42a4,4,0,0,0,.09,1.92Z"/><path class="cls-103" d="M18.35,13.08a3.1,3.1,0,0,1-.25-1.88A2.25,2.25,0,0,0,17,8.74h.78c1.38,0,1.47.19.88,1.78A7.08,7.08,0,0,0,18.35,13.08Z"/><path class="cls-103" d="M13.85,10.74a4.85,4.85,0,0,1-.53,5.34,2.19,2.19,0,0,1,.26-1.34C14.11,13.46,13.74,12.07,13.85,10.74Z"/><path class="cls-105" d="M41.13,19.85c.29.12.66.14.84.38a2.39,2.39,0,0,1,.25,2.44c-.32.77-.89.66-1.37.36a1.74,1.74,0,0,1-.63-2.09,6.63,6.63,0,0,1,.36-.87Z"/><path class="cls-106" d="M53.31,22.13c.92-.1,1.78-.07,2.12,1.3a3.36,3.36,0,0,1-.5.92c-.65.63-1.39,1.09-2.07.13S52.74,22.79,53.31,22.13Z"/><path class="cls-107" d="M40.83,29.79l-1-.74c-1-1.06-2.57-1.21-3.17-3a7.43,7.43,0,0,1,4,3C40.69,29.3,40.76,29.54,40.83,29.79Z"/><path class="cls-108" d="M44.85,26.7l0,.41c-1.09-1.1-.92-3-.2-4.93.41-.12.49.27.61.61a10.48,10.48,0,0,0,.06,2.68A1.17,1.17,0,0,1,44.85,26.7Z"/><path class="cls-109" d="M44.83,22.76l-.22-.58a3.35,3.35,0,0,1,.71-1.8l.24.67C46.08,22.13,45.76,22.66,44.83,22.76Z"/><path class="cls-110" d="M44.83,22.76a3.1,3.1,0,0,0,.73-1.71L47,19.44l.75.33a9.84,9.84,0,0,1,1.62,5.31A9.35,9.35,0,0,1,47.69,30c-.77.86-1.34.58-1.76-.49s-.72-1.88-1.08-2.82A9,9,0,0,1,44.83,22.76Z"/><path class="cls-62" d="M46,48.42c-.31-1,.1-2-.11-3,.09-.45.19-.9.28-1.36A5.64,5.64,0,0,0,46.43,42c0-.27.06-.58.33-.63s.39.23.4.5a48.49,48.49,0,0,1-.25,6C46.85,48.52,46.45,48.57,46,48.42Z"/><path class="cls-111" d="M56.15,35.79v.78c.3.37.08.52-.18.66-.43-.11-.74-.51-1.15-.71-1-.47-1.78-.39-2.22,1a1.27,1.27,0,0,1-.39.49c-.74-1.24-.6-2.16.44-2.83C53.93,34.36,55.09,34.69,56.15,35.79Z"/><path class="cls-112" d="M52.22,38v-.54c.09-.12.19-.31.3-.3,1.17.13,2.33-.15,3.49-.1l.15-.5a1.78,1.78,0,0,1-1.88,2.17A9.64,9.64,0,0,1,53,38.49,1.09,1.09,0,0,1,52.22,38Z"/><path class="cls-113" d="M34,37.41c.81.91.46,2.12.51,3.22,0,.81,0,1.63,0,2.44-.47.41-.94.81-1.39,1.25-1.21,1.2-2.64.86-3.23-.94a33.9,33.9,0,0,1-1.18-8.07c-.09-1.32.57-2,1.68-1.9a3.82,3.82,0,0,1,3,2.69A3.74,3.74,0,0,0,34,37.41Z"/><path class="cls-114" d="M42.17,42.47c.21.89-.64.78-.79,1.33-1.35.77-2.49.36-3.78-1.37l-.23-.63.3-.39a.93.93,0,0,1,.86.23,2.56,2.56,0,0,0,2.93.63A.5.5,0,0,1,42.17,42.47Z"/><path class="cls-115" d="M42.17,42.47l-1.09.47c-1.52.66-2.08.4-3.41-1.53v-.66a2.73,2.73,0,0,1,4.7.34C42.81,41.76,42.73,42.13,42.17,42.47Z"/><path class="cls-116" d="M40.07,36.15a13.22,13.22,0,0,0-1.69-.22c-.34,0-1,0-.7-.93.41-.85,1.15-.18,1.67-.56-.87-1.09-.92-1.09-2.15,0-.59.21-.6.19-.86-1.33a2.83,2.83,0,0,1,4.44.65,2.24,2.24,0,0,1,.53,1.79C41.13,36.27,40.5,36,40.07,36.15Z"/><path class="cls-117" d="M37.2,34.4c-.41-1.18-.05-1.65.91-1.58a2.3,2.3,0,0,1,.26,0c1.15.13,2.57,1.35,2.26,1.95-.57,1.1-1.51.47-2.31.34-.21,0-.42-.1-.64-.14Z"/><path class="cls-118" d="M15.15,65.5a20.44,20.44,0,0,1-2.79-.26A3.29,3.29,0,0,1,10.14,62a2.86,2.86,0,0,1,1.94-3.1,64.13,64.13,0,0,1,7.45-2.11c2.92-.83,5.89-1.19,8.83-1.83,1.6-.35,2.93,1.1,3.39,3.69.36,2-.34,3.64-1.92,4.07A94.24,94.24,0,0,1,15.15,65.5Z"/><path class="cls-119" d="M15.15,20.08c-1.67,0-2-.75-1.43-2.29a20,20,0,0,0,1.45-6.15c0-.73.17-1.37.83-1.42s.95.53,1,1.26a10.43,10.43,0,0,0,1.65,4.44c.75,1.38.64,2.19-.5,2.94A6.87,6.87,0,0,1,15.15,20.08Z"/><path class="cls-120" d="M48.22,25.42c-.43.54-.63,1.67-1.54,1a2.59,2.59,0,0,1-1-2.31c.14-1,1-1.09,1.78-1,.32.34.18.74.08,1.12s.19.36.34.48A1.11,1.11,0,0,1,48.22,25.42Z"/><path class="cls-121" d="M48.22,25.42,47.67,25c-.31-.26-.72-.41-.75-1l.54-.91C48.76,23.33,48.83,24.19,48.22,25.42Z"/><path class="cls-122" d="M46.11,26.84c.86.26,1.26,1.07,2,.73-.11.8-.5,1.32-.87,1.2C46.63,28.57,46.49,27.74,46.11,26.84Z"/><path class="cls-123" d="M47.57,21a.59.59,0,0,1,.51.66c0,.42-.34.47-.6.48S47,21.92,47,21.5,47.28,20.93,47.57,21Z"/><path class="cls-124" d="M56,37.07c-1.18,1.39-2.48,1-3.79.4-.09-.27-.37-.47-.12-.86.49-.78,1-1.28,1.9-1.12S55.76,35.7,56,37.07Z"/><path class="cls-125" d="M41.75,41.57c-.48.24-.83.59-1.29.45C40.71,40.67,40.71,40.67,41.75,41.57Z"/><path class="cls-126" d="M46.92,24c.54,0,.87.24.75,1-.42.48-.87.57-1.19-.1A.6.6,0,0,1,46.92,24Z"/></g></g></g></svg>