<svg xmlns="http://www.w3.org/2000/svg" xmlns:xlink="http://www.w3.org/1999/xlink" viewBox="0 0 150 200"><defs><style>.cls-1{fill:none;}.cls-2{fill:#fff;}.cls-3{opacity:0.15;}.cls-4{clip-path:url(#clip-path);}</style><clipPath id="clip-path"><rect class="cls-1" width="150" height="200"/></clipPath></defs><title>whitecard</title><g id="Cards_New" data-name="Cards New"><g id="White_Card" data-name="White Card"><rect class="cls-2" width="150" height="200"/><g class="cls-3"><g class="cls-4"><path d="M-120,72.6V-17.8c1.42,2,2.72,4.07,4.26,6C-107.49-1.73-98.06,7.37-90.37,18c1,1.32,1.71,1.23,2.8.15s1.66-1.77.13-3a113.52,113.52,0,0,1-8.79-8.49c-5.7-5.73-11-11.82-16.4-17.78-4.16-4.59-4.68-9.26-.72-14.1A105.15,105.15,0,0,1-99.51-39.1c.82-.69,1.6-1.74,3.48-1.28-1.34,1.1-2.41,1.9-3.39,2.8-5,4.61-9.92,9.33-13.53,15.18-1.72,2.79-1.89,5.46.27,8.3C-105.27-4.31-96.73,4.44-88,13c3,3,4.31,2.88,7.86.15C-85.84,8.38-91.62,3.71-97.21-1.18c-4.2-3.68-8.87-7-11.38-12.27-1.24-2.58-2.37-5.24-1-8.06a60.76,60.76,0,0,1,14.3-18.3c.8-.7,1.69-1.43,3-.51a3.31,3.31,0,0,1-.63.87c-4.59,3.37-7.93,8-11.55,12.23-5.47,6.46-5.32,10.68.26,17C-96.53-1.49-87.06,5.12-78,12.26c.53.42,1.12,1,2.24.14-2.55-2.07-4.94-4.2-7.53-6.07-7.84-5.66-14-12.88-19.34-20.81-2.64-3.91-3.5-8.13-.33-12.36a58.53,58.53,0,0,1,13-13c.92-.65,1.95-1.37,3-.77a3.14,3.14,0,0,0,2.77,0c4.18-1.14,5.32-.26,5.15,4-.28,7.16-.68,14.31-1,21.46-.06,1.42-.3,2.93.69,4.21l.35.28c.59.18,1,.8,1.51.69.37-9.9.73-19.73,1.09-29.56h.54v13a16,16,0,0,0,.46-4.5c.06-2.63-.37-5.27.29-7.87.15-.57.18-1.46,1-1.34s.69,1,.64,1.58c-.38,4.79,0,9.62-.57,14.41a39.36,39.36,0,0,0-.12,4.35c0,1.33,0,2.67,0,4l.77,0c.29-7.92,0-15.89,1.53-23.71,0,7-.43,13.88,0,20.84,0-1.32,1.31-2.07,1.18-3.48-.51-5.35.07-10.66.57-16,.07-.73-.18-1.94,1-1.94s.91,1.18.94,1.94c0,1.63,0,3.26,0,4.9,0,2.79-.34,5.59.23,8.36A94,94,0,0,1-66.8-39.44c.34,5.09.27,10.17.24,15.27,1.41-5.11.54-10.48,1.73-15.61,1.06,5-.35,9.93.07,15,1.36-5.15.25-10.35,1.15-15.6,1.71,1,1,2.53,1.53,3.62.57-.83-.2-2,.89-3.09.37,5.3-.18,10.25,0,15.2.55-4.51.78-9,1-13.53.05-.94-.29-2.08,1.31-2s1,1.28,1.06,2c.08,3.14,0,6.29,0,9.43A59.67,59.67,0,0,0-57.45-38c-.07-2.06.92-2.66,2.78-2.76,2.07-.11,2.16,1.25,2.18,2.65a22.15,22.15,0,0,0,2.64,10.17c3.21,6.08,9.17,8.29,15.64,5.78,5.53-2.15,7-7.81,3.16-12.38A3.5,3.5,0,0,0-34.6-36a3.74,3.74,0,0,0-2.73,2.8c-.49,1.63-.48,3.52,1.4,4.18,2.1.74,2.43-1.09,2.53-2.75,2.78,1.86,2.18,6-.87,7.5-4.15,2.09-8.85.4-11-4a27.89,27.89,0,0,1-2.31-8.08c-.2-1.41-.81-3.8,1-3.93s1.15,2.26,1.17,3.57c.06,3.46.74,6.69,3,9.43,1.88,2.32,4.15,2.65,6.59,1.08-.18-.78-.94-.79-1.47-1.06a5,5,0,0,1-2.88-5.61,7.12,7.12,0,0,1,6-5.9,6.17,6.17,0,0,1,6.51,4c1,2.48,1.91,2.25,3.91,1.1,5.66-3.24,11.38-1.08,13.7,4.93,1.24,3.24.73,6.14-1.43,8-2.37,2-4.18,2.1-7.63.21.66,1.92.91,2.25,2.1,2.86A11.6,11.6,0,0,0-3.17-20.57c2.17-2.54,2.11-3.56-.33-5.78-3-2.77-4.32-7.5-2.85-10.63s4-4.38,8.39-3.82c2.34.3,3.27,1.88,3.29,4A3.74,3.74,0,0,1,2.1-32.75c-.78.15-1.88.33-2.18-.57s.9-.86,1.44-1.18c1.53-.87,2.06-2.16,1.28-3.66S.31-39.7-1.12-38.9a4.82,4.82,0,0,0-2.63,5.46c.57,3.22,3.09,5.26,7.06,5.69,4.65.51,6.2-.3,7.7-4.06a24.25,24.25,0,0,1,4.6-8,4.67,4.67,0,0,1,5.58-.7c1.56.82-.55,2.22-.74,3.44-.06.32-.34.67.2.89a5.34,5.34,0,0,0,1.69-3c.35-1.07.85-2,2.09-1.47s.49,1.54.31,2.38c-.67,3.25-3.19,5.19-5.31,7.4-.85.88-1.62,1.74-1.46,3a15.39,15.39,0,0,0,3.64,8.64c1.35,1.51,2.39,1.82,3.26-.45a19.39,19.39,0,0,1,5.87-8c3-2.51,4-5.9,3.62-9.73,0-.54-.16-1.08-.16-1.62,0-.75.12-1.5,1-1.67a1.58,1.58,0,0,1,2,1,24.54,24.54,0,0,1,.69,4c.16,1.54.19,3.1.28,4.83a1.74,1.74,0,0,0,1.23-1.74,32.18,32.18,0,0,1,.12-3.26c.21-1.43-.75-4,.8-4,1.84,0,.63,2.5.91,3.87.22,1.06-.17,2.25.79,3.77,0-2.91-.8-5.27.23-8.08,1.19,2.82.06,5.44,1.22,8.41a17.51,17.51,0,0,0,.12-6.74c-.09-.69-.42-1.59.67-1.73s1.29.78,1.31,1.61c0,1.87,0,3.73,0,5.59l.57,0v-6.37c1,2,.41,4.21.76,7,1.29-2.65.1-5.18,1.7-7.42.68,2.67-.66,5,.1,8,1-2.91.16-5.44,1.09-7.67,1.15,2.33-.45,4.86.72,7.64.73-2.09.33-3.74.49-5.34.09-.91-.54-2.52.7-2.53,1.41,0,.88,1.69.94,2.66.11,1.75,0,3.5,0,5.25.86-2.57-.08-5.37,1-8.6,1.17,3.14.28,5.78.91,8.68,1.08-2.84.16-5.41.63-7.88,1.44,2.73.15,5.77,1.22,9.3.76-3.49-.66-6.31.37-9.51,1.28,3.11.32,5.94,1.29,8.58v-8.38h.56v6.12a15.91,15.91,0,0,0,.48-4.63c0-2.05.57-2.35,2.82-1.76,2.41.63,1.09,2.29,1.78,3.27.43-.93-.23-2.11.54-3,.91.48.49,1.54,1.13,2.07.35-.58-.16-1.44.94-2-.11,5.41-.37,10.56.42,15.69V-39.42h.57v6.82c.84-2.41,0-5,1.12-7.31,1.15,3.84.8,7.83,1.75,11.71V-39.82l.81,0a84.46,84.46,0,0,1,.13,10.91c.7-2.46.2-5,.51-7.49.18-1.32-.88-3.6,1.2-3.77,2.8-.24,2.12,2.26,2.16,4s0,3.24,0,4.86h.6v-8.62h.88v9.62a31.39,31.39,0,0,0,.55-7.89c0-1.26.16-2.12,1.61-2.25,1.63-.14,1.74,1,1.75,2.12,0,3.23,0,6.47,0,9.71h.63V-39.72l.72,0c.73,4.18-.09,8.43.15,12.64,1-4.17.05-8.5,1.29-12.64.87,3.35-.11,6.72,0,10.84C84.49-32.92,84-36.48,85-39.8c.79,3.89-.54,7.72-.27,11.6,1.2-3.71.87-7.62,1.43-11.41,1.14,2.94-.25,6,.55,9.16,1.23-3.14.26-6.29,1.32-9.19,1.08,2.61.19,5.26.26,7.9,1.11-2.59.42-5.42,1.08-8.08.82,2.55-.05,5.24.8,8.5.88-3.24-.09-6,1.14-9.07.82,2.65-.49,4.83.59,7.38.69-2.57-.08-4.78.93-6.78.52,1.88-.32,4,1.11,6.08.91-2,.12-4,1.12-5.68.1,1.56.19,3.12.28,4.68,1.11-1.56.28-3.52,1.43-5.61.53,2.08-.37,3.62.47,5.28.93-1.61-.08-3.41,1.11-5,.69,1.56-.34,3.07.53,4.54,1-1.37-.06-3.11,1-4.4,1.13,1.33.14,2.89.93,4.17.48-1.37-.22-2.89.91-4.3.76,1.73-.46,3.27.34,4.76,1.48-1.65-1-5.75,3.07-5.27,3.84.45,1.08,4.1,2.26,5.95.52-1.63-.24-3.49.77-5.59.93,2.23,0,4.11.31,6.32,1.15-2.12.21-4.2,1.48-5.87V-34h.26l.78-5.43c.91,2.15.12,4.33,1,6.45v-6.55c1.52,2.17.73,4.52.79,7.39,1.41-2.93,0-5.64,1.6-8.35,1.64,2.77.49,5.62,1.46,8.65,1.07-2.92-.2-5.58,1-8.45,1.11,2.54.36,4.75,1,6.77.12-1.72.1-3.44.13-5.16,0-.53,0-1.2.76-1.24s.84.59.88,1.14c.09,1,.13,2,.21,3.44.57-1.72-.26-3.34,1.22-5.09.34,2.18.6,3.81.86,5.44a14.35,14.35,0,0,0,.45-4.08c0-.42.32-1.18.75-.79,1.21,1.11,1.91.86,3.1-.19.73-.65,1,.68,1,1.34.23,2.06-.08,4.11,0,6.19a46.42,46.42,0,0,0,.68-6.32c.05-.61.08-1.42.88-1.48s1.18.71,1.21,1.48c0,1.26,0,2.51,0,4.24.86-1.94-.17-3.77,1.26-5.54.76,2.59-.47,4.83.25,7.6,1-2.72.13-5.15,1-7.34,1.17.52.48,1.57,1.27,2.5-.8-2.55,1.15-3.09,2.27-2.94,1.38.19.83,1.91.8,3a7.77,7.77,0,0,0,.06,3.28c1.16-2.12-.06-4.5,1.57-6.42.9,2.28-.26,4.4.25,6.91,1.37-2.25,1.08-4.43,1.84-6.76.89,2,0,3.76.46,5.7,1.14-1.66.82-3.18.94-4.58.14-1.67,1.24.15,1.79-.63.35-.49.45.47.46.79.05,1.16,0,2.32,0,3.71,1.32-1.41.38-3.32,1.73-4.43.91,1.1-.26,2.27.4,3.88.2-1.5.29-2.47.46-3.42.12-.67.82-1.49,1.2-1.07.79.87,2.47.87,2.42,2.55.09-1.67.53-3.55,2.41-2.64,2.57,1.25,5,.27,7.3.07,9.41-.79,18.82-.29,28.23-.29a15.47,15.47,0,0,1,5.27,1.31c.75.28,2-.95,2.46.74,0-.08.08-.18.15-.22.89-.53,1.09-.47,1.55.45.44-.54-.32-1.8,1-1.85,1.15,0,1.06,1.06,1.27,1.79s.27,1.44.52,2.87c.24-1.85-.27-3.06.51-4.37,1.17,1.51.41,3.34,1.3,4.84.66-1.17.28-2.23.21-3.26-.14-2,.84-2.8,2.77-2.35,1.28.3,1.36,1.29,1.56,2.27,1.41,6.69,4.68,12,10.72,15.62,3.5,2.08,7,2.59,10.58.87,3.83-1.87,4.85-5.56,5.14-9.57a9.23,9.23,0,0,0-4-8.88c5-.8,6.72.59,8,5.09,1,3.56-.56,6.76-1,10.12,2.66-4.05,4.76-8.2,3.62-13.25-.15-.68-.73-1.87.48-2,.92-.09,1.13,1.07,1.19,1.87a29.25,29.25,0,0,1-.78,9.45c-.68,2.67-2.11,5-3.53,7.94,1-.6,1.47-.85,1.89-1.17a13.14,13.14,0,0,0,1.42-1.27c3.92-4.12,4.45-9.13,3.76-14.47-.12-.92-.61-2.17.81-2.49s1.75,1,1.9,2a23.7,23.7,0,0,1-1.35,11.77c-.78,2-.65,3.67,1.33,4.59a4.8,4.8,0,0,0,5.79-.85c.82-.84,1.2-1.94.29-2.92s-2-1.7-3.39-1.16c-1,.41-1.4,1.23-.15,2,.36.21,1,.25.68.87s-.93.49-1.46.33a1.91,1.91,0,0,1-1.52-1.71,2.52,2.52,0,0,1,1.55-2.63c1.05-.5,2.21-.75,2.3-2.31a5.24,5.24,0,0,1,4.26-5.29c3.33-.8,6.63-.76,9.12,1.87,1.22,1.29,1.63,1.21,2.51-.11,1.54-2.32,3.48-4.21,6.33-4.82,3.37-.72,6.37,1.16,6.72,4.22a3.7,3.7,0,0,1-2.3,3.95,2.89,2.89,0,0,1-3.7-.76c-.41-.49-.84-1.12-.4-1.72.61-.83,1.06-.15,1.47.35a1.19,1.19,0,0,0,1.66.4,1.53,1.53,0,0,0,.85-1.58,1.69,1.69,0,0,0-1.4-1.47,4.85,4.85,0,0,0-2.93.32c-4.94,1.78-6.2,5.89-6.88,10.49-.8,5.39,1.68,9.26,7,10.51a12.77,12.77,0,0,0,5.4,0c1.86-.36,2.64.76,1.71,2.09s-.49,2.43-.17,3.73c1,4.2,1.48,8.33-2.83,11.19-1.17.78-.93,1.3.05,2a24.82,24.82,0,0,1,2.54,2,1.85,1.85,0,0,1,.42,2.67c-.69.74-1.57-.15-2.09-.63a20.08,20.08,0,0,0-11.59-4.88,24.68,24.68,0,0,0-7,.31c-6.51,1.12-12.82,2.92-16.43,9.25a51.43,51.43,0,0,0-2.28,5.14,55.58,55.58,0,0,0-4.78-2.88c-4.17-2-7.82-.28-9,4.22a18.92,18.92,0,0,0-.12,7.57c.14,1,.76,2.13,0,2.85s-1.84-.29-2.68-.66c-6.89-3.07-19.2-.39-20.23,10a23.71,23.71,0,0,0-.17,5.7c.81,5.51,3.79,9.75,8.95,11.77,4.57,1.78,9.1.7,13.09-2.25a6.42,6.42,0,0,0,2.16-2.76c1-2.43,1.07-4.87-.88-6.84s-4.45-1.79-6.83-.75c-2.59,1.14-2.74,2.45-.6,4.32.32.29.92.41.73,1s-.87.55-1.38.46a5,5,0,0,1-3.73-3.25,10.08,10.08,0,0,1,10.16-14.25c2.67.3,3.5-.54,4.14-2.83a10.34,10.34,0,0,1,13.84-7.13c1.25.44,1.83.44,2.55-.84a15.71,15.71,0,0,1,7.38-6.61A27.81,27.81,0,0,1,270,13.31a21.94,21.94,0,0,1,9.84,3.74c1.1.83,1.55,2,.85,3.09s-1.64,0-2.3-.48c-6.39-4.34-13.28-4.87-20.59-3-5.49,1.4-9.16,4.61-10.58,10.16-.58,2.26-1.34,2.07-2.79.6-2.47-2.51-5.42-2.72-8.41-.9a8.64,8.64,0,0,0-4.2,8.52c.16,2.33-.49,2.84-2.56,2A14.56,14.56,0,0,0,224,35.77c-4.13-.08-6.87,2.69-6.42,6.43,5.28-2.78,7.2-2.68,12.4.78.78.52,1.21.53,1.8-.19,5-6.12,11.44-8.11,19.19-6.86,5.85.94,10.24,3.82,12.72,9.06,1.13,2.4,1.94,3.12,4.61,2.34a9.35,9.35,0,0,1,10.26,4.4c1.15,2.19.8,4.48-.83,5.33-.47.24-1,.55-1.5.07s0-.83.2-1.21a2.62,2.62,0,0,0-.58-3.66c-1.94-1.65-4.06-2.7-6.74-1.76-2.53.89-4.31,2.22-4.09,5.27a8,8,0,0,1-.46,2.94c-.92,2.76.51,4.17,2.8,5,3.84,1.35,7.73,2.07,11.66.26.67-.31,1.77-.53,1.77.41,0,1.93.9,4.09-1.42,5.62-3.7,2.46-7.16,5.28-10.87,7.72-8.1,5.32-16.81,8.89-26.75,8.55-7.27-.25-14.08-2.4-20.86-4.77-6.52-2.28-12.3-6.24-18.92-8.31-4.5-1.4-9-1-14.2-.66.82.55,1,.78,1.25.82a6.72,6.72,0,0,0,1.61.11c4.91-.43,9.11,1.15,13.33,3.69,8.05,4.82,15.93,10.09,25.79,11,9.53.84,19,1.75,28.25-1.58,7.42-2.67,13.61-7.52,20.38-11.35.67-.38,1.24-1.31,2.13-.76.7.43.48,1.32.48,2,0,3-.07,6-.09,9,0,8.15-1.45,16.24-.7,24.46a108.67,108.67,0,0,1,0,18.22c-.21,2.58-1.11,5.15.61,7.62.34.5.16,1.42.12,2.14-.08,1.41-.73,1.55-1.69.64-.6-.56-1.13-1.18-1.7-1.77-3.88-4-8-7.7-13.31-9.68-.83-.31-2-1.24-2.61.06-.51,1.15.78,1.66,1.6,2.17,6.24,3.85,11.4,8.95,16.42,14.21.77.8,1.68,1.66.84,3.27-2.11-2.26-4-4.39-6-6.47a40.54,40.54,0,0,0-6.62-5.64c-2.28-1.52-4.38-3.47-7.36-3.52a2.72,2.72,0,0,0,1.13,1.21c6.61,3.84,11.31,9.56,15.46,15.8,2.6,3.91,2.28,6.17-1.27,9.19a29.25,29.25,0,0,1-8.08,5c-2.52,1-5.07,2-7.61,2.94-.73.29-1.3.73-1.13,1.62a1.87,1.87,0,0,0,1.48,1.74,3.68,3.68,0,0,0,2.31-.67c5.63-2.77,11.18-5.65,15.88-9.91.53-.48,1.23-1.55,2-.78s0,1.7-.63,2.36-1.1.94-1.65,1.42c-3.7,3.25-8.19,5.35-12.1,8.3-.74.56-1.78.86-1.81,2.08,1.13.38,1.9-.26,2.64-.67,4.15-2.24,8.31-4.48,11.81-7.73.48-.43,1.06-1.37,1.77-.7a1.57,1.57,0,0,1-.21,2.22,27.82,27.82,0,0,1-3.11,2.64c-3.34,2.44-6.38,5.3-10.62,7.38a5.34,5.34,0,0,0,3.88-.52,45.62,45.62,0,0,0,7.83-4.89c.65-.47,1.51-1.74,2.22-.81s-.55,1.74-1.33,2.29c-2.27,1.6-4.58,3.13-6.88,4.68a13.53,13.53,0,0,0,6.5-2.59c1-.63,2-.95,2,.77,0,5.12,0,10.25,0,16.11-1.11-1.81-.49-3.11-1.23-4.22,2.38,13.63.33,27.22,0,40.83H195.85a175.64,175.64,0,0,0,22.68-10.39c7.55-4.29,15.54-7.81,23.32-11.71,2.47-1.24,4.86-2.62,7.29-3.95-7.72,2.36-14.82,6-21.78,9.88-7.29,4-14.83,7.61-22.21,11.47-5,2.59-10.42,3.59-15.83,4.7H179c-6.49-.57-9.13-4.54-9.69-10.63-.32-3.46-1.13-4-4.52-4a16.54,16.54,0,0,0-3.52.22q-9.93,2.21-19.83,4.54a6.12,6.12,0,0,0-2.22,1,2.51,2.51,0,0,0-1.05,2.86c.49,1.08,1.61.15,2.37-.11a82.46,82.46,0,0,1,17.39-4.13,17.94,17.94,0,0,1,8.84.73c2.12.84,3.35,2.49,2.88,4.65-.51,2.31.47,3.16,2.36,3.73a3.18,3.18,0,0,1,2.09,1.14H130.5c.38-1.93,1.92-3,3.19-4.27,3.47-3.53,3.45-7.8,0-11-1.38-1.28-2.6-1.61-3.58.51a9,9,0,0,1-3.6,4.48c.57-2.45,1-4.38,1.48-6.27a5.52,5.52,0,0,0-1.7-5.67c-1.23-1.24-2-1.4-2.46.67a10.91,10.91,0,0,1-4.1,6.77c-.54-1.35.39-2,.71-2.73,1.54-3.76.8-7.32-.93-10.75-1.31-2.6-4-1.43-6.09-2a9.69,9.69,0,0,0-1.62-.19c-2.8-.28-4.06.69-4.45,3.42-.34,2.44,1.28,5.19,3.32,5.58a3.25,3.25,0,0,0,3.15-1.21,1.71,1.71,0,0,0,.21-2.25,1.9,1.9,0,0,0-2.61-.67c-.41.18-.9.41-1.12-.2a1.09,1.09,0,0,1,.49-1.19,2.25,2.25,0,0,1,2.78-.13,3.82,3.82,0,0,1,1.94,5.05,4.51,4.51,0,0,1-5.23,2.87,6.73,6.73,0,0,1-5-5.19c-.46-1.58-1.2-2.56-3.25-1.84.74.79,1.4,1.39,2,2.08,1.45,1.82,2.62,3.73,1.79,6.22-1.3,3.85-.52,5.42,3.54,5.78,7.3.65,11.77,5.59,16.47,10.26a7.08,7.08,0,0,1,1,1.92h-6c-.38-2.3-.6-4.69-2.3-6.5-.54-.57-1.92-1.46-1.81.09.2,2.67-1.39,4.37-2.42,6.41h-.55c.08-.8.11-1.61.24-2.4a6.15,6.15,0,0,0-5.11-7.33,1.78,1.78,0,0,0-2.15,1c-1.81,2.81-4.08,5.35-5,8.7H99.47c1.17-2.26.59-4-1.55-5.3-.71-.44-2.06-.86-1.53-1.88s1.59.11,2.43.15a4.36,4.36,0,0,1,.79.2c2,.48,3.36-.42,4.45-1.9s.47-2.94-.55-4.21c-.56-.7-1.24-1.31-1.87-2-1.08-1.1-1.39-2,.31-2.92a2.81,2.81,0,0,0,1.2-4.17c-1.29-2.39-4.63-4.29-7.29-3.69-2.14.48-1.87-.34-1.39-1.76,1.17-3.46.5-5.62-2.35-7.84-2.53-2-5.34-2.23-8-.31-1.93,1.38-2.42.81-3-1.17a8.1,8.1,0,0,0-5.28-5.46A10.4,10.4,0,0,0,62,193.1c0,.21-.29.39-.43.58-1.09-.35-1.62-1.25-2.36-1.9-1.54-1.36-4.54-1.49-5.39-.11-1.33,2.15.61,2.86,1.92,3.7,5.64,3.64,7.86,8.8,6.85,15.38a9,9,0,0,1-4.82,6.55c-2.78,1.57-5.38.94-7.88-.83a6.56,6.56,0,0,1-2.77-6.89c.29-1.91,1.68-2.71,3.32-3.18a2.81,2.81,0,0,1,3.45,1.23c-2.08.15-3.88.12-4.31,2.21a3.41,3.41,0,0,0,1.07,3.71c1.57,1.19,3.25,2,5.3,1.1A5.68,5.68,0,0,0,59.64,210c.83-5.54-.66-9-5.54-11.83-3.65-2.12-7.46-4.46-11.93-3.26a44.88,44.88,0,0,1-11.48,1.94,19.5,19.5,0,0,0-3.25.19A1.73,1.73,0,0,0,25.91,199c.24,1.28,1.29.6,2,.41a17.25,17.25,0,0,1,11.69.87c3.84,1.65,7.26,4.39,12.23,4.21C49,206,47.41,205.87,43.76,204c-6.64-3.44-13.15-3.53-19.6.59-5.17,3.31-5.3,9.27-.18,12.66.54.36,1.49.4,1.35,1.42-5.36,2-5.83,2.72-4.82,7.51H-17.61c-.71-5.16-.14-10.33-.1-15.49.08-8.85-.88-17.68-.7-26.54.28,14-.82,28-.29,42h-6c.36-.52.7-1,1.08-1.56,2.63-3.6,1.85-7.14-2.08-9.32-2.56-1.44-3.25-1.08-3.78,1.79-.28,1.58-.35,3.35-2.15,4.21a1.83,1.83,0,0,1-.19-1.75c1-4.15.26-8.12-1.3-12a11.74,11.74,0,0,0-12.47-6.79A5.33,5.33,0,0,0-49,209.18a2.6,2.6,0,0,0,3.4.83c1.36-.67,1.21-1.87.59-3a7.4,7.4,0,0,1-.53-.95c-.22-.57-.61-1.25.17-1.66.57-.3,1,.16,1.44.51,2.52,2.13,1.85,5.74-1.32,7-2.62,1.05-4.86.1-6.91-1.61-1.24,3.47-1.23,3.36,2.07,3.55s7.16-.23,9.49,2.48,5.23,4.38,7.52,6.91a7.56,7.56,0,0,1,1.88,2.95H-41c.89-3.89.38-6-2.19-7.36-3.31-1.71-6.81-2.44-10.44-.84-.83.37-1.82.65-2.21,1.49-1.31,2.82-3.88,4.49-5.85,6.71H-65c.79-.73,1.55-1.51,2.38-2.2,3.92-3.28,6.5-7.37,6.92-12.51.67-8.13-3.72-14.3-12.33-13.8-.52,0-1.12.17-1.45-.76,1.42-1.21,3.18-.75,4.81-.86,1.38-.09,3.12.53,3.7-1.39s-.3-3.4-1.64-4.61c-1.13-1-2.21-1.27-2.87.6-.35,1-.64,2.11-2.18,2.43.13-2,.34-3.81.37-5.67.07-5.47-2.14-8.87-7.4-10.35-5.87-1.66-11.85-2.72-17.88-.34-3.37,1.34-6,3.38-7.07,7-.51,1.77-1.22,1.6-2.17.54a6.24,6.24,0,0,0-6.46-1.85c-4.33,1-8.11,8.46-6.4,12.52,1.4,3.32,4.77,5,7.65,3.88-5.18-2.34-6.35-5.64-3.25-9.25a6.67,6.67,0,0,1,9.46-1.16c1.52,1.15,2.52,1.29,4.21.06,4.48-3.26,9.45-3.11,14.15-.63,4.31,2.27,5.3,6.49,4.94,11-.16,2.07.54,2.33,2.37,2.35,7.27.08,11.78,5,11.41,12.17-.22,4.18-2.2,7.15-5.52,8.27-3.54,1.2-8.72-.2-11-3-.44-.54-1.45-1.29,0-1.83s1.37-1.52.76-2.6a1.58,1.58,0,0,0-2.06-.85A2.1,2.1,0,0,0-82.63,216a11.32,11.32,0,0,0,3,4.76c1.79,1.8,3.56,3.61,5.34,5.41H-78.6c-.79-1-1.54-2-2.37-3a17.62,17.62,0,0,1-3.8-6.53c-.79-2.7.33-5.46,2.46-6.19,2.38-.81,4.62.7,5.65,3.74.24.73,0,1.64.77,2.21,1.23-2.38.64-4.69-1.6-5.93s-4.66-1.48-6.92.13c-1.9,1.35-2.49,4.22-1.63,7.22,1,3.61,3.86,5.82,6.35,8.31H-84c-.42-.58-.81-1.19-1.27-1.74a13.25,13.25,0,0,1-1.35-15.71c1.51-2.55,1.1-7.33-1-9.44-1.57-1.55-3.44-2.73-5.86-2a6.16,6.16,0,0,0-4.61,4.54c-.45,1.83.49,3.15,1.79,4.26a2.9,2.9,0,0,0,3.55.24c1.52-.85,1.23-2.23,1-3.6,0-.23.13-.49.24-.86,2.12.84,2.46,2.35,1.79,4.19a4.28,4.28,0,0,1-4.83,3.1,6.89,6.89,0,0,1-5.41-9.22c1.5-3.78,4.91-5.91,8.5-5.3,4.26.72,8.07,4.7,8.12,9,0,2.45.74,3.23,3.21,3.37,5.24.3,9,6.21,6.86,10.8-.86,1.89.07,1.73,1.27,1.73,4.71,0,7.71-4.79,6-9.58a10.33,10.33,0,0,0-12.45-6.09c-.89.25-2,1.29-2.74.35s.46-1.79.77-2.69a11.28,11.28,0,0,0-.45-9.22A5.7,5.7,0,0,0-86,189c-4-.09-7.86.65-10.31,4.3-1.16,1.73-1.72,1.49-2.83-.07-2.25-3.15-5.93-4.17-8.54-2.59-1.63,1-2.54,2.43-1.8,4.35.67,1.76,2.21,2.14,3.8,1.56s1.53.31,1.46,1.29a4.39,4.39,0,0,1-5.5,3.87,10.82,10.82,0,0,1-6.77-3.72c-.94-1.2-2-1.8-3.52-1.19V181c2.22,0,4.35-.22,6.14-1.73,2.65-2.26,2.64-7,0-8.51a2.56,2.56,0,0,0-3.24.42,2.51,2.51,0,0,0-.87,2.93c.45,1.17,1.32,1.36,2.43.83a.61.61,0,0,1,1,.57,1.18,1.18,0,0,1-.91,1.21c-2,.67-3.3-.32-4.49-1.71v-4.35c1.43-2.29,3.37-3.71,6.13-2.84a5.5,5.5,0,0,1,4.2,5.41c0,1.61-.85,3.73-.12,4.68s3-.08,4.59.39c3.09.9,4.09,0,3.81-3.21a5,5,0,0,0-2.29-4.12,1.92,1.92,0,0,1-1-2.64c.84-2.57-.15-3.77-2.82-3.79-1.78,0-3.58-.18-4.77-1.55-2.08-2.39-4.79-3.48-7.7-4.31V132c3.19-1.6,4.44-.28,5.64,2.85a5.78,5.78,0,0,0,9.88,1.46c2.21-2.64,3.44-2.4,6-.89,2.72,1.6,6.31-.21,7.27-3.08a5.69,5.69,0,0,0-3.9-7,2.39,2.39,0,0,0-3.19,1.27,1.66,1.66,0,0,0,.93,2.45c.59.26,1.7.05,1.49,1.14s-1.08,1.37-2.05,1.51c-2.31.35-5.12-1.51-6.11-4.45-.55-1.66-1.24-2.13-2.94-1.7-4.91,1.23-9.34.35-13-3.36V111.26a34.73,34.73,0,0,1,3.47-2.13,7.28,7.28,0,0,1,7.48.79,4.66,4.66,0,0,1,2.23,4.63,4.79,4.79,0,0,1-4.49,4c-1.85.14-2.79-.51-3.38-2.38.88-.25,1.55.37,2.32.56a2.41,2.41,0,0,0,2.7-.75,2.49,2.49,0,0,0,.11-2.83,4.57,4.57,0,0,0-5.12-2.26c-2.14.38-3.74,1.63-3.83,4-.13,3.31,1,6,4.15,7.62a10.24,10.24,0,0,0,11.78-1.84c3.11-2.88,6.18-3.25,9.94-1.3a20.77,20.77,0,0,1,5.93,5c.13-.92.18-1.37.26-1.8.16-.78.12-1.95,1.1-1.93,1.16,0,.74,1.25.81,2a3.62,3.62,0,0,0,2,3c1.9,1,3.84,1.31,5.64,0a5.66,5.66,0,0,0,2.35-6c-.52-2.55-2.08-4.47-4.66-4.68-2.29-.19-2-1.22-1.52-2.62a18.12,18.12,0,0,0,1-5.88,9,9,0,0,0-12.08-8.31c-2.52.9-3.75,3.59-2.54,5.65.54.91,1.29,1.63,2.45,1.23s.81-1.23.64-2.07c-.13-.65-.65-1.53.4-1.82.78-.21,1.38.4,1.75,1,1.06,1.85,1.11,3.63-.54,5.19a4,4,0,0,1-5.64-.08,6.91,6.91,0,0,1-2.36-5.84c.12-1,.35-2-.56-2.78-4-3.27-8.24-5.84-13.76-5.36-3.22.28-5.23,2.78-8,3.87V94.38a23.88,23.88,0,0,1,5.73-3.61,7.49,7.49,0,0,0,3.39-2.62,2.86,2.86,0,0,0-1.61-4.35,1.29,1.29,0,0,0-1.6.68c-.29.62-.06,1.07.64,1.17s1.43.13,1.15,1-1.19,1-2,1a2.37,2.37,0,0,1-2-1.93,3.55,3.55,0,0,1,.87-3.76,7.37,7.37,0,0,1,3.6-1.8c1-.26,1.62-.75,1.31-1.91-.48-1.81-3.39-2.94-4.94-1.89a1.22,1.22,0,0,0-.72,1.07.7.7,0,0,0,.93.7c1.45-.35,1.6.49,1.33,1.51a1.63,1.63,0,0,1-2.38,1.09,3.54,3.54,0,0,1-2.21-4.42A3,3,0,0,0-120,72.6ZM220.35,199.48a37.23,37.23,0,0,1,1.37,4.4c.63,3.35.54,3.33,3.67,1.65a9.79,9.79,0,0,0,3.66-3.15,6.1,6.1,0,0,0,1.32-3.78,2,2,0,0,0-1.78-2.08,2.37,2.37,0,0,0-2.41,1.81,1,1,0,0,0,.37,1.2.58.58,0,0,0,.89-.27c.29-.56.67-.9,1.28-.5s.54,1.11.4,1.72a2.21,2.21,0,0,1-1.89,1.73,2.75,2.75,0,0,1-3-1.37,15.73,15.73,0,0,1-1.07-2.66c-1.24-.08-1.37,1.95-2.78,1.29.2-.69.41-1.37.6-2.06.46-1.61.9-3.4-.8-4.4a5,5,0,0,0-6,.56c-1.42,1.19-2.62,2.56-2,4.65a2.17,2.17,0,0,0,2.73,1.59c1-.15,1.68-.66,1.65-1.77,0-.69-1.3-1.52,0-2,.94-.34,1.59.68,2.18,1.33S219.79,198.78,220.35,199.48ZM89.65,169.54c-.1-3.28.62-4,3.31-3.2-.58.9-2.8,1-1.47,2.73a1.84,1.84,0,0,0,2.65.39,2.44,2.44,0,0,0,1.25-2.25c0-2-2.12-4.42-3.93-4.6a4.65,4.65,0,0,0-4.82,3.51c-.63,2.53.33,3.61,3,3.39-.17.6-.29,1.22-.5,1.8a5.64,5.64,0,0,0,3.26,6.88c2.86,1.33,3.65-.57,4.42-2.69A5.35,5.35,0,0,1,98,174c.61-.7,1.33-1.35.36-2.29-.72-.71-1.41-1.52-2.57-.84C93.32,172.27,91.44,171.14,89.65,169.54Zm73-34.32c8.74-.86,13.2-6.66,16.22-14.1,1.84-4.55,1.74-9.74,0-12-1.44,8.31-3.3,16.56-10.61,22.25-1.77,1.38-3.71,2.56-5.57,3.84-.81.05-1.63.06-2.44.18A34.79,34.79,0,0,1,137,130.83c-.68-.39-1.39-.73-2.41-1.26C140.89,137.25,152.88,138.3,162.63,135.22Zm56.08-10.91,2.74-2.2c3.51-2.81,8-1.08,11.85-2.55.73-.29,1.71.58,1.64,1.42-.1,1.4-1.11.62-1.81.47a1.7,1.7,0,0,0-2,1.07,1.79,1.79,0,0,0,.42,2,1.58,1.58,0,0,0,2,.45c2-.85,3.32-2.17,3.14-4.53-.34-4.47-5.74-7.16-10.16-5.06a15,15,0,0,0-7.79,9c-1.09,1.09-2.16,2.19-3.27,3.25-4.07,3.86-8.58,6.88-14.2,8-6.82,1.43-13.51.49-20.23-.6-.72-.12-1.49-.83-2.38.22,7.52,1.67,14.86,2.82,22.49,1.45C209,135.29,214.65,131,218.71,124.31Zm-56.07,21.8c8.69.59,11.46,5.63,7,12.81a1.4,1.4,0,0,0,.11,1.92,5.93,5.93,0,0,0,9.06-.43c.85-1.18,1-2.07-.47-2.81a5.87,5.87,0,0,1-3.05-3.33,3.92,3.92,0,0,1,5.74-4.72c.83.48,1.55,1.3.95,2.23-.76,1.2-1.3.11-1.83-.45a1.71,1.71,0,0,0-2.44-.28,2,2,0,0,0-.48,2.68,4.11,4.11,0,0,0,2.33,2.17,4.23,4.23,0,0,0,4.94-1.24,5.39,5.39,0,0,0,1-6.08,8,8,0,0,0-7.15-5,35,35,0,0,0-15.68,2.59,14.9,14.9,0,0,0-1.9.17c-5.36,1.11-10.61,1.2-15.53-1.72-.11-.06-.32.07-.89.22,3,3.31,6.31,5.54,10.64,6a2.53,2.53,0,0,0,2.39-1.05A11.56,11.56,0,0,1,162.64,146.11ZM-62.31,27.57c-3.41-2.68-6.4-5-10.49-4.23A13.74,13.74,0,0,0-83.72,37.6c.17,2.13-.2,2.31-2.13,1.41-6.37-3-12,.82-11.6,7.75.16,3,.16,3-2.74,4.29A4,4,0,0,0-101.91,56c.84,1.89,2,1.72,3.4.53,1.05-.87,1.35,0,1.54.91,1.39,7.08,2,7.59,9,7.09,1.3-.1,1.62.37,1.43,1.54a16.52,16.52,0,0,0-.23,2.44c-.08,2.19.3,4.19,2.49,5.32a6.5,6.5,0,0,0,6.51-.2c1.59-.91,2.3-1.81.58-3.51-2.21-2.19-4.13-4.84-4-8.1.49-10.25,9.91-17.65,19.38-14.33a23.89,23.89,0,0,1,9.83,6.16c.3-4.89,1.2-9.5,1.65-14.16.81-8.23,7.75-16.5,15.73-18.8s15.2.19,20.66,7.76C-10.65,33.12-9,38.44-11.47,44c-1.09,2.46-2.64,4.57-5.66,5-4.38.56-8.64-2.28-8.66-5.85,0-.79-.1-1.86.9-2s.66.89.84,1.44a2.62,2.62,0,0,0,2.64,2c1.42,0,2-1.12,2.35-2.29.82-2.78-1.55-6.09-4.63-6.51-3.82-.53-7.36,3.67-6.71,8s5.3,8.81,10,9.57A9.91,9.91,0,0,0-9.3,47.33c1.14-2.41,2.05-2.36,3.9-.75,2.89,2.53,5.9,2.5,8.29.26s3-7.32,1-10.13a2.31,2.31,0,0,1,0-3.25c2.63-3.66,2.61-9.66.13-13.06s-7-4.76-11.77-3.29c-1.92.59-2.72.13-3.5-1.64-2.69-6.17-8-9.34-14.74-9.06C-32,6.65-38.78,11.54-40.64,17c-.44,1.26-.43,3.25-1.26,3.68-1.14.58-2.16-1.28-3.4-1.81-2.6-1.1-4.8-.19-6.8,1.42s-.82,3.16,0,4.82c2.24,4.55,1.56,8.82-1.58,12.71a7.2,7.2,0,0,1-8.11,2.29,7.91,7.91,0,0,1-5.06-6.81C-67.14,30.2-65.41,28.58-62.31,27.57Zm192.8,48.71c3,4.76,7.56,6.49,11.93,5.07,4-1.3,8.08-7.41,7.85-11.78a13.63,13.63,0,0,0-11.44-13c-.88-.17-2,.27-2.81-1A10.14,10.14,0,0,1,145.55,57c6.16,4.5,8.68,10.45,6.49,18.5A12,12,0,0,0,156.1,72c1.84-2.7,1.31-7.4-1.19-7.83-3.44-.59-2.16-2.35-1.89-4.15.72-4.66-2.34-7.59-6.65-6.23-1.47.47-2.17.14-2.8-1.12a16.18,16.18,0,0,0-1.62-2.5c-.58-.76-1.15-.9-2-.09-5.5,5.27-8.09,5.37-14,.67-.39-.3-.7-1-1.31-.51s-.24,1.13.17,1.66c.72.95,2,1.61,2,3.31-2.31-.74-4.14-2.29-6.53-2-2.64.3-3.37,1.39-2.19,3.75a14.35,14.35,0,0,1,1.69,6.79c-.19,8-7.42,12.91-14,9.55a6.27,6.27,0,0,1-1.09-10.79c1.16-.89,2.36-1.19,3.64,0-4.11,2.85-4.51,5.63-1.24,7.76a6,6,0,0,0,8.87-2.25,10.12,10.12,0,0,0,.2-9.41c-3.43-7-11.42-7.3-17.81-4.8a10.75,10.75,0,0,0-6.45,6.59c-.38,1.06-.28,2.74-1.56,2.89s-1.61-1.5-2.27-2.44c-.79-1.11-1.52-2.25-2.34-3.33a7.48,7.48,0,0,0-4.4-2.51c-.53-.13-1.15-.32-1.55.13-.57.64,0,1.19.37,1.67,1.33,1.83,2.87,3.47,3.76,5.63,2.24,5.49,1.68,7.71-3.52,10.46-5,2.67-10.06,5.47-15.73,6.67-4.82,1-6.37,4.67-6.5,8.8-.11,3.49,2,5.55,6.49,6.84a9,9,0,0,1,1.05.27c1,.41,2.07.81.47,1.91-1.09.74-.74,1.78-.29,2.69,1.24,2.48,3.37,3.27,6.06,3.22-1.18-4.36-1.23-6.74.58-7.06,4.69-.84,7.27-4.62,11-6.65,1.47-.79,2-1.07,1.07-2.66a6,6,0,0,1,.63-7.36c2.07-2.32,4.63-3.75,8-3a10.16,10.16,0,0,1,7.46,6.55c.65-.8,1-1.32,1.47-1.77a9.31,9.31,0,0,1,11-2.31c4.13,1.73,6.83,5,7.15,9.51.6,8.56-2.47,15.54-10,20-3.08,1.82-4.88,4.59-7.2,7.28,1.49.4,2.38-.29,3.29-.85a38.62,38.62,0,0,0,8.43-6.39c4.66-5,9-10.38,8-18-.51-3.6-1.81-7-2.86-10.48a21.9,21.9,0,0,1,.45-14.66c2.11-5.41,7.77-9.15,12.92-8.66,5.78.56,8.89,3.56,10.25,9.88a9.73,9.73,0,0,1-3.31,10C137.18,79.16,134.1,78.52,130.49,76.28Zm21.66,16.24c-1.23.64-1.92-.21-2.68-.53a8.26,8.26,0,0,0-8.28.81,14.8,14.8,0,0,0-6.09,8.08c-1.72,5.59-.91,11.07,1.26,16.2,1.6,3.81,4.09,7.29,8.57,8.55,5.44,1.53,12.72-.92,16-5.49,2.3-3.16,2.71-7.89.94-10.82-1.27-2.1-4.77-2.87-7-1.54-1.65,1-1.91,3.09-.67,5,.45.71,1.77,1.22,1.18,2.18s-1.95.86-3,.76a7.19,7.19,0,0,1-5.87-3.9,9.8,9.8,0,0,1-.15-9.63c2.81-5.67,7.86-7.18,13.62-8s10.9,2.31,16.41,3a10.6,10.6,0,0,1,4.75,1.93,2.8,2.8,0,0,0,2.76.46c3.83-1.26,6-.21,7,3.65.6,2.46,1.75,2.12,3.28,1.19,3.48-2.11,4.4-9.16,1.61-12.2-1.44-1.57-3.95-1.42-4.52.29-.2.61-.33,1.31.34,1.71s1-.1,1.22-.64.33-.94.9-.58a1.4,1.4,0,0,1,.52.91,2,2,0,0,1-1.31,2.41,2.23,2.23,0,0,1-2.85-.92c-1.35-1.77-.85-3.74-.23-5.81-2.49.06-4.73,0-5.55-2.68a2.55,2.55,0,0,1,.74-3c.92-.74,1.92-1.23,3-.32-.38,1.14-2.63,1.54-1.09,2.94,1.32,1.2,2.73.52,3.8-.69a4,4,0,0,0,1.05-2.74c0-4.51-5.69-9.35-10.06-8.6-4.07.68-4.39,1.41-2.17,4.8,1.9,2.91,1.08,6-2.14,7.27,1-3.83-.67-6.62-3.26-9-1.33-1.22-2.86-2.22-4.31-3.31-3.74-2.78-7.52-2-11.22,0A32.69,32.69,0,0,0,155,77.17a2.81,2.81,0,0,0-1.24,3.51,2.44,2.44,0,0,1-1.35,3.19c-.67.31-1.8.57-1.51-.91.51-2.58-1.06-2.23-2.47-1.68a6.91,6.91,0,0,0-3.1,2.58C143.5,86.36,144,88,147,88.78A8.76,8.76,0,0,1,152.15,92.52ZM-44.91,140c-2.72,1.16-5.12.93-7.11-.76a7.57,7.57,0,0,1-2.4-7.18c.69-5,4.16-7.61,10.19-7.75,1.93,0,3-.5,3.24-2.66s1.37-4.36,3.78-4.82c2.08-.39,2.73-1.56,3.37-3.31,3.51-9.6,12.53-12.57,20.42-6.85a14,14,0,0,1,3.6,4A3.28,3.28,0,0,0-7,112.42c6.32.54,11.83,2.7,15.14,8.59,3.66,6.5,3.58,13-.38,19.34C5.51,144,.19,145.58-3.52,143.87c-1.9-.87-3.21-2.43-2.82-4.5.33-1.78.2-4.1,2.84-4.73,1.53-.37.77-1.41.21-2.08-1.48-1.77-4.82-.79-5.58,1.82-1,3.57-.69,7.06,2,9.91,4.28,4.5,13.45,4.47,17.42-.29a23.73,23.73,0,0,0,5.34-20.31,56.53,56.53,0,0,0-5.49-15.86,11.41,11.41,0,0,0-7.42-6c-2-.54-3.81-.08-4.81,2-.33.69-.48,1.49.3,1.94,1,.56,1.28-.07,1.35-.95,0-.54.33-.83.89-.73a1.08,1.08,0,0,1,.86,1c.27,1.45-.47,2.22-1.81,2.53a3.91,3.91,0,0,1-4.69-5c.34-1.14.88-2.14.06-3.33-3.9-5.65-9-9.24-16.1-9.06-6.49.17-11.06,3.59-14,9.26a72.91,72.91,0,0,0-4.69,9.81c-.2.6-.37,1.37-1.06,1.46-.89.12-.8-.77-1-1.33-1-2.49-2.64-2.81-4.44-.79a9.43,9.43,0,0,0-2.33,6c-.09,1.72,0,3.45,0,5.17,0,.94-.06,1.92-1.57,1-4.25-2.49-8.87-.87-10.89,3.64a17.86,17.86,0,0,0,1.39,17.66c1.82,2.87,4.13,5.55,8.4,4.53a16.57,16.57,0,0,1,5.68-.36c3.7.42,5.69-1.3,6.37-5.34a6.78,6.78,0,0,0-4.45-7,3,3,0,0,0-3.77,3.34C-47.26,138.72-45.78,138.83-44.91,140Zm-62.51-89.68a2.83,2.83,0,0,1-2.26.47c-2.59,0-4.44.93-4.94,3.64a5.55,5.55,0,0,0,3.72,5.88c1.84.5,1.79,1.22,1,2.7-1.86,3.59-1.66,6.74.35,8.88s6.63,3,9.65,1.39c2.28-1.18,2.88-.78,3,1.79.25,6.34,5,9.67,11.05,7.94a26,26,0,0,0,9.73-4.69c1.05-.88,1.69-.89,2.71.1,3.67,3.54,8.49,4.09,13.28,1.7,4.56-2.28,8.2-8.15,7.73-12.47-.58-5.23-6.47-11.43-11.7-12.31a7.46,7.46,0,0,0-8.84,8.25,5.16,5.16,0,0,0,4,4.28A3.58,3.58,0,0,0-65,66.57c.5-.57.32-2,1.36-1.7s1.1,1.76,1.07,2.83c-.08,3.44-3.79,6.38-7.49,5.74-2.37-.41-4.29-.34-6.14,1.59-2.27,2.36-5.21,2.64-8.33,1.62S-89,73.17-90,70.36c-.44-1.21-.77-2.49-2.3-2.75-3.59-.6-5.41-3-6.43-6.26-.24-.75-.55-1.29-1.46-1.34a4.09,4.09,0,0,1-4.24-3.82c-.31-2.63.24-5.29,2.79-6.59,2-1,2.32-2.3,2.29-4.29C-99.48,38.68-95,34.8-88.46,36c2,.36,2.42-.22,2.81-2A17.12,17.12,0,0,1-75.22,21.55c5.35-2.33,14.32,1.51,16.74,6.86.82,1.83,1,3.57-.57,5.08a.83.83,0,0,1-.65-1c0-1.41-.33-2.68-2-2.67s-2.39,1.16-2.72,2.6A4.62,4.62,0,0,0-59.13,38c5-.76,7.46-6.06,5.09-10.93-4.12-8.46-14.86-13.46-24.09-11.21-6.56,1.6-12,8.1-11.19,13.89.35,2.62-.63,2.77-2.66,2.34-5.25-1.11-10,.44-14.67,2.71A6,6,0,0,0-110.2,41,17.32,17.32,0,0,0-107.42,50.35Zm320.91,56c-.47,1.39-2.39,2.25-.91,3.74a1.62,1.62,0,0,0,2.25,0c1.42-1.12,1.11-2.58.53-4-1.69-4-6.26-4.67-9-1.31a13.75,13.75,0,0,0-2.73,7.29,31.42,31.42,0,0,1-2.35,8.07c-2.87,7.07-8.54,9.23-15.89,8.37-.67-.08-1.6-.81-1.93.08-.42,1.14.88,1.16,1.54,1.42A20.85,20.85,0,0,0,209.5,123c4.13-5.74,8-11.67,14.44-15.27a13.37,13.37,0,0,0,3.25-3.25,4.13,4.13,0,0,0,.45-5.06,3.89,3.89,0,0,0-3.61-2,4.26,4.26,0,0,0-3.79,2.28,2.46,2.46,0,0,0,1,3.53,1.5,1.5,0,0,0,2.35-1c.17-.57-.56-1.71.83-1.44,1,.19,1.09,1.09,1.08,2a3.05,3.05,0,0,1-4.34,2.9,4.92,4.92,0,0,1-1.37-8.43c2.78-2.36,6-2.46,8.7-.28s3.15,4.93,1.41,8.23c-.79,1.5-1.07,2.44,1.09,2.79,3.17.52,5.66,2.46,7.92,4.55,5.07,4.7,5.4,10.78.94,16a9.47,9.47,0,0,1-9.1,3.11c-3.35-.5-4.78-3-5.62-5.94-.07-.26-.1-.54-.17-.8-.34-1.37-1.12-1.47-2.22-.8-2.09,1.26-3.53,5.34-2.68,7.67,2.29,6.28,6.19,7.8,12,4.69.78-.42,1.71-1.29,2.46-.65s-.21,1.63-.53,2.39a2.8,2.8,0,0,0,.57,3.48,3.23,3.23,0,0,0,3.8.47,7.18,7.18,0,0,0,2.74-2.59c1.32-2,2.63-4,3.91-6a.83.83,0,0,1,.61,1c0,2.93.44,3.17,3.2,2.23,4.32-1.47,6.53-4.86,8.48-8.69,1.63-3.18,1-6-.76-8.71-1.11-1.73-2.51-2.88-4.72-1.37-.76.52-1.66,1.16-2.76.66-.09-1.1.89-1.29,1.45-1.79a7.19,7.19,0,0,0,2.46-4.69c.74-5.75-3-12-8.85-14.49-3.54-1.54-7.48-1-10,1.82-1.87,2.09-2.44,1.12-2.68-.79-.53-4.29-6.72-5.57-10.81-3.9-4.3,1.75-5.21,4.48-3,9a10,10,0,0,1,.8,2.3,5.46,5.46,0,0,1-5.43,6.81c-2.52.06-4.53-1.71-4.34-3.82S210.45,106,213.49,106.38Zm-128.81-90c.07,6.72,5.73,10.36,12.18,7.86,3.42-1.33,4.94-3.49,4.73-6.79-.1-1.49-.39-3-2-3.57s-2.57.56-3.3,1.73c-1.1,1.76-1.74,1-2.39-.29a6.77,6.77,0,0,1,3-8.62c3.72-1.77,7.88-.29,10.78,4.29,1.38,2.19,1.93,2.64,3.91.45,3.53-3.91,8.24-3.19,9.84,1.13.21.57.64,1.25.09,1.77-.74.69-1.07-.26-1.54-.56-1.08-.69-2.18-1-3.26-.1a3,3,0,0,0-1,3.43A5.84,5.84,0,0,0,122.56,21c3.63-1.1,6.31-3.32,7.12-7.16C131,7.56,128.91,2,125.32-3c-1.69-2.37-4-4-7.22-3.29-1.2.27-1.65-.43-1.77-1.48a8.64,8.64,0,0,0-1.14-3.88c-1.65-2.58-3-2.7-5.11-.4s-2.11,2.35-3.81-.58c-1.86-3.21-3.55-6.57-6.81-8.69-2.94-1.91-5.62-1.66-8.17.73-3.26,3.05-3.84,5.45-2.24,8.68a17.24,17.24,0,0,1,1.24,3.58C91.83-2,89.77,3.53,86.82,8.86A16.23,16.23,0,0,0,84.68,16.35ZM267.4-7a4.22,4.22,0,0,1-.45.9c-.81.79-1.18,1.64-.41,2.64a1.79,1.79,0,0,0,2.19.63A2.47,2.47,0,0,0,270.3-5.2,3.16,3.16,0,0,0,268.92-8a10.92,10.92,0,0,0-7.25-2.61c-8.55.11-17,1.36-25.44,2.44a39,39,0,0,1-26.52-5.73c-4.47-2.78-9-5.45-13.66-7.93-6.48-3.45-13.37-5.44-20.7-3.41-8.85,2.44-16.7,7.49-25.46,10.24-.54.17-1.3.33-.81,1.31,1,2,2.72,2.44,4.51,1.08,3.82-2.89,7.55-5.9,12.09-7.68,7.37-2.88,14.89-4.89,22.76-2.81,4.74,1.26,9,3.85,13,6.67,5.64,4,11.38,7.81,17.83,10.36,8,3.17,16.06,1.84,24.13.24,5.35-1.06,10.72-1.95,16.16-.59a1.93,1.93,0,0,0,2-.4c.44-.43.91-1.17,1.58-.74.91.58,0,1.28-.13,1.92-.7,4,.92,6.28,5,6.92,1,.16,1.95.43,2.93.64,3,.64,4.84-.38,5.89-3.3,1.69-4.69-.22-8.84-5.11-10.7-3.75-1.44-6.86-3.29-7.38-7.8-.25-2.14-1.14-1.5-2.17-.36a19.35,19.35,0,0,1-13.94,6.42c-2.8.13-5.6.41-8.39.72-10.16,1.12-19.86-.1-29-5-5.22-2.79-10-6.31-14.94-9.44-6-3.77-12.55-5.72-19.67-3.81-3.24.86-6.38,2.08-9.52,3.26-8.58,3.21-17.12,6.56-26.11,8.48-3.72.79-7.5,1.33-11.28,1.77-2.66.32-2.54,2.22-2.56,4s1.32,2.76,3,2.89a19.4,19.4,0,0,0,3.78-.34c3.6-.44,6.52-2.67,9.87-3.77a246.49,246.49,0,0,0,25.29-10,28.4,28.4,0,0,1,23-.78,70.72,70.72,0,0,1,12.47,6.59c7.16,4.55,14.61,8.34,23.26,9.3,5.88.65,11.55-.86,17.32-1.29s11.69-1.66,17.62-1.24c4,.29,7.75,1.15,9.94,5.07a4.7,4.7,0,0,1-1.94,6.73c-1.83,1-3.36.1-4.82-.84a2.69,2.69,0,0,1-1.37-3.25C264.56-6,265.3-7.24,267.4-7ZM55.9,29.51a10.17,10.17,0,0,1-5.7-1.41c-4.27-2.64-5.43-6.63-4.88-11.25.53-4.45,2.77-7.64,7.38-8.66,1.91-.42,2.21-1.24,1.51-3.08C51.58-1.76,53.58-7.29,60-11.37c.72-.46,1.59-.87.78-1.84-2.91-3.48-6.43-7-10.94-6.84-6.69.27-13.42,3.66-14.59,11.39a4.34,4.34,0,0,0,1.09,4.15,7.24,7.24,0,0,1,.11,9.66c-1.55,1.75-3.68,2-5.26.51S29.54,2.08,31,.25c.72.27.67,1,.87,1.56.35,1,.64,2,1.93,1.88A2.57,2.57,0,0,0,36,1.46a3.79,3.79,0,0,0-1.26-3.94,4.12,4.12,0,0,0-4.33-.72c-5.18,1.81-6.43,9.29-1.89,12.93,2.09,1.68,2.16,2.47.24,4.15-1.35,1.18-1.34,2.92-.39,4.49.7,1.15,1.93,2.33,3.09,1.65,2.85-1.68,2.88.37,3.53,2.11,1.66,4.45,4.82,5.45,8.52,2.65,1.44-1.09,2.07-.6,2.58.75A12.22,12.22,0,0,0,48.52,30C50.78,32.36,54.18,32.21,55.9,29.51Zm-106,99.2c5.9-1.43,7.73-1.14,13.1,2.57a1.78,1.78,0,0,0,2.19.1c7.55-4.15,14.84-4.34,21.67,1.55,1.07.93,1.81.83,2.65-.33a8.13,8.13,0,0,1,5.16-3.29,3.5,3.5,0,0,1,3.83,1.43c.9,1.31,1.59,2.73.56,4.27a2.92,2.92,0,0,0-.38,3A1.77,1.77,0,0,1-2,140c-.72.63-1.07-.09-1.47-.58s-.76-.59-1.12-.08,0,.86.21,1.25c1.25,2.11,4.72,2.44,7.3.7,5.12-3.45,6.64-12,3.29-18.47C2.77,116.12-2.62,114-10,116.51c-1.53.53-1.51-.45-1.6-1.33a8.93,8.93,0,0,0-2.09-5.2c-4.66-5.24-13.1-4.31-16.92,1.82a13.77,13.77,0,0,0-1.9,9.43c-1.73-1.68-2.95-2.72-4.61-1.72a3.63,3.63,0,0,0-2,3.57,16.22,16.22,0,0,0,.63,2.63c.17.58.83,1.15.24,1.73s-1.21,0-1.73-.27C-43.72,125.48-47,126.67-50.12,128.71Zm284.28,57c-.68-1.55-.7-3.38-2.61-3.39a3.22,3.22,0,0,0-3.19,2.14c-.68,1.86.37,3.13,1.67,4.23a6.38,6.38,0,0,0,10.3-3.5c.94-4.84-3.8-9.7-8.68-8.88-1,.17-1.93.55-2.91.66-2.38.25-4.48-1.94-4.58-4.7-.09-2.31,1.43-4,3.49-3.95.59,0,1.51-.14,1.45.77,0,.65,0,1.86-1.35,1.49-.72-.2-1.28-.16-1.55.6a1.73,1.73,0,0,0,.66,1.94,3.25,3.25,0,0,0,4.66,0c3-2.6,2.24-8.06-1.45-9.91-3.2-1.61-5.24-.62-5.88,2.82,0,.11-.28.17-.48.27-1.08-1-1.21-2.39-1.78-3.59-3.49-7.33-10.94-11.18-18.31-9.43a4.69,4.69,0,0,0-2.85,1.44c-2.23,2.93-6.39,5-4.35,9.88.33.77-.17,2-.47,2.9-.51,1.65-.2,2.06,1.61,1.73,9.42-1.75,16.85,3.75,17.68,13.31.25,2.92.17,5.38,4,5.2a2.18,2.18,0,0,1,1.22.53c1.19.87,2.22,1.78,3.87.69s.75-2.24.68-3.41a5.48,5.48,0,0,1,7.7-5.49C235.19,181.11,235.77,183.11,234.16,185.75ZM46.24,158c.65.73,1.08,1.18,1.46,1.67,2.66,3.48,3.15,3.42,5.81-.08,4.47-5.87,7.82-12.42,11.39-18.82a7.33,7.33,0,0,0-5.42-10.63c-1.53-.19-1-.86-.7-1.62a27,27,0,0,0,1.84-4.22c2.1-8.34-1.83-15.09-11.18-17.72-4.85-1.36-9-.58-12,3.76-.28.41-.47,1.11-1.19.83s-.6-.85-.69-1.38c-1.32-7.21-5.74-7.7-11-7-6.1.76-9,5.68-7,11.4.68,1.93,1.3,2.28,2.94.77,2.11-1.94,5.21-3.37,7.37-1.43,2.84,2.56,5.12,1.78,8.24,1.18,8.85-1.7,16.25,5.2,15.57,14.14a5.09,5.09,0,0,0,1.95,4.85c5.78,5,5.66,16.55,0,21.58C51.66,157,49,157.09,46.24,158ZM171.43,28.41c1.15.77,1,1.65,1.08,2.43.36,2.41,2.19,3.35,4.29,2.1a7,7,0,0,0,1.93-1.87c2.24-3,3.18-6.56,2-10A23.35,23.35,0,0,0,174,11.1c-.82-.74-2.45.08-3-1.61.52-.2,1-.4,1.52-.56,3.43-1.14,4.33-3.42,2.53-6.46-4-6.75-15.39-11.08-22.74-8.52a36.72,36.72,0,0,0-4.71,2.42c-.66-1-.16-1.77,0-2.55.28-1.68.25-3.37-1.3-4.42s-3.13-.61-4.63.25A22,22,0,0,0,136-5.76a3,3,0,0,0-.61,3.22,49.49,49.49,0,0,1,2,7.9c.82,5.93.76,11.81-3.16,16.89-.9,1.17-2,2.22-3.38,3.81,4.42-1.91,6.27-5.1,7.62-8.77,1.86-5,3.69-10,5.76-15,1.69-4,6.48-6.88,10.54-6.38s5.82,3.64,6.73,7.25a3.58,3.58,0,0,0,2,2.34c7.35,4.27,9.5,12.49,5.44,19.93-2.3,4.21-5.13,7.63-9.88,9.18A4,4,0,0,0,156.22,39c.37,2.2,2.43,3.06,4.62,2.94a8,8,0,0,0,7.29-5.27C169.26,34,170.28,31.28,171.43,28.41Zm-108-2.53A10.43,10.43,0,0,0,61.6,19.6a4.14,4.14,0,0,0-4.79-1.7,3.64,3.64,0,0,0-2.74,3.37c-.28,2.11,1.42,3.6,3.32,2.73,1.68-.77,1.91-.09,1.93,1.26A24.64,24.64,0,0,1,59.25,28c-.51,4.69-4.15,7.33-8.36,6.07-2.6-.78-4.21-2.73-5.59-4.92-.52-.81-.75-1.72-2.24-1.16-4.19,1.6-7.65.42-10-3.33A5.78,5.78,0,0,0,30,22.22c-4.61-1.74-6-5-4-9.38a2.07,2.07,0,0,0-.42-2.42C21.4,4.62,23-2.3,29.45-5.52A4.83,4.83,0,0,0,32.4-9.64a10.33,10.33,0,0,1,2.09-5.53c8.55-10,18.39-11.07,27.25-1.21,1.85,2.07,3.55,3,6.31,2.42,1.78-.35,2-.67.91-2.11-5.37-7.27-12.13-12-21.47-12.7A19.92,19.92,0,0,0,27.14-16.13c-1.22,3.2-2.05,6.4-1.51,9.81.26,1.65-.49,2.13-1.93,2.12-.73,0-1.45,0-2.18.07-4.4.22-6,2.18-5.12,6.54a17.57,17.57,0,0,0,4.72,8.45c1,1.08,1.42,1.7,0,3-2,1.75-1.93,4.23-.78,6.53s2.88,3.29,5.37,2.5c1.78-.57,2.5.24,2.92,1.79a27.63,27.63,0,0,0,1,2.81,8.24,8.24,0,0,0,12.22,3.76c1.47-1,2.35-.92,3.42.34a19.21,19.21,0,0,0,2.15,2.08c3.28,2.79,6.89,2,10.25.46S63.64,30.25,63.44,25.88Zm45.34,146.6c.64,1.3,2,1.92,2.38,3.26a2.53,2.53,0,0,1-1.42,3.16,1.65,1.65,0,0,1-2.5-.79c-.27-.52-.86-1.62.69-1.15.53.16,1.07.52,1.35-.2s-.18-1.21-.71-1.62c-1.8-1.36-4.22-.06-4.34,2.57s.46,5.39,2.72,7.39c3.64,3.22,11.07,4,15.38,1.51a32.08,32.08,0,0,0,9.08-8.46c9.9-12.76,9.74-32.43-2.35-43-8.57-7.49-21.82-12.43-33.68-7-7.81,3.54-14.38,8.68-20.7,14.3-5.13,4.57-8.61,10.49-13,15.69-5.64,6.74-10.89,13.86-18.4,18.76-1.13.73-2.21,1.55-3.31,2.33,5.89-2.26,10.22-6.44,14.43-10.88,7.55-8,13.11-17.64,21.63-24.76,5.79-4.84,11.74-9.53,18.58-12.71,10.1-4.7,20-2.52,29.14,2.76,11.92,6.88,15.51,19.26,9.54,31.66A15.75,15.75,0,0,1,123,173.91,18.87,18.87,0,0,1,108.78,172.48ZM167,163.92a1.39,1.39,0,0,1-.13,1.57c-2.29,3.81-1.43,6.26,2.76,7.66,4.72,1.58,8.57-.48,11.94-3.4,1.44-1.25,1.92-2,2.72.39.72,2.17,2.53,2.71,4.65,1.88a6.35,6.35,0,0,0,3.88-4.9,10.89,10.89,0,0,0-2.55-10.36c-.55-.6-1.29-1.42-.81-2.14.63-.94,1.43,0,2.11.31,2.78,1.19,4.4.61,5.74-2.09,1.12-2.29.24-5.39-2-8-4.93-5.68-11.35-6.48-18.31-6-4.16.26-7.71,2.56-11.8,3-6.94.8-13.85,1-20.75-.52a14.88,14.88,0,0,0,12.39,3.3c5.61-1,11-2.86,16.76-3.4a17.29,17.29,0,0,1,10.7,2.32c3.1,1.83,3.89,4.82,4,8.13.09,3.08-1.69,4.85-4.29,6a4.64,4.64,0,0,0-2.29,2.19c-2,3.53-4.91,5.69-9.13,4.93s-6.84-3.93-8.76-7.51c-.7-1.3.28-2.48,1.62-3,1.09-.39,2.32-.25,2.78,1,.61,1.65-1.63.57-1.8,1.67,1.08.8,1.84.28,2.51-.58a4,4,0,0,0-1.27-6,6.6,6.6,0,0,0-8.38,1.37c-2.45,3.16-2.42,8-.1,10.58S164.24,164.8,167,163.92ZM52.72,166c3.85-3,6.54-7,9.45-10.71,7-8.94,13.46-18.24,23.35-24.43,12.21-7.63,24.58-11.54,37.85-2.68s19.06,16.67,17,34.1c-1.15,9.88-6.15,18.16-13.79,24.6a16.36,16.36,0,0,1-20.43.1c-3.15-2.59-5-5.93-4.21-10.27.12-.64,1-1.48.08-1.92s-1.66.42-2.16,1.19A6.28,6.28,0,0,0,99,180.4c.79,5.12,3.39,9.2,8.33,10.87,11,3.72,18.58.75,26.07-7a37.77,37.77,0,0,0,9.81-20.58c1.62-10,.1-19.32-6.71-27.31-2.73-3.2-6-5.75-9.15-8.49-8.35-7.27-18.2-8.85-28.73-8.16a12.82,12.82,0,0,0-3.37,1c-8.71,3.19-15.63,9-22.29,15.22-4.24,3.94-7.07,8.91-9.94,13.87C59.81,155.33,56.8,161,52.72,166ZM38.78,148.71c-.4,2.89,1.22,4.43,3.48,5.46,5.25,2.39,10.38-.11,12.43-6,2.12-6.07-.19-11.34-6-13.56-1.27-.49-1.48-1.1-.85-2.24a12.73,12.73,0,0,0,1-2.5c1.27-4.26-.46-7.71-3.35-10.56a9.68,9.68,0,0,0-10.89-1.63c-3.55,1.8-4.16,7.47-1,9.6,1.3.88,2.81,1.2,4,0a2.67,2.67,0,0,0-.11-3.91c-.44-.51-1.94-.68-1-1.71.68-.75,1.69-.14,2.45.42a4.19,4.19,0,0,1,1.69,4.8,5.11,5.11,0,0,1-4.5,3.82,4.84,4.84,0,0,1-5.1-2.42,10.9,10.9,0,0,1-1.45-6.54,4.2,4.2,0,0,0-3.1-4.56c-4-1.46-7.39,1.24-6.79,5.49.63,4.44,1,8.84-.67,13.15-.59,1.54-1.35,3.17.55,4.33s3.76,1.45,5.6,0c1.14-.89,2.17-1.91,3.26-2.88,4.14-3.68,8.83-5.18,14.32-3.75,4.64,1.2,7.39,6.84,5.75,11.85C47.08,149.72,44.23,150.74,38.78,148.71Zm-1,36.7c.37.12.54.25.69.22a14.46,14.46,0,0,0,1.82-.51A67.76,67.76,0,0,0,57,175.56c10.32-7.69,18-17.77,25.92-27.72a34.27,34.27,0,0,1,7.76-7.16c9.39-6.33,24,0,25.64,11.28.75,5.25-.61,10-5,13.3-3.94,2.94-8.13,2.47-12.3.34-.38-.19-.81-.48-1.23,0,1.71,5.67,5.64,7,10.38,3.49,1.46-1.08,2.79-.77,4.33-.26A10.27,10.27,0,0,0,122.93,167c5.51-4.56,6.2-10.52,4.88-17-1.73-8.46-11.73-14.11-20.31-14.54-7.94-.4-15.16,2.49-21.46,7.3-7.41,5.66-12.85,13.23-19,20.12-6.41,7.19-12.92,14.26-21.65,18.76C42.94,182.91,40.43,184.11,37.81,185.41ZM114.6,12c-4.18,3-3.51,9.93.91,12.69,6.86,4.27,17.26-.31,19.25-10,1.35-6.54-1.28-12.31-3.94-18-1-2.23-2.53-4.79-4.61-5.55-3-1.11-2.27-3-2.16-4.95a15,15,0,0,0-.26-4.86,3.93,3.93,0,0,0-3-2.83,1.59,1.59,0,0,0-2.14,1.11c-.25.72.1,2-.92,2s-1.14-1.26-1.64-2-.88-1.37-1.32-2.06c-4-6.25-9.79-8.74-17-7.73a23.35,23.35,0,0,0-11.67,5.52c-.69.57-1.38,1.16-1.21,2.26.3,1.88-.64,1.53-1.67.86a28.75,28.75,0,0,0-4.59-3c-4.09-1.76-6.52-1.43-8.52,2.42-.47.9-1.08,1.82-.19,2.75s1.68.1,2.46-.25c3.34-1.49,6.81-2,9.84.29,2.62,2,3.78,1.19,5.48-1.18,4.1-5.69,10.78-6,15.71-1a23.75,23.75,0,0,1,4,5.17c.36.65.66,1.19,1.67.73,5.24-2.36,8.24-1,9.92,4.56a3.11,3.11,0,0,0,2.72,2.52A9.76,9.76,0,0,1,128-4,28.81,28.81,0,0,1,132.65,6.9c.88,4.7,0,9-3.14,12.75s-8.79,4.84-12.53,2.57C113.92,20.37,113,16.7,114.6,12ZM244.53,72.54a17.83,17.83,0,0,0,12.39-5.47,8.13,8.13,0,0,0,2.35-6.45,22.48,22.48,0,0,0-4.42-11c-2.5-3.48-9.24-5.46-13-4.14a3.61,3.61,0,0,0-2.59,3.71,2.15,2.15,0,0,0,1.51,2.07c.78.3,1.6.15,1.84-.62.85-2.66,1.81-.8,2.53,0a4.66,4.66,0,0,1,1.13,4.76c-1.81,6.29-7.84,7.76-12.88,2.51-2.52-2.62-3.69-2.67-6.1-.27-1.38,1.37-1.6,2.21-.42,3.54,1.62,1.83,3.06,3.91,5,5.39C235.56,69.48,239.35,72.57,244.53,72.54ZM28.6,190.58c2.34,0,4.68.07,7,0a10.21,10.21,0,0,0,2.89-.72c15.12-5.49,28.16-14,38.62-26.38,3.81-4.49,7.21-9.36,11.59-13.33,3.74-3.4,7.89-5.86,13.32-4.14,5.28,1.68,7.29,7.15,4.27,11.78-2.12,3.25-5,4.69-9.2,2.91,4.44,6.15,12,5.93,15.43,0,2.65-4.6,1.92-9.28-.71-13.44a13.67,13.67,0,0,0-11.72-6.34c-6.87-.06-11.9,4-16.14,8.92-2.83,3.29-5.09,7.06-8,10.32a117.82,117.82,0,0,1-26.64,22.65A58,58,0,0,1,28.6,190.58ZM-16.46-27.24l-.68,1.62a2.12,2.12,0,0,0,.93,3c1.36.71,2.44.17,3.25-1a4.5,4.5,0,0,0,.7-2.58,6.22,6.22,0,0,0-4.85-6.11,7,7,0,0,0-7.52,3.62c-3.59,7.08-1.29,14.13,5,18.29a11.94,11.94,0,0,0,17.23-5c.79-1.72,1.33-1.48,2.4-.3A19.28,19.28,0,0,0,11.16-9.94c.92.18,2.69.62,1.8-1.36a46.63,46.63,0,0,1-3-11.8c-.12-.74-.3-1.59-1.23-1.52a40.58,40.58,0,0,0-7.25.87C-.08-23.34-.17-21.28-.95-20c-3.4,5.59-13.2,7.41-18.31,3.33a5.32,5.32,0,0,1-2-5.79C-20.73-24.72-19.64-26.65-16.46-27.24ZM123.2,29.65c-3.6,0-6.65-1.32-9.79-2.85s-6.44-1.88-9.24,1.11a12.8,12.8,0,0,1-4.36,2.74q-9.11,4-18.19,8a32.08,32.08,0,0,0-10.77,7.23c-1.48,1.59-2.21,3.36-1.24,5.45a19.81,19.81,0,0,0,4.17,6.32,15.61,15.61,0,0,1,3.15,4.72,4.13,4.13,0,0,1-1.18,5.55,34.61,34.61,0,0,1-9.66,5.48c-5.7,2.29-11.36,4.68-17,7a24.72,24.72,0,0,0,5-.81c8.65-2.13,17.17-4.66,24.86-9.33,4-2.41,4.26-4.13,1.83-8-1.89-3-4.5-5.46-6.54-8.35s-1.78-5.3.87-7.68a11.37,11.37,0,0,1,2.63-1.92C88.53,39.2,99.17,33.62,111.2,31.69,115.2,31.05,119.2,30.33,123.2,29.65ZM-19.31,143.59c1.5,1.19,2.91,2.16,2.9,4.14a2.7,2.7,0,0,1-1.93,2.7,5,5,0,0,1-5.07-1,5.42,5.42,0,0,1-1.88-4.87,9.15,9.15,0,0,1,4.58-7.33c1.67-1,1.06-1.49-.15-2.12-4.58-2.37-11.57,1.14-12.34,6.24-.22,1.48-.12,3,1.14,4,.74.61,1.76,1.05,1.82-.57,0-.6-.13-1.12.67-1.08a1.25,1.25,0,0,1,1.16,1,2.74,2.74,0,0,1-.91,2.94,2.42,2.42,0,0,1-3.25-.06c-1-.73-1.81-2.27-3.07-.11s.5,2.41,1.55,3A36.13,36.13,0,0,1-26,156.36a7.39,7.39,0,0,0,7.55,1.83c3.5-.92,6.19-3.14,6.92-6.63.82-3.93.56-8-2.41-11.26a5,5,0,0,0-6.21-1c-2.25,1.59-3.65,5.56-2.68,7.66a4.16,4.16,0,0,0,.57.92,2,2,0,0,0,2.68.52c.95-.56.94-1.43.53-2.38C-19.32,145.41-20,144.88-19.31,143.59ZM8.1,58.13c2.49-.44,4.27-1.15,3.17-3.59-1-2.21-2.87-2.19-4.85-1.37a6,6,0,0,0-2.84,8.45c1.8,3.47,5.53,4.66,8.68,2.72a9.18,9.18,0,0,0,3.67-4.26c.45-1,.87-1.21,2-.72,3.48,1.46,5.67.06,6.46-3.67a6.59,6.59,0,0,0-1.58-6c-.53-.61-1.25-1.25-.2-2,.86-.61,1.7-1.22,1-2.41a2.41,2.41,0,0,0-2.81-1.17c-1.67.41-2-.43-2.15-1.84a6,6,0,0,0-8.38-4.38,3.41,3.41,0,0,0-2.23,2.83A15.2,15.2,0,0,1,4.7,49.51c1.54-.23,2.58-.46,3.63-.53a6.77,6.77,0,0,1,6.85,4.33,4.59,4.59,0,0,1-1.34,5.42C12.16,60.15,10.38,59.86,8.1,58.13ZM-16.53,42.22c1.52-1.6,1.66-2.15,1-4.24-2.24-7.48-12.34-11.88-19.35-8.42-5.64,2.79-10.65,12-9.89,18.12.17,1.38.91,1.81,2.14,2a9.8,9.8,0,0,1,6.42,3.73c1,1.18,1,3.37,2.57,3.64,1.69.31,2.3-2.08,3.79-2.7,2-.83,1.38-1.67.29-2.89a11.35,11.35,0,0,1-1.08-14.28,7.32,7.32,0,0,1,8-3.26,7.79,7.79,0,0,1,5.66,6.29C-16.82,40.85-17.14,41.63-16.53,42.22Zm263.45-57.7a38.41,38.41,0,0,1-3-3.63c-.89-1.44-1.55-1.49-3-.51-5,3.48-10.75,4.34-16.64,3.39-5.41-.87-10.36-3.21-15.24-5.69-4.57-2.32-8.19-6-12.53-8.63-6.11-3.75-12.42-6.3-19.83-4.5-6.36,1.54-12.61,3.43-18.82,5.45-9.66,3.16-19.3,6.38-29.62,6.64-.88,0-2.59-.4-2.26,1.4.23,1.33,1,2.51,2.81,2.29,3.42-.4,6.85-.59,10.25-1.26,10.84-2.16,21.09-6.09,31.13-10.52s19-3.05,27.62,3.31A88.84,88.84,0,0,0,215.33-17.3C225.59-12.89,236-14,246.92-15.48ZM189.16,179.19c-.42-.79,1-2.09-.24-3-1.68-1.29-5.06-.23-5.92,1.8-2.22,5.18-1.38,10,2.16,14.24,3.72,4.52,8.47,6.81,14.4,5.74,4.2-.76,6.68-3.49,7.55-7.61a8.52,8.52,0,0,0-3.84-9,4.94,4.94,0,0,0-5.86,0,3.41,3.41,0,0,0-1.19,4.16c.8,2.14,2.53,2.94,4.74,2.9.54,0,1.37-.63,1.55.41.12.67-.48,1.13-1,1.53-1.89,1.53-5.38,1.49-7.65-.17C190.27,187.55,188.94,183.85,189.16,179.19Zm-37.63-66.68a5,5,0,0,1,1-5,7.86,7.86,0,0,1,12.62,1.66,10.39,10.39,0,0,1,.67,8.17c-.27.83-.81,1.75.2,2.46a2.61,2.61,0,0,0,2.83.12c2.81-1.43,6.44-8.5,6-11.65-1-6.34-5.34-10.73-11.61-11.42-4.82-.52-9.47,0-13,3.93C147.06,104.36,147.42,110.14,151.53,112.51Zm-4.07-91.12c-2.51,5,.53,9.9,5.9,10.77,6.18,1,9.82-2.56,12.6-7.14,2.5-4.13,2.29-8.69.21-13-.9-1.87-2.85-2.78-4.67-3.58-1.46-.64-2.2.94-3.25,1.53a5.69,5.69,0,0,1-8.05-3.06A4.41,4.41,0,0,1,154.65,1c.45,0,1,0,1.16.53s-.23.79-.61,1a7.05,7.05,0,0,0-1.35.9c-1.15,1.15-1.74,2.47-.23,3.73s2.84,1.21,3.95-.46a5.36,5.36,0,0,0,.31-5.91c-1.07-1.94-2.79-2.44-4.86-2.18a7.87,7.87,0,0,0-6.15,4.41c-2.23,4.13-3,8.81-5.32,13.65,1.17-.74,1.71-1.05,2.22-1.41C147,13,150.54,11.54,154.69,12c7,.77,10.23,7.07,6.67,13.12-1.78,3-4.57,4.54-7.68,4a6.39,6.39,0,0,1-5.63-5.78C148,22.85,147.76,22.36,147.46,21.39ZM16.89,206c-2.31-.6-4.65-.89-6.68-2.1-2.47-1.48-4.13-3.39-4-6.55s2.34-4.48,4.66-5.79a2.65,2.65,0,0,1,3,.45,1.5,1.5,0,0,1,.52,2.26c-1-.17-1.27-1.62-2.39-1.15a1.05,1.05,0,0,0-.47.86c.12,1.17,1.13,1.55,2,2a2.8,2.8,0,0,0,3.06-.4,5.62,5.62,0,0,0,2.63-5.34,6.43,6.43,0,0,0-4.09-5.36c-1.74-.79-3.36-.54-4.25,1.15-1.21,2.3-2,1.73-2.89-.11a1.86,1.86,0,0,0-.55-.6c-1-.73-2.32-2.05-3.32-1.23s.64,1.74,1.12,2.57c2.06,3.56.24,7.86-3.5,8.06a3.57,3.57,0,0,1-3.48-2.16,2.75,2.75,0,0,1,.05-3.09c.32-.44.74-.86,1.36-.7s.61.58.36,1.06c-.61,1.13-.67,2.27.78,2.57s2.08-.87,2.48-2c.7-2-.33-3.81-2.73-4.91-2-.94-3.67-.66-4.87,1.38A6.51,6.51,0,0,0-3.68,195c.93,1.1,2.09,2,3.13,3,.46.45,1,.95.67,1.65s-1,.67-1.63.61c-.83-.08-1.71-.2-2.12.75a2.72,2.72,0,0,0,.57,2.79c1.68,2.29,4.15,2.73,7,1.33,1.16-.56,2-1.75,3.75-2-1,2.35.14,3.54,1.9,4.23A6.81,6.81,0,0,0,16.89,206ZM4.73,66.69c-2.39,0-4.14,1.09-6,2-3,1.5-5.92,3.2-9,4.41-5,1.94-10,2.59-14.91-.39A6.86,6.86,0,0,1-28.48,66c.11-2.18.85-4.08,3.15-5,1.74-.66,3.91.13,4.34,1.62a1.43,1.43,0,0,1-.57,1.67c-.32.23-.83.2-.88-.22-.24-2.22-1.43-1.79-2.56-.85a2.44,2.44,0,0,0-.45,3.62c1.13,1.61,4.59,2.3,6.78,1.38a4.66,4.66,0,0,0,2.73-5.57c-1.15-5-4.93-7.45-9.9-6.33a8.71,8.71,0,0,0-6.25,10.06A15.4,15.4,0,0,0-17.09,79C-7.36,79.43-1.53,73,4.73,66.69Zm272.54,1.8-.36-.6-9,6c-6.27,4.26-13.59,4.79-20.76,5.76-9,1.22-17.81.66-25.8-4.11a52,52,0,0,0-22.79-7.47c-8-.63-16-.84-23.61,2.2-.79.31-2.35.37-1.76,1.8.45,1.11,1.52.45,2.38.19C188.52,68.4,201,68.94,213,75.55a61.55,61.55,0,0,0,29.67,8C256.18,83.59,267.09,76.6,277.27,68.49ZM-33.54,70.55a7.75,7.75,0,0,0,1.64,4.7c6.58,10.06,16.18,14.57,26.64,7.09,6.55-4.68,13.33-9.09,19.63-14.13a61.74,61.74,0,0,1,13.05-7.77c6.68-3,13.7-5.34,20.16-8.89.65-.36,1.88-.48,1.55-1.52s-1.39-.62-2.15-.44a80.33,80.33,0,0,0-16.17,5.58A9.2,9.2,0,0,0,26.41,59a7.37,7.37,0,0,1-5.26,3.56,11.12,11.12,0,0,0-5.75,2.8,9,9,0,0,1-5.66,2.4,6.69,6.69,0,0,0-4.09,1.86C2,72.66-1.41,75.9-5.47,78.38-15.71,84.63-27.95,81.2-33.54,70.55Zm241-97.14c-2.3-3.16-5.75-4.84-8.82-7a35.4,35.4,0,0,0-23.21-6.21c-7,.53-13.8,2.78-20.6,4.87-12.34,3.8-24.69,8.13-38,6.92-.59-.06-1.38-.31-1.68.45s.34,1.16.71,1.66a2.45,2.45,0,0,0,2.16.93c3.26-.11,6.56,0,9.78-.4A231.6,231.6,0,0,0,172-35.59c8.73-2.93,16.94-2.25,24.8,2.59C200.28-30.83,203.86-28.73,207.41-26.59ZM107.23,88.61a2,2,0,0,1,2.64.28A6.36,6.36,0,0,1,112.06,95a4.44,4.44,0,0,1-3.87,3.72c-1.73.3-2.34.94-2.2,2.62a7.23,7.23,0,0,1-.33,2.14,2.62,2.62,0,0,0,1.21,2.82c.91.64,1.76,0,2.47-.55,5.85-4.23,9-9.83,8.48-17.18-.28-4-4.76-8.1-8.66-8.11s-8.35,4.46-8.53,8.54c-.14,3.26,1.13,5.61,3.64,6.7,2.78,1.21,5,.79,6-1.13s.18-3.65-2.64-5.33C107.51,89.16,107.45,89,107.23,88.61Zm-56,86a5.66,5.66,0,0,0,3.26-1.85c5.95-5.49,11-11.84,16.48-17.74S81.82,142.8,89,138.63c9.21-5.33,18.57-7.24,28.74-2.42a24.81,24.81,0,0,1,11.11,10c4.67,7.91,1.39,19.11-6.65,23.62-2.65,1.49-5.49,1.61-9.12,1.57a12.49,12.49,0,0,0,7.15.93c7.2-1.13,11.49-7.26,12.19-14.48.78-8-2.06-14.87-8.19-20.35-7.53-6.74-22.08-8.89-30.63-3.73a107,107,0,0,0-21.49,16.58C64.81,157.84,59.55,167,51.19,174.57Zm19.23-173C72.64-1.7,71-5.6,67.2-6.11A7.18,7.18,0,0,0,59.34-.18,11.76,11.76,0,0,0,65.9,11.88c6.28,2.91,16.17-.89,19.8-7.61,4.06-7.52.84-15.23-5-20.13a6.23,6.23,0,0,0-8.2.47c-.73.79-1.09,1.2.28,1.94,9.29,5,10.6,15.94,2.86,23.16-2.84,2.64-8,2.59-11.28-.12S60,1.81,62-1.44C63.36-3.65,66.39-5,68.28-4,70.57-2.89,71-.86,70.42,1.55Zm-140.1-15c.93.6.69,2.54,2.35,1.76a1.42,1.42,0,0,0,.7-2,2.26,2.26,0,0,0-2.88-1.38c-2.29.54-3,2.42-2,4.93,1.64,3.84,5.28,4.33,8.7,5.17.77.19,1.72.51,2.31-.2s-.18-1.36-.42-2c-1.61-4.32-.51-8.9,2.73-11.29,1.77-1.3,3.8-1.68,5.6-.53A5.74,5.74,0,0,1-50-13.48c-.1,1-.64,2.24-1.7,2.16-1.6-.12-.46-1.39-.46-2.12a2.85,2.85,0,0,0-1.73-2.82,1.5,1.5,0,0,0-2,.41c-1.14,1.33-1,4.48.52,5.45,3.78,2.44,6.79,2.5,8.93-1.92C-43.6-18-49.3-24.88-54-25.59c-1.18-.17-2.77,0-3.27,1-2.19,4.06-5.52,4.82-9.69,4.12a2,2,0,0,0-2.21,1.65c-.19,1.15,1,1.07,1.67,1.43,1.46.83,2.8,1.76,3,3.59a2.88,2.88,0,0,1-1.64,3.15c-1.09.51-2.26.92-3.31,0A1.82,1.82,0,0,1-69.68-13.5ZM237.05,74.14c-6.33-5.14-6.74-5.33-13.79-6.63-3.39-.62-6.69-1.62-10-2.36-8.72-1.91-17.34-4.57-26.52-2.75-6.38,1.27-15.56,4.24-19.31,6.89a14.08,14.08,0,0,0,5.63-.85,73.21,73.21,0,0,1,14.37-2.81c10.4-.83,20.63-.46,30.25,4.23,2.36,1.15,4.59,2.58,7,3.64C228.56,75.24,232.63,74.92,237.05,74.14ZM154,35.86c-7.08-1.81-10.55-5.39-10.74-10.85-.17-5,5.15-9.12,9.31-7.15.67.32,1.41.64,1.43,1.47,0,1.11-1,.88-1.61,1a2.19,2.19,0,0,0-2,2.47,4.27,4.27,0,0,0,5.4,4.13,6.88,6.88,0,0,0,4.82-6,6.81,6.81,0,0,0-4.42-6.24c-4.27-1.44-10.84.81-14.4,4.92s-3.83,10.1-.9,14.13C143.57,37.5,148.32,38.34,154,35.86Zm89.09,144.73c1,8.39-1.89,11.69-10.15,11.87-.66,0-1.23,0-1.59.72s1,6.21,1.69,6.48a1.54,1.54,0,0,0,1-.12c3.52-1.43,7-2.86,10.55-4.32a2.54,2.54,0,0,0,1.79-2.19c.25-3.29,2.09-5.65,4.31-7.91,3.34-3.39,3.37-7.94.36-11.55a3.4,3.4,0,0,0-3.92-1c-1.56.46-2.85,1.41-3,3.14s.26,3.32,2,3.75c2.12.51,2-1.39,2.34-2.76,0-.06.14-.1.46-.3.81.76,1.33,1.62.6,2.73C248,181.47,245.71,181.52,243.05,180.59Zm-39.89,36.52c-3.77.93-7.55,1.84-11.32,2.8a16.62,16.62,0,0,1-10.64-1c-3.2-1.33-4-3.16-3-6.55a18.76,18.76,0,0,1,1.14-2.75c1.41-3,.74-4.82-2.36-6a24.19,24.19,0,0,0-9.87-1.67c-8.41.49-16.87.13-25.23,1.5-3,.5-6.12.79-9.17,1.2-.63.08-1.36.2-1.52.94s.62,1,1.17,1.21a9,9,0,0,0,5.22.94c6.11-.85,12.23-1.5,18.35-2.2,4.42-.51,8.82-1.27,13.28-1.12,7.3.24,8.78,2.15,6.69,9-.85,2.81,0,4.43,2.25,5.94a10.76,10.76,0,0,0,5.83,1.87A40.34,40.34,0,0,0,203.16,217.11ZM113.21,112.76c1.38-.31,2.27-.48,3.13-.72a2.18,2.18,0,0,0,1-.5c4.32-4.41,8.74-8.74,10.39-15,1.62-6.1-.48-11.67-2.69-17.14-2-5.06-2.64-10,.36-14.86a7.73,7.73,0,0,1,10-2.82,7.33,7.33,0,0,1,3.77,9.14c-.94,2.59-3.1,3.06-5.9,3.28,3.35,1.69,5,1.25,6.39-1.28A9.47,9.47,0,0,0,137.36,61c-3.52-2.75-8.18-2.45-11.67.76-5.48,5-6.82,12.5-3.17,20.83,4.33,9.87,1.9,18.16-5.08,25.66C116.16,109.65,114.86,111,113.21,112.76Zm148.49,70.5c-.36-.94.44-1.36.75-2,1.47-2.87.77-7.43-1.47-9.33s-4.9-1.25-5.86,1.15c-.47,1.15-.33,2.25.89,2.76s1.79-.33,1.92-1.51c.05-.52.05-1.22.84-1.05.58.13.76.75.83,1.3.22,1.85-.86,2.86-2.38,3.53-.75.32-1.6.47-1.79,1.45-.32,1.68-1.09,3.44-.8,5,.2,1.11,2.32.36,3.37,1.12.22.15.5.23.72.38,1,.7,2.71,1.41,2.09,2.73s-1.9-.12-2.84-.41c-3.26-1-6.39-.23-7.54,2-.34.65-.71,1.35-.29,2.06s1.31.44,2,.31c5.08-1,10.14-2,15.37-1.66,1.21.1,2.24-.36,2.38-1.69a7.35,7.35,0,0,0-2.46-6.34c-1.66-1.56-3.37-1.47-5,.19C262.31,183.4,261.94,183.27,261.7,183.26Zm-80.52-51a.75.75,0,0,0,.7.85c5.49,1.5,11.12,2.32,16.68,1.05a30,30,0,0,0,19.37-13.86,17.67,17.67,0,0,1,6.65-6.67c5.28-2.76,12.1-.59,14.1,4.49,1.3,3.29-.53,7.15-4.1,8.65-2.75,1.15-4.23.24-5.73-3.47,0-.11-.3-.14-.57-.27a3.77,3.77,0,0,0,.25,5,4.81,4.81,0,0,0,5.54,1.88,9.54,9.54,0,0,0,6.34-6.91c1.26-4.4-1-7.56-4.34-10-4-3-8.4-3.75-13-1.69-5.47,2.44-8.23,7.42-11.24,12.2-3.44,5.49-8.25,9.27-14.84,9.91a36.77,36.77,0,0,1-11.61-.93A7.25,7.25,0,0,0,181.18,132.25ZM66.85,70.57a13,13,0,0,0,5-1.88c3.52-2,3.93-4,1.62-7.29-1.65-2.38-3.24-4.81-4.9-7.19-3.72-5.37-3.44-7.81,1.9-11.48,8-5.52,16.85-9.57,25.9-13.11a16.41,16.41,0,0,0,7.78-5.69c3.28-4.64,2.51-9.71-2-13.14-2.08-1.59-3.75-1.34-5,1,3-.76,5,.38,6.46,2.86s1,4.82-.36,7.16a11.46,11.46,0,0,1-6.41,5.18,121.55,121.55,0,0,0-14.48,6.21c-6.36,3.19-12.43,6.75-17,12.39-2.24,2.75-2.25,5.11,0,7.83a56.4,56.4,0,0,1,3.61,4.41C73.12,64,72.91,65.29,66.85,70.57ZM206.1,218.38a70,70,0,0,1-9,2.66c-5.31,1.2-10.75,2.77-16.1,1.34-6.77-1.82-9.55-4.52-7-10.63,1.1-2.59-.62-4.9-3.48-5.14-1.53-.13-3.08,0-4.62,0-8.94-.2-17.67,1.53-26.42,3-.92.15-2.15.26-2,1.73.14,1,.52,2,1.76,2.07A11.57,11.57,0,0,0,142,213a190.12,190.12,0,0,1,23.56-4c3.46-.33,5.24,1,6,4.34.4,1.86.77,3.73,1.19,5.58.66,2.9,2.48,4.43,5.42,5C188.16,225.67,197.25,222.6,206.1,218.38ZM69.13,61.84c-.59,4.13-3.29,5.94-6.29,7.44-1.7.84-3.47,1.54-5.2,2.34-3.75,1.74-8,1.78-11.8,3.13A38.57,38.57,0,0,1,30.6,77C19.9,76.42,9.94,79.25.23,83.29a45.06,45.06,0,0,0-9.12,4.84c-1.55,1.12-1,1.8.38,2.45a2.69,2.69,0,0,0,2.35-.17c8.48-3.69,17.05-7.15,25.81-10.15,5.06-1.73,10.05-3.67,15.61-2.46a13,13,0,0,0,5.14-.21c8.79-1.68,17-4.93,25.19-8.51a10.17,10.17,0,0,0,3.88-3.34C70.31,64.63,70.53,63.46,69.13,61.84ZM202,50.22c-.19-1-.3-2-.58-2.9-2.19-7.2.2-13,5.62-17.72a21.56,21.56,0,0,1,7.9-4.11c1.76-.56,1.77-1.19.42-2.29a9.59,9.59,0,0,0-11.38-1c-.94.55-2.1,1.15-2.24,2.22s1.35.87,2,1.44c.45.41,1.24.66,1,1.41s-1,.62-1.62.64-1.46-.08-2.17,0c-2.22.21-4.28.69-5.39,3a2.9,2.9,0,0,0,.46,3.71,2,2,0,0,0,2.69.55c1.51-1-.32-2.06,0-3.29,1.9.12,2.45,1.42,2.48,2.9,0,2.06-.72,3.83-3,4.21-1.92.32-2.58,1.52-2.73,3.17-.18,2,0,4.16,2.12,4.82A7.66,7.66,0,0,1,202,50.22Zm-69.68,63.63c-1.62-6.82-1-13,2.84-18.72.58-.85.14-1.42-.46-2.12-2.17-2.55-2.52-4.79-.76-7.41,1.25-1.88.85-2.58-1-3.68-6.33-3.74-6.93-9.91-1.62-14.78.25-.23.59-.53.88-.52.6,0,.56.59.6,1,0,.63,0,1.27.11,1.9a2.06,2.06,0,0,0,1.44,2.08c1.08.27,1.66-.5,2.17-1.27a4.22,4.22,0,0,0-.44-5.49,4.73,4.73,0,0,0-5.85-1.51,8.58,8.58,0,0,0-4.69,10.18c1,3.57,2.45,7,3.52,10.55,2.58,8.55,3.79,17.15.46,25.82C128.32,113,128.48,113.22,132.28,113.85ZM225.74,64.6A4.4,4.4,0,0,0,223,62.27c-5.56-2.19-11.65-1.39-17.31-3.06a1.53,1.53,0,0,0-.8.11c-2.89,1-5.39,0-7.64-1.7a8.6,8.6,0,0,0-6.12-1.69,51,51,0,0,0-8.57,1.4c-6.42,1.69-12,5.17-17.58,8.45-1.49.87-3.32,1.26-4.65,2.68,1.12.63,1.93.05,2.76-.18,3.07-.86,5.83-2.47,8.73-3.73a54.74,54.74,0,0,1,24.33-4.68c5.46.23,10.72,1.75,16,3A69.22,69.22,0,0,0,225.74,64.6ZM174.53,98.84c1.72,2.4,4.07,4.18,5.61,6.67,4.33,7,1.74,20.45-5.3,26.34-7.5,6.26-16.45,7.49-25.81,6.7a42.4,42.4,0,0,1-7.67-1.48,31.88,31.88,0,0,0,8,2.66c7.77,1.54,15.53,1.41,22.5-2.57,8.46-4.83,12.28-13,13.95-22.29a4.15,4.15,0,0,0-1.55-3.87,6.92,6.92,0,0,1-2.66-4.9C181.5,101.43,178.13,100,174.53,98.84Zm20,88.53c.36-.62-.06-1.09-.19-1.59-.84-3.39.23-6.57,2.76-8.17a7.21,7.21,0,0,1,8.58,1.06,14.8,14.8,0,0,1,4.85,8.31c.11.5,0,1.21.73,1.33s1.14-.46,1.38-1.07a5.33,5.33,0,0,0,.39-1.56c.43-5.71-2.83-14-12-14.32-3.54-.15-6.61,1-8.47,3.92a9.94,9.94,0,0,0-.25,10.38C192.82,186.51,193.4,187.37,194.57,187.37Zm21-36.58c2.31,2.82,4.69,3.73,8.08,3a113.33,113.33,0,0,1,31.89-2,33,33,0,0,0,11.53-1.51c1.79-.5,3.13-1.48,2.34-3.77-2-5.79-7.3-8-12-11.88a3.35,3.35,0,0,0,2,2.63,23.6,23.6,0,0,1,7,7.51c1.9,3.14,1,5.26-2.72,5.63a65,65,0,0,1-9.76.25c-8.4-.46-16.68-2.61-25.16-1.7C224.44,149.47,220,149.14,215.56,150.79ZM199.63,97.21c-.09.72-.16,2-.39,3.24-1,5.06-7.17,9.09-12.09,7.88-.76-.18-1.4-.53-1.47-1.38-.09-1,.66-.86,1.3-.85,1.17,0,2-.56,1.93-1.76a2.33,2.33,0,0,0-2.18-2.1c-2.12-.38-3.72,2-2.91,4.27a8,8,0,0,0,7.31,5.16,13,13,0,0,0,12.8-10.84c.85-5.42-3.54-12.48-8.87-14.31a1.42,1.42,0,0,0-2,.82c-.44,1,.58.89,1.07,1.08C198.4,90.08,199.76,92.09,199.63,97.21ZM6.3,78.22c3-.93,6-1.63,8.69-3.32C24,69.23,32.83,63.14,42.77,59c2.7-1.13,5.51-2.23,7.91-4.44C38.4,56.34,22.54,63.87,6.3,78.22ZM-43.54,56.86c3.77,1.12,5,3.48,3.61,6.21a4.65,4.65,0,0,0-.4,3.37c.83,4,3.23,7,5.63,10.15-.5-2.23-1.93-4.13-2-6.43a34.47,34.47,0,0,1,.06-7c.68-4.06-.86-7.06-3.74-9.6-2.34-2.06-6.11-2-7.88.12a6.59,6.59,0,0,0,.86,8.63c1.64,1.29,3.43,1.38,4.94-.05s.8-2.78-.37-4A7.16,7.16,0,0,1-43.54,56.86Zm30.38-15.55c1.05-7-2.18-12.14-7.44-16s-11.24-3.13-16.73-.23c-8.69,4.58-13.11,14.53-11.5,25,0,.11.27.18.63.39,1.16-2.45,1-5.12,1.52-7.64,2-10.35,7.26-15.95,16.83-16.78C-20.72,25.27-12.57,31.63-13.16,41.31ZM88.53,27.19a7.34,7.34,0,0,0-1-.11,14.73,14.73,0,0,0-1.62.13c-12.25,1.63-19.6,10.12-26.45,19.16A4.48,4.48,0,0,0,59.76,52c2.22,2.86,5.49,4.46,8,6.95a17.86,17.86,0,0,0-3.42-4.58C61.29,51,61.21,48.27,64,44.62a32.86,32.86,0,0,1,6.91-6.46C76.43,34.06,82.47,30.78,88.53,27.19ZM-39.69,160.06c-5.42.72-9,4-11.44,8.53a5.94,5.94,0,0,0,.05,5.75q1.59,3,3.34,5.9c2.55,4.24,1.67,7.67-2.7,9.9a25.22,25.22,0,0,1-5,2c-2,.53-2.72,1.92-3.13,3.67-.33,1.39.32,2,1.6,1.57,9.89-3.16,18-8.57,9.73-19.94l-.15-.22c-3.24-5.22-2.09-10.72,3-14.2C-42.86,162-41.26,161.05-39.69,160.06Zm75.84-11.82c.05-.29.17-1.18.36-2.07.34-1.61.52-3.16,2.73-1.22,1.36,1.19,3.16.68,4.4-.68a3.38,3.38,0,0,0,.13-4.5,5.29,5.29,0,0,0-4.17-2.23c-3.74-.32-6.87,2-8.1,5.89s.44,10.32,3,11.78a2.51,2.51,0,0,0,2.8-.3c1-.66.19-1.47-.15-2.14A8.93,8.93,0,0,1,36.15,148.24Zm-91.74,51.34c6.12.13,10.51-3.34,14.25-7.32A8.53,8.53,0,0,0-40,182.11a24,24,0,0,0-3-4.84c-3.84-4.29-3.25-7.75,1.71-12.38a50.68,50.68,0,0,1,4.63-3.45,4.87,4.87,0,0,0-3.15.63c-7.28,2.7-11.07,9.41-5.35,16.19a12.84,12.84,0,0,1,2.61,6.51c.73,5.12-2.35,8.12-6.11,10.65C-50.88,196.92-53.27,198.2-55.59,199.58ZM81.46,114a49,49,0,0,0,5.13-.88c3.23-.87,5.06-5.62,3.4-8.53-1.2-2.1-3.14-2.3-5.2-1.84a3.39,3.39,0,0,0-2.65,3.38A1.81,1.81,0,0,0,83,108c.7.38,1.21,0,1.58-.57.27-.45.63-.68,1.1-.33s.37.78.33,1.24a3.58,3.58,0,0,1-4.38,3c-4.82-1-6.67-6.6-3.57-10.74.51-.68,1.65-1.22,1.09-2.26s-1.66-1-2.66-1.06c-2.71-.15-3.42,1.17-2.27,3.84.52,1.22,2.2,2,1.25,3.83C73.09,109.43,75.88,113.93,81.46,114Zm-42-33.93c-8.1-1-15.94.57-23.82,3.23C9.27,85.45,3.49,88.6-2.5,91.37c-.8.37-2.1.7-1.86,1.68a6.73,6.73,0,0,0,2.94,3.76c1,.67,1.53-.65,2.1-1.25C7,89,15,85.36,23.52,83,28.75,81.6,34.21,81,39.42,80.07ZM-4.12,64.79C-1,64.83.74,63,.13,60.3c-.2-.91-.53-1.92-1.61-1.91s-1.11,1-1,1.84c0,.47.14,1-.41,1.13s-.85-.16-1.18-.5a2.7,2.7,0,0,1,.46-4.42,5.3,5.3,0,0,1,2.57-.78c2-.16,2-2.08,2.15-3.28S-.25,51.6-1,51.55a12.14,12.14,0,0,1-4.24-.86c-2.74-1.22-3.44-1-4.52,1.89a13.32,13.32,0,0,0-1.08,4.75C-10.86,61.4-7.85,64.74-4.12,64.79Zm255,106c-.58-2.7-.83-3.23-2.17-4.89-2.07-2.55-4.27-3.26-7.19-2.32-4.53,1.46-6.83,4.39-6.64,9.5.08,2.27,3.11,1.48,4.43,2.81,1,1,1.64.3,2.09-.86C243.52,169.68,245.18,168.94,250.89,170.83ZM89,89.72c1.14.81,6.76,1.8,7.72,1.38a2.12,2.12,0,0,0,.95-.9c1.32-2.54,1.77-5.19.2-7.75A7.31,7.31,0,0,0,91,78.82c-2.82.12-5.53,3.54-4.91,6.06.34,1.37,1,2.72,2.65,2.63s2.3-1.25,2.23-2.84c0-.44-.13-1,.57-1C92.91,86.27,92.36,87.66,89,89.72ZM259.57,133c4,3.54,8.27,6.74,11.2,11.34,4,6.32,2.48,10-4.79,11.87a47.82,47.82,0,0,1-10.51,1c-.7,0-2.18,0-1.42,1.11,1,1.47,1.76,3.53,4.16,3.44a24.06,24.06,0,0,0,14.92-5.75,5.07,5.07,0,0,0,1.56-6.15A31.94,31.94,0,0,0,259.57,133ZM91,115.29l.26.4c2.35-1.12,4.73-2.16,7-3.38.77-.42,1.82-.89,1.3-2.29-1.5-4.08-1.41-4.23,2.23-6.62,1.94-1.27,1.69-3.17.94-4.84A3,3,0,0,0,98.68,97a2,2,0,0,0-1.39,2.35c.07.3.37.76.61.79,1.49.18.18-1.66,1.45-1.87,1.1.89,1.44,2,.31,3.11a2.12,2.12,0,0,1-3.16-.28c-1.41-1.44-2.2-3.09-1.11-5.14.44-.81.41-1.76-.57-2-1.29-.36-1,.83-1.21,1.56s-.18,1.39-.57,1.77c-1.55,1.48-1,2.68,0,4.22,2.84,4.19,2.7,7.39-.23,11.49C92.27,113.75,91.64,114.51,91,115.29Zm-21-125.45a22,22,0,0,1,4.18,7.49A5.34,5.34,0,0,1,72.33,3.4c-1.82,1.5-3.93,1.29-5.88.31C65.33,3.15,64,2.24,66.13,1.1a1.66,1.66,0,0,0,.9-2,1.09,1.09,0,0,0-1-.8A2,2,0,0,0,64.11-.47c-1,1.74-.27,5.52,1.58,7.3a5.36,5.36,0,0,0,6.47,1.22A10.54,10.54,0,0,0,73.79-9.67,3.44,3.44,0,0,0,70.08-10.16ZM-101.62,127c2.94-5,6.49-5.46,10.36-1.95a13.22,13.22,0,0,1,2.35,3.3c2.53,4.36,5.86,7.75,11.27,7.77A19.85,19.85,0,0,0-66,132.17s-.1-.27-.15-.42c-6.85,4-15.42.91-19.76-3.86a52.54,52.54,0,0,0-7.76-6.76,5,5,0,0,0-5.88-.21C-101.54,122.17-101.94,124.17-101.62,127ZM267.9,152.11c-7.86,2.13-15.86.81-23.77,1.3-7,.43-13.9,1.3-20.49,3.85-.73.28-1.78.37-1.35,1.57.31.88.87,1.72,2,1.3a8.55,8.55,0,0,1,5.34,0,1.94,1.94,0,0,0,2.13-.76,14.3,14.3,0,0,1,11.44-4.64c5.07.15,10.14.5,15.21.51A14,14,0,0,0,267.9,152.11ZM242.64,54.87a19.5,19.5,0,0,1-2.63-.41,5.29,5.29,0,0,1-3.83-4.2,5,5,0,0,1,1.55-5.21c3.84-3.12,8.07-4.31,12.9-2.38,4,1.61,6.76,4.62,9,8.27a1.68,1.68,0,0,0,.07-1.74c-1.83-5.68-5.86-8.78-11.64-9.63-6-.88-10.08,1.94-13,6.87A7.28,7.28,0,0,0,237,56.5C239.27,58.24,241.12,57.76,242.64,54.87ZM84.71,44.79c6.09-1.91,12.26-3.61,18.46-5.23a50.53,50.53,0,0,1,20.47-1.27,13.9,13.9,0,0,1,7.78,4.17c.41.42,1.14,1.06,0,1.36-.8.22-1.74.07-1.66,1.25.07,1,.91,1.29,1.73,1.47a2,2,0,0,0,2.25-1.15,4.48,4.48,0,0,0-.85-5.28A10.88,10.88,0,0,0,126,36.67c-6.09-1-12.13,0-18.13.76C99.75,38.45,91.84,40.38,84.71,44.79Zm-136,16.12a18.15,18.15,0,0,0-6.29-8.4c-8.42-6.25-17.86-2-20.59,7.14a8.59,8.59,0,0,0,6.39,10.49c-.83-.91-1.48-1.59-2.1-2.32a7.87,7.87,0,0,1-1.66-8.09,10.44,10.44,0,0,1,13.16-6.94A18.72,18.72,0,0,1-51.29,60.91Zm72.38,39.67c-1.72-1.18-3.79-1.3-5.57-2.14C14.4,97.91,13,97.59,12.86,96s.92-2.48,2-3.3a27.33,27.33,0,0,1,6.07-3c5-2.08,10-4.2,15.61-6.53-2.14.21-3.67.35-5.2.52-7.12.77-13.63,3-18.85,8.14-1.39,1.39-2.64,2.82-2,5C11.74,100.75,17.29,102.76,21.09,100.58Zm133.72,88.14a18.45,18.45,0,0,0-1.6-2.07c-.62-.58-1.46-1-2.16-.23s0,1.34.44,1.9a2.25,2.25,0,0,0,2.88.82,2.67,2.67,0,0,0,1.92-2.94,6,6,0,0,0-1.76-3.89c-1.68-1.39-3.58-2.79-5.89-1.75a4.07,4.07,0,0,0-2.43,5.15c.15.58.38,1.42-.29,1.74-.9.42-1.22-.49-1.59-1.08-.46-.75-1-1.36-2-1a2.66,2.66,0,0,0-1.73,2c-.26,1,.39,1.42,1.18,1.84,3.86,2.1,3.85,2.12,2.68,6.48.64.56,1.39.11,2.09.21,2.14.33,3.07-.19,1.69-2.42a11.74,11.74,0,0,1-1.31-5.51,4.19,4.19,0,0,1,2.57-4.14,3.41,3.41,0,0,1,3.85.34C154.65,185.16,155.67,186.41,154.81,188.72ZM119.94,114a1.84,1.84,0,0,0,1.62.82,18.2,18.2,0,0,1,12.81,6.94,25.29,25.29,0,0,0,9.62,6.89c7.17,3.26,13.75,2.27,19.76-2.72.57-.48,2-1,1-2a1.9,1.9,0,0,0-2.9,0c-2.3,2.18-5.23,3.24-8.16,4.19a15.83,15.83,0,0,1-18.11-7C132.82,116.42,125.86,113.2,119.94,114ZM-37.66,186a13.36,13.36,0,0,1-4,9c-.47.47-1.77.88-.91,1.84.56.61,1.33-.1,1.93-.49,5.94-3.94,7.12-10.55,2.89-16.21-.54-.72-1.1-1.44-1.61-2.19-2.79-4.05-2.47-7.48,1.09-10.87a34.38,34.38,0,0,1,3.24-2.45c.54-.41,1.52-.64.91-1.61-.42-.65-1.16-.47-1.73-.18a15.6,15.6,0,0,0-7.8,8.36c-1.16,3,1.46,4.6,2.66,6.71.45.79,1.08,1.46,1.57,2.23A10.75,10.75,0,0,1-37.66,186Zm73.94-11.44c3.75-2,7.15-3.53,9.55-6.41,2.2-2.64,1.19-7.06-1.78-8.73-2.11-1.18-3.91-.48-5.34,1.15a3.7,3.7,0,0,0-.13,5,2.3,2.3,0,0,0,3.12.82c1.08-.61.89-1.62.41-2.62-.26-.55-1.6-1-.61-1.66s1.71.18,2.24,1a3.29,3.29,0,0,1-1.25,4.87,4.75,4.75,0,0,1-3.94,0c-.71-.22-1.65-.6-1.4.68C37.53,170.46,36.86,172.13,36.28,174.52Zm-63.1-87.44A23.83,23.83,0,0,1-33,83.19c-4.91-4.17-7.91-9.58-10.43-15.34-.48-1.1-1-2.44-2.44-2s-.76,1.9-.47,2.79c2.77,8.41,7.53,15.19,15.9,18.9C-29.33,88-28.2,88.52-26.82,87.08Zm271,70.27c-3.1.45-6.5.65-9.17,3-.91.81-1.8,1.82-.81,3s1.74-.19,2.42-.67c5.18-3.62,9.7-3.19,14.06,1.35a12.59,12.59,0,0,1,2.55,4.12c.32.82.74,1.49,1.8,1a1.71,1.71,0,0,0,1.15-2.14C255.32,162.43,249.19,157.32,244.16,157.35Zm-2.11-80.53c9.89-.08,19.08-2.31,27.06-9-1.74-1-3.39-1.86-5-2.8-1.07-.62-1.75-.42-2.44.66a21.61,21.61,0,0,1-4,4.73C253.14,74.36,247.68,75.76,242.05,76.82Zm14.17-95.93c4.47-.85,7.55-6.7,7.11-10.23-.47-3.84-5-6.09-8.18-3.84a2.9,2.9,0,0,0-.78,4.3c1,1.58,2.37,1.35,3.68.16.44-.4.68-1.61,1.6-.81.59.52.3,1.37,0,2.06a2.38,2.38,0,0,1-2,1.61c-1.24.14-1.46.87-1.23,1.92A9.26,9.26,0,0,1,256.22-19.11ZM-31.32,165.36a2.11,2.11,0,0,0-2.49,0c-6.2,2.57-7.64,8.06-3.5,13.3,5.12,6.45,5,11.11-.36,17.42-.48.56-1.57,1.07-.78,2s1.46.2,2.17-.27c6-3.91,7.07-11,2.52-16.44a17.26,17.26,0,0,1-3.32-5.24c-1.26-3.53-.68-5.79,2.23-8.19C-33.78,167-32.59,166.26-31.32,165.36ZM159.18,65.12a6.08,6.08,0,0,0,4-.69c2.27-1.14,4.54-2.28,6.71-3.58,6.36-3.84,13.08-6.56,20.59-7.06a4.25,4.25,0,0,0,2.83-.82,7.8,7.8,0,0,0-5.09-1.3c-4.76.67-9.5,1.48-13.76,3.91q-5.9,3.35-11.71,6.85C161.62,63.14,160.11,63.46,159.18,65.12Zm-266.81,88c2.75,1.69,4.42,3.72,3.87,7a1.45,1.45,0,0,0,1.16,1.83,1.77,1.77,0,0,0,2.2-.47c3.09-3.8.66-11.05-4.13-12.27a4.87,4.87,0,0,0-5.87,3.55c-.3,1.28-.09,2.56,1.3,2.86C-107.07,156-108.29,154.09-107.63,153.09ZM35.92,164.64c-.47-3.72,1.52-5.7,4.23-7.42-2.48-.59-3.44.95-4.54,2.26-.9,1.06-1.66,1.45-2.23-.32s-2.14-2.22-3.73-1.92c-2,.37-4,1.19-4.47,3.43a6.54,6.54,0,0,0,2.07,6.43c1,.91,2.18.66,3.28,0a2.38,2.38,0,0,0,1.3-2.49c-.16-1.52-1.36-1.44-2.43-1.58a3.73,3.73,0,0,1-.76-.33C31.2,160.68,31.73,160.82,35.92,164.64Zm138.33,36.29c-15.12-4.06-30.11-1-45.13.09l0,1.35C144.2,203,159.16,198.26,174.25,200.93Zm-34.9-162c-1.81-3.27-6-4.87-10.72-4.07A14.36,14.36,0,0,1,136,41.05a5.8,5.8,0,0,1-.34,6.65c-1.31,1.69-3.23,1.51-5,.88-2.08-.75-3.47-2-2.49-4.54.23-.59.63-1.34-.26-1.59s-1,.65-1.2,1.2a4.18,4.18,0,0,0,.39,4.14c1.9,2.86,6.42,3.84,9.18,2a7,7,0,0,0,2-9.17c-.43-.74-1.43-1.16-1.31-2.27C137.91,37.73,138.43,39.24,139.35,38.9ZM42.67,148.23c3.58-.85,4.66-2.54,4.34-6.38-.35-4.09-2.53-6.82-5.94-7-6.66-.27-12.36,2-13.47,9.64A18.43,18.43,0,0,1,27,146.9c-1.64,5.81-5.5,7.67-11,5.13-2.06-1-4-2.22-6-3.34,2.08,3.82,5.44,5.3,9.51,5.52a7.12,7.12,0,0,0,7.54-4.63c.76-1.74,1.47-3.51,2.08-5.31a17.46,17.46,0,0,1,2.64-5.64,8.59,8.59,0,0,1,8.56-3,6.87,6.87,0,0,1,5.71,5.56C46.8,144.38,45.35,146.64,42.67,148.23Zm147-106.34c.09,4.23,1.64,7,5,8a2.68,2.68,0,0,1,2.16,2.22,6.62,6.62,0,0,0,6.39,4.59c.75-.07,1.58-.15,1.73-1,.18-1-.75-1.11-1.45-1.18a4.57,4.57,0,0,1-3.62-2.54,4.64,4.64,0,0,0-1.39-1.63c-5.61-3.63-6.15-4.87-4.44-11,.51-1.83-.82-2.72-1.81-3.2-1.15-.55-1.49,1-1.75,1.86A37.82,37.82,0,0,0,189.67,41.89ZM-12.88-5.33c.24,1.18,1.27,1.5,2,2.06C-4.65,1.23,2.67,1.42,9.85,2.14c.93.09,2.37.32,2.46-1,.1-1.52-1.43-1.29-2.45-1.36A43.24,43.24,0,0,1-7.48-5,5.81,5.81,0,0,0-12.88-5.33ZM54,57.11C47.36,58.54,26.37,70,23.89,73.38,33.74,67.63,45.47,65.39,54,57.11ZM187.72,49.4a3.46,3.46,0,0,0-3.8-1A35.89,35.89,0,0,0,173,52.34c-4.85,2.79-9.6,5.82-15,7.56-.58.19-1.77.08-1.54,1.09a1.81,1.81,0,0,0,2.13,1.29,9.94,9.94,0,0,0,2.73-1.16c3.44-2,6.78-4.18,10.27-6.1A43.76,43.76,0,0,1,187.72,49.4ZM-102.12,166.18c.34,1.38.17,2.77,1.25,3.87A5.76,5.76,0,0,1-99,173.58c.16,3.16,1.48,2.78,3.37,1.37a10.53,10.53,0,0,1,1.2-.63c1.73-1,1.55-2.53.18-3.14-1.93-.86-1.44-1.82-.94-3.13.39-1,.55-2.11-.95-2.21-2-.14-3.84-1.79-5.87-.34C-102.15,165.61-102.1,166-102.12,166.18Zm349,38.43a2.17,2.17,0,0,0-.78,0c-4.43,2.09-8.85,4.19-13.24,6.34-.66.32-1.88.42-1.59,1.49.22.8,1.29.87,2.09,1C239,214.47,245,210.54,246.88,204.61Zm-312.63-70c-1.24-.5-1.94.28-2.67.67-6.46,3.45-12.7,4.08-18.62-1.12-.37-.33-.83-1-1.34-.34s-1,1.48-.44,2.24a8.61,8.61,0,0,0,2.14,2c5,3.29,10.16,2.93,15.25.45C-69.43,137.54-67.1,136.81-65.75,134.58ZM71,24.57c1.16-6.38.06-8.4-5.93-10.78a9.38,9.38,0,0,1-2.14-1.15c-3.13-2.33-6.59-1.85-9.87-.83a7.46,7.46,0,0,0-5,8.61c1.84-6.35,6-9.16,11.92-7.56S69.39,18.88,71,24.57Zm190.6,180.31a13.75,13.75,0,0,0,11.56-5.41c.53-.64,2-1.44.95-2.33a2.6,2.6,0,0,0-3.23.52,8,8,0,0,0-.8,1.08c-3.45,4.44-7.72,5.36-12.61,2.63-.91-.5-1.75-1-2.79-.48-.47.21-1.16.24-1.27.86s.52.89,1,1.15A13.79,13.79,0,0,0,261.56,204.88ZM-35.19,92.45c.43,0,1.12.17,1.36-.41.36-.9-.59-1-1.07-1.24-2.56-1.37-4.91-3-7.36-4.58A114.94,114.94,0,0,1-51.77,79c-1-.77-1.8-.7-2.46.42s.13,1.55,1,2c4.27,2.39,8.11,5.41,12.11,8.2A17,17,0,0,0-35.19,92.45ZM64.51,34.1c4.56-3.32,4.85-11,.84-15.47-3.54-3.95-7.43-5.11-11-3.24-2.6,1.34-3.22,3.76-3.29,6.41s.36,3.48,2.32,4.52c-.32-.71-.66-1.34-.89-2a6.86,6.86,0,0,1,2.73-8.12c2.44-1.44,6.28-.61,8.36,1.84a11,11,0,0,1,1.79,3.62C66.86,25.92,66.11,30,64.51,34.1Zm-125,83-.73.06c-.6-10.14.11-20.31-.29-30.46-.47,10.77-1.41,21.55.09,32.52,1.87-.69,1.83-2,1.81-3.24-.11-4.71-.53-9.43-.31-14.12.26-5.62-.65-11.17-.57-16.77Zm233.14,5c-6.29,4.35-11.94,9.88-20.52,11.23C162.51,134,170.28,129.71,172.63,122.09Zm100.65,67.16c.08.4-.85,2.21,1.14,2.28s1.88-1.84,1.9-3.23c0-4.57-3.93-9.62-8.44-10.78-.73-.18-1.78-.7-2.19.25s.76,1.18,1.42,1.54A11.1,11.1,0,0,1,273.28,189.25ZM-67.57.65A80.43,80.43,0,0,0-38.71,8.24C-48.26,5.4-57.93,3-67.57.65ZM40.11,176.29C26.94,182.59,13.5,181.14,0,177.6,13.58,182.94,27,183.33,40.11,176.29ZM-95.81-9.75a55.84,55.84,0,0,0,8,9.21c4.43,4.35,9.79,7.5,14.56,11.38,2.38,1.92,5,2.48,7.83,3C-76.64,7.32-87.45.42-95.81-9.75Zm52.67,25.66C-53.85,13.24-62,6.83-71.44,3.12c4.27,2.93,8.59,5.74,13,8.4S-49.41,16.35-43.14,15.91ZM-72.34,125c-.86,1.36-.66,2.74-.64,4.07s.3,2.29,1.82,2.09c1.36-.18,2.25-.71,2.18-2.46-.43-10.77-.73-21.55-1.1-32.32-.13-4-.35-7.93-.53-11.9,0,14.56.19,29.12.94,44.07-1.2-.81-.74-1.57-1.09-2.08-.27,1.16.19,2.43-.55,3.9C-72.29,128.51-71.61,126.68-72.34,125ZM156.79,58.3a24.33,24.33,0,0,0,11.66-5c4.82-3.58,10.24-5.21,15.94-6.39.53-.11,1.36.18,1.39-1a11.94,11.94,0,0,0-6.81.79C171,49.36,164.56,55.08,156.79,58.3ZM-12.06,138c-3.78-5.54-8.64-7.88-14.82-7.47a10.91,10.91,0,0,0-6.54,3,1.44,1.44,0,0,0-.27,2.16c.68.84,1.06-.06,1.48-.42,5.06-4.42,9.86-4.49,15.07-.23C-15.75,136.19-14.49,137.54-12.06,138ZM11.55-2A31.3,31.3,0,0,1-1.36-8.21c-.93-.78-1.8-1.21-2.89-.37C-5-8-6.31-7.89-6.33-7c0,1.27,1.45,1.46,2.37,1.89A35.75,35.75,0,0,0,11.55-2ZM81,95.9a2.86,2.86,0,0,0,.33,1.22c.6.77,5.76-.48,6.08-1.46.16-.5.09-1.2.76-1.27s.61.71.75,1.18c.19.67.54,1.27,1.32,1A1.55,1.55,0,0,0,91,94.45c-.48-1.74-3.27-3.13-5.65-2.85C82.62,91.93,81.08,93.34,81,95.9ZM-21.68,71.38c6,2.57,11-.36,16.11-3-3.53-1.27-6.9-1.86-10,1A8.56,8.56,0,0,1-21.68,71.38Zm-28.08,63.41c3.42-3.42,5.49-3.92,8.38-2a11.43,11.43,0,0,1,4.65,5.83c1.23,3.59-1.68,5.93-3,8.71a1,1,0,0,0,1.39-.11c2.54-2.41,3.58-7.45,2.21-10.84a9.51,9.51,0,0,0-9.14-6C-48.24,130.44-49.37,131.54-49.76,134.79ZM-60.29-.07A192.71,192.71,0,0,0-37.81,6.48a3.56,3.56,0,0,0,.8.07c.46,0,1,0,1.12-.54s-.24-.83-.66-1c-.83-.35-1.67-.68-2.53-1C-46,1.82-53.19,1.2-60.29-.07ZM66.6-9a7,7,0,0,0-9,2,11,11,0,0,0,.39,13.74C54.67-2.47,60-8,66.6-9ZM-77.53,2.36C-70.82,8.48-62.52,12-55,16.77c.57.35,1.49,1.2,2.14.19s-.43-1.22-1-1.53C-61.83,11.25-69.82,7.05-77.53,2.36ZM142,86.67c-.33-1,1.07-2.74-1.17-2.9-2.66-.2-5.74,4-4.84,6.58.44,1.23,1.2,1.83,2.48,1.18C140.44,90.52,142.92,89.84,142,86.67ZM-41.12,83c-4-4.18-5.7-9.08-8.15-13.95C-51,75.71-48.26,80.51-41.12,83ZM181.35,204.13c1.05,2.2.26,4.12-.58,6.06-.36.83-.63,1.69-.94,2.54-.79,2.25-.24,3.76,2.12,4.73,4.6,1.9,9.08.94,13.59-.13-1.78,0-3.54.39-5.33.53-6.18.5-9.56-3.53-7.92-9.33C182.74,207,182.9,205.39,181.35,204.13Zm89.48-78c.74-13.12-.1-26.22-.73-39.31C269.84,99.91,270.18,113,270.83,126.11ZM-118,19.38a110.34,110.34,0,0,0,0-28ZM8.91,92a15.72,15.72,0,0,0-4.73,4.22c-.74,1-.88,2,.62,2.55a23,23,0,0,1,7.64,5c.73.65,1.49,1.39,2.61,1.1a.74.74,0,0,0,.31-.63c-.4-.9-1.36-1.11-2.13-1.53C7.53,99.6,6.91,98.21,8.91,92ZM200.65-12.66c-.36,10.56,1.24,21,1.28,31.59A186.25,186.25,0,0,0,200.65-12.66ZM-114.69-4.75c-.83,10.5-2.07,21-1.83,31.55C-115.78,16.29-113.85,5.85-114.69-4.75ZM279.08,122.34c-.13-7.21,0-14.45-.06-21.69s1.18-14.22.16-21.33C277.79,93.66,279.34,108,279.08,122.34ZM128.79,100.46c-2,3.21-4,6.44-6,9.62-.73,1.12-.25,1.36.8,1.55,1.58.29,2.73.09,3.49-1.62A20.16,20.16,0,0,0,128.79,100.46ZM-57.27,84.53H-58q.47,15.61.92,31.22l1.3,0C-56.71,105.33-56.95,94.93-57.27,84.53Zm-6.6,37.93c1.33-.94,1.62-1.73,1.18-2.52-1.2-2.12-.8-4.42-.81-6.64,0-8.51,0-17,.06-25.53a4.61,4.61,0,0,0-.76-3.28C-64.91,97.45-63.27,109.7-63.87,122.46ZM257.31,91.22c.17,8.63.25,17.26,1.91,25.78C258.86,108.39,259.14,99.73,257.31,91.22ZM194.5,25.35c.8-13.8.86-27.61.61-41.43C194.77-2.27,193.73,11.53,194.5,25.35Zm20.29-5.91,1-.14L213.92-4.78l-1.16.11Q213.78,7.37,214.79,19.44Zm61.63,61.71c.58,12.21-.76,24.47.8,36.65C277,105.58,277.41,93.35,276.42,81.15Zm-88.28-52.4a271.58,271.58,0,0,0,1.88-39Q189.08,9.26,188.14,28.75ZM-74.32,142.36c-6.1,1.21-11.48,0-16-4.47a1.49,1.49,0,0,0-2.36.11c-1.06,1.13.2,1.59.83,2C-86.4,143.89-80.45,143.92-74.32,142.36ZM-64.25-3c-9-.84-16.41-5.86-24.27-9.62C-81.18-7.53-73.86-2.4-64.25-3ZM78.21,25.52l.45.57,4.86-1.37c.88-.25,1.26-.73.62-1.56C81.81,20.09,81.43,16.6,82,12.89,81.13,17.25,80.79,21.69,78.21,25.52Zm140.44-3.7c1.14-5-.17-22.61-1.77-24.62C216.47,5.55,218.74,13.59,218.65,21.82Zm-25.65,7c-.13-7.61-.37-15.23.16-22.8s-.07-15.16.59-22.72C192.59-1.59,192.74,13.6,193,28.77ZM181.41,1.85C183-8.24,183-18.85,181.41-21ZM204,17.64c.73-9.87-.78-19.6-1.71-29.36C203.11-1.95,203.26,7.86,204,17.64ZM162.27,194l.66,0q-.6-13-1.19-26A180.58,180.58,0,0,0,162.27,194Zm55.47-4c-5.14-.54-8.65,2.38-8.79,6.89-.1,3.26,1.64,5,4.9,5-1.94-.75-3.51-1.89-3.4-4.28C210.64,193.2,213.57,191.21,217.74,190ZM-56,84.45a308,308,0,0,0,1.73,31C-55.32,105.11-54.36,94.71-56,84.45Zm-.59-75.66c3.71,2.74,8.16,3.73,12.29,5.45.89.38,1.65.2,2-.77.39-1.22-.69-1.34-1.41-1.51C-48.09,11-52.41,10.12-56.63,8.79ZM41.15,44.55c-2.57.62-5.15,1.25-7.73,1.86-2.1.49-4.22.93-6.31,1.46-.62.16-1.26.61-1.08,1.34s1,.56,1.6.43A47.71,47.71,0,0,0,41.15,44.55ZM-110.61,33l1.38,0c-1.88-10.14,1.46-20.1.07-30.24ZM10.12-5.31c-3-2-6-3.94-9-5.88C.43-11.6-.34-12.46-1-11.51s.34,1.45.9,2A16.69,16.69,0,0,0,10.12-5.31Zm123.7,130.72A20.13,20.13,0,0,0,119,118.26C123.49,121.84,129.45,122,133.82,125.41Zm51.91-116c.24-8.92,1.41-17.8,1.11-26.73C185-8.48,185.84.49,185.73,9.4Z"/><path d="M60.26,226.16c-.83-3.77.45-6.67,3.83-8.41,1.77-.9,2.14-2.07,2-3.89a16.21,16.21,0,0,1,1.27-8.23c4.94-10.06,20.35-11.62,27-2.57,2.91,4,3.22,8.79,1.56,13.46-1.12,3.12-5.24,4.16-7.4,2.14-.83-.78-1.26-1.82-.44-2.62,1.23-1.21,1.07.56,1.51,1a1.8,1.8,0,0,0,2.47,0c1.3-.87,2.08-2,1.56-3.69-.88-2.81-5.33-5.19-8.2-4.4a6.14,6.14,0,0,0-4.33,7.6,21.24,21.24,0,0,0,5.29,9.62H83.67a28.57,28.57,0,0,1-4.83-9.06c-1.76-6.1,2.34-11.29,8.64-10.78l3.36.23c-1.2-.54-1.68-.78-2.19-1-8.19-3.13-14,1.12-13.55,9.83,0,.81.15,1.63.26,2.43.4,2.78.82,5.55,1.23,8.32H74.42c-.71-4.14-3.51-6.73-7-6.46-3.23.26-5.1,2.67-5,6.46Zm31.9-21.47c-6.48-6.83-12.74-6.47-20.17-.64-3.45,2.71-3.87,6.81-2.83,11,.26,1,.75,2,2,1.85s.87-1.19,1-1.94c.21-1.07.31-2.17.61-3.21,1.71-5.79,5-9.74,12.21-9.18A16.89,16.89,0,0,1,92.16,204.69Z"/></g></g></g></g></svg>